<svg xmlns="http://www.w3.org/2000/svg" width="112.348" height="60.265" viewBox="0 0 112.348 60.265">
  <g id="Group_996" data-name="Group 996" transform="translate(1020 8482.637)">
    <g id="Group_808" data-name="Group 808" transform="translate(-873 -6443.555)">
      <rect id="Rectangle_307" data-name="Rectangle 307" width="59.794" height="40" transform="translate(-146.731 -2039.083)" fill="#009"/>
      <path id="Path_5388" data-name="Path 5388" d="M39.054,7.1h1.723L39.388,8.146,39.925,9.8,38.542,8.783,37.159,9.8,37.7,8.146,36.3,7.1h1.721l.518-1.611Z" transform="translate(-155.449 -2040.36)" fill="#fc0"/>
      <path id="Path_5389" data-name="Path 5389" d="M39.151,41.84h1.724l-1.386,1.04.535,1.655-1.38-1.02-1.386,1.02.548-1.655-1.4-1.04h1.718l.523-1.611Z" transform="translate(-155.472 -2048.445)" fill="#fc0"/>
      <path id="Path_5390" data-name="Path 5390" d="M47.749,39.536h1.725l-1.39,1.04.54,1.65-1.383-1.016-1.388,1.016.547-1.65L45,39.536H46.72l.521-1.614Z" transform="translate(-157.472 -2047.908)" fill="#fc0"/>
      <path id="Path_5391" data-name="Path 5391" d="M47.749,9.392h1.725l-1.39,1.043.54,1.647-1.383-1.014-1.388,1.014.547-1.647L45,9.392H46.72l.521-1.611Z" transform="translate(-157.472 -2040.893)" fill="#fc0"/>
      <path id="Path_5392" data-name="Path 5392" d="M54.133,15.771h1.72l-1.385,1.04.539,1.657L53.625,17.45l-1.386,1.018.544-1.657-1.4-1.04H53.1l.523-1.608Z" transform="translate(-158.958 -2042.378)" fill="#fc0"/>
      <path id="Path_5393" data-name="Path 5393" d="M54.133,33.239h1.72l-1.385,1.04.539,1.652-1.383-1.014-1.386,1.014.544-1.652-1.4-1.04H53.1l.523-1.61Z" transform="translate(-158.958 -2046.443)" fill="#fc0"/>
      <path id="Path_5394" data-name="Path 5394" d="M56.526,24.374H58.25l-1.388,1.04.536,1.654-1.38-1.016-1.384,1.016.546-1.654-1.4-1.04H55.5l.522-1.613Z" transform="translate(-159.516 -2044.379)" fill="#fc0"/>
      <path id="Path_5395" data-name="Path 5395" d="M30.284,9.414h1.725l-1.39,1.043.539,1.65-1.383-1.019-1.384,1.019.546-1.65-1.4-1.043h1.716l.52-1.613Z" transform="translate(-153.409 -2040.898)" fill="#fc0"/>
      <path id="Path_5396" data-name="Path 5396" d="M24.077,15.8H25.8l-1.391,1.04.54,1.652-1.383-1.016-1.383,1.016.546-1.652-1.4-1.04h1.719l.521-1.608Z" transform="translate(-151.964 -2042.384)" fill="#fc0"/>
      <path id="Path_5397" data-name="Path 5397" d="M21.775,24.4H23.5l-1.384,1.041.538,1.651-1.383-1.016-1.382,1.016.542-1.651-1.4-1.041h1.717l.523-1.61Z" transform="translate(-151.428 -2044.385)" fill="#fc0"/>
      <path id="Path_5398" data-name="Path 5398" d="M24.077,33.262H25.8L24.412,34.3l.54,1.652-1.383-1.017-1.383,1.017.546-1.652-1.4-1.04h1.719l.521-1.611Z" transform="translate(-151.964 -2046.448)" fill="#fc0"/>
      <path id="Path_5399" data-name="Path 5399" d="M30.373,39.557H32.1L30.707,40.6l.538,1.649-1.38-1.016-1.386,1.016.547-1.649-1.4-1.043h1.719l.521-1.613Z" transform="translate(-153.429 -2047.913)" fill="#fc0"/>
      <path id="Path_5400" data-name="Path 5400" d="M145.088,34.335l0,0c0,.014,0,.026,0,.04Z" transform="translate(-180.765 -2047.072)" fill="#fff"/>
      <path id="Path_5401" data-name="Path 5401" d="M113.584,8a28.727,28.727,0,0,1,12.682,4.3s.1.072.257.17A29.211,29.211,0,0,0,84.648,6.346a20.624,20.624,0,0,1,10.887,5.976A28.764,28.764,0,0,1,113.584,8" transform="translate(-166.699 -2039.11)" fill="#1f60a9"/>
      <path id="Path_5402" data-name="Path 5402" d="M134.476,29.053c-.008-.091-.04-.491-.047-.573a28.008,28.008,0,0,0-5-13.664c-.153-.1-.252-.166-.256-.171a28.85,28.85,0,0,0-30.731.028,20.7,20.7,0,0,1,5.7,12.58,21.056,21.056,0,0,1-.012,3.679,20.7,20.7,0,0,1-6.988,13.683l.045-.04a51.326,51.326,0,0,1,33.133-6.156,18.228,18.228,0,0,1-3.952,2.528,61.974,61.974,0,0,0,7.215-2.8l0,0h0a26.835,26.835,0,0,0,.891-9.092" transform="translate(-169.608 -2041.462)"/>
      <path id="Path_5403" data-name="Path 5403" d="M134.418,32.465c-3.7-2.506-6.755-4.021-13.2-4.619a28.743,28.743,0,0,0-13.865,2.136,19.744,19.744,0,0,1,0,3.621A19.479,19.479,0,0,1,99.1,47.8c11.739-6.75,22.41-7.651,31.449-6.272.6.094,2.458.414,3.316.642a30.1,30.1,0,0,0,.554-9.7" transform="translate(-170.063 -2045.534)" fill="#fff"/>
      <text id="Eesti" transform="translate(-59.844 -1991.242)" font-size="6" font-family="ArialMT, Arial"><tspan x="0" y="0">Eesti</tspan></text>
      <text id="tuleviku_heaks" data-name="tuleviku heaks" transform="translate(-73.652 -1985.078)" font-size="6" font-family="ArialMT, Arial"><tspan x="0" y="0">tuleviku heaks</tspan></text>
      <text id="Euroopa_Liit" data-name="Euroopa Liit" transform="translate(-132.324 -1992.206)" font-size="6" font-family="ArialMT, Arial"><tspan x="0" y="0">Euroopa Liit</tspan></text>
      <text id="Euroopa" transform="translate(-127.605 -1986.012)" font-size="6" font-family="ArialMT, Arial"><tspan x="0" y="0">Euroopa</tspan></text>
      <text id="Regionaalarengu_Fond" data-name="Regionaalarengu Fond" transform="translate(-147 -1979.818)" font-size="6" font-family="ArialMT, Arial"><tspan x="0" y="0">Regionaalarengu Fond</tspan></text>
    </g>
  </g>
</svg>
