<svg xmlns="http://www.w3.org/2000/svg" width="19.799" height="19.799" viewBox="0 0 19.799 19.799">
  <g id="Group_1" data-name="Group 1" transform="translate(-553.601 -300.601)">
    <path id="Rectangle_3" data-name="Rectangle 3" d="M3,2A1,1,0,0,0,2,3V8A1,1,0,0,0,3,9H7A2,2,0,0,0,9,7V3A1,1,0,0,0,8,2H3M3,0H8a3,3,0,0,1,3,3V7a4,4,0,0,1-4,4H3A3,3,0,0,1,0,8V3A3,3,0,0,1,3,0Z" transform="translate(561.379 304.843) rotate(45)" fill="#00aeab"/>
    <rect id="Rectangle_2" data-name="Rectangle 2" width="11" height="11" rx="3" transform="translate(565.621 300.6) rotate(45)" fill="#00aeab"/>
    <path id="Rectangle_2_-_Outline" data-name="Rectangle 2 - Outline" d="M3,1A2,2,0,0,0,1,3V8a2,2,0,0,0,2,2H8a2,2,0,0,0,2-2V3A2,2,0,0,0,8,1H3M3,0H8a3,3,0,0,1,3,3V8a3,3,0,0,1-3,3H3A3,3,0,0,1,0,8V3A3,3,0,0,1,3,0Z" transform="translate(565.621 300.6) rotate(45)" fill="#00aeab"/>
    <path id="Line_2" data-name="Line 2" d="M14,1H0A1,1,0,0,1-1,0,1,1,0,0,1,0-1H14a1,1,0,0,1,1,1A1,1,0,0,1,14,1Z" transform="translate(557.5 318.5)" fill="#00aeab"/>
  </g>
</svg>
