<svg xmlns="http://www.w3.org/2000/svg" width="82.111" height="82.049" viewBox="0 0 82.111 82.049"><defs><style>.a{fill:none;stroke:#fee901;stroke-linecap:round;stroke-linejoin:round;stroke-width:2px;}.b{fill:#fee901;}</style></defs><g transform="translate(-914.944 -608.948)"><path class="a" d="M47.925,80.426a40,40,0,1,0-6.9.6" transform="translate(915.005 608.966)"/><path class="b" d="M37.07,47.8c4.11.447,11.755,1.353,18.549,2.7a30,30,0,1,0-47.06.221c6.884-1.325,14.311-2.082,18.965-2.78a75.992,75.992,0,0,0-.592-8.045,99.942,99.942,0,0,1-1.36-15.773c.04-5.633,1.1-9.458,2.916-12a8,8,0,0,1,5.965-3.708,5.709,5.709,0,0,1,5.39,2.512,5.618,5.618,0,0,1,.745,4.115,7.779,7.779,0,0,1-1.344,2.786l4.41,18.928L35.942,18.58a3.96,3.96,0,0,1-2.291-1.594c-.725-1.232-.615-2.574.327-3.154s1.807-.147,1.882.453c.08.64-.615,1.156-.366,2.053a1.329,1.329,0,0,0,1.324.81c.883-.036,1.676-1.581,1.6-3.1s-1.284-2.6-3.1-2.741-3.943,1.1-5.218,3.4c-1.259,2.273-1.936,5.017-1.885,9.737a82.15,82.15,0,0,0,1.351,15.132c.937,5.022,1.84,13.709,1.84,13.709l-1.034-.12c-4.592.134-11.435.368-18.6,1a30,30,0,0,0,40.669-.2c-5.137-.386-10.467-.65-14.045-.776Z" transform="translate(924 618)"/></g></svg>