<svg id="electrical_services_black_24dp" xmlns="http://www.w3.org/2000/svg" width="24" height="24" viewBox="0 0 24 24">
  <g id="Group_1294" data-name="Group 1294">
    <rect id="Rectangle_472" data-name="Rectangle 472" width="24" height="24" fill="none"/>
  </g>
  <g id="ic_electrical" transform="translate(-5412 9882)">
    <path id="ic_local_gas_station_24px" d="M14,5a2.006,2.006,0,0,0-2-2H6A2.006,2.006,0,0,0,4,5V21H14V5Zm-2,5H6V5h6Z" transform="translate(5410.75 -9882)" fill="#fff"/>
    <g id="Group_1297" data-name="Group 1297" transform="translate(5423 -9877)">
      <g id="Group_1295" data-name="Group 1295" transform="translate(0 4)">
        <path id="Path_5873" data-name="Path 5873" d="M20.25,13.75A.752.752,0,0,0,19.5,13H18v1.5h1.5A.752.752,0,0,0,20.25,13.75Z" transform="translate(-7.5 -6.25)" fill="#fff"/>
        <path id="Path_5874" data-name="Path 5874" d="M19.5,17H18v1.5h1.5a.75.75,0,1,0,0-1.5Z" transform="translate(-7.5 -7.25)" fill="#fff"/>
        <path id="Path_5875" data-name="Path 5875" d="M11.5,13.5H10v3h1.5A1.5,1.5,0,0,0,13,18h2.25V12H13A1.5,1.5,0,0,0,11.5,13.5Z" transform="translate(-5.5 -6)" fill="#fff"/>
        <path id="Path_5876" data-name="Path 5876" d="M3.75,10.75a1.5,1.5,0,0,1,1.5-1.5H6.375a2.625,2.625,0,1,0,0-5.25H.75a.75.75,0,0,0,0,1.5H6.375a1.125,1.125,0,0,1,0,2.25H5.25a3,3,0,1,0,0,6h1.5v-1.5H5.25A1.5,1.5,0,0,1,3.75,10.75Z" transform="translate(0 -4)" fill="#fff"/>
      </g>
    </g>
  </g>
</svg>
