<svg xmlns="http://www.w3.org/2000/svg" width="84" height="84" viewBox="0 0 84 84"><defs><style>.a,.c{fill:#fff;}.b{fill:#004088;}.b,.c,.d{fill-rule:evenodd;}.d{fill:#ffe800;}</style></defs><g transform="translate(208)"><rect class="a" width="84" height="84" rx="5" transform="translate(-208)"/><path class="b" d="M-201.789,2h71.579A4.264,4.264,0,0,1-126,6.3V77.7a4.264,4.264,0,0,1-4.21,4.3h-71.579A4.264,4.264,0,0,1-206,77.7V6.3A4.264,4.264,0,0,1-201.789,2"/><path class="a" d="M-142.107,73.682V69.251h1.072v4.431Zm-1.812,0V70.41h1.066v3.272Zm0-3.568v-.863h1.066v.863Zm-.555,3.568h-1.089c-.013-.053-.023-.106-.032-.163s-.018-.114-.026-.173a1.512,1.512,0,0,1-.481.333,1.409,1.409,0,0,1-.558.107,1.05,1.05,0,0,1-.749-.259.92.92,0,0,1-.275-.7.981.981,0,0,1,.216-.659,1.164,1.164,0,0,1,.651-.357c.161-.036.364-.075.612-.117.369-.06.554-.149.554-.265v-.079a.247.247,0,0,0-.107-.216.554.554,0,0,0-.318-.074.617.617,0,0,0-.362.093.414.414,0,0,0-.168.276h-.986a1.161,1.161,0,0,1,.459-.825,1.844,1.844,0,0,1,1.082-.271,2.211,2.211,0,0,1,.735.1.989.989,0,0,1,.468.32.927.927,0,0,1,.166.365,3.434,3.434,0,0,1,.048.682v1.24a1.2,1.2,0,0,0,.04.35.256.256,0,0,0,.12.166Zm-1.177-1.54a1.407,1.407,0,0,1-.434.145c-.1.02-.177.037-.229.051a.591.591,0,0,0-.273.138.311.311,0,0,0-.08.226.374.374,0,0,0,.108.281.392.392,0,0,0,.287.107.637.637,0,0,0,.448-.158.531.531,0,0,0,.173-.414Zm-4.46,1.54V70.41h1.03v.573a1.169,1.169,0,0,1,.427-.492,1.273,1.273,0,0,1,.65-.161v1.059c-.046-.006-.091-.011-.136-.014s-.088,0-.129,0a.984.984,0,0,0-.407.074.584.584,0,0,0-.258.227.781.781,0,0,0-.085.294,4.984,4.984,0,0,0-.026.618v1.1Zm-2.34,0V70.151h-1.269v-.9h3.673v.9h-1.27v3.531Zm-6.618,0V70.41h1.048v.449a1.115,1.115,0,0,1,.413-.4,1.211,1.211,0,0,1,.58-.13,1.068,1.068,0,0,1,.833.287,1.393,1.393,0,0,1,.257.938v2.127h-1.073V72.036a1.706,1.706,0,0,0-.1-.735.379.379,0,0,0-.354-.158.464.464,0,0,0-.412.188,1.081,1.081,0,0,0-.13.6v1.751Zm-1.817,0V70.41h1.066v3.272Zm0-3.568v-.863h1.066v.863Zm-.555,3.568h-1.09c-.012-.053-.022-.106-.032-.163s-.017-.114-.025-.173a1.512,1.512,0,0,1-.481.333,1.41,1.41,0,0,1-.559.107,1.047,1.047,0,0,1-.748-.259.921.921,0,0,1-.276-.7.981.981,0,0,1,.216-.659,1.171,1.171,0,0,1,.651-.357c.162-.036.365-.075.612-.117.37-.06.555-.149.555-.265v-.079a.247.247,0,0,0-.107-.216.558.558,0,0,0-.318-.074.622.622,0,0,0-.363.093.413.413,0,0,0-.167.276h-.986a1.154,1.154,0,0,1,.459-.825,1.843,1.843,0,0,1,1.081-.271,2.213,2.213,0,0,1,.736.1.994.994,0,0,1,.468.32.912.912,0,0,1,.165.365,3.417,3.417,0,0,1,.049.682v1.24a1.2,1.2,0,0,0,.04.35.253.253,0,0,0,.12.166Zm-1.177-1.54a1.407,1.407,0,0,1-.434.145c-.1.02-.177.037-.23.051a.6.6,0,0,0-.273.138.315.315,0,0,0-.08.226.374.374,0,0,0,.109.281.392.392,0,0,0,.287.107.636.636,0,0,0,.447-.158.532.532,0,0,0,.174-.414Zm-4.411-1.085V70.41h.437v-.925h1.073v.925h.548v.647h-.548v1.417a.738.738,0,0,0,.084.43.386.386,0,0,0,.316.106l.08,0,.056,0v.684c-.11.021-.22.038-.328.05a3.13,3.13,0,0,1-.313.018.9.9,0,0,1-.763-.273,2.148,2.148,0,0,1-.205-1.159V71.057Zm-2.267,2.625V70.41h1.03v.573a1.164,1.164,0,0,1,.428-.492,1.267,1.267,0,0,1,.65-.161v1.059c-.046-.006-.092-.011-.137-.014s-.088,0-.128,0a.989.989,0,0,0-.408.074.584.584,0,0,0-.258.227.8.8,0,0,0-.085.294,5.2,5.2,0,0,0-.026.618v1.1Zm-.745-3.272v3.272h-1.049v-.451a1.257,1.257,0,0,1-.434.4,1.158,1.158,0,0,1-.558.13,1.091,1.091,0,0,1-.815-.279,1.125,1.125,0,0,1-.275-.824V70.41h1.073v1.831a1.081,1.081,0,0,0,.1.555.387.387,0,0,0,.35.152.462.462,0,0,0,.408-.184,1.1,1.1,0,0,0,.128-.6V70.41Zm-3.705,1.719a1.912,1.912,0,0,1-.627,1.236,1.966,1.966,0,0,1-1.325.44,2.051,2.051,0,0,1-1.568-.635,2.34,2.34,0,0,1-.6-1.671,2.4,2.4,0,0,1,.606-1.718,2.133,2.133,0,0,1,1.624-.641,1.994,1.994,0,0,1,1.316.424,1.658,1.658,0,0,1,.583,1.16H-174.8a.814.814,0,0,0-.3-.48.94.94,0,0,0-.573-.161.885.885,0,0,0-.753.376,1.706,1.706,0,0,0-.276,1.029,1.7,1.7,0,0,0,.261,1.009.86.86,0,0,0,.737.359.943.943,0,0,0,.612-.186.835.835,0,0,0,.288-.541Zm-9.662,1.553V70.41h1.048v.449a1.112,1.112,0,0,1,.412-.4,1.218,1.218,0,0,1,.581-.13,1.068,1.068,0,0,1,.833.287,1.394,1.394,0,0,1,.256.938v2.127h-1.072V72.036a1.722,1.722,0,0,0-.1-.735.379.379,0,0,0-.355-.158.466.466,0,0,0-.412.188,1.082,1.082,0,0,0-.129.6v1.751Zm-4.036-1.641a1.742,1.742,0,0,1,.46-1.285,1.708,1.708,0,0,1,1.271-.463,1.721,1.721,0,0,1,1.277.463,1.743,1.743,0,0,1,.461,1.285,1.747,1.747,0,0,1-.461,1.286,1.715,1.715,0,0,1-1.277.466,1.7,1.7,0,0,1-1.274-.464A1.753,1.753,0,0,1-187.444,72.041Zm1.1,0a1.216,1.216,0,0,0,.165.689.536.536,0,0,0,.469.241.542.542,0,0,0,.474-.242,1.2,1.2,0,0,0,.167-.688,1.182,1.182,0,0,0-.167-.683.54.54,0,0,0-.474-.242.535.535,0,0,0-.47.24A1.2,1.2,0,0,0-186.347,72.043Zm-3.512,1.639V70.41h1.03v.573a1.164,1.164,0,0,1,.428-.492,1.267,1.267,0,0,1,.65-.161v1.059c-.046-.006-.092-.011-.137-.014s-.088,0-.128,0a.986.986,0,0,0-.408.074.584.584,0,0,0-.258.227.781.781,0,0,0-.085.294,5.2,5.2,0,0,0-.026.618v1.1Zm-1.972,0V69.251h1.134v4.431Z"/><path class="a" d="M-169.78,49.3l1.067-3.834a11.838,11.838,0,0,0,5.268,1.367,4.966,4.966,0,0,0,2.967-.778A2.417,2.417,0,0,0-159.411,44a2.564,2.564,0,0,0-1.239-2.245,5.608,5.608,0,0,0-3.162-.823h-2.267v-3.7h2.167a5.354,5.354,0,0,0,2.745-.661,2.01,2.01,0,0,0,1.123-1.806,1.9,1.9,0,0,0-.856-1.628,4.126,4.126,0,0,0-2.412-.606,9.221,9.221,0,0,0-4.735,1.367l-1.1-3.7a13.434,13.434,0,0,1,6.969-1.7,8.607,8.607,0,0,1,5.368,1.534,4.717,4.717,0,0,1,2,3.9q0,3.618-4.035,5.035v.067a5.936,5.936,0,0,1,3.495,1.823,4.906,4.906,0,0,1,1.306,3.412,5.72,5.72,0,0,1-2.467,4.784,10.684,10.684,0,0,1-6.569,1.851,12.73,12.73,0,0,1-6.7-1.6m-8.574,1.234v-17.1h-.066l-4.168,1.967-.867-3.867,5.835-2.668h4.235V50.537Z"/><path class="c" d="M-134.346,19.921a2.221,2.221,0,0,1-1.59-.549,1.977,1.977,0,0,1-.578-1.508,1.978,1.978,0,0,1,.578-1.506,2.218,2.218,0,0,1,1.59-.55,2.224,2.224,0,0,1,1.595.55,1.979,1.979,0,0,1,.579,1.506,1.978,1.978,0,0,1-.579,1.508,2.228,2.228,0,0,1-1.595.549m0-1.1a1.518,1.518,0,0,0,.932-.249.833.833,0,0,0,.329-.707.827.827,0,0,0-.329-.7,1.518,1.518,0,0,0-.932-.248,1.521,1.521,0,0,0-.928.245.828.828,0,0,0-.326.7.833.833,0,0,0,.326.707A1.507,1.507,0,0,0-134.343,18.82Zm2.033,2.957h-5.5V20.692h5.5Zm-2.454,3.477v-1.6a.927.927,0,0,0-.625.218.766.766,0,0,0-.216.585.733.733,0,0,0,.217.558A1.015,1.015,0,0,0-134.764,25.254Zm1.223-1.583V22.586a1.734,1.734,0,0,1,1.005.662,2.007,2.007,0,0,1,.364,1.217,1.76,1.76,0,0,1-.592,1.4,2.363,2.363,0,0,1-1.6.515,2.294,2.294,0,0,1-1.572-.507,1.756,1.756,0,0,1-.574-1.388,1.836,1.836,0,0,1,.565-1.442,2.336,2.336,0,0,1,1.612-.508c.078,0,.135,0,.175,0s.075,0,.109.009v2.711a1.163,1.163,0,0,0,.721-.233.76.76,0,0,0,.242-.607.87.87,0,0,0-.109-.458A.752.752,0,0,0-133.541,23.671Zm1.231,5.894-5.5,1.9V30.207l4.111-1.169-4.111-1.193V26.607l5.5,1.873Zm-2.036,6.236a2.217,2.217,0,0,1-1.59-.549,1.973,1.973,0,0,1-.578-1.507,1.978,1.978,0,0,1,.578-1.506,2.213,2.213,0,0,1,1.59-.55,2.219,2.219,0,0,1,1.595.55,1.979,1.979,0,0,1,.579,1.506,1.974,1.974,0,0,1-.579,1.507A2.223,2.223,0,0,1-134.346,35.8Zm0-1.1a1.518,1.518,0,0,0,.932-.249.833.833,0,0,0,.329-.707.826.826,0,0,0-.329-.7,1.518,1.518,0,0,0-.932-.249,1.52,1.52,0,0,0-.928.246.828.828,0,0,0-.326.7.833.833,0,0,0,.326.707A1.507,1.507,0,0,0-134.343,34.7Zm2.033,3.828h-4.059V37.521h.694a1.611,1.611,0,0,1-.613-.5,1.164,1.164,0,0,1-.2-.678c0-.042,0-.075,0-.1a.384.384,0,0,1,.006-.059l1.1,0v.363a.9.9,0,0,0,.231.671.955.955,0,0,0,.687.224h2.147Zm-4.059.949h4.059v1.063h-.482a1.515,1.515,0,0,1,.441.54,1.586,1.586,0,0,1,.148.692,1.326,1.326,0,0,1-.35,1,1.47,1.47,0,0,1-1.049.333h-2.767V42.024h2.454a1.025,1.025,0,0,0,.618-.145.581.581,0,0,0,.184-.482.816.816,0,0,0-.229-.608.856.856,0,0,0-.626-.225h-2.4Zm4.059,8.515h-5.5V44h.955v2.877h1.17V44.246h.94v2.631h1.414V43.865h1.017Z"/><path class="d" d="M-180.751,16.505l.846,2.419,2.562.057-2.039,1.553.737,2.455-2.107-1.46-2.107,1.46.737-2.455-2.039-1.553,2.563-.057Z"/><path class="d" d="M-188.552,25.207l.847,2.419,2.562.058-2.039,1.553.737,2.455-2.107-1.46-2.107,1.46.737-2.455-2.039-1.553,2.563-.058Z"/><path class="d" d="M-191.852,36.608l.847,2.419,2.563.057-2.039,1.553.737,2.455-2.107-1.46-2.107,1.46.737-2.455-2.039-1.553,2.562-.057Z"/><path class="d" d="M-188.552,48.61l.847,2.419,2.562.057-2.039,1.553.737,2.455-2.107-1.46-2.107,1.46.737-2.455-2.039-1.553,2.563-.057Z"/><path class="d" d="M-180.151,56.412l.847,2.419,2.562.058-2.039,1.553.737,2.455-2.107-1.46-2.107,1.46.737-2.455-2.039-1.553,2.563-.058Z"/><path class="d" d="M-168.149,59.112l.846,2.419,2.562.057-2.039,1.553.737,2.455-2.107-1.46-2.107,1.46.737-2.455-2.039-1.553,2.563-.057Z"/><path class="d" d="M-157.047,57.012l.847,2.419,2.563.057-2.039,1.553.737,2.455-2.107-1.46-2.107,1.46.737-2.455-2.039-1.553,2.562-.057Z"/><path class="d" d="M-149.246,49.811l.846,2.419,2.563.057-2.039,1.553.737,2.455-2.107-1.46-2.107,1.46.737-2.455-2.039-1.553,2.562-.057Z"/><path class="d" d="M-145.645,37.809l.847,2.419,2.562.057-2.039,1.553.737,2.455-2.107-1.46-2.107,1.46.737-2.455-2.039-1.553,2.563-.057Z"/><path class="d" d="M-148.046,25.507l.847,2.419,2.563.058-2.039,1.553.737,2.455-2.107-1.46-2.107,1.46.737-2.455-2.039-1.553,2.562-.058Z"/><path class="d" d="M-155.547,17.405l.846,2.419,2.562.057-2.039,1.553.737,2.455-2.107-1.46-2.107,1.46.737-2.455-2.039-1.553,2.563-.057Z"/><path class="d" d="M-168.149,13.8l.846,2.419,2.562.057-2.039,1.553.737,2.455-2.107-1.46-2.107,1.46.737-2.455-2.039-1.553,2.563-.057Z"/></g></svg>