<svg xmlns="http://www.w3.org/2000/svg" width="84" height="84" viewBox="0 0 84 84"><defs><style>.a,.c{fill:#fff;}.b{fill:#004088;}.b,.c,.d{fill-rule:evenodd;}.d{fill:#ffe800;}</style></defs><g transform="translate(104)"><rect class="a" width="84" height="84" rx="5" transform="translate(-104)"/><path class="b" d="M-97.789,2H-26.21A4.264,4.264,0,0,1-22,6.3V77.7A4.264,4.264,0,0,1-26.21,82H-97.789A4.264,4.264,0,0,1-102,77.7V6.3A4.264,4.264,0,0,1-97.789,2"/><path class="a" d="M-35.147,71.617h.64V71.6c.008-.086.012-.147.012-.182a.668.668,0,0,0-.081-.369.285.285,0,0,0-.252-.118.277.277,0,0,0-.25.115.752.752,0,0,0-.074.384c0,.049,0,.087,0,.114s0,.052,0,.074m.617.97h.89v.085a1.191,1.191,0,0,1-.311.9,1.289,1.289,0,0,1-.93.3,1.7,1.7,0,0,1-.564-.088.942.942,0,0,1-.4-.244,1.085,1.085,0,0,1-.227-.476,4.771,4.771,0,0,1-.067-.95,4.941,4.941,0,0,1,.069-1.007,1.076,1.076,0,0,1,.237-.471,1.018,1.018,0,0,1,.41-.261,1.726,1.726,0,0,1,.578-.088,1.606,1.606,0,0,1,.58.095.96.96,0,0,1,.4.285.959.959,0,0,1,.184.379,3.407,3.407,0,0,1,.057.752v.411H-35.17a.194.194,0,0,0,0,.038c-.008.144-.012.243-.012.3a1.139,1.139,0,0,0,.077.5.274.274,0,0,0,.262.139.29.29,0,0,0,.244-.107.524.524,0,0,0,.083-.325q0-.043-.009-.135Zm-1.978,1.182c-.115.022-.216.038-.3.049a1.761,1.761,0,0,1-.221.016,1.134,1.134,0,0,1-.481-.092.618.618,0,0,1-.293-.262.919.919,0,0,1-.086-.3,4.21,4.21,0,0,1-.025-.543V71.08h-.368v-.705h.368v-.94h.958v.94h.451v.705h-.451v1.387a1.347,1.347,0,0,0,.064.547.271.271,0,0,0,.25.1.991.991,0,0,0,.1-.009l.032,0ZM-38.7,70.375v3.4h-.892v-.4a1.077,1.077,0,0,1-.356.356.909.909,0,0,1-.464.113.657.657,0,0,1-.579-.264,1.464,1.464,0,0,1-.185-.831V70.375h.952V72.48a1.421,1.421,0,0,0,.053.508.194.194,0,0,0,.188.1.279.279,0,0,0,.248-.153.868.868,0,0,0,.089-.431V70.375Zm-5.543,1.7a2.518,2.518,0,0,1,.285-1.393,1.126,1.126,0,0,1,.981-.4,1.13,1.13,0,0,1,.98.4,2.516,2.516,0,0,1,.285,1.4,2.509,2.509,0,0,1-.285,1.393,1.125,1.125,0,0,1-.98.4,1.127,1.127,0,0,1-.982-.4A2.509,2.509,0,0,1-44.239,72.078Zm.964,0a3.639,3.639,0,0,0,.064.9.237.237,0,0,0,.238.181.237.237,0,0,0,.238-.174,3.694,3.694,0,0,0,.063-.907,3.717,3.717,0,0,0-.063-.907A.237.237,0,0,0-42.973,71a.237.237,0,0,0-.238.183A3.64,3.64,0,0,0-43.275,72.078Zm-4.356,1.7V69.249h1.192a4.718,4.718,0,0,1,.85.054.984.984,0,0,1,.429.187,1,1,0,0,1,.29.391,1.467,1.467,0,0,1,.095.553,1.407,1.407,0,0,1-.137.656,1.076,1.076,0,0,1-.423.435q.49.219.518,1.033v.015c0,.057,0,.139.006.248q.012.765.253.959H-45.8a1.86,1.86,0,0,1-.061-.3,2.625,2.625,0,0,1-.02-.33q0-.109.006-.264c0-.1.006-.17.006-.2a1.055,1.055,0,0,0-.108-.568.448.448,0,0,0-.391-.153h-.217V73.78Zm1.049-2.645.069,0,.063,0a.662.662,0,0,0,.466-.133.605.605,0,0,0,.137-.447.533.533,0,0,0-.137-.413.7.7,0,0,0-.466-.122l-.063,0-.069,0Zm-4.81.482h.64V71.6c.008-.086.012-.147.012-.182a.668.668,0,0,0-.081-.369.284.284,0,0,0-.252-.118.274.274,0,0,0-.249.115.74.74,0,0,0-.075.384c0,.049,0,.087,0,.114S-51.393,71.6-51.392,71.617Zm.617.97h.891v.085a1.191,1.191,0,0,1-.312.9,1.287,1.287,0,0,1-.929.3,1.7,1.7,0,0,1-.565-.088.942.942,0,0,1-.4-.244,1.073,1.073,0,0,1-.226-.476,4.678,4.678,0,0,1-.068-.95,4.848,4.848,0,0,1,.07-1.007,1.055,1.055,0,0,1,.237-.471,1.015,1.015,0,0,1,.409-.261,1.728,1.728,0,0,1,.579-.088,1.6,1.6,0,0,1,.579.095.96.96,0,0,1,.4.285.974.974,0,0,1,.185.379,3.488,3.488,0,0,1,.056.752v.411h-1.549a.194.194,0,0,0,0,.038c-.008.144-.012.243-.012.3a1.121,1.121,0,0,0,.078.5.272.272,0,0,0,.262.139.292.292,0,0,0,.244-.107.531.531,0,0,0,.082-.325q0-.043-.009-.135ZM-52.94,73.78h-.946V69.249h.946ZM-55.4,72.442h.934c0,.018,0,.04,0,.069a.628.628,0,0,1,0,.064,1.378,1.378,0,0,1-.3.974,1.207,1.207,0,0,1-.92.321,1.126,1.126,0,0,1-.981-.4,2.508,2.508,0,0,1-.284-1.4,2.516,2.516,0,0,1,.285-1.4,1.128,1.128,0,0,1,.979-.4,1.191,1.191,0,0,1,.918.319,1.434,1.434,0,0,1,.294,1v.06h-.915v-.1a1.011,1.011,0,0,0-.067-.435.229.229,0,0,0-.223-.13.241.241,0,0,0-.244.174,3.713,3.713,0,0,0-.063.91,3.792,3.792,0,0,0,.063.9.241.241,0,0,0,.238.193.229.229,0,0,0,.22-.137.994.994,0,0,0,.07-.433c0-.016,0-.042,0-.077S-55.4,72.461-55.4,72.442Zm-4.375-2.067h.941l.333,2.193.334-2.193h.941l-.676,3.128a2.722,2.722,0,0,1-.436,1.161,1,1,0,0,1-.767.26c-.05,0-.107,0-.172-.009s-.136-.014-.218-.026v-.712l.018,0c.066.006.114.009.143.009a.392.392,0,0,0,.24-.06.223.223,0,0,0,.078-.187,2.256,2.256,0,0,0-.059-.35c-.014-.062-.024-.111-.03-.144ZM-61.2,72.026h1.043c0,.027,0,.058.005.089s0,.078,0,.14a1.787,1.787,0,0,1-.364,1.231,1.425,1.425,0,0,1-1.112.4,1.778,1.778,0,0,1-.757-.147,1.225,1.225,0,0,1-.509-.444,1.552,1.552,0,0,1-.193-.589,8.428,8.428,0,0,1-.06-1.194,8.445,8.445,0,0,1,.06-1.195,1.535,1.535,0,0,1,.193-.587,1.207,1.207,0,0,1,.5-.443,1.7,1.7,0,0,1,.745-.149,1.425,1.425,0,0,1,1.115.413,1.8,1.8,0,0,1,.373,1.236v.044l-1.031,0a1.521,1.521,0,0,0-.106-.647A.348.348,0,0,0-61.625,70a.348.348,0,0,0-.351.228,4.353,4.353,0,0,0-.094,1.2v.086a4.932,4.932,0,0,0,.094,1.288.347.347,0,0,0,.35.237.351.351,0,0,0,.334-.172,1.486,1.486,0,0,0,.1-.641Zm-5.019,1.754-.056-.313a1.226,1.226,0,0,1-.391.283,1.119,1.119,0,0,1-.463.1.809.809,0,0,1-.633-.259,1,1,0,0,1-.234-.7.994.994,0,0,1,.2-.636,1.57,1.57,0,0,1,.652-.432l.293-.108c.354-.131.532-.276.532-.44a.313.313,0,0,0-.077-.228.3.3,0,0,0-.22-.078.313.313,0,0,0-.258.1.517.517,0,0,0-.084.324v.024h-.952a1.08,1.08,0,0,1,.321-.858,1.44,1.44,0,0,1,.973-.281,2.316,2.316,0,0,1,.525.054,1.214,1.214,0,0,1,.387.158.741.741,0,0,1,.28.326,2.036,2.036,0,0,1,.081.7v1.312a4.907,4.907,0,0,0,.028.61,1.094,1.094,0,0,0,.093.343Zm-.12-1.639a1.33,1.33,0,0,0-.536.256.491.491,0,0,0-.169.382.387.387,0,0,0,.083.259.284.284,0,0,0,.225.1.336.336,0,0,0,.3-.142.881.881,0,0,0,.094-.473Zm-3.622-.524h.639V71.6c.009-.086.013-.147.013-.182a.668.668,0,0,0-.082-.369.282.282,0,0,0-.252-.118.275.275,0,0,0-.249.115.752.752,0,0,0-.074.384c0,.049,0,.087,0,.114S-69.959,71.6-69.958,71.617Zm.616.97h.891v.085a1.191,1.191,0,0,1-.311.9,1.289,1.289,0,0,1-.93.3,1.694,1.694,0,0,1-.564-.088.936.936,0,0,1-.4-.244,1.064,1.064,0,0,1-.227-.476,4.771,4.771,0,0,1-.067-.95,4.941,4.941,0,0,1,.069-1.007,1.066,1.066,0,0,1,.237-.471,1.012,1.012,0,0,1,.41-.261,1.717,1.717,0,0,1,.578-.088,1.6,1.6,0,0,1,.579.095.954.954,0,0,1,.4.285.947.947,0,0,1,.185.379,3.488,3.488,0,0,1,.056.752v.411h-1.548a.194.194,0,0,0,0,.038c-.008.144-.012.243-.012.3a1.139,1.139,0,0,0,.077.5.273.273,0,0,0,.262.139.29.29,0,0,0,.244-.107.531.531,0,0,0,.082-.325q0-.043-.009-.135Zm-4.772-.344h.971v.133a1.124,1.124,0,0,0,.088.527.314.314,0,0,0,.3.154.326.326,0,0,0,.264-.117.476.476,0,0,0,.1-.316c0-.22-.158-.432-.472-.634-.052-.035-.091-.062-.118-.079l-.05-.032a3.531,3.531,0,0,1-.794-.648A1.247,1.247,0,0,1-74,70.86a1.631,1.631,0,0,1-.059-.449,1.244,1.244,0,0,1,.344-.932,1.29,1.29,0,0,1,.947-.339,1.388,1.388,0,0,1,1,.333,1.27,1.27,0,0,1,.346.961c0,.017,0,.042,0,.073s0,.055,0,.073h-.952v-.056a.873.873,0,0,0-.093-.448.3.3,0,0,0-.269-.153.3.3,0,0,0-.24.108.42.42,0,0,0-.091.283q0,.288.516.611l.144.094c.028.015.066.04.115.073a2.427,2.427,0,0,1,.712.595,1.3,1.3,0,0,1,.149.354,1.738,1.738,0,0,1,.051.431,1.455,1.455,0,0,1-.354,1.049,1.331,1.331,0,0,1-1.008.367,1.392,1.392,0,0,1-1.034-.351,1.44,1.44,0,0,1-.346-1.047c0-.029,0-.06,0-.092S-74.12,72.313-74.114,72.243Zm-3.043.2h.934c0,.018,0,.04,0,.069s0,.05,0,.064a1.378,1.378,0,0,1-.3.974,1.2,1.2,0,0,1-.919.321,1.124,1.124,0,0,1-.981-.4,2.5,2.5,0,0,1-.285-1.4,2.516,2.516,0,0,1,.285-1.4,1.13,1.13,0,0,1,.98-.4,1.188,1.188,0,0,1,.917.319,1.434,1.434,0,0,1,.3,1v.06h-.916v-.1a1.03,1.03,0,0,0-.066-.435.231.231,0,0,0-.223-.13.24.24,0,0,0-.244.174,3.64,3.64,0,0,0-.064.91,3.716,3.716,0,0,0,.064.9.239.239,0,0,0,.238.193.231.231,0,0,0,.22-.137,1.012,1.012,0,0,0,.069-.433c0-.016,0-.042,0-.077S-77.157,72.461-77.157,72.442Zm-3.05,1.338v-3.4h.946v3.4Zm0-3.742v-.825h.946v.825Zm-.458,3.731c-.115.022-.217.038-.3.049a1.786,1.786,0,0,1-.221.016,1.128,1.128,0,0,1-.481-.092.613.613,0,0,1-.293-.262.918.918,0,0,1-.087-.3,4.211,4.211,0,0,1-.025-.543V71.08h-.367v-.705h.367v-.94h.958v.94h.452v.705h-.452v1.387a1.347,1.347,0,0,0,.064.547.273.273,0,0,0,.25.1.984.984,0,0,0,.106-.009l.032,0Zm-2.176.011h-.946V69.249h.946Zm-2.446,0-.057-.313a1.226,1.226,0,0,1-.391.283,1.116,1.116,0,0,1-.463.1.809.809,0,0,1-.633-.259,1.008,1.008,0,0,1-.234-.7,1,1,0,0,1,.2-.636,1.583,1.583,0,0,1,.652-.432l.293-.108c.355-.131.532-.276.532-.44a.313.313,0,0,0-.077-.228.294.294,0,0,0-.22-.078.314.314,0,0,0-.258.1.524.524,0,0,0-.083.324v.024h-.952a1.079,1.079,0,0,1,.32-.858,1.44,1.44,0,0,1,.973-.281,2.309,2.309,0,0,1,.525.054,1.215,1.215,0,0,1,.387.158.741.741,0,0,1,.28.326,2.035,2.035,0,0,1,.081.7v1.312a4.907,4.907,0,0,0,.028.61,1.151,1.151,0,0,0,.093.343Zm-.121-1.639a1.33,1.33,0,0,0-.536.256.494.494,0,0,0-.169.382.382.382,0,0,0,.084.259.282.282,0,0,0,.225.1.334.334,0,0,0,.3-.142.881.881,0,0,0,.094-.473Zm-4.971,1.639V69.249h1.14a4.694,4.694,0,0,1,.742.041,1.167,1.167,0,0,1,.39.138.967.967,0,0,1,.37.389,1.229,1.229,0,0,1,.124.57,1.146,1.146,0,0,1-.117.525,1.457,1.457,0,0,1-.371.446,1.076,1.076,0,0,1,.456.417,1.247,1.247,0,0,1,.153.631,1.6,1.6,0,0,1-.1.573,1.341,1.341,0,0,1-.288.462.971.971,0,0,1-.436.262,3.05,3.05,0,0,1-.8.077Zm1.061-.8h.091a.716.716,0,0,0,.5-.155.6.6,0,0,0,.168-.464.511.511,0,0,0-.165-.422.826.826,0,0,0-.521-.134h-.073Zm0-1.958h.067a.678.678,0,0,0,.459-.13.516.516,0,0,0,.149-.406.465.465,0,0,0-.147-.367.622.622,0,0,0-.42-.127h-.067a.273.273,0,0,0-.038.005Z"/><path class="a" d="M-61.275,39.7a14.173,14.173,0,0,0,.85,5.535,2.654,2.654,0,0,0,2.4,1.912,2.646,2.646,0,0,0,2.415-1.9,14.28,14.28,0,0,0,.839-5.552q0-7.382-3.221-7.381a2.678,2.678,0,0,0-2.421,1.9,13.7,13.7,0,0,0-.867,5.48m11.742-.067q0,5.316-2.22,8.325a7.338,7.338,0,0,1-6.267,3.014,7.254,7.254,0,0,1-6.207-3.02q-2.214-3.018-2.214-8.185a14.116,14.116,0,0,1,2.181-8.18,7.217,7.217,0,0,1,6.34-3.159,7.208,7.208,0,0,1,6.2,3.019Q-49.53,34.467-49.533,39.634Zm-25.3,10.97V33.394H-74.9l-4.194,1.979-.872-3.892,5.871-2.683h4.261V50.6Z"/><path class="c" d="M-30.346,19.921a2.221,2.221,0,0,1-1.59-.549,1.977,1.977,0,0,1-.578-1.508,1.978,1.978,0,0,1,.578-1.506,2.218,2.218,0,0,1,1.59-.55,2.224,2.224,0,0,1,1.6.55,1.979,1.979,0,0,1,.579,1.506,1.978,1.978,0,0,1-.579,1.508,2.228,2.228,0,0,1-1.6.549m0-1.1a1.518,1.518,0,0,0,.932-.249.833.833,0,0,0,.329-.707.827.827,0,0,0-.329-.7,1.518,1.518,0,0,0-.932-.248,1.521,1.521,0,0,0-.928.245.828.828,0,0,0-.326.7.833.833,0,0,0,.326.707A1.507,1.507,0,0,0-30.343,18.82Zm2.033,2.957h-5.5V20.692h5.5Zm-2.454,3.477v-1.6a.927.927,0,0,0-.625.218.766.766,0,0,0-.216.585.733.733,0,0,0,.217.558A1.015,1.015,0,0,0-30.764,25.254Zm1.223-1.583V22.586a1.734,1.734,0,0,1,1.005.662,2.007,2.007,0,0,1,.364,1.217,1.76,1.76,0,0,1-.592,1.4,2.363,2.363,0,0,1-1.6.515,2.294,2.294,0,0,1-1.572-.507,1.756,1.756,0,0,1-.574-1.388,1.836,1.836,0,0,1,.565-1.442,2.336,2.336,0,0,1,1.612-.508c.078,0,.135,0,.175,0s.075,0,.109.009v2.711a1.163,1.163,0,0,0,.721-.233.76.76,0,0,0,.242-.607.87.87,0,0,0-.109-.458A.752.752,0,0,0-29.541,23.671Zm1.231,5.894-5.5,1.9V30.207l4.111-1.169-4.111-1.193V26.607l5.5,1.873ZM-30.346,35.8a2.217,2.217,0,0,1-1.59-.549,1.973,1.973,0,0,1-.578-1.507,1.978,1.978,0,0,1,.578-1.506,2.213,2.213,0,0,1,1.59-.55,2.219,2.219,0,0,1,1.6.55,1.979,1.979,0,0,1,.579,1.506,1.974,1.974,0,0,1-.579,1.507A2.223,2.223,0,0,1-30.346,35.8Zm0-1.1a1.518,1.518,0,0,0,.932-.249.833.833,0,0,0,.329-.707.826.826,0,0,0-.329-.7,1.518,1.518,0,0,0-.932-.249,1.52,1.52,0,0,0-.928.246.828.828,0,0,0-.326.7.833.833,0,0,0,.326.707A1.507,1.507,0,0,0-30.343,34.7Zm2.033,3.828h-4.059V37.521h.694a1.611,1.611,0,0,1-.613-.5,1.164,1.164,0,0,1-.2-.678c0-.042,0-.075,0-.1a.385.385,0,0,1,.006-.059l1.1,0v.363a.9.9,0,0,0,.231.671.955.955,0,0,0,.687.224h2.147Zm-4.059.949h4.059v1.063h-.482a1.515,1.515,0,0,1,.441.54,1.586,1.586,0,0,1,.148.692,1.326,1.326,0,0,1-.35,1,1.47,1.47,0,0,1-1.049.333h-2.767V42.024h2.454a1.025,1.025,0,0,0,.618-.145.581.581,0,0,0,.184-.482.816.816,0,0,0-.229-.608.856.856,0,0,0-.626-.225h-2.4Zm4.059,8.515h-5.5V44h.955v2.877h1.17V44.246h.94v2.631h1.414V43.865h1.017Z"/><path class="d" d="M-76.751,16.505l.846,2.419,2.562.057-2.039,1.553.737,2.455-2.107-1.46-2.107,1.46.737-2.455-2.039-1.553,2.563-.057Z"/><path class="d" d="M-84.552,25.207l.847,2.419,2.562.058-2.039,1.553.737,2.455-2.107-1.46-2.107,1.46.737-2.455-2.039-1.553,2.563-.058Z"/><path class="d" d="M-87.852,36.608l.847,2.419,2.563.057-2.039,1.553.737,2.455-2.107-1.46-2.107,1.46.737-2.455-2.039-1.553,2.562-.057Z"/><path class="d" d="M-84.552,48.61l.847,2.419,2.562.057-2.039,1.553.737,2.455-2.107-1.46-2.107,1.46.737-2.455-2.039-1.553,2.563-.057Z"/><path class="d" d="M-76.151,56.412l.847,2.419,2.562.058-2.039,1.553.737,2.455-2.107-1.46-2.107,1.46.737-2.455-2.039-1.553L-77,58.831Z"/><path class="d" d="M-64.149,59.112l.846,2.419,2.562.057-2.039,1.553.737,2.455-2.107-1.46-2.107,1.46.737-2.455-2.039-1.553L-65,61.531Z"/><path class="d" d="M-53.047,57.012l.847,2.419,2.563.057-2.039,1.553.737,2.455-2.107-1.46-2.107,1.46.737-2.455-2.039-1.553,2.562-.057Z"/><path class="d" d="M-45.246,49.811l.846,2.419,2.563.057-2.039,1.553.737,2.455-2.107-1.46-2.107,1.46.737-2.455-2.039-1.553,2.562-.057Z"/><path class="d" d="M-41.645,37.809l.847,2.419,2.562.057-2.039,1.553.737,2.455-2.107-1.46-2.107,1.46.737-2.455-2.039-1.553,2.563-.057Z"/><path class="d" d="M-44.046,25.507l.847,2.419,2.563.058-2.039,1.553.737,2.455-2.107-1.46-2.107,1.46.737-2.455-2.039-1.553,2.562-.058Z"/><path class="d" d="M-51.547,17.405l.847,2.419,2.562.057-2.039,1.553.737,2.455-2.107-1.46-2.107,1.46.737-2.455-2.039-1.553,2.563-.057Z"/><path class="d" d="M-64.149,13.8l.846,2.419,2.562.057-2.039,1.553.737,2.455-2.107-1.46-2.107,1.46.737-2.455-2.039-1.553L-65,16.224Z"/></g></svg>