<svg xmlns="http://www.w3.org/2000/svg" width="84" height="84" viewBox="0 0 84 84"><defs><style>.a,.c{fill:#fff;}.b{fill:#004088;}.b,.c,.d{fill-rule:evenodd;}.d{fill:#ffe800;}</style></defs><rect class="a" width="84" height="84" rx="5"/><path class="b" d="M6.211,2H77.79A4.264,4.264,0,0,1,82,6.3V77.7A4.264,4.264,0,0,1,77.79,82H6.211A4.264,4.264,0,0,1,2,77.7V6.3A4.264,4.264,0,0,1,6.211,2"/><path class="a" d="M47.006,50.584V33.4h-.067l-4.186,1.976L41.882,31.5l5.861-2.679H52V50.584Zm-15.375,0V33.4h-.067l-4.187,1.976-.87-3.885,5.86-2.679H36.62V50.584Z"/><path class="a" d="M64.8,72.7l.85,0a.742.742,0,0,0,.1.387.309.309,0,0,0,.265.122.33.33,0,0,0,.233-.084.276.276,0,0,0,.092-.216.282.282,0,0,0-.064-.19A.894.894,0,0,0,66,72.545c-.031-.016-.08-.04-.146-.071a2.477,2.477,0,0,1-.718-.447.954.954,0,0,1-.221-.329,1.022,1.022,0,0,1-.077-.395.937.937,0,0,1,.317-.742,1.491,1.491,0,0,1,1.714-.01.965.965,0,0,1,.3.763v.062l-.831,0a.707.707,0,0,0-.079-.365.258.258,0,0,0-.233-.108.33.33,0,0,0-.23.078.26.26,0,0,0-.085.2c0,.149.143.286.427.411l.091.042a2.128,2.128,0,0,1,.779.509,1.161,1.161,0,0,1-.12,1.444,1.323,1.323,0,0,1-.907.282,1.237,1.237,0,0,1-.869-.285,1.03,1.03,0,0,1-.311-.8ZM61.9,73.78v-3.4h.893v.4a1.056,1.056,0,0,1,.356-.355.923.923,0,0,1,.468-.115.652.652,0,0,1,.577.263,1.5,1.5,0,0,1,.182.835V73.78h-.945v-2.1a1.416,1.416,0,0,0-.054-.508.191.191,0,0,0-.188-.1.276.276,0,0,0-.248.155.868.868,0,0,0-.089.431V73.78Zm-2.1-2.163h.64V71.6c.008-.086.012-.147.012-.182a.668.668,0,0,0-.081-.369.285.285,0,0,0-.252-.118.274.274,0,0,0-.249.115.74.74,0,0,0-.075.384c0,.049,0,.087,0,.114S59.791,71.6,59.792,71.617Zm.617.97H61.3v.085a1.191,1.191,0,0,1-.312.9,1.289,1.289,0,0,1-.93.3,1.7,1.7,0,0,1-.564-.088.942.942,0,0,1-.4-.244,1.085,1.085,0,0,1-.227-.476,4.771,4.771,0,0,1-.067-.95,4.941,4.941,0,0,1,.069-1.007,1.076,1.076,0,0,1,.237-.471,1.018,1.018,0,0,1,.41-.261,1.728,1.728,0,0,1,.579-.088,1.6,1.6,0,0,1,.579.095.925.925,0,0,1,.582.664,3.407,3.407,0,0,1,.057.752v.411H59.769a.194.194,0,0,0,0,.038c-.008.144-.012.243-.012.3a1.139,1.139,0,0,0,.077.5.275.275,0,0,0,.263.139.292.292,0,0,0,.244-.107.531.531,0,0,0,.082-.325q0-.043-.009-.135ZM55.83,73.78V69.249h.946v1.49a.8.8,0,0,1,.31-.322.906.906,0,0,1,.455-.108.649.649,0,0,1,.576.263,1.491,1.491,0,0,1,.183.835V73.78h-.946v-2.1a1.425,1.425,0,0,0-.053-.508.191.191,0,0,0-.188-.1.275.275,0,0,0-.248.155.868.868,0,0,0-.089.431V73.78Zm-.44-.011c-.116.022-.217.038-.3.049a1.786,1.786,0,0,1-.221.016,1.128,1.128,0,0,1-.481-.092.62.62,0,0,1-.294-.262.919.919,0,0,1-.086-.3,4.21,4.21,0,0,1-.025-.543V71.08h-.367v-.705h.367v-.94h.958v.94h.452v.705h-.452v1.387a1.347,1.347,0,0,0,.064.547.273.273,0,0,0,.25.1,1,1,0,0,0,.106-.009l.032,0Zm-5.12.011.988-4.531h1.259l.976,4.531H52.435l-.133-.868H51.47l-.133.868Zm1.308-1.687h.61l-.3-1.977Zm-5.057.439v-.909h1.838v.909Zm-3.646-.915h.639V71.6c.008-.086.012-.147.012-.182a.668.668,0,0,0-.081-.369.284.284,0,0,0-.252-.118.275.275,0,0,0-.249.115.752.752,0,0,0-.074.384c0,.049,0,.087,0,.114S42.874,71.6,42.875,71.617Zm.616.97h.891v.085a1.191,1.191,0,0,1-.311.9,1.291,1.291,0,0,1-.93.3,1.7,1.7,0,0,1-.565-.088.938.938,0,0,1-.394-.244,1.064,1.064,0,0,1-.227-.476,4.771,4.771,0,0,1-.067-.95,4.941,4.941,0,0,1,.069-1.007,1.056,1.056,0,0,1,.237-.471,1.011,1.011,0,0,1,.41-.261,1.717,1.717,0,0,1,.578-.088,1.6,1.6,0,0,1,.579.095.93.93,0,0,1,.583.664,3.488,3.488,0,0,1,.056.752v.411H42.852a.194.194,0,0,0,0,.038c-.008.144-.013.243-.013.3a1.136,1.136,0,0,0,.078.5.272.272,0,0,0,.262.139.291.291,0,0,0,.244-.107.531.531,0,0,0,.082-.325q0-.043-.009-.135ZM38.91,74.924V70.375h.876v.387a.923.923,0,0,1,.327-.347.828.828,0,0,1,.437-.118.916.916,0,0,1,.364.07.74.74,0,0,1,.274.2.975.975,0,0,1,.177.426,6.294,6.294,0,0,1,.052,1,3.846,3.846,0,0,1-.193,1.524.715.715,0,0,1-.692.361.73.73,0,0,1-.379-.1.941.941,0,0,1-.3-.3v1.445Zm1.237-1.855a.259.259,0,0,0,.254-.212,4.056,4.056,0,0,0,.07-.979,1.939,1.939,0,0,0-.068-.633.238.238,0,0,0-.233-.171.263.263,0,0,0-.26.2,4.24,4.24,0,0,0-.072,1.038,1.736,1.736,0,0,0,.069.6A.244.244,0,0,0,40.147,73.069Zm-2.761.711-.057-.313a1.226,1.226,0,0,1-.391.283,1.116,1.116,0,0,1-.463.1.809.809,0,0,1-.633-.259,1.142,1.142,0,0,1-.036-1.335,1.583,1.583,0,0,1,.652-.432l.293-.108c.354-.131.532-.276.532-.44a.313.313,0,0,0-.077-.228.294.294,0,0,0-.22-.078.314.314,0,0,0-.258.1.524.524,0,0,0-.083.324v.024h-.952a1.079,1.079,0,0,1,.32-.858,1.44,1.44,0,0,1,.973-.281,2.309,2.309,0,0,1,.525.054,1.215,1.215,0,0,1,.387.158.741.741,0,0,1,.28.326,2.036,2.036,0,0,1,.081.7v1.312a4.907,4.907,0,0,0,.028.61,1.151,1.151,0,0,0,.093.343Zm-.121-1.639a1.33,1.33,0,0,0-.536.256.494.494,0,0,0-.169.382.382.382,0,0,0,.084.259.282.282,0,0,0,.225.1.334.334,0,0,0,.3-.142.881.881,0,0,0,.094-.473Zm-3.212-.115H35.1c0,.027,0,.058,0,.089s0,.078,0,.14a1.787,1.787,0,0,1-.363,1.231,1.424,1.424,0,0,1-1.113.4,1.776,1.776,0,0,1-.756-.147,1.213,1.213,0,0,1-.509-.444,1.534,1.534,0,0,1-.194-.589,12.121,12.121,0,0,1,0-2.389,1.517,1.517,0,0,1,.194-.587,1.2,1.2,0,0,1,.5-.443,1.7,1.7,0,0,1,.744-.149,1.429,1.429,0,0,1,1.116.413,1.8,1.8,0,0,1,.372,1.236v.044l-1.03,0a1.5,1.5,0,0,0-.107-.647.388.388,0,0,0-.685.041,4.353,4.353,0,0,0-.094,1.2v.086a4.932,4.932,0,0,0,.094,1.288.391.391,0,0,0,.684.065,1.467,1.467,0,0,0,.1-.641ZM27.474,73.78V69.249h.946v1.49a.812.812,0,0,1,.311-.322.9.9,0,0,1,.454-.108.651.651,0,0,1,.577.263,1.5,1.5,0,0,1,.183.835V73.78H29v-2.1a1.392,1.392,0,0,0-.054-.508.191.191,0,0,0-.187-.1.274.274,0,0,0-.248.155.856.856,0,0,0-.09.431V73.78Zm-.44-.011c-.115.022-.216.038-.3.049a1.761,1.761,0,0,1-.221.016,1.134,1.134,0,0,1-.481-.092.618.618,0,0,1-.293-.262.919.919,0,0,1-.086-.3,4.21,4.21,0,0,1-.025-.543V71.08h-.368v-.705h.368v-.94h.958v.94h.451v.705h-.451v1.387a1.347,1.347,0,0,0,.064.547.271.271,0,0,0,.25.1A.991.991,0,0,0,27,73.108l.032,0Zm-3.745.011v-3.4h.872v.476a1.289,1.289,0,0,1,.344-.386.859.859,0,0,1,.423-.156v1.079a1.358,1.358,0,0,0-.152-.027.915.915,0,0,0-.132-.01.334.334,0,0,0-.319.162,1.487,1.487,0,0,0-.09.634V73.78Zm-3.067-1.7a2.509,2.509,0,0,1,.285-1.393,1.124,1.124,0,0,1,.98-.4,1.127,1.127,0,0,1,.98.4,3.543,3.543,0,0,1,0,2.789,1.123,1.123,0,0,1-.98.4,1.125,1.125,0,0,1-.981-.4A2.5,2.5,0,0,1,20.222,72.078Zm.964,0a3.713,3.713,0,0,0,.063.9.248.248,0,0,0,.476.007,6.459,6.459,0,0,0,0-1.814A.236.236,0,0,0,21.487,71a.239.239,0,0,0-.238.183A3.715,3.715,0,0,0,21.186,72.078ZM16.8,73.78V69.249h1.1l.881,2.794q-.052-.705-.078-1.218c-.017-.34-.025-.629-.025-.864v-.712h.946V73.78H18.513l-.887-2.88c.039.374.07.738.09,1.089s.031.694.031,1.025v.766Z"/><path class="c" d="M73.654,19.921a2.221,2.221,0,0,1-1.59-.549,1.977,1.977,0,0,1-.578-1.508,1.978,1.978,0,0,1,.578-1.506,2.58,2.58,0,0,1,3.185,0,1.979,1.979,0,0,1,.579,1.506,1.978,1.978,0,0,1-.579,1.508,2.228,2.228,0,0,1-1.6.549m0-1.1a1.518,1.518,0,0,0,.932-.249.916.916,0,0,0,0-1.406,1.878,1.878,0,0,0-1.86,0,.924.924,0,0,0,0,1.409A1.507,1.507,0,0,0,73.657,18.82Zm2.033,2.957h-5.5V20.692h5.5Zm-2.454,3.477v-1.6a.927.927,0,0,0-.625.218.766.766,0,0,0-.216.585.733.733,0,0,0,.217.558A1.015,1.015,0,0,0,73.236,25.254Zm1.223-1.583V22.586a1.734,1.734,0,0,1,1,.662,2.007,2.007,0,0,1,.364,1.217,1.76,1.76,0,0,1-.592,1.4,2.363,2.363,0,0,1-1.6.515,2.294,2.294,0,0,1-1.572-.507,1.756,1.756,0,0,1-.574-1.388,1.836,1.836,0,0,1,.565-1.442,2.336,2.336,0,0,1,1.612-.508c.078,0,.135,0,.175,0s.075,0,.109.009v2.711a1.163,1.163,0,0,0,.721-.233.76.76,0,0,0,.242-.607.87.87,0,0,0-.109-.458A.752.752,0,0,0,74.459,23.671Zm1.231,5.894-5.5,1.9V30.207l4.111-1.169-4.111-1.193V26.607l5.5,1.873ZM73.654,35.8a2.217,2.217,0,0,1-1.59-.549,2.252,2.252,0,0,1,0-3.013,2.581,2.581,0,0,1,3.185,0,2.249,2.249,0,0,1,0,3.013A2.223,2.223,0,0,1,73.654,35.8Zm0-1.1a1.518,1.518,0,0,0,.932-.249.916.916,0,0,0,0-1.406,1.871,1.871,0,0,0-1.86,0,.924.924,0,0,0,0,1.409A1.507,1.507,0,0,0,73.657,34.7Zm2.033,3.828H71.631V37.521h.694a1.611,1.611,0,0,1-.613-.5,1.165,1.165,0,0,1-.2-.678c0-.042,0-.075,0-.1a.385.385,0,0,1,.006-.059l1.1,0v.363a.9.9,0,0,0,.231.671.955.955,0,0,0,.687.224H75.69Zm-4.059.949H75.69v1.063h-.482a1.515,1.515,0,0,1,.441.54,1.586,1.586,0,0,1,.148.692,1.326,1.326,0,0,1-.35,1,1.47,1.47,0,0,1-1.049.333H71.631V42.024h2.454a1.025,1.025,0,0,0,.618-.145.581.581,0,0,0,.184-.482.816.816,0,0,0-.229-.608.856.856,0,0,0-.626-.225h-2.4Zm4.059,8.515h-5.5V44h.955v2.877h1.17V44.246h.94v2.631h1.414V43.865H75.69Z"/><path class="d" d="M27.249,16.505l.846,2.419,2.562.057-2.039,1.553.737,2.455-2.107-1.46-2.107,1.46.737-2.455L23.84,18.982l2.563-.057Z"/><path class="d" d="M19.448,25.207l.847,2.419,2.562.058-2.039,1.553.737,2.455-2.107-1.46-2.107,1.46.737-2.455-2.039-1.553,2.563-.058Z"/><path class="d" d="M16.148,36.608l.847,2.419,2.563.057-2.039,1.553.737,2.455-2.107-1.46-2.107,1.46.737-2.455-2.039-1.553,2.562-.057Z"/><path class="d" d="M19.448,48.61l.847,2.419,2.562.057L20.818,52.64l.737,2.455-2.107-1.46-2.107,1.46.737-2.455-2.039-1.553L18.6,51.03Z"/><path class="d" d="M27.849,56.412l.847,2.419,2.562.058-2.039,1.553.737,2.455-2.107-1.46L25.743,62.9l.737-2.455L24.44,58.888,27,58.831Z"/><path class="d" d="M39.851,59.112l.846,2.419,2.562.057-2.039,1.553.737,2.455-2.107-1.46L37.744,65.6l.737-2.455-2.039-1.553L39,61.531Z"/><path class="d" d="M50.953,57.012l.847,2.419,2.563.057-2.039,1.553L53.06,63.5l-2.107-1.46L48.846,63.5l.737-2.455-2.039-1.553,2.562-.057Z"/><path class="d" d="M58.754,49.811,59.6,52.23l2.563.057L60.124,53.84l.737,2.455-2.107-1.46-2.107,1.46.737-2.455-2.039-1.553,2.562-.057Z"/><path class="d" d="M62.355,37.809l.847,2.419,2.562.057-2.039,1.553.737,2.455-2.107-1.46-2.107,1.46.737-2.455-2.039-1.553,2.563-.057Z"/><path class="d" d="M59.954,25.507l.847,2.419,2.563.058-2.039,1.553.737,2.455-2.107-1.46-2.107,1.46.737-2.455-2.039-1.553,2.562-.058Z"/><path class="d" d="M52.453,17.405l.847,2.419,2.562.057-2.039,1.553.737,2.455-2.107-1.46-2.107,1.46.737-2.455-2.039-1.553,2.563-.057Z"/><path class="d" d="M39.851,13.8l.846,2.419,2.562.057-2.039,1.553.737,2.455-2.107-1.46-2.107,1.46.737-2.455-2.039-1.553L39,16.224Z"/></svg>