<svg xmlns="http://www.w3.org/2000/svg" width="82.111" height="82.049" viewBox="0 0 82.111 82.049"><defs><style>.a{fill:none;stroke:#fff;stroke-linecap:round;stroke-linejoin:round;stroke-width:2px;}</style></defs><g transform="translate(-1243.945 -480.948)"><g transform="translate(967.211 82.237)"><path class="a" d="M302.729,451.7a12.042,12.042,0,1,1,9.493-2.188" transform="translate(0 0)"/><path class="a" d="M307.219,449.157a6.174,6.174,0,1,1,4.866-1.122" transform="translate(-3.382 -3.324)"/><line class="a" x2="9" transform="translate(317.62 441.575)"/><line class="a" y1="4" transform="translate(330.62 444.575)"/><line class="a" y1="7" transform="translate(326.62 441.575)"/><line class="a" x1="4" transform="translate(326.62 448.575)"/><line class="a" y2="2" transform="translate(334.62 444.575)"/><line class="a" x1="5" transform="translate(334.62 446.575)"/><line class="a" y2="5" transform="translate(339.619 441.575)"/><line class="a" x2="26" transform="translate(316.62 435.575)"/><line class="a" x1="4" transform="translate(330.62 444.575)"/><line class="a" x2="3" transform="translate(339.62 441.575)"/><line class="a" y2="3" transform="translate(342.62 438.575)"/></g><path class="a" d="M47.925,80.426a40,40,0,1,0-6.9.6" transform="translate(1244.005 480.966)"/></g></svg>