<svg xmlns="http://www.w3.org/2000/svg" width="24" height="24" viewBox="0 0 24 24"><defs><style>.a{fill:none;}.b{fill:#565a5c;}</style></defs><path class="a" d="M24,0H0V24H24Z"/><path class="b" d="M10.442,3a9,9,0,0,1,9.26,9h1.79a.5.5,0,0,1,.35.85l-2.79,2.8a.5.5,0,0,1-.71,0l-2.79-2.8A.5.5,0,0,1,15.9,12h1.8a7,7,0,0,0-7.1-7,7.089,7.089,0,0,0-6.9,6.9,7,7,0,0,0,7,7.1,6.9,6.9,0,0,0,4.28-1.48.994.994,0,0,1,1.32.08,1.01,1.01,0,0,1-.08,1.5A8.995,8.995,0,0,1,1.7,11.74,9.106,9.106,0,0,1,10.442,3Zm.51,5a.755.755,0,0,1,.75.75v3.68a1.012,1.012,0,0,1-.49.86l-3.12,1.85a.751.751,0,0,1-.77-1.29l2.88-1.71V8.74a.747.747,0,0,1,.75-.74Z" transform="translate(0.308)"/></svg>