<svg xmlns="http://www.w3.org/2000/svg" width="12.973" height="16" viewBox="0 0 12.973 16"><defs><style>.a{fill:#fee901;}</style></defs><g transform="translate(392.473 256) rotate(180)"><g transform="translate(379.5 240)"><path class="a" d="M383.824,240h-3.46c-.478,0-.865.559-.865,1.25v.312c0,.172.1.312.216.312h4.757c.119,0,.216-.14.216-.312v-.312C384.689,240.559,384.3,240,383.824,240Zm7.784,0h-3.459c-.478,0-.865.559-.865,1.25v.312c0,.172.1.312.216.312h4.757c.119,0,.216-.14.216-.312v-.312C392.473,240.559,392.086,240,391.608,240Z" transform="translate(-379.5 -240)"/><path class="a" d="M384.473,256.867h-3.459a.208.208,0,0,0-.216.2v.2a.833.833,0,0,0,.865.8h2.162a.833.833,0,0,0,.865-.8v-.2A.208.208,0,0,0,384.473,256.867Zm7.784-11.367H387.5a.208.208,0,0,0-.216.2v2.592a.417.417,0,0,1-.432.4h-1.73a.417.417,0,0,1-.432-.4V245.7a.208.208,0,0,0-.216-.2h-4.757a.208.208,0,0,0-.216.2v7.43a.421.421,0,0,0,.345.39,1.217,1.217,0,0,1,.952,1.154v1a.208.208,0,0,0,.216.2h3.459a.208.208,0,0,0,.216-.2v-.6a.417.417,0,0,1,.432-.4h1.73a.417.417,0,0,1,.432.4v.6a.208.208,0,0,0,.216.2h3.459a.208.208,0,0,0,.216-.2v-1a1.217,1.217,0,0,1,.952-1.154.421.421,0,0,0,.345-.39V245.7A.208.208,0,0,0,392.257,245.5Zm-5.456,6.428a.817.817,0,0,1-1.628,0v-.493a.817.817,0,0,1,1.628,0Zm4.159,4.938H387.5a.208.208,0,0,0-.216.2v.2a.833.833,0,0,0,.865.8h2.162a.833.833,0,0,0,.865-.8v-.2A.208.208,0,0,0,390.959,256.867Z" transform="translate(-379.5 -242.063)"/></g></g></svg>