<svg xmlns="http://www.w3.org/2000/svg" width="21.529" height="21.513" viewBox="0 0 21.529 21.513">
  <g id="b5d0421d-e7a6-46bc-a966-ea48e230e1ae" transform="translate(-0.23 -0.273)">
    <g id="_23a2beca-3b3f-424a-bc3d-cc78d15c3745" data-name="23a2beca-3b3f-424a-bc3d-cc78d15c3745" transform="translate(0.995 1.038)">
      <path id="Path_799" data-name="Path 799" d="M41.213,30c0,3.609-1.075,6.771-2.686,8.531" transform="translate(-25.578 -20.007)" fill="none" stroke="#565a5c" stroke-linecap="round" stroke-linejoin="round" stroke-width="1.5"/>
      <path id="Path_800" data-name="Path 800" d="M41.213,13.8c0-3.609-1.075-6.771-2.686-8.531" transform="translate(-25.578 -3.812)" fill="none" stroke="#565a5c" stroke-linecap="round" stroke-linejoin="round" stroke-width="1.5"/>
      <path id="Path_801" data-name="Path 801" d="M13.688,30c0,3.609,1.074,6.771,2.686,8.531" transform="translate(-9.309 -20.007)" fill="none" stroke="#565a5c" stroke-linecap="round" stroke-linejoin="round" stroke-width="1.5"/>
      <path id="Path_802" data-name="Path 802" d="M13.688,13.8c0-3.609,1.074-6.771,2.686-8.531" transform="translate(-9.309 -3.812)" fill="none" stroke="#565a5c" stroke-linecap="round" stroke-linejoin="round" stroke-width="1.5"/>
      <line id="Line_533" data-name="Line 533" y2="18.979" transform="translate(10.007 1.02)" fill="none" stroke="#565a5c" stroke-linecap="round" stroke-linejoin="round" stroke-width="1.5"/>
      <line id="Line_534" data-name="Line 534" x2="17.941" transform="translate(1.037 9.993)" fill="none" stroke="#565a5c" stroke-linecap="round" stroke-linejoin="round" stroke-width="1.5"/>
      <line id="Line_535" data-name="Line 535" x2="13.801" transform="translate(3.107 15.511)" fill="none" stroke="#565a5c" stroke-linecap="round" stroke-linejoin="round" stroke-width="1.5"/>
      <line id="Line_536" data-name="Line 536" x2="13.801" transform="translate(3.107 4.47)" fill="none" stroke="#565a5c" stroke-linecap="round" stroke-linejoin="round" stroke-width="1.5"/>
      <path id="Path_803" data-name="Path 803" d="M12.727,20.885A10,10,0,1,0,11,21.036" transform="translate(-0.995 -1.038)" fill="none" stroke="#565a5c" stroke-linecap="round" stroke-linejoin="round" stroke-width="1.5"/>
    </g>
  </g>
</svg>
