<svg id="Group_1422" data-name="Group 1422" xmlns="http://www.w3.org/2000/svg" xmlns:xlink="http://www.w3.org/1999/xlink" width="21.872" height="20.148" viewBox="0 0 21.872 20.148">
  <defs>
    <clipPath id="clip-path">
      <rect id="Rectangle_511" data-name="Rectangle 511" width="21.872" height="20.148" transform="translate(0 0)" fill="#178e42"/>
    </clipPath>
  </defs>
  <g id="Group_1393" data-name="Group 1393" transform="translate(0 0)" clip-path="url(#clip-path)">
    <path id="Path_5886" data-name="Path 5886" d="M20.283,7.2A4.788,4.788,0,0,0,17.2,6.653l.237-.274.248-.408c1.238-2.036.8-4.079-1.077-5.22a3.535,3.535,0,0,0-5.023,1.267c-.155.256-.3.55-.49.923l-.147-.334A4.99,4.99,0,0,0,9.216.463,3.75,3.75,0,0,0,4.224,1.852c-.8,1.323-.613,2.73.6,4.514l-.36-.042A3.892,3.892,0,0,0,.557,7.884,3.741,3.741,0,0,0,1.6,12.939a4,4,0,0,0,3.083.551A10.113,10.113,0,0,0,8.465,11.8l-.329-.547c-2.7,1.22-4.693,1.468-5.94.709A2.6,2.6,0,0,1,1.545,8.5c.914-1.5,3.325-1.4,6.66.284l.325-.535C5.453,6.029,4.285,3.992,5.213,2.465A2.606,2.606,0,0,1,8.583,1.45c1.248.759,1.946,2.648,2.089,5.626l.654.012a10.291,10.291,0,0,1,1.189-4.365A2.366,2.366,0,0,1,16,1.742c1.323.8,1.585,2.149.7,3.6a10.177,10.177,0,0,1-3.3,3.013l.314.577c2.708-1.248,4.732-1.48,5.954-.737a2.577,2.577,0,0,1,.65,3.459c-.928,1.527-3.3,1.412-6.66-.284l-.319.525c3.027,2.187,4.232,4.278,3.318,5.782a2.6,2.6,0,0,1-3.37,1.015c-1.222-.743-1.948-2.645-2.1-5.6l-.652-.021a11.559,11.559,0,0,0,.243,4.128l.128.37A4.632,4.632,0,0,0,12.689,19.7a3.747,3.747,0,0,0,4.966-1.4c.79-1.3.6-2.7-.617-4.491l.358.045a3.931,3.931,0,0,0,3.927-1.587A3.76,3.76,0,0,0,20.283,7.2" transform="translate(0 0)" fill="#178e42"/>
    <path id="Path_5887" data-name="Path 5887" d="M19.136,34.121a.935.935,0,0,0-.488-.222c-.08.142-.194.341-.332.576-.12.2-.571.966-1.02,1.641a19.511,19.511,0,0,1-1.53,2.04,20.48,20.48,0,0,1-2.661,2.483c-.735.611-1.368,1.09-1.818,1.419a.769.769,0,0,0,0,.244.906.906,0,0,0,.355.554,1.06,1.06,0,0,0,.421.2c.368-.326.927-.83,1.6-1.464a25.394,25.394,0,0,0,2.816-2.927c.5-.639.842-1.167,1.308-1.885a12.633,12.633,0,0,0,.931-1.619,10.658,10.658,0,0,0,.421-1.042" transform="translate(-8.006 -24.065)" fill="#178e42"/>
  </g>
</svg>
