<svg xmlns="http://www.w3.org/2000/svg" width="21.5" height="21.5" viewBox="0 0 21.5 21.5"><defs><style>.a{fill:none;stroke:#565a5c;stroke-linecap:round;stroke-linejoin:round;stroke-width:1.5px;}</style></defs><g transform="translate(-9.243 -9.288)"><g transform="translate(9.993 10.038)"><path class="a" d="M12.97,21H4.636A3.637,3.637,0,0,1,1,17.364V4.636A3.637,3.637,0,0,1,4.636,1H17.364A3.637,3.637,0,0,1,21,4.636V17.364A3.637,3.637,0,0,1,17.364,21h-.757" transform="translate(-1 -1)"/><path class="a" d="M15.974,12.383a4.528,4.528,0,1,1-.823-3.57" transform="translate(-1.528 -1.527)"/><line class="a" x2="2.716" transform="translate(0 7.273)"/><line class="a" x2="6.338" transform="translate(13.662 7.273)"/><line class="a" x1="1.811" transform="translate(14.551 3.622)"/></g></g></svg>