<svg xmlns="http://www.w3.org/2000/svg" width="20" height="20" viewBox="0 0 20 20"><defs><style>.a{fill:none;}.b{fill:#565a5c;}</style></defs><path class="a" d="M0,0H20V20H0Z"/><path class="b" d="M12.917,4.72a1.644,1.644,0,0,0,1.667-1.61,1.668,1.668,0,0,0-3.333,0A1.644,1.644,0,0,0,12.917,4.72ZM4.167,9.951a4.027,4.027,0,1,0,0,8.049,4.027,4.027,0,1,0,0-8.049Zm0,6.841A2.9,2.9,0,0,1,1.25,13.976a2.918,2.918,0,0,1,5.833,0A2.9,2.9,0,0,1,4.167,16.793ZM9,8.744l2-1.932.667.644a5.943,5.943,0,0,0,4.25,1.69V7.537a4.213,4.213,0,0,1-3-1.207L11.333,4.8A2.086,2.086,0,0,0,10,4.317,1.421,1.421,0,0,0,8.833,4.8L6.5,7.054A1.563,1.563,0,0,0,6,8.18a1.331,1.331,0,0,0,.5,1.127l2.667,2.254v4.024h1.667V10.6Zm6.833,1.207a4.027,4.027,0,1,0,0,8.049,4.027,4.027,0,1,0,0-8.049Zm0,6.841a2.9,2.9,0,0,1-2.917-2.817,2.918,2.918,0,0,1,5.833,0A2.9,2.9,0,0,1,15.833,16.793Z"/></svg>