<svg xmlns="http://www.w3.org/2000/svg" width="21.018" height="20" viewBox="0 0 21.018 20">
  <path id="Path_1137" data-name="Path 1137" d="M148.137,34.781c-.426.37-1.823,2.138-2.393,1.938a1.5,1.5,0,0,1,.418-2.167c.142-.37,3.94-4.2-.2-7.522.263-.171,1.169-7.065-5.957-7.265,1.284-.116.969-.628.969-.628-.654-1.14-3.333-1.082-4.16-.171,0,0-.2.37.788.788-6.611.2-5.983,7.092-5.728,7.265,0,0-4.843,3.307-.263,7.522a1.706,1.706,0,0,1,.788,2.2s-1,.2-2.795-1.967a6.672,6.672,0,0,1,.286-7.922,8.133,8.133,0,0,1,5.642-8.463c1.253-2.1,5.413-2.28,6.811,0a7.445,7.445,0,0,1,5.384,8.292A6.3,6.3,0,0,1,148.137,34.781Zm-14.709-8.93c0-2.051,1.051-3.845,2.6-3.845,1.452,0,2.451,1.623,2.393,3.59-.087,2.364-1.282,3.677-2.393,3.677-1.25.008-2.59-1.416-2.59-3.412Zm6.128,9.889a5.649,5.649,0,0,0,5.413-3.362s.6-1.051-.625-.712l-.885,1.481c.4-3.414-1.739-2.821-1.739-2.821s-1.6.465-2.125,4.455c-.116.142-.657.142-.657.142a5.8,5.8,0,0,1-3.761-1.794c-.6-.741-1-.457-1-.457s-.4.263,0,.788c1.762,2.29,5.382,2.29,5.382,2.29Zm-5.524-9.878a3.471,3.471,0,0,0,.741,2.1c-.37-2.08.37-2.734,1.255-2.734.788,0,1.623.654,1.082,2.85a4.007,4.007,0,0,0,.77-2.225c.084-1.736-.6-3.391-1.681-3.391C135,22.47,134.033,24.125,134.033,25.861Zm5.358,0c-.029-2.051,1.224-3.845,2.627-3.845,1.539,0,2.422,1.623,2.422,3.59,0,2.364-1.051,3.677-2.422,3.677C140.957,29.281,139.42,27.857,139.391,25.861Zm.625,0a3,3,0,0,0,.94,2.1c-.37-2.08.315-2.734,1.051-2.734.854,0,1.652.654,1.2,2.85a3.509,3.509,0,0,0,.788-2.225c.029-1.736-.788-3.1-1.994-3.1C141.13,22.757,140.016,24.125,140.016,25.861Z" transform="translate(-128.409 -16.742)" fill="#a3181e"/>
</svg>
