<svg id="baseline-map-24px" xmlns="http://www.w3.org/2000/svg" width="20" height="20" viewBox="0 0 20 20">
  <path id="Path_1910" data-name="Path 1910" d="M16.611,3l-.124.023-4.153,1.61L7.667,3,3.28,4.478A.392.392,0,0,0,3,4.851v11.76A.385.385,0,0,0,3.389,17l.124-.023,4.153-1.61L12.333,17l4.387-1.478a.392.392,0,0,0,.28-.373V3.389A.385.385,0,0,0,16.611,3ZM12.333,15.444,7.667,13.8V4.556L12.333,6.2Z" transform="translate(0 0)" fill="#fff"/>
  <path id="Path_1911" data-name="Path 1911" d="M0,0H20V20H0Z" fill="none"/>
</svg>
