<?xml version="1.0" encoding="utf-8"?>
<!-- Generator: Adobe Illustrator 22.1.0, SVG Export Plug-In . SVG Version: 6.00 Build 0)  -->
<svg version="1.1" id="Layer_1" xmlns="http://www.w3.org/2000/svg" xmlns:xlink="http://www.w3.org/1999/xlink" x="0px" y="0px"
	 viewBox="0 0 60 60" style="enable-background:new 0 0 60 60;" xml:space="preserve">
<style type="text/css">
	.st0{fill:none;stroke:#FFFFFF;stroke-width:2;stroke-linecap:round;stroke-linejoin:round;}
</style>
<g>
	<path class="st0" d="M35,58.5C50.8,55.8,61.3,40.7,58.5,25C55.8,9.2,40.7-1.3,25,1.5S-1.3,19.3,1.5,35C3.9,48.9,15.9,59,30,59"/>
	<line class="st0" x1="29" y1="16" x2="29" y2="44"/>
	<line class="st0" x1="24" y1="41" x2="20" y2="37"/>
	<line class="st0" x1="20" y1="25" x2="29" y2="16"/>
	<line class="st0" x1="12" y1="25" x2="20" y2="25"/>
	<line class="st0" x1="12" y1="37" x2="20" y2="37"/>
	<line class="st0" x1="12" y1="25.3" x2="12" y2="36.8"/>
	<g>
		<line class="st0" x1="48" y1="37" x2="34" y2="23"/>
		<line class="st0" x1="34" y1="37" x2="38.2" y2="32.8"/>
		<line class="st0" x1="43.8" y1="27.2" x2="48" y2="23"/>
	</g>
</g>
</svg>
