<svg xmlns="http://www.w3.org/2000/svg" width="18.317" height="20" viewBox="0 0 18.317 20">
  <path id="Path_1101" data-name="Path 1101" d="M145.057,31.3c.025.382.053.708.053.982a3.329,3.329,0,1,1-6.648-.191,1.566,1.566,0,0,1,.028-.437l.028-.354a4.44,4.44,0,0,1-2.67,1.037,3.426,3.426,0,0,1-3.217-3.461,3.56,3.56,0,0,1,2.318-3.079l.3-.136c-1.8-.819-2.617-1.826-2.617-3.242a3.433,3.433,0,0,1,3.242-3.461,4.566,4.566,0,0,1,2.376.844l.274.191c-.028-.382-.055-.681-.055-.954a3.329,3.329,0,1,1,6.648.191v.437l-.053.327a4.349,4.349,0,0,1,2.67-1.035,3.443,3.443,0,0,1,3.215,3.461,3.6,3.6,0,0,1-2.316,3.1l-.3.138c1.8.816,2.617,1.823,2.617,3.215a3.431,3.431,0,0,1-3.215,3.461,4.24,4.24,0,0,1-2.4-.819Zm-1.635-3.406c1.525,2.235,3,3.378,4.3,3.378a2.382,2.382,0,0,0,2.152-2.4c0-1.607-1.934-2.67-5.342-2.944V25.36c3.433-.271,5.342-1.309,5.342-2.941a2.36,2.36,0,0,0-2.152-2.4c-1.309,0-2.78,1.143-4.3,3.406l-.52-.3a9.327,9.327,0,0,0,1.145-3.926,2.268,2.268,0,1,0-4.521-.053,9.433,9.433,0,0,0,1.145,3.978l-.517.3c-1.53-2.263-2.974-3.411-4.307-3.411a2.383,2.383,0,0,0-2.152,2.4c0,1.633,1.879,2.67,5.34,2.941v.573c-3.406.274-5.34,1.336-5.34,2.944a2.38,2.38,0,0,0,2.152,2.4c1.334,0,2.778-1.143,4.3-3.378l.517.274a9.668,9.668,0,0,0-1.145,4,2.267,2.267,0,1,0,4.521-.025,9.52,9.52,0,0,0-1.145-3.978Z" transform="translate(-132.63 -15.66)" fill="#a3181e"/>
</svg>
