<svg xmlns="http://www.w3.org/2000/svg" width="21.529" height="21.513" viewBox="0 0 21.529 21.513"><defs><style>.a{fill:none;stroke:#565a5c;stroke-linecap:round;stroke-linejoin:round;stroke-width:1.5px;}</style></defs><g transform="translate(-0.23 -0.273)"><g transform="translate(0.995 1.038)"><path class="a" d="M41.213,30c0,3.609-1.075,6.771-2.686,8.531" transform="translate(-25.578 -20.007)"/><path class="a" d="M41.213,13.8c0-3.609-1.075-6.771-2.686-8.531" transform="translate(-25.578 -3.812)"/><path class="a" d="M13.688,30c0,3.609,1.074,6.771,2.686,8.531" transform="translate(-9.309 -20.007)"/><path class="a" d="M13.688,13.8c0-3.609,1.074-6.771,2.686-8.531" transform="translate(-9.309 -3.812)"/><line class="a" y2="18.979" transform="translate(10.007 1.02)"/><line class="a" x2="17.941" transform="translate(1.037 9.993)"/><line class="a" x2="13.801" transform="translate(3.107 15.511)"/><line class="a" x2="13.801" transform="translate(3.107 4.47)"/><path class="a" d="M12.727,20.885A10,10,0,1,0,11,21.036" transform="translate(-0.995 -1.038)"/></g></g></svg>