<svg xmlns="http://www.w3.org/2000/svg" width="112.645" height="11.702" viewBox="0 0 112.645 11.702">
  <g id="MICHELIN2022" transform="translate(5240 -766.329)">
    <path id="Path_1138" data-name="Path 1138" d="M41.51,104.4h3.63l2.691,8.575h.037l2.686-8.575h3.63v11.309H52.013v-9.33h-.034l-3.048,9.33H46.76l-3.048-9.33-.031.031v9.3H41.51Z" transform="translate(-5281.51 662.124)" fill="#a3181e"/>
    <path id="Path_1139" data-name="Path 1139" d="M94.94,104.4H97.2v11.309H94.94Z" transform="translate(-5319.834 662.124)" fill="#a3181e"/>
    <path id="Path_1140" data-name="Path 1140" d="M118.365,115.055a11.425,11.425,0,0,1-2.576.356c-3.675,0-6.22-1.829-6.22-5.654,0-3.873,2.366-6.047,6.22-6.047a7.464,7.464,0,0,1,2.561.472l-.164,1.911a4.662,4.662,0,0,0-2.446-.605,3.78,3.78,0,0,0-3.794,4.1,3.715,3.715,0,0,0,3.842,4.037,6.336,6.336,0,0,0,2.479-.469Z" transform="translate(-5330.328 662.619)" fill="#a3181e"/>
    <path id="Path_1141" data-name="Path 1141" d="M146.59,104.4h2.262v4.572h4.523V104.4h2.262v11.309h-2.262v-4.956h-4.523v4.962H146.59Z" transform="translate(-5356.882 662.124)" fill="#a3181e"/>
    <path id="Path_1142" data-name="Path 1142" d="M188,104.4h6.672v1.784h-4.41v2.788H194.3v1.781h-4.034v3.178H194.7v1.784H188Z" transform="translate(-5386.584 662.124)" fill="#a3181e"/>
    <path id="Path_1143" data-name="Path 1143" d="M219.86,104.4h2.262v9.53h4.393v1.784H219.86Z" transform="translate(-5409.437 662.124)" fill="#a3181e"/>
    <path id="Path_1144" data-name="Path 1144" d="M247.83,104.4h2.262v11.309H247.83Z" transform="translate(-5429.5 662.124)" fill="#a3181e"/>
    <path id="Path_1145" data-name="Path 1145" d="M264.06,104.4h2.788l4.311,8.462h.031V104.4h2.183v11.309H270.6l-4.328-8.462h-.031v8.462h-2.171Z" transform="translate(-5441.141 662.124)" fill="#a3181e"/>
    <path id="Path_1146" data-name="Path 1146" d="M109.55,176.77c.565-.509,1.284-1.131,1.979-1.775,1.219-1.131,3.181-2.929,3.181-4.719a1.907,1.907,0,0,0-2.12-1.758,5.519,5.519,0,0,0-2.544.712l-.158-1.36a7.3,7.3,0,0,1,2.9-.65c1.979,0,3.593,1.077,3.593,3.149,0,1.838-1.979,3.8-3.2,5.021-.619.619-1.414,1.284-1.948,1.775h5.3v1.3H109.55Z" transform="translate(-5270.313 599.389)" fill="#a3181e"/>
    <path id="Path_1147" data-name="Path 1147" d="M143.944,167.18c3.056,0,3.752,3.294,3.752,5.717s-.7,5.717-3.752,5.717-3.754-3.285-3.754-5.717S140.888,167.18,143.944,167.18Zm0,10.135c1.9,0,2.072-3.042,2.072-4.419s-.252-4.419-2.072-4.419-2.075,3.025-2.075,4.419.175,4.41,2.075,4.41Z" transform="translate(-5292.291 599.417)" fill="#a3181e"/>
    <path id="Path_1148" data-name="Path 1148" d="M171.84,176.77c.565-.509,1.281-1.131,1.979-1.775,1.219-1.131,3.183-2.929,3.183-4.719a1.91,1.91,0,0,0-2.123-1.758,5.53,5.53,0,0,0-2.544.712l-.158-1.36a7.314,7.314,0,0,1,2.9-.65c2,0,3.593,1.077,3.593,3.149,0,1.838-1.979,3.8-3.2,5.021-.619.619-1.414,1.284-1.948,1.775h5.3v1.3H171.84Z" transform="translate(-5314.993 599.389)" fill="#a3181e"/>
    <path id="Path_1149" data-name="Path 1149" d="M203,176.77c.565-.509,1.281-1.131,1.979-1.775,1.219-1.131,3.183-2.929,3.183-4.719a1.91,1.91,0,0,0-2.123-1.758,5.53,5.53,0,0,0-2.544.712l-.158-1.36a7.314,7.314,0,0,1,2.9-.65c2,0,3.6,1.077,3.6,3.149,0,1.838-1.979,3.8-3.2,5.021-.616.619-1.414,1.284-1.948,1.775h5.307v1.3H203Z" transform="translate(-5337.344 599.389)" fill="#a3181e"/>
  </g>
</svg>
