<svg xmlns="http://www.w3.org/2000/svg" width="26" height="26" viewBox="0 0 26 26">
  <g id="Group_1066" data-name="Group 1066" transform="translate(-656 -2363)">
    <circle id="Ellipse_87" data-name="Ellipse 87" cx="13" cy="13" r="13" transform="translate(656 2363)" fill="#00aeab"/>
    <path id="ic_directions_24px" d="M17.773,9.433l-7.2-7.2a.8.8,0,0,0-1.128,0l-7.2,7.2a.8.8,0,0,0,0,1.128l7.2,7.2a.8.8,0,0,0,1.128,0l7.2-7.2A.8.8,0,0,0,17.773,9.433ZM11.6,12V10H8.4v2.4H6.8V9.2a.8.8,0,0,1,.8-.8h4v-2l2.8,2.8Z" transform="translate(658.992 2366.002)" fill="#fff"/>
  </g>
</svg>
