<svg xmlns="http://www.w3.org/2000/svg" width="26" height="26" viewBox="0 0 26 26">
  <g id="Group_1069" data-name="Group 1069" transform="translate(-7127 12732)">
    <circle id="Ellipse_203" data-name="Ellipse 203" cx="13" cy="13" r="13" transform="translate(7127 -12732)" fill="#00aeab"/>
    <path id="Path_5564" data-name="Path 5564" d="M15.048,13.309a2.339,2.339,0,0,0-1.574.618L7.747,10.594a2.629,2.629,0,0,0,.072-.562,2.629,2.629,0,0,0-.072-.562l5.663-3.3a2.4,2.4,0,1,0-.771-1.759,2.629,2.629,0,0,0,.072.562l-5.663,3.3a2.41,2.41,0,1,0,0,3.518l5.719,3.341a2.266,2.266,0,0,0-.064.522,2.345,2.345,0,1,0,2.345-2.345Z" transform="translate(7129 -12729)" fill="#fff"/>
  </g>
</svg>
