<svg xmlns="http://www.w3.org/2000/svg" width="26" height="26" viewBox="0 0 26 26">
  <g id="Group_1076" data-name="Group 1076" transform="translate(-7192 12734)">
    <circle id="Ellipse_205" data-name="Ellipse 205" cx="13" cy="13" r="13" transform="translate(7192 -12734)" fill="#00aeab"/>
    <g id="share_location_black_24dp" transform="translate(7193 -12733)">
      <g id="Group_1070" data-name="Group 1070">
        <path id="Path_5567" data-name="Path 5567" d="M0,0H24V24H0Z" fill="none"/>
      </g>
      <g id="Group_1072" data-name="Group 1072">
        <g id="Group_1071" data-name="Group 1071">
          <path id="Path_5568" data-name="Path 5568" d="M13.02,19.93v2.02a9.949,9.949,0,0,0,5.32-2.21l-1.42-1.43A7.941,7.941,0,0,1,13.02,19.93Z" fill="#fff"/>
          <path id="Path_5569" data-name="Path 5569" d="M4.03,12a8.015,8.015,0,0,1,6.95-7.93V2.05a10.006,10.006,0,0,0,0,19.9V19.93A8.015,8.015,0,0,1,4.03,12Z" fill="#fff"/>
          <path id="Path_5570" data-name="Path 5570" d="M19.95,11h2.02a9.949,9.949,0,0,0-2.21-5.32L18.33,7.11A7.868,7.868,0,0,1,19.95,11Z" fill="#fff"/>
          <path id="Path_5571" data-name="Path 5571" d="M18.34,4.26a9.981,9.981,0,0,0-5.32-2.21V4.07a7.941,7.941,0,0,1,3.9,1.62Z" fill="#fff"/>
          <path id="Path_5572" data-name="Path 5572" d="M18.33,16.9l1.43,1.42A9.949,9.949,0,0,0,21.97,13H19.95A7.941,7.941,0,0,1,18.33,16.9Z" fill="#fff"/>
          <path id="Path_5573" data-name="Path 5573" d="M16,11.1a4,4,0,1,0-8,0q0,2.49,4,5.9Q16.005,13.595,16,11.1ZM12,12a1.07,1.07,0,1,1,1.07-1.07A1.071,1.071,0,0,1,12,12Z" fill="#fff"/>
        </g>
      </g>
    </g>
  </g>
</svg>
