<svg xmlns="http://www.w3.org/2000/svg" width="26" height="26" viewBox="0 0 26 26">
  <g id="Group_1067" data-name="Group 1067" transform="translate(-7163 12765)">
    <circle id="Ellipse_202" data-name="Ellipse 202" cx="13" cy="13" r="13" transform="translate(7163 -12765)" fill="#00aeab"/>
    <path id="waze" d="M10.231,1.59q-.259,0-.519.023A8.478,8.478,0,0,0,5.049,3.4,7.442,7.442,0,0,0,2.362,8.819h0A6.463,6.463,0,0,1,2,10.84c-.183.368-.323.49-.953.491a1.08,1.08,0,0,0-.846,1.7,7.688,7.688,0,0,0,3.627,2.585,1.687,1.687,0,0,0,3.3.689,23.8,23.8,0,0,0,2.939.077c.28-.009.561-.035.841-.071a1.688,1.688,0,1,0,3.209-1.025,9.341,9.341,0,0,0,1.77-1.19,6.869,6.869,0,0,0,2.537-5.69,6.588,6.588,0,0,0-1.343-3.541A8.383,8.383,0,0,0,10.231,1.59Zm.281,1.183c.24.006.479.021.717.048A7.124,7.124,0,0,1,16.148,5.57h0a5.4,5.4,0,0,1,1.111,2.914v0a5.649,5.649,0,0,1-2.134,4.724,8.192,8.192,0,0,1-1.825,1.18,1.681,1.681,0,0,0-2.239.71,7.6,7.6,0,0,1-1.028.112A21,21,0,0,1,6.981,15.1a1.684,1.684,0,0,0-2.52-.533,6.785,6.785,0,0,1-3.193-2.122A2.126,2.126,0,0,0,3.05,11.362,6.648,6.648,0,0,0,3.53,8.9v0A6.241,6.241,0,0,1,5.774,4.32h0a7.356,7.356,0,0,1,4.737-1.546ZM8.087,6.337a1,1,0,1,0,.962,1A.981.981,0,0,0,8.087,6.337Zm4.237,0a1,1,0,1,0,.962,1A.98.98,0,0,0,12.324,6.337ZM7.409,9.42a.553.553,0,0,0-.452.246.532.532,0,0,0-.085.415,3.252,3.252,0,0,0,3.277,2.4h.1a3.817,3.817,0,0,0,2.164-.709,2.841,2.841,0,0,0,1.135-1.642.573.573,0,0,0-.072-.42.53.53,0,0,0-.342-.246.549.549,0,0,0-.666.414,2.264,2.264,0,0,1-2.255,1.491,2.175,2.175,0,0,1-2.249-1.5.553.553,0,0,0-.552-.45Z" transform="translate(7165.999 -12761.589)" fill="#fff"/>
  </g>
</svg>
