<svg xmlns="http://www.w3.org/2000/svg" width="26" height="26" viewBox="0 0 26 26">
  <g id="Group_1068" data-name="Group 1068" transform="translate(-7184 12743)">
    <circle id="Ellipse_87" data-name="Ellipse 87" cx="13" cy="13" r="13" transform="translate(7184 -12743)" fill="#00aeab"/>
    <path id="google-maps_1_" data-name="google-maps (1)" d="M15.632,5.2a6.16,6.16,0,0,1-.264,5.448A37.576,37.576,0,0,1,12.616,14.4a11.1,11.1,0,0,0-1.1,1.808,6.685,6.685,0,0,0-.256.664c-.08.224-.152.448-.224.672-.072.208-.16.456-.424.456-.312,0-.4-.352-.464-.592a9.591,9.591,0,0,0-.68-1.68A13.321,13.321,0,0,0,8.28,13.944ZM8.312,7.136l-2.64,3.136a14.872,14.872,0,0,0,1.912,2.792c.168.2.336.408.5.624l3.336-3.952-.032.008A2.35,2.35,0,0,1,8.456,8.4a2.026,2.026,0,0,1-.144-.456,2.441,2.441,0,0,1,0-.8ZM6.28,4.1,6.272,4.1a5.93,5.93,0,0,0-.744,5.848L8.72,6.16l-.04-.04Zm6.112-1.808L9.816,5.336l.032-.008A2.367,2.367,0,0,1,12.664,6.4a2.119,2.119,0,0,1,.248.7,2.155,2.155,0,0,1,.008.816v.008l2.56-3.04A5.591,5.591,0,0,0,12.4,2.3ZM8.928,5.912l3.128-3.72-.032-.008A5.622,5.622,0,0,0,10.616,2,5.556,5.556,0,0,0,6.5,3.848l-.016.008Z" transform="translate(7186.386 -12740)" fill="#fff"/>
  </g>
</svg>
