<svg xmlns="http://www.w3.org/2000/svg" width="84" height="84" viewBox="0 0 84 84"><defs><style>.a,.d{fill:#fff;}.b{fill:#111e72;}.c,.e{fill:none;stroke-miterlimit:22.926;stroke-width:0.216px;}.c{stroke:#111e72;}.d{fill-rule:evenodd;}.e{stroke:#fff;}</style></defs><g transform="translate(-186.359 -273.062)"><rect class="a" width="84" height="84" rx="6" transform="translate(186.359 273.062)"/><path class="b" d="M4.865,0h70.27A4.865,4.865,0,0,1,80,4.865v70.27A4.865,4.865,0,0,1,75.136,80H4.866A4.866,4.866,0,0,1,0,75.134V4.865A4.865,4.865,0,0,1,4.865,0Z" transform="translate(188.359 275.062)"/><path class="c" d="M4.865,0h70.27A4.865,4.865,0,0,1,80,4.865v70.27A4.865,4.865,0,0,1,75.136,80H4.866A4.866,4.866,0,0,1,0,75.134V4.865A4.865,4.865,0,0,1,4.865,0Z" transform="translate(188.359 275.062)"/><path class="d" d="M211.729,296.756a7.309,7.309,0,0,1,2.325.377l-2.511,6.05c-.18.438-.792.769-1.414,1.078-.86.428-.446,2.349,1.141,1.451a4.5,4.5,0,0,0,2.128-2.1l2.313-5.686a7.39,7.39,0,1,1-3.982-1.17Zm33.261.025a7.408,7.408,0,1,1-7.3,8.618l6.741,0a.853.853,0,0,0,.765-1.2l-3.013-6.865A7.324,7.324,0,0,1,244.99,296.781Zm-7.376,6.842a7.426,7.426,0,0,1,3.016-5.413l2.313,5.41Zm-22.888-8.161,2.059-5.277c.316-.809-1.308-1.747-2.354-3.5-1.317-2.2.571-3.091,1.208-3.091h5.812c1.482,0,1.455,1.788-.021,1.788l-4.709,0c-1.368-.005-.54.708-.273,1.132.658,1.046,2.871,2.38,2.244,3.68h18.762l.7-1.16h-4.07c-1.3,0-1.385-2.328-.028-2.328h6.5c1.417,0,1.672,2.364-.316,2.328l-.9,1.467,2.138,5.187a9.1,9.1,0,0,1,3.5-.7,9.2,9.2,0,1,1-9.1,10.41l-5.628,0-13.263-10.813-.632,1.613a9.364,9.364,0,0,1,4.551,7.96,9.185,9.185,0,1,1-9.185-9.2A9.966,9.966,0,0,1,214.726,295.462Zm16.705,8.149,6.754-11.183,1.722,4.107a9.213,9.213,0,0,0-4.083,7.073Zm-1.572-.9-12.172-9.823.291-.906,18.39.033Z"/><path class="e" d="M211.729,296.756a7.309,7.309,0,0,1,2.325.377l-2.511,6.05c-.18.438-.792.769-1.414,1.078-.86.428-.446,2.349,1.141,1.451a4.5,4.5,0,0,0,2.128-2.1l2.313-5.686a7.39,7.39,0,1,1-3.982-1.17Zm33.261.025a7.408,7.408,0,1,1-7.3,8.618l6.741,0a.853.853,0,0,0,.765-1.2l-3.013-6.865A7.324,7.324,0,0,1,244.99,296.781Zm-7.376,6.842a7.426,7.426,0,0,1,3.016-5.413l2.313,5.41Zm-22.888-8.161,2.059-5.277c.316-.809-1.308-1.747-2.354-3.5-1.317-2.2.571-3.091,1.208-3.091h5.812c1.482,0,1.455,1.788-.021,1.788l-4.709,0c-1.368-.005-.54.708-.273,1.132.658,1.046,2.871,2.38,2.244,3.68h18.762l.7-1.16h-4.07c-1.3,0-1.385-2.328-.028-2.328h6.5c1.417,0,1.672,2.364-.316,2.328l-.9,1.467,2.138,5.187a9.1,9.1,0,0,1,3.5-.7,9.2,9.2,0,1,1-9.1,10.41l-5.628,0-13.263-10.813-.632,1.613a9.364,9.364,0,0,1,4.551,7.96,9.185,9.185,0,1,1-9.185-9.2A9.966,9.966,0,0,1,214.726,295.462Zm16.705,8.149,6.754-11.183,1.722,4.107a9.213,9.213,0,0,0-4.083,7.073Zm-1.572-.9-12.172-9.823.291-.906,18.39.033Z"/><path class="b" d="M2.9,0H22.442a2.9,2.9,0,0,1,2.9,2.9V22.442a2.9,2.9,0,0,1-2.9,2.9H2.906A2.906,2.906,0,0,1,0,22.44V2.9A2.9,2.9,0,0,1,2.9,0Z" transform="translate(215.686 321.935)"/><path class="e" d="M2.9,0H22.442a2.9,2.9,0,0,1,2.9,2.9V22.442a2.9,2.9,0,0,1-2.9,2.9H2.906A2.906,2.906,0,0,1,0,22.44V2.9A2.9,2.9,0,0,1,2.9,0Z" transform="translate(215.686 321.935)"/><path class="d" d="M218.585,323.383h19.548a1.456,1.456,0,0,1,1.452,1.451v19.549a1.455,1.455,0,0,1-1.452,1.45H218.585a1.455,1.455,0,0,1-1.45-1.45V324.834A1.456,1.456,0,0,1,218.585,323.383Zm.007-1.448h19.536a2.912,2.912,0,0,1,2.9,2.9v19.538a2.913,2.913,0,0,1-2.9,2.9H218.592a2.913,2.913,0,0,1-2.906-2.9V324.839A2.913,2.913,0,0,1,218.592,321.935Z"/><path class="e" d="M218.585,323.383h19.548a1.456,1.456,0,0,1,1.452,1.451v19.549a1.455,1.455,0,0,1-1.452,1.45H218.585a1.455,1.455,0,0,1-1.45-1.45V324.834A1.456,1.456,0,0,1,218.585,323.383Zm.007-1.448h19.536a2.912,2.912,0,0,1,2.9,2.9v19.538a2.913,2.913,0,0,1-2.9,2.9H218.592a2.913,2.913,0,0,1-2.906-2.9V324.839A2.913,2.913,0,0,1,218.592,321.935Z"/></g></svg>