<svg xmlns="http://www.w3.org/2000/svg" width="80" height="80" viewBox="0 0 80 80"><defs><style>.a{fill:#00339b;}.b{fill:#ffc900;}</style></defs><g transform="translate(17393 227)"><rect class="a" width="80" height="80" transform="translate(-17393 -227)"/><g transform="translate(-17946.867 -2745.712)"><g transform="translate(559.867 2523.712)"><path class="b" d="M1019.518,2523.712l1.356,4.192h4.4l-3.562,2.583,1.357,4.182-3.548-2.575-3.571,2.575,1.368-4.182-3.56-2.583h4.4Z" transform="translate(-985.501 -2523.712)"/><path class="b" d="M1019.518,3458.88l1.356,4.187h4.4l-3.562,2.58,1.357,4.189-3.548-2.588-3.571,2.588,1.368-4.189-3.56-2.58h4.4Z" transform="translate(-985.501 -3400.656)"/><path class="b" d="M795.25,3404.062l1.357,4.189h4.408l-3.573,2.588,1.368,4.182-3.56-2.583-3.559,2.583,1.368-4.182-3.571-2.588h4.406Z" transform="translate(-775.195 -3349.31)"/><path class="b" d="M626.03,3240.139l1.368,4.177h4.393l-3.559,2.6,1.357,4.182-3.559-2.588-3.56,2.588,1.368-4.182-3.546-2.6h4.394Z" transform="translate(-616.466 -3195.534)"/><path class="b" d="M565.63,2999.454l1.356,4.189h4.406l-3.559,2.583,1.355,4.189-3.558-2.585-3.56,2.585,1.356-4.189-3.559-2.583h4.394Z" transform="translate(-559.867 -2969.834)"/><path class="b" d="M620.5,2758.892l1.369,4.189h4.393l-3.559,2.585,1.357,4.184-3.56-2.58-3.56,2.58,1.357-4.184-3.547-2.585h4.381Z" transform="translate(-611.27 -2744.25)"/><path class="b" d="M784.35,2594.846l1.357,4.189h4.407l-3.573,2.58,1.357,4.195-3.547-2.585-3.56,2.585,1.356-4.195-3.559-2.58h4.408Z" transform="translate(-764.972 -2590.341)"/><path class="b" d="M1243.6,2594.846l1.355,4.189h4.408l-3.571,2.58,1.37,4.195-3.562-2.585-3.559,2.585,1.37-4.195-3.573-2.58h4.408Z" transform="translate(-1195.637 -2590.341)"/><path class="b" d="M1418.551,2758.892l1.356,4.189h4.395l-3.559,2.585,1.355,4.184-3.546-2.58-3.572,2.58,1.366-4.184-3.571-2.585h4.408Z" transform="translate(-1359.748 -2744.25)"/><path class="b" d="M1478.769,2988.563l1.357,4.187h4.406l-3.571,2.585,1.368,4.182-3.561-2.591-3.558,2.591,1.357-4.182-3.561-2.585h4.394Z" transform="translate(-1416.167 -2959.622)"/><path class="b" d="M1418.551,3223.823l1.356,4.179h4.395l-3.559,2.58,1.355,4.192-3.546-2.585-3.572,2.585,1.366-4.192-3.571-2.58h4.408Z" transform="translate(-1359.748 -3180.234)"/><path class="b" d="M1249.126,3393.213l1.369,4.182h4.4l-3.548,2.593,1.357,4.182-3.573-2.585-3.546,2.585,1.355-4.182-3.559-2.593h4.395Z" transform="translate(-1200.829 -3339.148)"/></g></g></g></svg>