<svg xmlns="http://www.w3.org/2000/svg" width="80.617" height="80.617" viewBox="0 0 80.617 80.617"><defs><style>.a{fill:#005289;}.b{fill:#e8e8e8;}.c{fill:#01579b;}.d{fill:#fff;}.d,.e,.f{fill-rule:evenodd;}.e{fill:#eaebeb;}.f{fill:#dc291b;}</style></defs><g transform="translate(-837.579 -547.303)"><path class="a" d="M8.136,0H72.482a8.135,8.135,0,0,1,8.135,8.135V72.481a8.136,8.136,0,0,1-8.136,8.136H8.136A8.136,8.136,0,0,1,0,72.481V8.136A8.136,8.136,0,0,1,8.136,0Z" transform="translate(918.196 547.303) rotate(90)"/><path class="b" d="M7.026,0H71.372A7.026,7.026,0,0,1,78.4,7.026V71.371A7.027,7.027,0,0,1,71.371,78.4H7.027A7.027,7.027,0,0,1,0,71.371V7.026A7.026,7.026,0,0,1,7.026,0Z" transform="translate(917.087 548.412) rotate(90)"/><rect class="c" width="73.96" height="73.96" rx="4.807" transform="translate(840.907 550.631)"/><path class="d" d="M888.143,586.211a9.29,9.29,0,0,0,4.1.942,8.865,8.865,0,0,0,0-17.73,9.009,9.009,0,0,0-3.328.608l-.774-1.276c-.623-1.094-1.261-2.173-1.9-3.252-.183-.364-.38-.729-.563-1.078.076-.228.167-.456.258-.684a5.863,5.863,0,0,0,1.216.274c1.383.015,2.643-1.96,1.762-3.024-.471-.547-1.808-.5-2.673-.5h-4.908c-.911,0-1.033,1.762,0,2.1.182.061.35.122.517.167.683.183,1.367.35,2.066.517-.167.456-.319.9-.471,1.352H871.035c.107-.273.213-.562.335-.835a.889.889,0,0,0,.213-.593.866.866,0,0,0-.867-.866h-1.625A1.089,1.089,0,0,1,868,561.234a1.018,1.018,0,0,1,.289-.729c.015-.015.015-.03.03-.046a1.094,1.094,0,0,1,.775-.319h4.026a.856.856,0,0,0,.866-.866.865.865,0,0,0-.866-.865h-4.026a2.772,2.772,0,0,0-1.99.835.114.114,0,0,0-.061.061,2.789,2.789,0,0,0,.061,3.92v.015a2.825,2.825,0,0,0,1.99.82h.152c-.578,1.5-1.155,2.993-1.732,4.482v.015c-.2.486-.395.988-.578,1.474a10.237,10.237,0,0,0-3.357-.577c-.015,0-.015-.016-.031-.031a8.865,8.865,0,1,0,0,17.73h.031a8.8,8.8,0,0,0,6.366-14.98,10.978,10.978,0,0,0-1.322-1.185c.045-.122.091-.228.137-.349.395.349.79.683,1.185,1.017l6.153,5.014c1.23.988,2.461,1.99,3.691,2.978h3.662a8.6,8.6,0,0,0,2.8,5.317,9.042,9.042,0,0,0,1.9,1.246Zm4.6-9.586a1.716,1.716,0,0,1-.5,3.357,1.739,1.739,0,0,1-1.094-.38l-3.008.046h-2.674a6.157,6.157,0,0,0,.775,2.1,7.214,7.214,0,0,0,1.9,2.1,7.034,7.034,0,0,0,4.1,1.291,6.837,6.837,0,0,0,0-13.673,5.86,5.86,0,0,0-2.234.41c.912,1.58,1.823,3.176,2.735,4.756Zm-2.1.987c.031-.076.076-.137.107-.213-.866-1.489-1.732-2.962-2.613-4.451-.016-.046-.016-.091-.031-.137a6.961,6.961,0,0,0-1.868,2.066,7.436,7.436,0,0,0-.836,2.735h5.241Zm-27.058-1.063a1.907,1.907,0,0,1,.289.03c.349-.289.683-.577,1.018-.851.425-1.246.85-2.491,1.291-3.722a7.088,7.088,0,0,0-2.613-.517l-.031-.03a6.837,6.837,0,0,0,0,13.673s.031.031.031,0a6.733,6.733,0,0,0,6.366-4.466,6.852,6.852,0,0,0,.44-2.37,6.927,6.927,0,0,0-2.507-5.211c-.471,1.321-.942,2.658-1.428,3.995l-1.139,1.094v.091a1.725,1.725,0,1,1-1.717-1.716Zm6.655-9.891c-.244.623-.487,1.261-.73,1.9.137.137.274.259.426.4,2.051,1.732,4.1,3.449,6.153,5.181l3.008,2.461c.927-2.552,1.838-5.12,2.75-7.672.273-.76.562-1.52.85-2.264H870.246Zm11.607,8.356q1.458-4.011,2.947-8.022c.486.882.957,1.763,1.444,2.644.288.471.562.942.85,1.413-.3.212-.577.41-.85.638a8.863,8.863,0,0,0-2.872,5.925h-2.431l.912-2.6Z"/><path class="e" d="M865.308,594.937a1.736,1.736,0,0,1,1.759-1.708H888.7a1.739,1.739,0,0,1,1.769,1.708h0v21.722h0a1.748,1.748,0,0,1-1.769,1.723h-21.63a1.746,1.746,0,0,1-1.759-1.723h0V594.937Z"/><path class="f" d="M867.067,594.161H888.7a.832.832,0,0,1,.838.827h0v21.625h0a.835.835,0,0,1-.838.838h-21.63a.833.833,0,0,1-.828-.838h0V594.988h0a.83.83,0,0,1,.828-.827Z"/></g></svg>