<svg xmlns="http://www.w3.org/2000/svg" width="84" height="84" viewBox="0 0 84 84"><defs><style>.a,.d{fill:#fff;}.b{fill:#111e72;}.c,.e,.g{fill:none;stroke-miterlimit:22.926;stroke-width:0.216px;}.c{stroke:#111e72;}.d,.f{fill-rule:evenodd;}.e{stroke:#fff;}.f{fill:#161615;}.g{stroke:#161615;}</style></defs><g transform="translate(16536.998 -211.589)"><rect class="a" width="84" height="84" rx="6" transform="translate(-16536.998 211.589)"/><path class="b" d="M4.865,0h70.27A4.865,4.865,0,0,1,80,4.865v70.27A4.865,4.865,0,0,1,75.136,80H4.866A4.866,4.866,0,0,1,0,75.134V4.865A4.865,4.865,0,0,1,4.865,0Z" transform="translate(-16535 213.589)"/><path class="c" d="M4.865,0h70.27A4.865,4.865,0,0,1,80,4.865v70.27A4.865,4.865,0,0,1,75.136,80H4.866A4.866,4.866,0,0,1,0,75.134V4.865A4.865,4.865,0,0,1,4.865,0Z" transform="translate(-16535 213.589)"/><path class="d" d="M211.729,411.04a7.336,7.336,0,0,1,2.325.376l-2.511,6.051c-.18.437-.792.769-1.414,1.078-.86.428-.446,2.349,1.141,1.451a4.5,4.5,0,0,0,2.128-2.1l2.313-5.686a7.39,7.39,0,1,1-3.982-1.17Zm33.261.025a7.408,7.408,0,1,1-7.3,8.618l6.741,0a.854.854,0,0,0,.765-1.2l-3.013-6.865A7.324,7.324,0,0,1,244.99,411.065Zm-7.376,6.842a7.422,7.422,0,0,1,3.016-5.413l2.313,5.41Zm-22.888-8.161,2.059-5.277c.316-.809-1.308-1.748-2.354-3.5-1.317-2.2.571-3.091,1.208-3.091h5.812c1.482,0,1.455,1.788-.021,1.788l-4.709,0c-1.368-.005-.54.708-.273,1.131.658,1.047,2.871,2.381,2.244,3.681h18.762l.7-1.16h-4.07c-1.3,0-1.385-2.328-.028-2.328h6.5c1.417,0,1.672,2.364-.316,2.328l-.9,1.466,2.138,5.187a9.1,9.1,0,0,1,3.5-.7,9.2,9.2,0,1,1-9.1,10.409l-5.628,0-13.263-10.813-.632,1.613a9.364,9.364,0,0,1,4.551,7.96,9.185,9.185,0,1,1-9.185-9.2A9.966,9.966,0,0,1,214.726,409.746Zm16.705,8.149,6.754-11.183,1.722,4.107a9.213,9.213,0,0,0-4.083,7.073Zm-1.572-.9-12.172-9.824.291-.9,18.39.032Z" transform="translate(-16723.359 -175.757)"/><path class="e" d="M211.729,411.04a7.336,7.336,0,0,1,2.325.376l-2.511,6.051c-.18.437-.792.769-1.414,1.078-.86.428-.446,2.349,1.141,1.451a4.5,4.5,0,0,0,2.128-2.1l2.313-5.686a7.39,7.39,0,1,1-3.982-1.17Zm33.261.025a7.408,7.408,0,1,1-7.3,8.618l6.741,0a.854.854,0,0,0,.765-1.2l-3.013-6.865A7.324,7.324,0,0,1,244.99,411.065Zm-7.376,6.842a7.422,7.422,0,0,1,3.016-5.413l2.313,5.41Zm-22.888-8.161,2.059-5.277c.316-.809-1.308-1.748-2.354-3.5-1.317-2.2.571-3.091,1.208-3.091h5.812c1.482,0,1.455,1.788-.021,1.788l-4.709,0c-1.368-.005-.54.708-.273,1.131.658,1.047,2.871,2.381,2.244,3.681h18.762l.7-1.16h-4.07c-1.3,0-1.385-2.328-.028-2.328h6.5c1.417,0,1.672,2.364-.316,2.328l-.9,1.466,2.138,5.187a9.1,9.1,0,0,1,3.5-.7,9.2,9.2,0,1,1-9.1,10.409l-5.628,0-13.263-10.813-.632,1.613a9.364,9.364,0,0,1,4.551,7.96,9.185,9.185,0,1,1-9.185-9.2A9.966,9.966,0,0,1,214.726,409.746Zm16.705,8.149,6.754-11.183,1.722,4.107a9.213,9.213,0,0,0-4.083,7.073Zm-1.572-.9-12.172-9.824.291-.9,18.39.032Z" transform="translate(-16723.359 -175.757)"/><g transform="translate(-16723.359 -175.757)"><path class="a" d="M2.9,0H32.379a2.9,2.9,0,0,1,2.9,2.9V22.44a2.906,2.906,0,0,1-2.906,2.906H2.906A2.906,2.906,0,0,1,0,22.44V2.9A2.9,2.9,0,0,1,2.9,0Z" transform="translate(210.718 436.131)"/><path class="e" d="M2.9,0H32.379a2.9,2.9,0,0,1,2.9,2.9V22.44a2.906,2.906,0,0,1-2.906,2.906H2.906A2.906,2.906,0,0,1,0,22.44V2.9A2.9,2.9,0,0,1,2.9,0Z" transform="translate(210.718 436.131)"/><path class="f" d="M213.617,437.58H243.1a1.454,1.454,0,0,1,1.451,1.45v19.548a1.454,1.454,0,0,1-1.451,1.45H213.617a1.454,1.454,0,0,1-1.451-1.45V439.03A1.455,1.455,0,0,1,213.617,437.58Zm.007-1.449H243.1a2.914,2.914,0,0,1,2.9,2.9v19.536a2.914,2.914,0,0,1-2.9,2.9H213.624a2.913,2.913,0,0,1-2.906-2.9V439.036A2.914,2.914,0,0,1,213.624,436.131Z"/><path class="g" d="M213.617,437.58H243.1a1.454,1.454,0,0,1,1.451,1.45v19.548a1.454,1.454,0,0,1-1.451,1.45H213.617a1.454,1.454,0,0,1-1.451-1.45V439.03A1.455,1.455,0,0,1,213.617,437.58Zm.007-1.449H243.1a2.914,2.914,0,0,1,2.9,2.9v19.536a2.914,2.914,0,0,1-2.9,2.9H213.624a2.913,2.913,0,0,1-2.906-2.9V439.036A2.914,2.914,0,0,1,213.624,436.131Z"/></g></g></svg>