<svg xmlns="http://www.w3.org/2000/svg" width="84" height="84" viewBox="0 0 84 84"><defs><style>.a,.d{fill:#fff;}.b{fill:#111e72;}.c,.e{fill:none;stroke-miterlimit:22.926;stroke-width:0.216px;}.c{stroke:#111e72;}.d{fill-rule:evenodd;}.e{stroke:#fff;}.f{fill:#d9000d;}</style></defs><g transform="translate(-186.359 -174.757)"><rect class="a" width="84" height="84" rx="6" transform="translate(186.359 174.757)"/><path class="b" d="M4.865,0h70.27A4.865,4.865,0,0,1,80,4.865v70.27A4.865,4.865,0,0,1,75.136,80H4.866A4.866,4.866,0,0,1,0,75.134V4.865A4.865,4.865,0,0,1,4.865,0Z" transform="translate(188.359 176.757)"/><path class="c" d="M4.865,0h70.27A4.865,4.865,0,0,1,80,4.865v70.27A4.865,4.865,0,0,1,75.136,80H4.866A4.866,4.866,0,0,1,0,75.134V4.865A4.865,4.865,0,0,1,4.865,0Z" transform="translate(188.359 176.757)"/><path class="d" d="M211.729,198.451a7.336,7.336,0,0,1,2.325.376l-2.511,6.051c-.18.437-.792.769-1.414,1.077-.86.428-.446,2.349,1.141,1.452a4.5,4.5,0,0,0,2.128-2.1l2.313-5.686a7.39,7.39,0,1,1-3.982-1.17Zm33.261.024a7.408,7.408,0,1,1-7.3,8.618l6.741,0a.854.854,0,0,0,.765-1.2l-3.013-6.865A7.325,7.325,0,0,1,244.99,198.475Zm-7.376,6.842a7.422,7.422,0,0,1,3.016-5.412l2.313,5.41Zm-22.888-8.16,2.059-5.277c.316-.81-1.308-1.748-2.354-3.5-1.317-2.205.571-3.091,1.208-3.091h5.812c1.482,0,1.455,1.787-.021,1.787l-4.709,0c-1.368-.006-.54.707-.273,1.131.658,1.047,2.871,2.38,2.244,3.681h18.762l.7-1.16h-4.07c-1.3,0-1.385-2.328-.028-2.328h6.5c1.417,0,1.672,2.363-.316,2.328l-.9,1.466,2.138,5.187a9.1,9.1,0,0,1,3.5-.7,9.2,9.2,0,1,1-9.1,10.409l-5.628,0-13.263-10.813-.632,1.613a9.363,9.363,0,0,1,4.551,7.959,9.185,9.185,0,1,1-9.185-9.2A9.966,9.966,0,0,1,214.726,197.157Zm16.705,8.148,6.754-11.183,1.722,4.108a9.212,9.212,0,0,0-4.083,7.072Zm-1.572-.9-12.172-9.824.291-.906,18.39.033Z"/><path class="e" d="M211.729,198.451a7.336,7.336,0,0,1,2.325.376l-2.511,6.051c-.18.437-.792.769-1.414,1.077-.86.428-.446,2.349,1.141,1.452a4.5,4.5,0,0,0,2.128-2.1l2.313-5.686a7.39,7.39,0,1,1-3.982-1.17Zm33.261.024a7.408,7.408,0,1,1-7.3,8.618l6.741,0a.854.854,0,0,0,.765-1.2l-3.013-6.865A7.325,7.325,0,0,1,244.99,198.475Zm-7.376,6.842a7.422,7.422,0,0,1,3.016-5.412l2.313,5.41Zm-22.888-8.16,2.059-5.277c.316-.81-1.308-1.748-2.354-3.5-1.317-2.205.571-3.091,1.208-3.091h5.812c1.482,0,1.455,1.787-.021,1.787l-4.709,0c-1.368-.006-.54.707-.273,1.131.658,1.047,2.871,2.38,2.244,3.681h18.762l.7-1.16h-4.07c-1.3,0-1.385-2.328-.028-2.328h6.5c1.417,0,1.672,2.363-.316,2.328l-.9,1.466,2.138,5.187a9.1,9.1,0,0,1,3.5-.7,9.2,9.2,0,1,1-9.1,10.409l-5.628,0-13.263-10.813-.632,1.613a9.363,9.363,0,0,1,4.551,7.959,9.185,9.185,0,1,1-9.185-9.2A9.966,9.966,0,0,1,214.726,197.157Zm16.705,8.148,6.754-11.183,1.722,4.108a9.212,9.212,0,0,0-4.083,7.072Zm-1.572-.9-12.172-9.824.291-.906,18.39.033Z"/><path class="f" d="M2.9,0H22.442a2.9,2.9,0,0,1,2.9,2.9V22.442a2.9,2.9,0,0,1-2.9,2.9H2.906A2.906,2.906,0,0,1,0,22.44V2.9A2.9,2.9,0,0,1,2.9,0Z" transform="translate(215.686 223.63)"/><path class="e" d="M2.9,0H22.442a2.9,2.9,0,0,1,2.9,2.9V22.442a2.9,2.9,0,0,1-2.9,2.9H2.906A2.906,2.906,0,0,1,0,22.44V2.9A2.9,2.9,0,0,1,2.9,0Z" transform="translate(215.686 223.63)"/><path class="d" d="M218.585,225.078h19.548a1.455,1.455,0,0,1,1.452,1.45v19.549a1.456,1.456,0,0,1-1.452,1.451H218.585a1.456,1.456,0,0,1-1.45-1.451V226.528A1.456,1.456,0,0,1,218.585,225.078Zm.007-1.448h19.536a2.912,2.912,0,0,1,2.9,2.9v19.537a2.912,2.912,0,0,1-2.9,2.9H218.592a2.913,2.913,0,0,1-2.906-2.9V226.534A2.913,2.913,0,0,1,218.592,223.63Z"/><path class="e" d="M218.585,225.078h19.548a1.455,1.455,0,0,1,1.452,1.45v19.549a1.456,1.456,0,0,1-1.452,1.451H218.585a1.456,1.456,0,0,1-1.45-1.451V226.528A1.456,1.456,0,0,1,218.585,225.078Zm.007-1.448h19.536a2.912,2.912,0,0,1,2.9,2.9v19.537a2.912,2.912,0,0,1-2.9,2.9H218.592a2.913,2.913,0,0,1-2.906-2.9V226.534A2.913,2.913,0,0,1,218.592,223.63Z"/></g></svg>