<svg xmlns="http://www.w3.org/2000/svg" width="82.111" height="82.049" viewBox="0 0 82.111 82.049"><defs><style>.a{fill:none;stroke:#fff;stroke-linecap:round;stroke-linejoin:round;stroke-width:2px;}</style></defs><g transform="translate(-764.944 -608.948)"><path class="a" d="M47.925,80.426a40,40,0,1,0-6.9.6" transform="translate(765.005 608.966)"/><g transform="translate(787 632)"><path class="a" d="M25.812,30l4.781,7.724,8.021-12.957" transform="translate(-12.921 -9.021)"/><path class="a" d="M49.339,17.267c.515,7.078,1.3,13.283-.123,17.55-3.781,11.355-16.9,18.193-16.9,18.193h0s-13.12-6.838-16.9-18.193c-1.421-4.267-.638-10.472-.123-17.55L32.314,13.01l12.124,3.031" transform="translate(-14.606 -13.01)"/><path class="a" d="M15.2,21.265l17.024-4.258,12.587,3.148" transform="translate(-14.517 -10.187)"/></g></g></svg>