<svg id="train_black_24dp" xmlns="http://www.w3.org/2000/svg" width="24" height="24" viewBox="0 0 24 24">
  <path id="Path_5877" data-name="Path 5877" d="M0,0H24V24H0Z" fill="none"/>
  <path id="Path_5878" data-name="Path 5878" d="M12,2C8,2,4,2.5,4,6v9.5A3.5,3.5,0,0,0,7.5,19L6,20.5V21H8.23l2-2H14l2,2h2v-.5L16.5,19A3.5,3.5,0,0,0,20,15.5V6C20,2.5,16.42,2,12,2ZM7.5,17A1.5,1.5,0,1,1,9,15.5,1.5,1.5,0,0,1,7.5,17ZM11,10H6V6h5Zm2,0V6h5v4Zm3.5,7A1.5,1.5,0,1,1,18,15.5,1.5,1.5,0,0,1,16.5,17Z" fill="#fff"/>
</svg>
