<svg id="visit_x5F_estonia_x5F_postive" xmlns="http://www.w3.org/2000/svg" width="100" height="100" viewBox="0 0 100 100">
  <g id="Group_1252" data-name="Group 1252">
    <rect id="Rectangle_462" data-name="Rectangle 462" width="100" height="100" fill="#0000f0"/>
    <g id="Group_1251" data-name="Group 1251" transform="translate(11.142 47.019)">
      <path id="Path_5688" data-name="Path 5688" d="M93.048,159.134l-1.411-.494c-.529-.212-2.081-.811-2.328-1.446a.671.671,0,0,0-.6-.494.318.318,0,0,0-.176.035.508.508,0,0,0-.388.317.776.776,0,0,0-.071.494c.282.988,1.834,1.869,3.1,2.328l1.411.494c.247.106.529.176.776.282,1.093.353,1.9.67,2.187,1.305a.666.666,0,0,0,.635.388.6.6,0,0,0,.247-.035.7.7,0,0,0,.353-.882C96.329,160.333,94.882,159.8,93.048,159.134Z" transform="translate(-68.141 -148.446)" fill="#fff"/>
      <path id="Path_5689" data-name="Path 5689" d="M88.57,149.68h.106c.353,0,.494-.282.67-.564a3.5,3.5,0,0,1,3.175-1.481,3.8,3.8,0,0,1,3.139,1.305.687.687,0,0,0,.917.212.679.679,0,0,0,.212-.882,5.035,5.035,0,0,0-4.233-1.869c-2.222,0-4.339,1.235-4.48,2.645a.535.535,0,0,0,.106.459C88.252,149.645,88.393,149.68,88.57,149.68Z" transform="translate(-68.142 -141.779)" fill="#fff"/>
      <path id="Path_5690" data-name="Path 5690" d="M119.935,179.77h3.986a.632.632,0,0,0,.635-.635.656.656,0,0,0-.635-.635h-3.986a.632.632,0,0,0-.635.635A.683.683,0,0,0,119.935,179.77Z" transform="translate(-88.361 -162.556)" fill="#fff"/>
      <path id="Path_5691" data-name="Path 5691" d="M48.281,157.889a.83.83,0,0,0,.282.071.716.716,0,0,0,.6-.388l3.986-9.489a.6.6,0,0,0-.317-.811.618.618,0,0,0-.847.317L48,157.078A.623.623,0,0,0,48.281,157.889Z" transform="translate(-42.174 -142.298)" fill="#fff"/>
      <path id="Path_5692" data-name="Path 5692" d="M73.67,136.439a.689.689,0,0,0,.67-.635v-1.869a.671.671,0,0,0-1.34,0V135.8A.749.749,0,0,0,73.67,136.439Z" transform="translate(-58.392 -133.3)" fill="#fff"/>
      <path id="Path_5693" data-name="Path 5693" d="M68.294,148.37H69.6v8.783a.671.671,0,0,0,1.34,0v-9.418a.641.641,0,0,0-.67-.635h-1.94a.656.656,0,0,0-.635.635A.6.6,0,0,0,68.294,148.37Z" transform="translate(-54.956 -142.232)" fill="#fff"/>
      <path id="Path_5694" data-name="Path 5694" d="M125.57,136.439a.656.656,0,0,0,.635-.635v-1.869a.653.653,0,0,0-1.305,0V135.8A.689.689,0,0,0,125.57,136.439Z" transform="translate(-91.986 -133.3)" fill="#fff"/>
      <path id="Path_5695" data-name="Path 5695" d="M120.1,148.37H121.4v8.783a.689.689,0,0,0,.67.635.656.656,0,0,0,.635-.635v-9.418a.632.632,0,0,0-.635-.635h-1.94a.635.635,0,0,0-.035,1.27Z" transform="translate(-88.49 -142.232)" fill="#fff"/>
      <path id="Path_5696" data-name="Path 5696" d="M144.429,137.744a.663.663,0,0,0,.67-.635V133.97a.67.67,0,0,0-.67-.67.641.641,0,0,0-.635.67v3.139A.592.592,0,0,0,144.429,137.744Z" transform="translate(-104.213 -133.3)" fill="#fff"/>
      <path id="Path_5697" data-name="Path 5697" d="M137.07,148.37h1.9v8.325c0,2.293,1.27,2.751,3.21,2.751H143.6a.636.636,0,1,0,0-1.27h-1.411c-1.305,0-1.9-.212-1.9-1.481V147.77a.67.67,0,0,0-.67-.67h-2.54a.663.663,0,0,0-.67.635A.717.717,0,0,0,137.07,148.37Z" transform="translate(-99.429 -142.232)" fill="#fff"/>
      <path id="Path_5698" data-name="Path 5698" d="M91.386,176.745c2.751,0,4.021-1.305,4.374-2.4a.576.576,0,0,0,0-.423.771.771,0,0,0-.106-.176.634.634,0,0,0-.317-.212.675.675,0,0,0-.811.423v.035a2.767,2.767,0,0,1-1.834,1.376,6.328,6.328,0,0,1-1.27.141c-1.552,0-3.175-.741-3.563-1.623a.652.652,0,0,0-.6-.388.51.51,0,0,0-.247.071c-.035,0-.071.035-.106.071a.615.615,0,0,0-.212.776C87.223,175.687,89.375,176.745,91.386,176.745Z" transform="translate(-67.219 -159.32)" fill="#fff"/>
      <path id="Path_5699" data-name="Path 5699" d="M151.7,147.1h-2.363a.641.641,0,0,0-.635.67.6.6,0,0,0,.635.6H151.7a.663.663,0,0,0,.67-.635A.688.688,0,0,0,151.7,147.1Z" transform="translate(-107.39 -142.232)" fill="#fff"/>
      <path id="Path_5700" data-name="Path 5700" d="M72.756,179.135a.656.656,0,0,0-.635-.635H68.135a.656.656,0,0,0-.635.635.632.632,0,0,0,.635.635h3.986A.656.656,0,0,0,72.756,179.135Z" transform="translate(-54.832 -162.556)" fill="#fff"/>
      <path id="Path_5701" data-name="Path 5701" d="M36.883,159.593a.83.83,0,0,0,.282-.071.688.688,0,0,0,.353-.353.6.6,0,0,0,0-.494l-4.691-11.287a.652.652,0,0,0-.6-.388.665.665,0,0,0-.282.071.638.638,0,0,0-.317.811l4.691,11.287A.6.6,0,0,0,36.883,159.593Z" transform="translate(-31.587 -142.168)" fill="#fff"/>
      <g id="Group_1250" data-name="Group 1250" transform="translate(0.463 23.457)">
        <g id="Group_1249" data-name="Group 1249">
          <path id="Path_5702" data-name="Path 5702" d="M201.635,214.87h1.305v8.748a.653.653,0,0,0,1.305,0v-9.383a.641.641,0,0,0-.67-.635h-1.94a.656.656,0,0,0-.635.635A.683.683,0,0,0,201.635,214.87Z" transform="translate(-141.705 -208.732)" fill="#fff"/>
          <path id="Path_5703" data-name="Path 5703" d="M207.135,202.939a.689.689,0,0,0,.67-.635v-1.869a.689.689,0,0,0-.67-.635.656.656,0,0,0-.635.635V202.3A.656.656,0,0,0,207.135,202.939Z" transform="translate(-145.265 -199.8)" fill="#fff"/>
          <path id="Path_5704" data-name="Path 5704" d="M222.758,215.5a5.267,5.267,0,0,1,3.527-1.27,3.57,3.57,0,0,1,3.492,1.834.652.652,0,0,0,.6.388.83.83,0,0,0,.282-.071.62.62,0,0,0,.317-.353.491.491,0,0,0-.035-.494,4.843,4.843,0,0,0-4.656-2.54,6.643,6.643,0,0,0-4.374,1.587.569.569,0,0,0-.212.459.709.709,0,0,0,.141.459A.7.7,0,0,0,222.758,215.5Z" transform="translate(-155.104 -208.344)" fill="#fff"/>
          <path id="Path_5705" data-name="Path 5705" d="M40.532,215.093a3.923,3.923,0,0,1,2.751-1.023,3.78,3.78,0,0,1,3.845,3.21.656.656,0,0,0,.635.635.663.663,0,0,0,.67-.635,5.031,5.031,0,0,0-5.15-4.48,5.224,5.224,0,0,0-3.527,1.235.659.659,0,0,0-.106.917A.616.616,0,0,0,40.532,215.093Z" transform="translate(-37.181 -208.214)" fill="#fff"/>
          <path id="Path_5706" data-name="Path 5706" d="M107.035,204.244a.663.663,0,0,0,.67-.635V200.47a.67.67,0,0,0-.67-.67.641.641,0,0,0-.635.67v3.139A.632.632,0,0,0,107.035,204.244Z" transform="translate(-80.474 -199.8)" fill="#fff"/>
          <path id="Path_5707" data-name="Path 5707" d="M130.761,212.9a5.684,5.684,0,0,0-5.926,5.432.592.592,0,0,0,.141.459.6.6,0,0,0,.459.247h.071a.682.682,0,0,0,.635-.635,4.424,4.424,0,0,1,4.621-4.233c2.822,0,4.656,1.975,4.656,4.974,0,3.139-1.869,5.256-4.656,5.256a4.507,4.507,0,0,1-4.656-4.409.649.649,0,0,0-.635-.6H125.4a.6.6,0,0,0-.459.247.678.678,0,0,0-.141.423,5.719,5.719,0,0,0,5.961,5.573c3.563,0,5.961-2.61,5.961-6.526C136.722,215.369,134.359,212.9,130.761,212.9Z" transform="translate(-92.384 -208.279)" fill="#fff"/>
          <path id="Path_5708" data-name="Path 5708" d="M106.325,224.576h-1.411c-1.305,0-1.9-.212-1.9-1.481V214.17a.67.67,0,0,0-.67-.67h-2.5a.635.635,0,1,0,0,1.27h1.9v8.325c0,2.257,1.27,2.751,3.21,2.751h1.411a.632.632,0,0,0,.635-.635A.663.663,0,0,0,106.325,224.576Z" transform="translate(-75.814 -208.668)" fill="#fff"/>
          <path id="Path_5709" data-name="Path 5709" d="M114.3,213.6h-2.363a.641.641,0,0,0-.635.67.626.626,0,0,0,.635.6H114.3a.636.636,0,1,0,0-1.27Z" transform="translate(-83.646 -208.732)" fill="#fff"/>
          <path id="Path_5710" data-name="Path 5710" d="M191.37,228.4a.663.663,0,0,0-.67.635v5.926a.67.67,0,0,0,.67.67.641.641,0,0,0,.635-.67V229.07A.619.619,0,0,0,191.37,228.4Z" transform="translate(-135.039 -218.312)" fill="#fff"/>
          <path id="Path_5711" data-name="Path 5711" d="M166.535,213.2a.641.641,0,0,0-.635.67v11.252a.663.663,0,0,0,.635.67.641.641,0,0,0,.635-.67V213.87A.619.619,0,0,0,166.535,213.2Z" transform="translate(-118.986 -208.473)" fill="#fff"/>
          <path id="Path_5712" data-name="Path 5712" d="M230.289,224a.67.67,0,0,0-.67.67v3.492c-.141,3.28-4.233,3.28-4.233,3.28-1.764,0-2.681-.988-2.681-1.94a2.3,2.3,0,0,1,2.152-2.469l3.915-.811a.7.7,0,0,0,.423-.282.612.612,0,0,0,.106-.494.719.719,0,0,0-.67-.529h-.106l-4.021.882a3.566,3.566,0,0,0-3.1,3.7c0,1.552,1.235,3.21,3.986,3.21a6.187,6.187,0,0,0,3.139-.776,3.252,3.252,0,0,0,.67-.459c.071-.071.141-.106.212-.176l.247-.423-.035.423v.811a.67.67,0,0,0,.67.67.641.641,0,0,0,.635-.67V224.67A.641.641,0,0,0,230.289,224Z" transform="translate(-154.91 -215.464)" fill="#fff"/>
          <path id="Path_5713" data-name="Path 5713" d="M205.521,244.9h-3.986a.635.635,0,0,0,0,1.27h3.986a.635.635,0,1,0,0-1.27Z" transform="translate(-141.641 -228.992)" fill="#fff"/>
          <path id="Path_5714" data-name="Path 5714" d="M174.163,213.6H173.6a.665.665,0,0,0-.282.071l-2.469,1.305a.508.508,0,0,0-.317.388.6.6,0,0,0,.035.494.642.642,0,0,0,.882.247l2.328-1.27h.423c2.187,0,3.457,1.093,3.457,2.892a.67.67,0,0,0,.67.67.641.641,0,0,0,.635-.67C178.96,215.187,177.126,213.6,174.163,213.6Z" transform="translate(-121.958 -208.732)" fill="#fff"/>
          <path id="Path_5715" data-name="Path 5715" d="M78.754,240.082a.634.634,0,0,0-.317-.212.7.7,0,0,0-.811.388v.035a2.767,2.767,0,0,1-1.834,1.376,6.327,6.327,0,0,1-1.27.141c-1.552,0-3.175-.741-3.563-1.623a.652.652,0,0,0-.6-.388.51.51,0,0,0-.247.071c-.035,0-.071.035-.106.071a.615.615,0,0,0-.212.776c.6,1.305,2.716,2.4,4.727,2.4,2.751,0,4.021-1.27,4.374-2.4a.576.576,0,0,0,0-.423C78.824,240.223,78.824,240.153,78.754,240.082Z" transform="translate(-56.743 -225.691)" fill="#fff"/>
          <path id="Path_5716" data-name="Path 5716" d="M75.555,212.9c-2.222,0-4.339,1.235-4.48,2.646a.535.535,0,0,0,.106.459.615.615,0,0,0,.423.212h.106c.353,0,.494-.282.67-.564a3.5,3.5,0,0,1,3.175-1.481,3.681,3.681,0,0,1,3.1,1.305.687.687,0,0,0,.917.212.634.634,0,0,0,.176-.882A4.85,4.85,0,0,0,75.555,212.9Z" transform="translate(-57.601 -208.279)" fill="#fff"/>
          <path id="Path_5717" data-name="Path 5717" d="M42.706,226.844a5,5,0,0,1-3.668,1.552,5.225,5.225,0,0,1-3.88-8.219.7.7,0,0,0,.212-.423.843.843,0,0,0-.176-.494.66.66,0,0,0-.917,0,6.151,6.151,0,0,0-1.376,3.986,6.009,6.009,0,0,0,6.138,6.42,6.365,6.365,0,0,0,4.621-1.94.706.706,0,0,0-.035-.952A.747.747,0,0,0,42.706,226.844Z" transform="translate(-32.9 -212.276)" fill="#fff"/>
          <path id="Path_5718" data-name="Path 5718" d="M76.148,225.634l-1.411-.494c-.529-.212-2.046-.776-2.328-1.446a.671.671,0,0,0-.6-.494.318.318,0,0,0-.176.035.508.508,0,0,0-.388.317.776.776,0,0,0-.071.494c.247.988,1.834,1.869,3.1,2.328l1.411.494c.247.106.529.176.741.282,1.093.353,1.9.67,2.187,1.305a.666.666,0,0,0,.635.388.6.6,0,0,0,.247-.035.691.691,0,0,0,.353-.882C79.429,226.833,77.982,226.3,76.148,225.634Z" transform="translate(-57.665 -214.946)" fill="#fff"/>
          <path id="Path_5719" data-name="Path 5719" d="M46.624,228.3H38.37a.663.663,0,0,0-.67.635.641.641,0,0,0,.67.635h8.254a.635.635,0,0,0,0-1.27Z" transform="translate(-36.007 -218.247)" fill="#fff"/>
        </g>
      </g>
    </g>
  </g>
</svg>
