<svg id="Component_52_45" data-name="Component 52 – 45" xmlns="http://www.w3.org/2000/svg" width="100" height="100" viewBox="0 0 100 100">
  <g id="puhka_x5F_eestis_x5F_positive">
    <g id="Group_1275" data-name="Group 1275">
      <rect id="Rectangle_467" data-name="Rectangle 467" width="100" height="100" fill="#0000f0"/>
      <g id="Group_1274" data-name="Group 1274" transform="translate(12.346 47.019)">
        <g id="Group_1272" data-name="Group 1272" transform="translate(0 23.422)">
          <path id="Path_5840" data-name="Path 5840" d="M167.635,214.805h1.305v8.748a.653.653,0,0,0,1.305,0v-9.418a.641.641,0,0,0-.67-.635h-1.94a.656.656,0,0,0-.635.635A.689.689,0,0,0,167.635,214.805Z" transform="translate(-120.439 -208.632)" fill="#fff"/>
          <path id="Path_5841" data-name="Path 5841" d="M173.135,202.939a.663.663,0,0,0,.67-.635v-1.869a.689.689,0,0,0-.67-.635.656.656,0,0,0-.635.635V202.3A.683.683,0,0,0,173.135,202.939Z" transform="translate(-123.999 -199.765)" fill="#fff"/>
          <path id="Path_5842" data-name="Path 5842" d="M80.332,215.093a3.923,3.923,0,0,1,2.751-1.023,3.78,3.78,0,0,1,3.845,3.21.656.656,0,0,0,.635.635.663.663,0,0,0,.67-.635,5.031,5.031,0,0,0-5.15-4.48,5.224,5.224,0,0,0-3.527,1.235.659.659,0,0,0-.106.917A.616.616,0,0,0,80.332,215.093Z" transform="translate(-63.683 -208.179)" fill="#fff"/>
          <path id="Path_5843" data-name="Path 5843" d="M148.035,204.18a.67.67,0,0,0,.67-.67V200.37a.67.67,0,0,0-.67-.67.641.641,0,0,0-.635.67v3.139A.641.641,0,0,0,148.035,204.18Z" transform="translate(-107.753 -199.7)" fill="#fff"/>
          <path id="Path_5844" data-name="Path 5844" d="M147.36,224.576H145.95c-1.305,0-1.9-.212-1.9-1.481V214.17a.67.67,0,0,0-.67-.67h-2.54a.635.635,0,1,0,0,1.27h1.9v8.325c0,2.257,1.27,2.751,3.21,2.751h1.411a.632.632,0,0,0,.635-.635A.656.656,0,0,0,147.36,224.576Z" transform="translate(-103.092 -208.632)" fill="#fff"/>
          <path id="Path_5845" data-name="Path 5845" d="M155.3,213.6h-2.363a.641.641,0,0,0-.635.67.626.626,0,0,0,.635.6H155.3a.663.663,0,0,0,.67-.635A.641.641,0,0,0,155.3,213.6Z" transform="translate(-110.924 -208.697)" fill="#fff"/>
          <path id="Path_5846" data-name="Path 5846" d="M171.521,244.9h-3.986a.635.635,0,0,0,0,1.27h3.986a.656.656,0,0,0,.635-.635A.683.683,0,0,0,171.521,244.9Z" transform="translate(-120.374 -228.956)" fill="#fff"/>
          <path id="Path_5847" data-name="Path 5847" d="M118.654,240.247a.635.635,0,0,0-.317-.212.675.675,0,0,0-.811.423v.035a2.767,2.767,0,0,1-1.834,1.376,6.329,6.329,0,0,1-1.27.141c-1.552,0-3.175-.741-3.563-1.623a.652.652,0,0,0-.6-.388.51.51,0,0,0-.247.071c-.035,0-.071.035-.106.071a.615.615,0,0,0-.212.776c.6,1.34,2.716,2.4,4.727,2.4,2.751,0,4.021-1.27,4.374-2.4a.576.576,0,0,0,0-.423C118.76,240.353,118.724,240.282,118.654,240.247Z" transform="translate(-83.31 -225.785)" fill="#fff"/>
          <path id="Path_5848" data-name="Path 5848" d="M115.455,212.9c-2.222,0-4.339,1.235-4.48,2.646a.535.535,0,0,0,.106.459.475.475,0,0,0,.423.176h.106c.353,0,.494-.282.67-.564a3.5,3.5,0,0,1,3.175-1.481,3.8,3.8,0,0,1,3.139,1.305.687.687,0,0,0,.917.212.679.679,0,0,0,.212-.882A5.153,5.153,0,0,0,115.455,212.9Z" transform="translate(-84.168 -208.244)" fill="#fff"/>
          <path id="Path_5849" data-name="Path 5849" d="M82.506,226.844a5,5,0,0,1-3.668,1.552,5.225,5.225,0,0,1-3.88-8.219.7.7,0,0,0,.212-.423.843.843,0,0,0-.176-.494.66.66,0,0,0-.917,0,6.151,6.151,0,0,0-1.376,3.986,6.009,6.009,0,0,0,6.138,6.42,6.505,6.505,0,0,0,4.656-1.94.706.706,0,0,0-.035-.952A.8.8,0,0,0,82.506,226.844Z" transform="translate(-59.402 -212.241)" fill="#fff"/>
          <path id="Path_5850" data-name="Path 5850" d="M116.048,225.634l-1.411-.494c-.529-.212-2.081-.811-2.328-1.446a.671.671,0,0,0-.6-.494.318.318,0,0,0-.176.035.508.508,0,0,0-.388.317.776.776,0,0,0-.071.494c.247.988,1.834,1.869,3.1,2.328l1.411.494c.247.106.529.176.776.282,1.093.388,1.9.67,2.187,1.305a.666.666,0,0,0,.635.388.6.6,0,0,0,.247-.035.7.7,0,0,0,.353-.882C119.329,226.833,117.882,226.3,116.048,225.634Z" transform="translate(-84.232 -214.911)" fill="#fff"/>
          <path id="Path_5851" data-name="Path 5851" d="M194.554,240.247a.635.635,0,0,0-.317-.212.675.675,0,0,0-.811.423v.035a2.767,2.767,0,0,1-1.834,1.376,6.329,6.329,0,0,1-1.27.141c-1.552,0-3.175-.741-3.563-1.623a.652.652,0,0,0-.6-.388.51.51,0,0,0-.247.071c-.035,0-.071.035-.106.071a.615.615,0,0,0-.212.776c.6,1.34,2.716,2.4,4.727,2.4,2.751,0,4.021-1.27,4.374-2.4a.576.576,0,0,0,0-.423C194.66,240.353,194.624,240.282,194.554,240.247Z" transform="translate(-132.437 -225.785)" fill="#fff"/>
          <path id="Path_5852" data-name="Path 5852" d="M191.355,212.9c-2.222,0-4.339,1.235-4.48,2.646a.535.535,0,0,0,.106.459.475.475,0,0,0,.423.176h.106c.353,0,.494-.282.67-.564a3.5,3.5,0,0,1,3.175-1.481,3.8,3.8,0,0,1,3.139,1.305.687.687,0,0,0,.917.212.679.679,0,0,0,.212-.882A5.106,5.106,0,0,0,191.355,212.9Z" transform="translate(-133.295 -208.244)" fill="#fff"/>
          <path id="Path_5853" data-name="Path 5853" d="M191.948,225.634l-1.411-.494c-.529-.212-2.081-.811-2.328-1.446a.671.671,0,0,0-.6-.494.318.318,0,0,0-.176.035.508.508,0,0,0-.388.317.776.776,0,0,0-.071.494c.247.988,1.834,1.869,3.1,2.328l1.411.494c.247.106.529.176.776.282,1.093.388,1.9.67,2.187,1.305a.666.666,0,0,0,.635.388.6.6,0,0,0,.247-.035.7.7,0,0,0,.353-.882C195.229,226.833,193.782,226.3,191.948,225.634Z" transform="translate(-133.359 -214.911)" fill="#fff"/>
          <path id="Path_5854" data-name="Path 5854" d="M86.489,228.3H78.27a.663.663,0,0,0-.67.635.641.641,0,0,0,.67.635h8.254a.632.632,0,0,0,.635-.635A.663.663,0,0,0,86.489,228.3Z" transform="translate(-62.574 -218.212)" fill="#fff"/>
          <path id="Path_5855" data-name="Path 5855" d="M42.632,215.093a3.923,3.923,0,0,1,2.751-1.023,3.78,3.78,0,0,1,3.845,3.21.656.656,0,0,0,.635.635.663.663,0,0,0,.67-.635,5.031,5.031,0,0,0-5.15-4.48,5.224,5.224,0,0,0-3.527,1.235.659.659,0,0,0-.106.917A.616.616,0,0,0,42.632,215.093Z" transform="translate(-39.281 -208.179)" fill="#fff"/>
          <path id="Path_5856" data-name="Path 5856" d="M44.806,226.844a5,5,0,0,1-3.668,1.552,5.225,5.225,0,0,1-3.88-8.219.7.7,0,0,0,.212-.423.843.843,0,0,0-.176-.494.66.66,0,0,0-.917,0A6.151,6.151,0,0,0,35,223.246a6.009,6.009,0,0,0,6.138,6.42,6.505,6.505,0,0,0,4.656-1.94.706.706,0,0,0-.035-.952A.8.8,0,0,0,44.806,226.844Z" transform="translate(-35 -212.241)" fill="#fff"/>
          <path id="Path_5857" data-name="Path 5857" d="M48.789,228.3H40.57a.663.663,0,0,0-.67.635.641.641,0,0,0,.67.635h8.254a.632.632,0,0,0,.635-.635A.641.641,0,0,0,48.789,228.3Z" transform="translate(-38.172 -218.212)" fill="#fff"/>
        </g>
        <path id="Path_5858" data-name="Path 5858" d="M151.67,143.847a.67.67,0,0,0,.67-.67V133.97a.67.67,0,0,0-1.34,0v9.206A.67.67,0,0,0,151.67,143.847Z" transform="translate(-110.083 -133.3)" fill="#fff"/>
        <path id="Path_5859" data-name="Path 5859" d="M152.411,162.945l-1.164.988a.674.674,0,0,0-.247.494v4.515a.67.67,0,1,0,1.34,0v-4.2l.952-.811a.631.631,0,0,0,.071-.917A.744.744,0,0,0,152.411,162.945Z" transform="translate(-110.083 -152.398)" fill="#fff"/>
        <path id="Path_5860" data-name="Path 5860" d="M164.772,158.327l-4.727-5.432-.67-.564v-.071l.917-.564,4.2-3.527a.673.673,0,0,0,.071-.952.7.7,0,0,0-.917-.071l-5.432,4.55a.569.569,0,0,0-.212.459.651.651,0,0,0,.141.459l5.644,6.526a.7.7,0,0,0,.494.212.756.756,0,0,0,.423-.141A.586.586,0,0,0,164.772,158.327Z" transform="translate(-114.614 -142.171)" fill="#fff"/>
        <path id="Path_5861" data-name="Path 5861" d="M76.57,154.155a.67.67,0,0,0,.67-.67V147.77a.67.67,0,0,0-1.34,0v5.714A.721.721,0,0,0,76.57,154.155Z" transform="translate(-61.473 -142.232)" fill="#fff"/>
        <path id="Path_5862" data-name="Path 5862" d="M85.453,147.1a.67.67,0,0,0-.67.67v7.584a3.909,3.909,0,0,1-3.6,3.034H80.8c-2.152,0-3.457-1.2-3.457-3.139a.67.67,0,0,0-1.34,0c0,2.751,1.834,4.444,4.8,4.444h.388a4.778,4.778,0,0,0,3.457-1.552l.212-.353-.071.459v.564a.67.67,0,1,0,1.34,0V147.77A.67.67,0,0,0,85.453,147.1Z" transform="translate(-61.538 -142.232)" fill="#fff"/>
        <path id="Path_5863" data-name="Path 5863" d="M37.27,159.2a.67.67,0,0,0-.67.67v11.852a.67.67,0,1,0,1.34,0V159.835A.688.688,0,0,0,37.27,159.2Z" transform="translate(-36.036 -150.064)" fill="#fff"/>
        <path id="Path_5864" data-name="Path 5864" d="M42.138,146.335a3.164,3.164,0,0,0-1.552.247l-2.046,1.481-.705.635.106-.459v-1.27a.67.67,0,1,0-1.34,0v2.751a.7.7,0,0,0,.212.494.689.689,0,0,0,.882.035l3.6-2.61a5.017,5.017,0,0,1,.917-.071c3.034,0,4.409,2.61,4.409,5.009,0,3.069-1.975,5.256-4.727,5.256a4.753,4.753,0,0,1-2.4-.811c-.212-.106-.635-.247-.882-.035a.741.741,0,0,0-.247.494.405.405,0,0,0,.212.388,5.535,5.535,0,0,0,3.316,1.2c3.527,0,6.067-2.751,6.067-6.561C47.887,148.981,45.489,146.335,42.138,146.335Z" transform="translate(-36.036 -141.714)" fill="#fff"/>
        <g id="Group_1273" data-name="Group 1273" transform="translate(27.654 0.035)">
          <path id="Path_5865" data-name="Path 5865" d="M114.07,133.4a.67.67,0,0,0-.67.67v15.873a.67.67,0,0,0,1.34,0V134.07A.649.649,0,0,0,114.07,133.4Z" transform="translate(-113.4 -133.4)" fill="#fff"/>
          <path id="Path_5866" data-name="Path 5866" d="M121.826,147.1h-.564a1.03,1.03,0,0,0-.317.071l-2.434,1.34a.641.641,0,0,0-.353.388.775.775,0,0,0,.035.494.717.717,0,0,0,.917.247l2.293-1.27h.423c2.187,0,3.457,1.093,3.457,2.892a.67.67,0,0,0,.67.67.649.649,0,0,0,.67-.67C126.623,148.723,124.789,147.1,121.826,147.1Z" transform="translate(-116.464 -142.268)" fill="#fff"/>
          <path id="Path_5867" data-name="Path 5867" d="M139.07,161.8a.67.67,0,0,0-.67.67v5.82a.67.67,0,0,0,.67.67.649.649,0,0,0,.67-.67v-5.82A.694.694,0,0,0,139.07,161.8Z" transform="translate(-129.582 -151.782)" fill="#fff"/>
        </g>
        <path id="Path_5868" data-name="Path 5868" d="M184.329,149.04a5.334,5.334,0,0,1,3.527-1.27,3.57,3.57,0,0,1,3.492,1.834.652.652,0,0,0,.6.388.664.664,0,0,0,.282-.071.59.59,0,0,0,.317-.388.491.491,0,0,0-.035-.494,4.863,4.863,0,0,0-4.691-2.54,6.807,6.807,0,0,0-4.409,1.587.569.569,0,0,0-.212.459.709.709,0,0,0,.141.459A.753.753,0,0,0,184.329,149.04Z" transform="translate(-130.925 -141.844)" fill="#fff"/>
        <path id="Path_5869" data-name="Path 5869" d="M192.089,157.6a.67.67,0,0,0-.67.67v3.492c-.141,3.28-4.233,3.316-4.233,3.316-1.764,0-2.681-.988-2.681-1.975,0-1.481.741-2.152,2.152-2.469l3.915-.811a.7.7,0,0,0,.423-.282.612.612,0,0,0,.106-.494.719.719,0,0,0-.67-.529h-.106l-4.021.882a3.566,3.566,0,0,0-3.1,3.7c0,1.552,1.235,3.21,3.986,3.21a6.188,6.188,0,0,0,3.139-.776,3.252,3.252,0,0,0,.67-.459c.071-.071.141-.106.212-.176l.247-.423-.035.423v.952a.67.67,0,1,0,1.34,0V158.27A.693.693,0,0,0,192.089,157.6Z" transform="translate(-130.925 -149.029)" fill="#fff"/>
      </g>
    </g>
  </g>
</svg>
