<svg xmlns="http://www.w3.org/2000/svg" xmlns:xlink="http://www.w3.org/1999/xlink" width="803" height="512" viewBox="0 0 803 512"><defs><style>.a,.i,.k,.n{fill:#fff;}.a,.c,.d,.f,.g,.m{stroke:#fff;}.b{clip-path:url(#a);}.c,.d,.f,.m{fill:none;}.c,.g,.m{stroke-linecap:round;stroke-linejoin:round;}.e{clip-path:url(#b);}.f{stroke-miterlimit:10;stroke-width:0.709px;}.g,.h,.j,.l{fill:#00afab;}.g,.m{stroke-dasharray:289.431;}.h,.i{font-size:9px;}.h,.i,.j,.k,.l,.n{font-family:Aino-Regular, Aino;}.j,.k{font-size:6px;}.l{font-size:8px;}.n{font-size:12px;letter-spacing:0.01em;}</style><clipPath id="a"><rect class="a" width="803" height="512" transform="translate(443.01 488)"/></clipPath><clipPath id="b"><path class="a" d="M791.865,264.885a180.078,180.078,0,1,1-.06-4.743" transform="translate(-431.484 -84.695)"/></clipPath></defs><g class="b" transform="translate(-443.01 -488)"><g transform="translate(486.656 488)"><g transform="translate(377.065 0)"><path class="c" d="M797.418,265.975c0,101.977-82.673,184.649-184.654,184.649S428.11,367.952,428.11,265.975,510.782,81.321,612.764,81.321c100.352,0,182.014,80.059,184.592,179.794" transform="translate(-428.11 -81.321)"/><g transform="translate(4.464 4.464)"><path class="d" d="M791.865,264.885a180.078,180.078,0,1,1-.06-4.743" transform="translate(-431.484 -84.695)"/><g class="e"><g transform="translate(-436.833 -288.9)"><path class="f" d="M101.514,48.809l9.854,3.754,9.385-5.162H129.2l11.262,3.754-8.915,5.162.938,5.631,7.038,1.877L129.668,65.7l-10.792,2.346-11.731,4.692,3.754,4.223,9.385-4.223,11.262,1.408L134.829,84l5.162,8.446-3.285,8.446-8.446.938-.469,5.631H146.56l13.608,5.631,8.446,5.631,7.038,1.408,11.262,3.285,13.138-4.692L208.03,108.4l27.685-15.015L250.73,84.47l14.077-20.646-2.815-15.485-15.015-9.385-6.1-13.608L227.268,11.739l-7.742,2.581,1.408,8.446-8.915.938L203.1,30.274l-8.915-5.631v7.038l-7.977-7.038-10.323,4.692.469,9.385-3.754.469-7.038-12.2L159.933,28.4l2.815,15.954-8.446.938-5.631,5.631L143.51,40.128l3.285-8.446-18.3-16.892-6.1,4.692,2.815,6.569L117.233,23.7l-7.038,6.1-.938,7.977-.938,6.569-7.038,1.877" transform="translate(-101.279 180.646)"/><path class="c" d="M633.887,173.735l2.618-.873v6.109L640,181.589l3.491-4.363,2.618,1.745-.873,3.491,4.363,3.491,6.981-5.236,22.689-7.854H690.61l4.363-4.363,13.963-3.491,6.981.873" transform="translate(70.708 230.139)"/><path class="c" d="M699.144,32.06l-11.262,2.346-5.162-4.223-7.508,3.285-1.877,7.977-9.385,14.077L655.975,68.66l6.1,14.077-12.2,19.239-16.423,12.2-15.015,12.669-8.915,15.015-4.546,6.472-3.491,3.491V162.3l-5.236,12.217,1.745,9.6-1.745,14.835,7.854,10.472,6.109.873,12.217,10.472,3.491,9.6-9.6,10.472,5.236,5.236-3.491,2.618-3.491-.873v5.236l-6.981,6.981-1.745-6.109L591.885,270.5l-4.363,33.888-9.6,30.688-9.694-.835-9.385,3.285-6.569,7.977,3.285,7.508-3.285,3.754-13.138-.938-5.161-8.915-6.569-14.546,5.162-9.385-9.385-15.015-6.569-15.954-3.754-15.954-4.223-3.285-1.408-15.954" transform="translate(29.808 186.602)"/><path class="c" d="M636.615,213.324l-4.363.873v-6.981h-4.363l-1.745-4.363v-8.727l2.618-12.217V171.436L624.4,160.092l1.745-4.363-1.745-4.363-4.363-3.491,1.021-12.53,6.4-13.963,12.271-3.91,7.508-16.892L672.1,72.895l1.408-5.162,7.508-4.223,4.692-1.877-1.877-15.954L678.2,36.295,668.817,31.6" transform="translate(66.235 187.06)"/><path class="c" d="M698.1,201.619l.291,1.473-.491,5.945,1.636,5.4L696.914,217l-1.309,2.727.382,2.327.545,2.182,1.364-1.018,2.891.818,3,4.254-.055,3.927-3.654-.927-2.236-3.127" transform="translate(90.638 241.961)"/><path class="c" d="M701.6,195.531l-1.745-4.363,1.745-2.618,4.363,3.491,1.745-4.363,6.109.873,2.618-2.618.873-2.618,13.962,2.618,2.618-1.745-4.545-6.981-5.054-1.745-8.727.873-2.618-4.218-3.491-1.891.727-5.018-3.345-2.836-3.491,3.491-2.618.873" transform="translate(92.009 229.287)"/><path class="g" d="M661.7,234.54l1.745-7.854,1.745-2.618-1.745-1.745-2.618.873-.873,2.618-1.745.873-5.236-3.491-4.363-6.109.873-3.491,1.745-.873-.873-1.745h-1.745l-.873-3.491,1.745-.873-1.745-1.745.873-6.109,3.491-1.745,5.236-.873v-2.618l3.491-.873.873-1.745,1.745-.873.873,1.745,3.491-2.618v-1.745h.873l2.618,2.618,8.727-3.491,1.745,1.745.873-3.491,2.618,2.618,9.6,1.745,1.745-.873,3.491,3.491h6.981l6.981.873,3.491-1.745,1.745,1.745-.873,3.491-2.618.873-2.618,7.854L709.7,204H707.08l-6.109,3.491v3.491l2.618.873.873,4.363,1.745,6.109,1.745.873.873,7.854,2.436,1.164-.691,1.418,2.109,4.327-2.036.255-1.091,3.127-1.927,2.982-.764,3.018-2.4-.582-3.491-1.745-6.109,2.618-3.491-1.745-1.745-3.491-2.618-1.745V238.03l-3.491-.873-8.727-5.236-11.345,5.236Z" transform="translate(75.182 236.53)"/><path class="c" d="M619.375,271.734v-6.981l.873-12.217,5.236-5.236.873-6.981,3.491-7.854,13.963-5.236v5.236l5.236,4.363,3.491,1.745,1.745,7.854,6.109,3.491,5.236-1.745,4.363-4.363,1.745-6.981V228.1l-.873-1.745" transform="translate(66.022 249.949)"/><path class="c" d="M702.064,273.919l-2.618-5.236-7.854-5.236-9.6-1.745-3.491-6.981-4.363,2.618-1.745,2.618h-6.109l-2.618-2.618-27.925-1.745-6.981,2.618-6.109,4.363v2.618h-2.618" transform="translate(66.235 259.109)"/><path class="c" d="M703.9,261.317l-2.618,2.618-1.787,6.293-8.685-1.93-3.491,5.236" transform="translate(87.962 261.239)"/><path class="c" d="M694.574,232.293v2.618l5.236,5.236-2.618,11.345,2.618-.873,1.745.873-.873,2.618,4.363,8.727V267.2" transform="translate(90.305 251.866)"/><path class="c" d="M650.378,315.058l11.344,2.618,13.09-9.6h2.618l.873,2.618h4.363v-2.618l-3.491-2.618,2.618-5.236v-7.854l8.727-6.981,4.363-.873,3.491-3.491-2.618-1.745-1.745.873-1.745-1.745.873-4.363,2.618-.873v-2.618" transform="translate(76.034 264.221)"/><path class="c" d="M642.462,296.938l6.109,2.618,1.745,4.363" transform="translate(73.478 272.741)"/><path class="c" d="M623.992,279.128l10.472,6.109,7.854-.873,4.363,5.236-.873,2.618-1.745,4.363V299.2" transform="translate(67.513 266.99)"/><line class="c" x2="2.618" y2="14.835" transform="translate(687.142 527.792)"/><path class="g" d="M647.829,204.972h-1.745l-1.745,1.745H641.72l-.873,2.618h-2.618v-3.491l-1.745-1.745-1.745.873-3.491-1.745.873-1.745h6.109l.873-3.491h2.618v1.745l2.618.873,1.745,1.745Z" transform="translate(69.856 240.79)"/><path class="g" d="M631.015,224.253v2.618l1.745,1.745,2.618-4.363v-3.491L638,219.89l6.109-1.745,3.491-3.491-.873-2.618-1.745-3.491-1.745.873h-6.109l-.873,1.745h-4.363l-1.745.873,1.745,2.618-2.618,1.745v2.618h1.745l2.327,2.036Z" transform="translate(69.217 244.198)"/><path class="c" d="M604.931,224.356l-5.236,5.236h-2.618l-1.745,6.981,3.491,1.745-3.491,2.618v3.491l-3.491,1.745-1.745,6.109-2.618.873-1.745-1.745,2.618-3.491-1.745-4.363,1.745-3.491-1.745-4.363.873-3.491,8.727-7.854,5.236-2.618" transform="translate(55.159 248.458)"/><path class="c" d="M574.67,236.91l-8.727,21.816v8.727l2.618-.873,1.745-4.363v-6.109l4.363-6.981,2.618-8.727" transform="translate(48.768 253.357)"/><path class="c" d="M606.841,297.687l5.236-2.618-4.363-2.618v-5.236l4.363-.873,13.09,1.745,1.745-2.618v-4.363" transform="translate(61.975 267.629)"/><path class="c" d="M606.841,296.278l24.434,2.618,19.2-1.745" transform="translate(61.975 272.528)"/><path class="c" d="M648.9,304.854l1.636,7.854,2.062,6.981,2.439,16.907-6.131,4.661-4.766,4.709,6.569,4.692-1.408,7.977.469,2.346" transform="translate(74.02 275.298)"/><text class="h" transform="translate(811.05 453.178)"><tspan x="-13.491" y="0">Russia</tspan></text><text class="i" transform="translate(733.26 372.565)"><tspan x="-15.124" y="0">Finland</tspan></text><text class="i" transform="translate(594.283 423.54)"><tspan x="-17.087" y="0">Sweden</tspan></text><text class="i" transform="translate(500.375 382.25)"><tspan x="-16.488" y="0">Norway</tspan></text><text class="i" transform="translate(518.558 529.12)"><tspan x="-19.386" y="0">Denmark</tspan></text><text class="h" transform="translate(88.708 254.62)"><tspan x="-14.931" y="0">Iceland</tspan></text><text class="h" transform="translate(341.191 609.358)"><tspan x="-13.968" y="0">United</tspan><tspan x="-19.201" y="9">Kingdom</tspan></text><text class="h" transform="translate(249.043 591.997)"><tspan x="-14.17" y="0">Ireland</tspan></text><text class="i" transform="translate(659.721 623.642)"><tspan x="-14.323" y="0">Poland</tspan></text><text class="i" transform="translate(549.369 616.42)"><tspan x="-19.705" y="0">Germany</tspan></text><text class="h" transform="translate(437.274 666.341)"><tspan x="-17.289" y="0">Belgium</tspan></text><text class="h" transform="translate(440.213 626.924)"><tspan x="-25.785" y="0">Netherlands</tspan></text><text class="j" transform="translate(420.112 514.015)"><tspan x="-13.728" y="0">North sea</tspan></text><text class="k" transform="translate(667.256 457.705)"><tspan x="-13.17" y="0">Baltic sea</tspan></text><text class="j" transform="translate(666.338 1002.954)"><tspan x="-26.178" y="0">Mediterranean sea</tspan></text><text class="j" transform="translate(884.506 826.523)"><tspan x="-13.104" y="0">Black sea</tspan></text><text class="j" transform="translate(1125.339 850.455)"><tspan x="-16.725" y="0">Caspian sea</tspan></text><text class="j" transform="translate(413.014 100.623)"><tspan x="-20.205" y="0">Norvegian sea</tspan></text><text class="h" transform="translate(405.863 748.922)"><tspan x="-14.004" y="0">France</tspan></text><text class="l" transform="translate(321.048 885.41)"><tspan x="-10.58" y="0">Spain</tspan></text><text class="h" transform="translate(374.395 845.117)"><tspan x="-17.33" y="0">Andorra</tspan></text><text class="h" transform="translate(485.085 683.235)"><tspan x="-28.076" y="0">Luxembourg </tspan></text><text class="h" transform="translate(235.563 908.934)"><tspan x="-17.541" y="0">Portugal</tspan></text><text class="h" transform="translate(555.846 835.732)"><tspan x="-8.604" y="0">Italy</tspan></text><text class="h" transform="translate(492.151 753.143)"><tspan x="-24.538" y="0">Switzerland</tspan></text><text class="h" transform="translate(587.606 734.852)"><tspan x="-14.886" y="0">Austria</tspan></text><text class="h" transform="translate(656.935 746.575)"><tspan x="-18.364" y="0">Hungary</tspan></text><text class="h" transform="translate(657.344 709.041)"><tspan x="-17.469" y="0">Slovakia</tspan></text><text class="h" transform="translate(825.654 689.801)"><tspan x="-16.2" y="0">Ukraine</tspan></text><text class="h" transform="translate(798.179 736.727)"><tspan x="-18.364" y="0">Moldova</tspan></text><text class="h" transform="translate(748.116 771.443)"><tspan x="-18.63" y="0">Romania</tspan></text><text class="h" transform="translate(750.634 838.549)"><tspan x="-17.096" y="0">Bulgaria</tspan></text><text class="h" transform="translate(683.59 810.861)"><tspan x="-13.446" y="0">Serbia</tspan></text><text class="h" transform="translate(620.454 777.55)"><tspan x="-14.845" y="0">Croatia</tspan></text><text class="h" transform="translate(635.471 799.134)"><tspan x="-13.968" y="0">Bosnia</tspan><tspan x="-14.616" y="9">&amp; herz.</tspan></text><text class="l" transform="translate(639.629 848.337)"><tspan x="-13.82" y="0">Monte-</tspan><tspan x="-11.688" y="8">Negro</tspan></text><text class="h" transform="translate(688.023 840.424)"><tspan x="-15.368" y="0">Kosovo</tspan></text><text class="l" transform="translate(664.029 877.434)"><tspan x="-13.992" y="0">Albania</tspan></text><text class="h" transform="translate(696.058 861.539)"><tspan x="-23.283" y="0">Macedonia</tspan></text><text class="l" transform="translate(600.715 973.155)"><tspan x="-10.528" y="0">Malta</tspan></text><text class="h" transform="translate(694.591 900.018)"><tspan x="-14.99" y="0">Greece</tspan></text><text class="h" transform="translate(894.807 914.089)"><tspan x="-14.139" y="0">Turkey</tspan></text><text class="h" transform="translate(880.409 987.763)"><tspan x="-14.796" y="0">Cyprus</tspan></text><text class="h" transform="translate(589.837 767.227)"><tspan x="-17.811" y="0">Slovenia</tspan></text><text class="h" transform="translate(601.341 687.925)"><tspan x="-30.703" y="0">Czech republic</tspan></text><text class="i" transform="translate(728.157 541.902)"><tspan x="-19.147" y="0">Lithuania</tspan></text><text class="i" transform="translate(756.973 504.088)"><tspan x="-12.501" y="0">Latvia</tspan></text><text class="l" transform="translate(789.638 590.677)"><tspan x="-13.832" y="0">Belarus</tspan></text><path class="c" d="M505.809,198.664" transform="translate(29.35 241.007)"/><path class="c" d="M505.809,282.941l5.631-.469v6.569h2.815l3.754-11.731-2.346-8.915,3.285-8.446,6.569-3.754,3.754-12.669-6.1-20.177h6.569l3.285-9.854-11.262-11.731,1.408-17.831-2.346-9.385.938-16.892-1.877-6.1,3.754-12.669,10.792-14.077,4.692-1.877,9.385,2.815,4.223-14.546-8.446-5.631,13.138-24.4L559.3,61.463l-.938-12.669,5.631.938,9.385-4.692-.938-10.323,13.138-18.769.938-8.446L582.763.932l3.754-4.692,3.754-14.077,10.323-8.446,7.508,5.631,3.754-9.385-.469-15.015h6.1l21.585,8.915,4.692-5.162-4.223-3.754,6.1-9.385L644.7-59.6l-2.346-5.162,3.754-.469" transform="translate(29.35 155.791)"/><path class="c" d="M614.7-65.939l5.631,4.692-.469,4.223,6.1,2.815L636.285-41.07,651.3-34.5l9.385,15.485L657.4-.716,662.093,2.1V5.854l-2.815,3.285,6.569,14.546-4.692,22.054,6.569,12.2.469,5.631" transform="translate(64.513 155.562)"/><path class="c" d="M616.474-57.164l3.754,1.877,4.223-9.854,6.569,1.877,9.854,21.585,18.769,1.408,4.223-4.223,14.546,10.323,5.162-8.446,4.692-4.692L692.021-52l1.408-29.092,9.385-12.2h8.446l9.385-5.631,5.631.938,5.631,9.854,10.323,7.038,2.815,8.915-7.038,10.792,1.877,7.508" transform="translate(65.086 144.91)"/><path class="c" d="M712.6-59.444,714-67.421l12.2-7.038,1.408-9.854,4.223,5.162h7.508L738.4-90.413" transform="translate(96.125 147.659)"/><path class="c" d="M710.755-64.166l-4.223,3.754,4.692,3.754-4.692,12.2L710.286-28.5l10.323,3.285,9.385,18.3L715.917,19.827l13.138,31.439,2.815,15.954-4.692,4.692-2.815,11.262,3.754,1.408v3.285l-4.223,1.877,2.346,9.385,4.692.938v14.077l6.569,4.692-2.815,14.077-4.692,1.877,6.1,10.323,12.2,8.915,4.692,11.262-10.792,18.769-17.95,24.7-26.18,28.652-.109,2.291" transform="translate(91.397 156.135)"/><path class="c" d="M525.432,301.762l-2.815-12.2-6.1,2.815,2.815,7.508-3.754,7.508-8.446.938L496.34,321.939l-16.423,13.608-13.138-1.877L448.478,321l-3.285-10.792,7.977-2.815,3.285-7.977-6.1-4.223-9.385,5.162.469-10.792,9.854-4.692-2.346-5.162-4.692-.469,3.285-7.977-6.1-.938-6.569-22.054,7.508-3.754-5.161-6.569,3.285-16.423,7.508-13.139,14.077-11.731,11.731.938,6.569-6.1-12.669-1.877,1.877-4.692,14.077-.469,4.223-5.631,4.223-8.446,7.977-2.815,6.1-3.754,10.792,6.569-8.915-14.546,13.138-22.992,11.262-4.223,7.508-17.831,9.385-14.546,8.446-21.585L563.44,58.7l4.223-11.262,8.915-10.792,6.569-5.162-4.692-2.815,10.323-10.323,7.508,1.877-4.692-6.569,4.223-2.346-.469-3.754-7.977,4.223,3.285-8.915,10.323-.469-5.631-6.1,8.915-6.1.469,7.508,4.692,1.877-1.408-16.892L591.594-14.5,576.578-9.808,562.5-.424l-5.631,5.631-.938-2.815,10.323-12.2L580.8-15.439l10.792-4.692-.939-4.692-9.854-.938,4.692-8.446,4.692-5.631,3.285,7.508,4.692-2.346-2.346-8.446,8.916-11.731.938,3.754-3.754,8.446.469,6.569-1.408,4.692,4.692.469,3.754-7.038,2.815.938-.469,10.792,10.792-1.877-2.815-7.977,7.038-8.446,7.039-6.1-9.385,2.815-5.631,4.223-1.877-4.692,7.977-15.485,7.039-1.408,1.877,7.508,7.508-2.815-5.161-7.977,10.323-9.385,4.223-9.854,6.1.938,4.223,5.631-2.346,4.223-7.038,2.346L654-72.686l5.162-1.877,1.877,6.569L666.671-81.6l2.815-.469-.939,13.139,5.162-8.915,4.223-3.285,6.569-2.815,8.446,8.446L690.6-87.7l-7.977-6.569,8.446-4.223,7.508,2.346.469,6.569,4.223-4.223,2.815,1.408,3.754,9.385h6.569L715-94.74l7.977-10.792-2.815-8.446,3.285-5.162,2.815,6.1.469,4.692,4.223-7.508,4.223-8.446,11.262-1.408,3.285,3.754-8.915,11.731.469,8.915L737.994-93.8l2.815,5.631,6.569-12.669,6.569-13.608,8.915-11.731,2.346,2.815-1.877,7.508-2.815,3.754,1.877,1.408-1.408,10.323,7.977-6.569,3.754-13.608,4.692-3.285-3.754-7.038L776-133.686l15.016,3.754-1.408,8.446-5.631.469v3.285l4.692,1.408-4.692,7.977,1.877,2.815,6.569-.469,3.754-17.362,9.385,2.346L818.7-112.1l7.508,8.446,2.815,6.1-9.385,6.1-7.508,3.285-16.892-2.346v3.754l14.077,5.631,4.692,3.754,10.323.469" transform="translate(6.443 133.686)"/><path class="c" d="M734.942-87.036l8.915,4.223,3.285-10.792L764.5-83.751l-.939,5.162-10.792-4.223-2.815-2.346-.938,4.223,7.508,5.631,13.138,5.631.938,4.692,11.731-1.408L793.127-61.7l13.608,1.877,36.131,28.154L871.958-6.8,882.751.71l5.162,22.523-4.692,18.3L867.266,57.018l-22.992,6.1L820.343,52.326,799.7,50.449,791.25,42,773.419,34.5,759.343,23.7l-6.1-1.408.938,4.692L764.035,42,780.927,58.9l7.977,8.446,3.285,7.977L785.15,88.926l6.1,18.3V119.9l10.792,6.1,6.569-.469,4.692,11.262,9.854,3.754,10.792.938,6.569-7.508-3.285-12.2-11.262.938-7.508-13.139-1.877-4.692,5.162-.938,1.408-7.977,6.569.469,7.977,9.385,7.977,3.285,12.669,4.223,5.161,3.754L872.9,113.8l1.877-9.854-4.692-7.977-6.1-7.038.938-9.385L879,70.626l.469-5.162L892.6,59.834l9.385-14.546h4.223l4.223,5.162h7.977l7.039,5.631L930.143,65l.938-12.669,7.039-9.385-.469-10.323L932.02,21.826l-6.1-4.223,3.754-14.077,3.285-23.462-5.631-10.792-11.262-7.977,5.631-1.877,8.446,5.631,19.708-.469,10.792,5.631,4.223,8.446,2.346,7.038,1.408,4.692V-5.39h-6.569L951.259-2.1l-3.285,5.631-5.162,4.223v6.569l9.854,5.162L956.889,29.8l8.446,3.754,13.608-3.285,6.569-3.285,3.754-18.769L1000.528-.7l.938-5.162,14.546-7.508,14.546-12.2,12.669-4.692,7.039-3.754,3.754,2.815-.938,4.223,3.754,2.346L1062-29.79l-6.569-8.915,12.2-7.508,6.569-4.692,11.262-1.408-9.854,4.692,4.223,2.346-.938,5.631-1.877,6.1,2.346,7.038h-8.446l-3.285,6.569,8.915-1.408,9.385-.938L1090.62-19l3.754-2.815-2.815-4.692,7.977-8.446,6.1-.938" transform="translate(103.341 146.628)"/><path class="c" d="M960.3-65.81l-7.038,12.2L937.773-46.1l-7.038-5.631V-62.994l4.223-10.792,6.1-5.631,7.508.469,3.754,6.569,6.1,3.285.938,1.408" transform="translate(166.565 151.21)"/><path class="c" d="M506.153,274.114l.938,6.1,2.346,4.692,5.631.938,2.346,4.692-1.877,4.223-8.446-1.877-2.346,4.223,13.608,5.162,3.754-5.631,5.631-5.631-5.631-.469-.938-5.162,6.569.469v-2.815l-4.692-2.815.469-2.815,5.631-.939L526.8,263.791l-2.815-2.346-2.815,1.408-1.877,1.408,1.877,4.692-3.285,2.815" transform="translate(29.006 261.28)"/><line class="c" x2="14.546" y2="1.877" transform="translate(497.621 555.571)"/><path class="c" d="M504.845,267.061l7.508,1.877,2.815-6.569-11.731-3.754,1.877-10.792,4.692-7.977-2.815-10.323-9.854,5.162-5.162,7.977-11.731,1.408-7.039,9.385,3.285,4.223-4.223,1.877v25.339l7.977,7.508-.469,8.915" transform="translate(18.584 250.972)"/><path class="c" d="M487.72,289.916l6.1-.939-4.692-2.815.938-10.792,3.285.469,3.285,7.977,6.1,3.285,2.815,1.877,1.877-9.385-.469-7.508H496.635" transform="translate(23.509 264.716)"/><path class="c" d="M483.755,288.4l6.1,8.915-5.162.938v3.285h4.223l-.469,5.631,2.346,6.1h-8.446l-.469,6.569-7.508,1.408-2.346-4.223h-8.915l-2.346,6.569,2.346,3.285" transform="translate(14.804 269.985)"/><path class="c" d="M427.6,343.379l.938,2.346-5.161,1.877-1.408,4.692-2.346,1.877" transform="translate(1.518 287.738)"/><path class="c" d="M468.267,318.872l-5.162-4.223L448.09,317l-3.754,10.323,5.162,4.223-1.877,3.754-5.161,5.162-3.754-1.877,1.408-7.038-3.754-4.692-2.815,7.508-3.285,6.1" transform="translate(4.954 278.461)"/><line class="c" x1="7.508" y2="4.223" transform="translate(408.936 645.194)"/><path class="c" d="M431.43,359.341l-8.915,3.754-2.346,16.892-17.362,9.854-3.754,7.038-6.1,3.754-12.2-1.408-4.692-7.977-7.977.938,1.877,7.508,5.162,3.754v14.077l-14.077-.938-5.162.938-4.692-6.569-7.508,3.754-16.892,1.877-1.877,5.162,5.162,1.408,1.877,5.631-4.223,1.408,3.754,3.754,5.631-.469,13.138,5.631,9.385,1.877.938,5.162,4.692,2.346,1.877,5.631-2.815,2.346,6.1,8.915,9.385,3.754,1.408,7.039-1.877,3.285,6.569,6.569h-6.569l1.408,15.954L377,515.595l-4.223,12.669" transform="translate(-29.064 292.892)"/><path class="c" d="M358.965,488.8,366,493.966,381.489,501l15.015,2.346,1.408-4.223,7.977,2.815" transform="translate(-18.068 334.698)"/><path class="c" d="M399.5,505.66l2.346-.938-.939-5.631h-3.285" transform="translate(-5.584 338.02)"/><line class="c" x1="0.469" y2="1.408" transform="translate(389.697 838.518)"/><line class="c" y1="1.877" x2="18.3" transform="translate(399.551 842.272)"/><path class="c" d="M415.58,506.122l-2.346-5.631,8.915-11.731,10.792-2.346,15.485,5.162,8.915,3.285,11.731-1.877,1.408-5.631,7.038-4.223" transform="translate(-0.544 332.866)"/><path class="c" d="M467.757,494.228l2.815-9.385H462.6l-3.285-7.038,1.408-6.569-5.631-6.1,7.977-4.223-4.692-10.323,2.815-3.285" transform="translate(12.971 321.297)"/><path class="c" d="M461.827,451.9l8.446-.469,5.631-4.223,3.285-6.1,7.977,7.977,7.038-8.915,4.692,2.346,7.038.469v-5.631l5.162.469.469-3.285" transform="translate(15.147 317.174)"/><path class="c" d="M536.635,437.374l-4.223,7.977,2.346,10.323" transform="translate(37.94 318.09)"/><path class="c" d="M537.732,439.572l10.323,2.815,4.692-5.631,15.954-3.285" transform="translate(39.658 316.83)"/><path class="c" d="M578.171,413.964l-.938,5.162-6.569,2.346-1.877,10.792-5.162,4.223" transform="translate(48.02 310.531)"/><path class="c" d="M563.27,432.408l4.692.469.469,3.754" transform="translate(47.905 316.487)"/><path class="c" d="M559.723,443.119l6.569-2.815,1.408-2.346.939-.939" transform="translate(46.76 317.976)"/><path class="c" d="M536.668,455.179,547.46,453.3l2.815,2.815,8.446.938,7.038-7.977" transform="translate(39.315 321.87)"/><path class="c" d="M535.471,450.143l-13.138,6.569-3.754,4.692,3.754,7.977-2.815,5.162,4.692,11.731,16.423,10.792,7.508,22.523,15.016,10.792,14.546-.938.938,2.815-3.754,5.162,16.892,10.792,15.485,9.385,7.038,9.854-3.285,4.692-6.1-7.977-11.731-4.223-7.977,9.385.938,6.569,7.508,4.692.938,9.385-7.038,1.877-3.754,4.692,1.408,4.223-8.446,8.915L571.6,607.8" transform="translate(33.473 322.214)"/><path class="c" d="M588.793,596.011l3.285-2.815-.469-6.1,4.692-1.877-7.508-22.992-12.2-5.162-.938-6.569-10.792-4.223-7.038-9.385-11.262-1.877L533.424,526.1l-12.669-15.485-9.854-9.854-6.1-19.708-22.054-8.915-8.915,7.508-2.346,4.692-4.692.938" transform="translate(16.751 329.315)"/><path class="c" d="M489.4,494.48l-5.631,8.446-5.631,3.754v10.792l4.223,7.508,4.223,1.877,3.754-7.039.938-7.508.938-7.977-2.346-6.569" transform="translate(20.416 336.531)"/><path class="c" d="M488.777,521.791l-7.039,5.631-7.508.938-1.408,4.692,3.285,6.1,1.408,10.792-.469,5.631.469,9.385,7.508,2.815,2.346-5.631,6.569.938,2.346-11.262-1.877-8.446,2.346-8.446-1.877-7.977-3.754-5.161" transform="translate(18.698 345.35)"/><path class="c" d="M566.119,565.773l-7.508,1.408-5.631,3.285H539.842l-7.039-3.285L522.949,570l-.469,7.038,8.915,1.877,12.2,8.915,6.569,1.408,2.346,4.223,7.977,1.408,4.223-7.508-4.223-7.039,2.815-7.038,5.161-4.692" transform="translate(34.733 359.553)"/><path class="c" d="M454.8,505.475l-1.877,9.385-9.854,5.162-5.161,5.162-17.831,5.631-17.831,29.092.469,12.2,5.162,3.754-10.323,9.385-4.692,13.139-8.915.938-6.1,8.915-5.631,5.161-34.254,1.877-6.1,3.285-6.569,3.285-3.754,4.692-8.915-4.692L309.8,612.46l-6.1-6.569-6.1-.938" transform="translate(-37.883 340.081)"/><path class="c" d="M300.733,604.025l-1.408-7.977,3.285-5.631,6.1-2.815-7.038-7.038,1.408-6.569,5.162-5.161-9.385-12.2H307.3l2.815-26.277,9.385-11.262-7.039-8.915-12.2,3.285H289.471l-1.408-6.569-10.323,6.1" transform="translate(-44.297 340.54)"/><path class="c" d="M382.815,491.106l-13.608-1.877H350.438l-24.869-4.692-20.177,1.877-6.569-3.285-8.915,2.346-2.346,4.692-9.385,2.346-4.692,7.038,3.754,7.508,4.223,3.285-.938,5.631" transform="translate(-45.672 332.866)"/><path class="c" d="M271.356,557.615l3.285,1.877,7.508,4.692L279.8,590.931l8.446-.469,7.038,1.877,4.692-3.285" transform="translate(-46.359 356.918)"/><path class="c" d="M280.179,513.988l2.815,14.077-3.285,16.892-5.162,12.669" transform="translate(-45.328 342.83)"/><path class="c" d="M461.956,452.965l-2.815-7.977L453.51,446.4l-4.223,3.754-.938-11.262,5.631-2.346,8.915-10.323,1.408-4.692,5.162-.469" transform="translate(10.795 312.822)"/><path class="c" d="M470.092,429.009l.938-14.077,7.977-16.892-15.954-1.877-9.385-8.446" transform="translate(12.513 302.055)"/><path class="c" d="M407.914,358.631l1.877,5.162,3.285,3.754,6.1-2.815,1.877,7.038" transform="translate(-2.262 292.663)"/><path class="c" d="M455.383,358.8l-4.223-3.285-3.754.469-7.038-5.162L425.353,357.4l-7.508-3.285" transform="translate(0.945 290.143)"/><path class="c" d="M465.7,317.841l-2.346,20.177,1.408,4.692-6.569,7.977-10.323,2.346,3.754,8.915-.938,7.508L446.93,371.8" transform="translate(10.337 279.491)"/><path class="c" d="M445.855,360.05l-1.408,5.631,4.692.469" transform="translate(9.535 293.121)"/><path class="c" d="M447.639,359.7l2.815,1.877-.469,3.285" transform="translate(10.566 293.007)"/><path class="c" d="M449.768,365.37l4.223,9.385-3.285,3.285" transform="translate(11.253 294.839)"/><line class="c" x1="0.938" y2="2.346" transform="translate(465.244 686.018)"/><line class="c" x2="1.877" y2="2.815" transform="translate(461.49 675.225)"/><path class="c" d="M452.9,387.934h-4.692l-2.346-2.346" transform="translate(9.993 301.368)"/><path class="c" d="M446.095,386.678l-.938-7.039,2.815-4.692,2.815.938" transform="translate(9.764 297.932)"/><path class="c" d="M450.414,389.482l-4.223.469-1.408-3.285-6.569-2.815-2.346-5.631-7.508,1.408-.938-6.1" transform="translate(4.037 297.474)"/><path class="c" d="M466.793,421.265l14.546-.939,3.754-2.815,7.039,1.877,3.285,1.408" transform="translate(16.751 311.676)"/><path class="c" d="M490.557,426.773h3.754l7.038,2.815,2.816-3.285,6.1,1.877,6.568.47,12.2-3.754,12.67-.47L536.543,414.1l15.015-9.853.938-2.347" transform="translate(24.425 306.637)"/><line class="c" x1="0.469" y2="4.223" transform="translate(512.636 734.818)"/><path class="c" d="M487.949,426.378l-.938,2.815,3.285.938" transform="translate(23.28 314.54)"/><line class="c" x2="0.469" y2="1.408" transform="translate(513.575 741.387)"/><path class="c" d="M500.134,434.492l6.1-.938,5.631-2.815h6.569L525,428.861l.938,6.1,4.223,2.346,13.139,1.877" transform="translate(27.517 315.341)"/><path class="c" d="M490.912,429.216l3.754.469,1.877,2.346,2.815-.938,1.877,2.815" transform="translate(24.54 315.456)"/><path class="c" d="M539.86,402.329c.939,0,10.323,1.877,10.323,1.877l6.1-7.977,11.262,1.877,5.162,3.285,4.692-1.877,5.161,2.345" transform="translate(40.346 304.804)"/><path class="c" d="M573.911,404.483l2.346-3.285,6.1,1.877,5.631-3.285,8.446-12.669,3.754-.469" transform="translate(51.341 301.712)"/><path class="c" d="M609.624,393.251l-3.754-7.508-9.385-4.223-6.1-.469,1.408-6.1-9.854-.938-4.223,7.039-8.446-7.039,2.346-4.692-7.977-4.223-9.385-4.692-3.754,1.877" transform="translate(43.782 293.236)"/><path class="c" d="M557.41,363.324l-3.754-4.692-3.754,1.877.939,3.285-14.077,5.162-6.569,5.631-6.569.938-4.692,5.162,5.631,5.631-3.285,5.162,4.223,7.038,9.385,4.223L544.272,414" transform="translate(33.588 292.663)"/><path class="c" d="M551.717,379.795l2.346-8.446.469-4.223-4.223-2.815-2.346-7.508,2.815-4.692-3.754-7.039,1.408-6.1-7.508-6.1,5.162-10.323-4.223-17.831" transform="translate(40.689 275.254)"/><path class="c" d="M543.052,310l27.215-8.446,11.212-8.536,5.818-2.036,14.835-2.618,2.618,6.109,5.236,5.236h13.963" transform="translate(41.376 269.972)"/><path class="c" d="M556.365,309.632l-9.854-4.223-2.346-3.285,6.1-3.754-.938-3.754-4.692-1.408-1.877,3.754v3.754l-3.285-3.285-6.1.469-.938,2.815-7.039,4.223h-5.161l-2.815,3.754-3.285,1.408-6.1-.938-.938-1.877,3.754-4.223.938-4.223,2.815-1.408-1.877-1.408-8.446,3.754-3.754-1.877-7.977-1.408,1.877-4.223-4.223-4.223" transform="translate(24.31 269.87)"/><path class="c" d="M650.525,350.968l1.877-.938,1.877,1.877,5.631-4.223v-2.815l14.546-1.877,15.954,1.877,5.162,3.754,7.039-.469,1.408,4.223h13.138l7.977,1.408,7.977-2.346,1.877,7.038,5.162-4.692,2.346,1.877,5.631-1.408,4.692,5.162,2.346-1.877-2.815-7.039,6.1-8.915,6.569-.469,1.408-2.346,3.754.469" transform="translate(76.081 286.249)"/><path class="c" d="M754.807,362.84l-3.285-5.162,1.877-4.223-1.877-7.038-3.754-4.223,1.877-5.162,5.631-.469,2.346,3.754h5.631l3.285-5.162,3.285-.938.938-3.285-4.692-3.285-.469-4.223-5.631-2.346-4.692.939.939-7.508-7.508-4.223-2.815-10.323-6.1-3.285,4.223-7.038-2.346-5.631.964-8.729-5.236-3.491-9.6-3.491-5.236,5.236-3.491-2.618,1.745-4.363-5.236-1.745-5.236,1.745-7.854-5.236" transform="translate(92.862 261.239)"/><path class="c" d="M743.1,341.665l5.631,1.408,3.285-2.346-.469-5.162,8.446,1.877,4.223-3.285,9.385.938,8.915,13.138L779.7,361.373l17.362,6.569-.938,9.385,3.754,6.1,7.977-2.346,7.038,5.162,13.139-4.223,8.915,13.139,4.692-3.285,8.446,4.692,5.162-1.408,5.631,3.754,6.1,3.285,2.815,6.569-7.508,5.631-.469,9.385,2.815,5.631-2.346,8.446v4.692l-13.138-.939-.469,4.223-7.977,2.346-.939,9.854" transform="translate(105.975 284.76)"/><path class="c" d="M845.548,427.8l-9.385,2.346-21.585,7.508-7.977,4.223-8.915,5.631v5.162l-4.223-3.285-.938,4.692,3.285,3.754,4.692,3.754v3.285l4.692,2.346L812.7,464.4h8.446l-.938,4.223.469,3.285h-9.385l-3.754-1.408-5.631,4.692-5.161,2.346-4.692,1.408-5.631,6.569-7.508.469-3.754-2.346,2.346-10.323-3.285-5.162-5.162-1.408-7.977-1.877,1.877-2.346,5.631-1.877,4.692-4.692,6.569-2.346-.939-4.223-6.569-.938-11.261,1.877-8.446-5.631V441.4l7.039.938-1.408-2.815-5.631-4.692-1.877,2.815h-12.2l-4.223,3.285-1.877,5.631L727.3,444.22l1.408,6.1-1.408,4.223-4.223.938-2.815,3.285-1.408-1.408-.938,3.285,1.877,2.815v2.815" transform="translate(97.843 314.998)"/><path class="c" d="M824.126,428.358l7.039-1.408,2.815-2.346,4.692,2.346-1.877,4.223h-3.285l-3.754,3.285h-4.223l.469,3.754h-5.162l-5.631,1.408,1.408,4.692,5.631,1.877,4.692,5.162h-5.631l-3.754,1.408-2.815,7.508-4.223,6.1-4.223,1.877-5.161-2.815-.469,2.346,2.346.938-4.223,1.408.938,2.346,5.631-.938,3.754,7.977,8.915,3.285,5.161,5.162,9.854,3.285,13.608,15.015" transform="translate(123.958 313.967)"/><path class="c" d="M836.385,489.6l1.877-3.754,7.977-.938,14.077,7.038,21.115,1.877,3.285,5.162,8.446,2.815.469,2.815,6.1.469,6.1-3.285,6.569.469,10.792,5.631-1.877,7.038,10.792,1.877,1.408,3.285" transform="translate(136.099 333.438)"/><path class="c" d="M911.581,511.5l2.815.469,9.854,12.2,5.631.469,3.754-5.162,5.161-2.346,2.815-4.692" transform="translate(160.38 342.029)"/><path class="c" d="M940.559,533.6l-8.915-12.669-6.569-9.385,1.877-15.954.469-3.754-2.815.938-2.815-6.569-5.631-3.285-2.815-2.346-1.408-3.754,10.792-11.731,4.692-8.446,4.692-2.346,5.161-.469,1.408,1.877,2.346-1.408,1.408-4.223,4.223-3.754L949,441.63" transform="translate(160.495 319.465)"/><path class="c" d="M950.87,471.262l-8.446-6.1,5.63-3.285-12.668-22.054-12.67-1.408-4.692-4.692,2.346-1.408-.938-4.692-8.915-4.223,8.445-16.423-3.753-3.754,1.408-12.67,4.223-.938,1.877-3.754.468-4.223,4.224-4.223,12.668,16.423,6.57-6.57-2.345-2.346-1.877-12.2,2.346,1.408,9.854-5.63-.47-6.1,6.57-.939,8.915-5.161,3.285-7.509,2.347-1.876,7.976,1.876-.468,3.285,7.507.47.47-3.285,5.161-.938,2.347-2.815,3.285,8.445,3.753-1.877,2.347,1.877,4.692-2.815,6.1,4.223.938,3.754,6.569,3.753,4.692,4.692s3.753-4.223,4.223-3.753,15.015,11.261,15.015,11.261l1.408-.938" transform="translate(160.037 288.425)"/><path class="c" d="M935.345,513.988l7.038,8.915,1.877,7.038,3.754,3.285,1.408,3.754,7.977.938,1.408,3.285-8.446.469-4.692,3.754.469,9.854-2.346,4.223-.938,4.692-3.285,1.408-1.877,7.977.469,2.346" transform="translate(168.054 342.83)"/><path class="c" d="M944.793,569.361h-5.162l-.469-3.285-6.569-4.223,4.223-3.754-1.877-6.1,3.754-1.877-6.1-5.631-11.262,5.161-7.977,7.977" transform="translate(160.953 352.681)"/><path class="c" d="M916.838,567.765l-1.408-5.162,1.877-2.346-2.815-3.285,1.877-1.877-5.631-1.408-7.508-6.569,5.631-4.223-7.977-6.1-1.877-5.162,2.815-3.285L896.192,526l-2.346-5.631" transform="translate(154.654 344.892)"/><path class="c" d="M894.555,521.13l5.631-1.877,6.569,5.162,11.262,2.815.938-5.162-7.508-5.162,4.223-4.692" transform="translate(154.883 342.258)"/><line class="c" x1="19.708" y2="3.285" transform="translate(1026.915 864.795)"/><path class="c" d="M881.919,525.031,877.7,519.4l-7.508-3.285-3.285,1.877-7.508-.938-5.631-.469" transform="translate(141.711 343.518)"/><path class="c" d="M838.514,489.159l2.346,3.754,10.323,1.877,6.1,6.569,1.877,7.508,3.285,6.569-1.408,7.977" transform="translate(136.786 334.813)"/><path class="c" d="M876.466,523.565l3.754,7.508-2.815,3.754,1.877,8.446,9.854.469,4.692,5.631" transform="translate(149.041 345.923)"/><path class="c" d="M889.59,544.137l11.262,13.608,8.446,3.285" transform="translate(153.279 352.566)"/><path class="c" d="M911.3,560.549l-4.692-13.139-5.161,1.408-8.446-6.1-2.346.938" transform="translate(153.623 352.108)"/><line class="c" y1="0.469" x2="4.223" transform="translate(1065.392 913.595)"/><path class="c" d="M722.968,459.446l-3.285-4.692-12.2,5.162-3.754-2.815" transform="translate(93.262 323.703)"/><path class="c" d="M684.93,408.026l5.631-2.815,9.854-.469,14.077,6.1,8.446,6.1,2.346,4.692" transform="translate(87.191 307.553)"/><path class="c" d="M724.361,442.446l-2.346-2.346.939-6.569-5.631-1.877-.469-5.631" transform="translate(97.5 314.425)"/><path class="c" d="M702.665,461.064l3.285-.938-.938-6.1,8.446-6.1-.469-9.854,3.754-1.408,1.877,2.346,4.223.938,4.223,1.408,2.346-.469" transform="translate(92.918 317.861)"/><path class="c" d="M696.635,427.442l6.1,4.692,1.408,8.446-2.815,11.262,2.346,10.792" transform="translate(90.971 314.883)"/><path class="c" d="M685.285,409l5.162,1.877,4.692,10.323" transform="translate(87.306 308.927)"/><path class="c" d="M696.443,408.289,692.22,409.7l-1.877,4.692-14.077,1.877-2.815,3.285H669.7l-2.346-4.692h-12.2L644.828,411.1l-2.815,2.346" transform="translate(73.332 308.698)"/><line class="c" x1="10.323" y1="8.446" transform="translate(702.675 713.233)"/><line class="c" y1="11.262" x2="4.692" transform="translate(703.614 700.095)"/><path class="c" d="M649.154,396.369l-11.262-7.508-9.385-.469-2.346,3.285-3.285-1.877h-6.1l-1.877,2.346-1.877,3.754-4.692-1.408.469-4.692-4.223-5.631-4.692,5.161-4.692-2.346" transform="translate(58.213 300.91)"/><path class="c" d="M572.961,401.549l-.469,6.569,3.754,8.446" transform="translate(50.883 306.522)"/><path class="c" d="M576.748,416.8l7.977,4.692,10.792.469,5.631-1.877v-5.631h9.385l1.877-3.754,3.754,2.815,7.977-5.162,2.346-5.631,10.792,1.877,2.346-2.346,5.162,5.631,4.223-2.346" transform="translate(52.257 306.751)"/><path class="c" d="M650.1,413.254l-2.346,3.754h-4.223l-6.569,6.569-12.669,26.746h-5.162l-1.408,3.285h-6.569" transform="translate(63.368 310.302)"/><path class="c" d="M610.8,444.822l8.446,7.508-.469,6.1,11.262,6.1-1.408,2.346,2.346,2.815-2.815,3.285,11.262,5.161,2.346-2.815,5.631.938-2.346,4.692,1.877,2.815" transform="translate(63.253 320.496)"/><path class="c" d="M640.239,475.681l3.285,1.877-2.815,5.162h9.854L660.885,486l12.2-1.408,6.1,2.346,6.569-1.877,5.631-5.631,13.608-3.285,2.815,2.346h9.385l2.346,4.692,8.446,1.408" transform="translate(72.76 330.46)"/><path class="c" d="M706.212,486.82v-7.508l2.815-8.446,1.408-4.692,1.408-1.877,1.877,3.285,6.569-.938,1.408-6.569" transform="translate(94.064 325.421)"/><path class="c" d="M710.45,483.839l-1.408,4.692-5.631.938-3.285,6.1-.469,7.977-6.569,4.223,3.754,2.346,1.877,4.223,2.815,1.877" transform="translate(89.826 333.095)"/><path class="c" d="M705.543,511.128l-6.569.938-3.754-3.754-11.262,1.877-3.285,6.1" transform="translate(85.817 340.998)"/><path class="c" d="M682.884,515.407l2.346,2.346v3.285l-4.692,2.815.469,4.692-2.815,3.754" transform="translate(85.015 343.289)"/><line class="c" x1="8.915" y1="9.854" transform="translate(706.429 844.149)"/><path class="c" d="M637.265,512.75v-8.915l3.754-1.408,3.754-5.631-8.446-9.385-1.408-5.161,4.692-6.569" transform="translate(71.042 330.46)"/><path class="c" d="M627.725,505.475l-1.408.938-1.408,2.346-2.346-1.408-7.508,5.631" transform="translate(64.628 340.081)"/><line class="c" x1="8.446" y2="1.877" transform="translate(695.637 843.68)"/><path class="c" d="M628.172,499.493l-3.754-4.692-4.692-4.223-3.285,2.346v2.346l-4.223,2.815" transform="translate(63.711 335.271)"/><line class="c" y1="1.408" x2="1.408" transform="translate(694.229 843.21)"/><path class="c" d="M615.709,512.48l-.469-6.1-3.754-.938-2.815-4.223" transform="translate(62.566 338.707)"/><path class="c" d="M614.35,498.407l-3.285-4.223-6.1-.938-5.162-6.569" transform="translate(59.702 334.011)"/><path class="c" d="M600.435,486.322H597.62l-3.754,5.162v4.223l-3.285,3.285,1.408,5.631-.469,2.815" transform="translate(56.724 333.896)"/><path class="c" d="M601.1,514.815v-4.692l-.938-1.408,5.161-8.915,2.346,2.346,2.346-.938" transform="translate(59.817 338.249)"/><path class="c" d="M601.222,532.787l.938,4.692,5.162,2.815,2.815,5.162" transform="translate(60.161 348.901)"/><path class="c" d="M603.454,512.569l.938,4.223-2.346,5.162.469,3.285-.939,3.285" transform="translate(60.275 342.372)"/><path class="c" d="M609.026,550.1c.468,0,3.753-.47,3.753-.47l.47-5.63,5.63-2.816v-5.63l3.285-3.285v-5.162" transform="translate(62.68 347.068)"/><path class="c" d="M620.021,529.047l8.446.938,7.038-6.569,7.977.469,4.692-4.223" transform="translate(66.231 344.663)"/><path class="c" d="M642.722,521.266l15.485-1.408.469-2.346,7.038-.469,3.754,3.754,8.446,3.285,11.261-2.815-.469-6.569h2.815" transform="translate(73.561 343.059)"/><path class="c" d="M613.282,519.663l1.877,5.162,4.692,3.285" transform="translate(64.055 344.663)"/><line class="c" x1="0.469" y2="1.877" transform="translate(677.806 854.003)"/><path class="c" d="M598.9,513.2l-6.1-5.631-8.915-7.508-.938-5.631-16.892-14.077-.938-7.038-5.162-5.631-.938-7.508,5.161-.938,4.223,4.223,7.508-3.754,2.346-1.408,13.608,4.692,1.877-2.346,8.915.938,2.815,4.223,2.815.938" transform="translate(46.531 324.848)"/><path class="c" d="M598.477,469.13l-.469-5.162,5.162-1.408-7.977-7.977v-6.569" transform="translate(58.213 321.526)"/><path class="c" d="M595.9,447.626l3.285-1.877,1.877.938,3.285-3.285,9.854.469" transform="translate(58.443 320.038)"/><path class="c" d="M602.719,450.157h-2.346l-2.346,4.223h-8.915l-8.446-4.223L577.849,445l-10.323-7.977" transform="translate(49.28 317.976)"/><path class="c" d="M535.364,455.818l-.469,5.631,4.223,5.631,4.692-3.285,3.754,2.815-1.877-7.977,2.346-.938,2.346,7.038,5.162.939-.469,5.631,6.1,6.569-.939,4.692,10.323,10.323.469,3.285h6.569l6.1,2.346,7.977,6.569,3.285,3.754,11.262,8.446" transform="translate(38.742 324.046)"/><path class="c" d="M610.444,554.19v2.346l7.508,6.1,2.815-.469,3.754,3.285-5.162.938-3.285,3.754.938,2.815,3.754-3.285,3.754,7.977,5.631-3.285,2.815,1.408,7.508-.938,9.854,3.285,4.692,2.815-4.692,3.285-4.692-2.815-4.692-.469-4.223-2.815-3.285.469-.469,1.877h-4.223l-4.223,5.162,7.039,7.977.938,4.223-1.877,1.877,2.815,5.631,2.815,1.408,1.408-4.692,2.815.469,1.877,4.692.938,5.631h2.346v-5.631l3.285-.938,1.408,3.754,3.285,1.877v-4.692l-1.408-5.631-2.815-6.569,1.408-2.346,2.815.469.938,3.285,4.692-1.877.469-1.877-4.223-1.877-2.346-5.162,4.692-1.408,6.569,1.408,3.285,3.754,1.408-1.877-1.877-6.569.939-2.346-3.754-1.877,3.754-.939,2.346,3.285.469,3.754,4.223,1.877,1.877-3.285-4.223-.938-2.815-7.977-1.877-2.815-5.631-.469-5.162-4.692-3.754,2.346,5.162,3.285-.469,3.285-6.1-3.754-6.1-1.877,4.692-3.285-1.408-3.754,1.408-4.223h5.162l-3.754-5.631-3.754-4.223-2.815-4.223.938-8.446,6.1-2.346-1.408,3.754,2.815,2.815,7.039.938,2.346,1.877,1.877-2.815,6.1.938-1.408-1.877-4.692-2.346-1.408-4.692,2.815-.938,2.346.938,5.162-3.754h5.631l4.692-1.877,5.631,2.815,4.223.469,3.285.938" transform="translate(63.138 346.266)"/><path class="c" d="M677.951,532.48l2.346.938,7.977-1.877-.469,1.877-6.1,3.285-2.346,3.285.938,1.877,4.692-4.223,8.916-4.223,5.161-5.631.938-3.754h4.223l6.1-.469,7.508,1.877,4.223-1.877v3.754l11.731,2.815-7.508,3.754-8.915,2.815-9.385-.938-5.631,2.815-5.631-.469-1.408-1.408-8.446,2.346-4.692,3.285-3.754,4.223-.939,7.508,4.692,1.408,5.162-1.877,2.815.938-4.223,4.692,3.285,4.692,1.877,5.631-3.754.938,2.815,4.692-4.223,1.408-1.877-4.692-2.346,1.877,2.346,3.285-4.223,2.346,3.754,1.877,6.1.469,6.1,3.754v4.223l-2.346,2.346,6.1,5.631-3.754,4.223,6.569,1.408,6.569-.938-1.877,3.285-4.692,1.877h6.569l4.223-1.877,4.692,3.754,3.754-.938,4.692,8.446,8.446,1.877L743.644,616l1.877-8.446,9.854-1.877,12.669,6.569,7.508,9.385,15.015-2.346,8.915-4.692,8.446-7.977,10.323,4.692,4.692-.939,5.161-6.1,2.346,2.815-.938,5.631L824.352,616l2.815,4.223" transform="translate(84.786 345.923)"/><path class="c" d="M893.643,592v-.938l-2.815-2.815-.469-6.569-4.223-1.877,3.285-8.915H886.6l-.469-10.792-3.285-8.915,5.631-1.877.938-5.162" transform="translate(151.103 352.566)"/><path class="c" d="M866.534,582.3l2.815-3.754,15.015,3.754,2.815-3.285,3.285,1.408v3.754l2.346,1.408,2.815-3.754h1.408" transform="translate(145.834 363.676)"/><path class="c" d="M789.92,605.529l3.754,1.877,4.692-7.508,2.815-.938-2.346-4.692,2.815-6.1,5.631,1.877,7.039,1.408,11.262-4.692,7.508,4.223h11.262l17.362-7.508H875.32l8.915-4.223,2.815,3.285" transform="translate(121.094 363.905)"/><path class="c" d="M774.114,610.993v-2.346l4.692-2.346,1.877-3.285-7.977,3.754-4.223.938-9.854-.938-.469,2.815-1.877,2.346-2.346-.939-2.346.939.469,1.408h-2.815l-.469,4.223,3.285,2.815h6.1l3.754-.938" transform="translate(107.808 371.579)"/><path class="c" d="M690.742,612.172l-7.977,2.346-14.546.469-3.285-2.815-5.631-1.408-11.262-1.408,1.877-4.223,4.223-.938,3.285-.469,2.815,2.815,9.854.469,1.877,1.408,10.323.469v2.346l4.223-1.408,3.754.469" transform="translate(75.279 371.808)"/><path class="c" d="M547.275,599.458l-3.285-1.408-.938,1.877,1.408,1.877,1.877-.469" transform="translate(41.376 369.976)"/><path class="c" d="M702.964,592.375l-5.631,2.346-1.408,5.631,3.754,1.408,2.815-4.223.469-2.815" transform="translate(90.742 368.143)"/><path class="c" d="M597.675,465.04l2.346,2.346-2.346,7.039,7.977,7.039-2.815,1.877-3.754-1.408v2.346l4.692,4.223-.939,2.815-3.285.938" transform="translate(59.015 327.024)"/><path class="c" d="M318.878,429.478l7.038,2.346,7.977-6.569,10.323-.469,5.631,2.815,2.815-9.385,8.915-1.408,5.631,1.408h7.038l13.608-3.285,21.115-.469,16.892-8.446-1.408-6.1-8.915-.469-2.346-2.346,4.223-2.346,7.038-5.631,5.631-10.792.938-9.854-6.569-7.039L414.6,360.5l-4.223,3.754-5.162-.938V360.97l5.162-4.223-2.815-7.508-5.631-4.223-4.692-3.285,7.977.938-2.815-6.1-.469-6.1-6.569-7.977-10.323-5.631-2.815-9.854.938-7.977-11.731-15.015-6.569-4.692-6.569,4.692-6.569-1.408,6.1-4.223,7.038-3.285-3.754-4.692,6.569-7.508,5.631-10.792,1.408-9.385L378,239.908l-2.815-4.692-15.954-.469-8.446-.469-6.569,4.223-.938-2.815,1.408-8.446L353.6,220.2l4.692-5.162-1.877-7.508L341.4,211.754l-11.262-1.877-4.692,9.854-2.346,5.162v3.754l-5.162,2.815-.469,7.508v6.1l-3.285.938L310.9,238.97l-3.754-.938-4.223,4.223.469,2.815h3.754l.469,3.285,7.039.938v3.754l2.346.938-.939,4.223-3.754,3.754.938,2.815-3.754,1.877,2.815,5.162,3.754,1.408,2.346-3.285-4.223-2.346,5.162-1.408,6.1-3.754v2.815l-5.162,6.1-1.877,4.223,2.815,3.285-5.162,1.408-3.754,4.692-4.692.938-.938,3.754,2.815,2.346,3.754-4.692,4.692-4.692,1.408,5.162L317,299.5l2.815.938.938-7.508,2.815.469,2.815,3.285,1.877-5.162-3.285-2.346h-3.754l3.285-5.631,2.815,3.754,2.815-3.285,1.408,6.1,5.162,6.1-6.569,4.223-1.408,7.039-2.346,4.692,4.223,3.285,1.877-2.346,5.162,3.285,9.854-4.223h5.631l-4.223,7.508,4.692,8.446,2.815,3.285,4.223-1.877.938,3.285-2.815,4.223.469,7.039-1.408,7.977-6.569-.938-6.569,1.408-5.631-1.877-2.815,2.346,3.285,3.754-4.223,5.162-1.408,2.815,6.569-1.877,2.346,4.223v8.915l-7.977,7.039-9.385,1.408-.938,3.754,3.285.469-.938,3.754,2.815,2.346,9.385-4.692,2.346,4.692,5.162-.469,5.162,5.162,3.754-.469,1.877-3.285,5.631.938-3.754,3.285v4.692l-9.385-.938-7.038-.469-2.815,3.285-2.815,1.877-1.877,6.569-5.631,4.692-2.815,4.692-5.162,3.754" transform="translate(-36.165 243.87)"/><path class="c" d="M316.409,308.18l-7.039.469-5.162-9.385-3.754,2.346.469,4.223h-7.508l-6.1-7.508,5.162-7.038,3.754-.469,4.223-8.446" transform="translate(-41.205 268.038)"/><path class="c" d="M298.667,282.7l4.223-1.877,8.446-.939,3.285,3.754,5.162,6.1-3.754,4.223h4.692l2.346,5.161L320.252,301l.469,2.815-3.754,1.877-2.815,2.346" transform="translate(-37.54 267.236)"/><path class="c" d="M321.955,312.587l-.469,3.754,3.754,6.569-.469,11.262,1.877,4.223-4.692,19.239-9.385,1.408L301.778,362.8l-8.915,6.1L279.255,375l-6.569-1.877,1.877-3.285-7.508.469,3.285-2.815-7.977-.469v-3.285l3.754-2.815-4.692-2.346,2.815-3.285L269.4,356.7l-.469-5.162,4.692-3.754,3.754-.938-3.754-1.877,2.815-7.977,5.631-3.285-.469-2.815h-4.692l-4.692-.469-7.038-3.754,3.285-7.038,3.754-1.408V315.4l-4.692-.469.469-3.754-2.346-5.162,9.385-2.346,4.692,1.408,7.977.469.938-3.754,5.162-5.631-7.977-.469V292.88l5.162-2.815v-4.223l3.754-3.754,5.631-3.285,3.285,2.346L306,277.864l1.877-1.877,3.285,2.815-1.408,3.754" transform="translate(-49.566 265.976)"/><path class="c" d="M297.81,244.3l2.346-14.546-5.631-.938-.469,2.815,2.346.938v2.815l-1.877.469v4.223l1.408,2.815" transform="translate(-39.029 250.743)"/><path class="c" d="M299.251,229.973l2.346,2.346,7.977-7.038,2.346-7.508.469-5.631-7.977,3.285L303,218.711l-2.815.469-1.877,3.754.469,2.346,2.346,1.877-.469,1.877" transform="translate(-37.654 245.359)"/><path class="c" d="M340.991,204.512l2.815-1.877,4.223.938,2.815-1.408-4.692-3.285-1.877-2.346-3.285,1.408-.469,3.285" transform="translate(-24.024 240.32)"/><path class="c" d="M366.37,182.307l2.346-4.692-.939-7.508-1.877-3.285-.938-4.692-3.754,6.1,1.877,1.877-.469,3.754h-1.408l-.469,2.815h3.285l1.408,2.346" transform="translate(-17.496 229.21)"/><path class="c" d="M304.745,133.666l-.938-4.692,2.346-.938-1.877-4.223-5.631-1.408-.469,4.692-2.346,2.346,1.408,2.346,3.285-2.346.939,2.815" transform="translate(-38.456 216.382)"/><path class="c" d="M303.84,133.514l-3.754-.469v1.877l3.754.938" transform="translate(-37.081 219.818)"/><path class="c" d="M304.069,142.13l-2.815-2.346-1.877,2.346,3.285,3.285,1.408-1.877" transform="translate(-37.31 221.994)"/><path class="c" d="M304.8,120.276l-1.877,2.346,2.346,3.285,1.408-2.815" transform="translate(-36.165 215.694)"/><path class="c" d="M367.936,160.357l-1.877,2.346,1.408,4.223,1.408-1.408v-1.877" transform="translate(-15.778 228.637)"/><path class="c" d="M330.786,295.5l-4.692,5.162-.469,3.754,4.223-.469,1.408-2.815v-3.285" transform="translate(-28.835 272.276)"/><path class="c" d="M652.531,349.054v5.631l8.915,11.262-4.223,2.346,3.754,6.569-2.346,3.754-3.754-.469-16.423,20.177,1.408,7.977-2.815,2.346" transform="translate(71.729 289.571)"/><line class="m" x2="0.704" y2="2.112" transform="translate(677.337 407.763)"/><path class="m" d="M613.748,179.25l-2.815-2.112-2.815-1.408-.7-2.112H605.3l.7-2.815h2.112V169.4l2.112-.7,2.815.7,2.112,4.223-2.112.7" transform="translate(61.478 231.329)"/><line class="m" x2="1.408" transform="translate(695.637 404.947)"/><path class="m" d="M630.258,174.528l-1.408.7h-4.223l-.7-1.408,2.112-1.408" transform="translate(67.491 232.531)"/><path class="c" d="M902.181,520.982l-16.892,10.792-12.669-2.815-10.792,1.877-14.077-1.408-9.385-1.408-6.569-4.692-6.569.469-4.692-7.508L808.8,515.82l-2.815-7.508-7.039,2.815-20.177-.938L752.5,521.92l-2.815,5.631-19.238-.469-12.2-.939H715.9l-12.2-5.631L699.473,513" transform="translate(91.887 340.998)"/><path class="c" d="M789.085,600.888l-.938,5.631,2.815,2.815v9.854" transform="translate(120.522 370.892)"/><path class="c" d="M792.222,617.913l-4.692,7.038-3.285,9.385" transform="translate(119.262 376.39)"/><path class="c" d="M790.63,616.14l5.631.938,2.815,4.223.469,4.692-2.346,4.223-6.1,4.692" transform="translate(121.323 375.817)"/><path class="c" d="M875.974,582.444l-9.385,9.385-7.039.938-1.408,3.754,1.877,12.669-1.877,17.362-4.223,6.1-25.339,15.015" transform="translate(133.579 364.936)"/><path class="c" d="M513,648.343l-9.385-2.815-4.692-5.631L508.78,629.1l6.1-9.385-2.346-8.915-4.692-4.692-1.877-7.508,5.161-5.161,4.692-6.1L513.472,585l-5.631,4.223-3.285,2.346-1.408-4.223-3.754-6.1-5.631-2.346-8.915,2.815-4.223,3.754" transform="translate(21.218 363.791)"/><path class="c" d="M483.445,584.572v2.346L475,592.08l3.285,2.815-.938,13.608,2.346,8.446-2.346,4.223v6.1l-5.162,4.223-5.631,6.569-.469,6.1,2.815,4.692" transform="translate(16.522 365.623)"/><path class="c" d="M514.854,585.614l-10.323-.469-11.262.938-8.446-3.285-15.015,7.508-7.508-1.877-17.831-2.815-15.954,5.162-23.931,2.815L389.569,601.1l-2.815,5.162-12.669.938-7.977,9.854-8.915,1.877" transform="translate(-18.641 365.051)"/><path class="c" d="M354.709,610.11l6.1,6.1,1.408,9.385v5.631l.938,8.446" transform="translate(-19.443 373.87)"/><path class="c" d="M372.041,614.016,365,613.546l-.938-5.161-3.754,4.223-8.446-1.408L340.6,613.077l-7.508-3.285-3.754-5.631-1.408-4.692-8.446,2.815-7.977,22.992-7.038,9.854-13.608,8.446" transform="translate(-40.059 370.434)"/><path class="c" d="M407.2,547.983l5.162,1.408,4.223,3.754,5.162-2.815,1.408-3.754-.469-2.346-3.285.469-2.815-3.754-6.1,3.285-2.346,2.346" transform="translate(-2.491 351.535)"/><path class="c" d="M396.781,553.714,394.435,557l1.408,1.408,2.815-1.877-.469-1.877" transform="translate(-6.615 355.659)"/><path class="c" d="M424.584,539.755v2.815l4.692.469.938-1.877-.938-1.877-2.815-.469" transform="translate(3.121 350.848)"/><path class="c" d="M683.8,556.85l2.346-1.877-3.754-5.161-6.569.938-.469,3.285,3.754.938,1.877,1.408" transform="translate(84.099 354.399)"/><path class="c" d="M679.691,563.978l-2.815-2.815L675,562.57l1.877,1.877-1.408,3.285,1.408.469,1.408-.939" transform="translate(83.984 358.064)"/><path class="c" d="M671.086,581.025l-1.408,1.877.938,2.815,1.408-.938.938-2.346" transform="translate(82.266 364.478)"/><path class="c" d="M689.028,574.973l-2.346.938-2.815-2.815,2.815-.938.938.938" transform="translate(86.848 361.614)"/><path class="c" d="M668.238,539.881l-2.815,1.877,1.408,1.408h3.285l-.469-1.408" transform="translate(80.892 351.192)"/><path class="c" d="M675.457,536.334l-1.877,1.408.938,1.877,2.815-.938v-1.408" transform="translate(83.526 350.046)"/><path class="c" d="M605.937,543.427H604.06l1.877,5.631,2.815,1.877-.938-4.223-.469-2.346" transform="translate(61.077 352.337)"/><path class="c" d="M615.857,563.645l-3.285,1.877,1.408,3.285,3.754.469v-3.285" transform="translate(63.826 358.866)"/><path class="c" d="M617.882,571.448l-1.408.938.938,1.877,1.877-.938" transform="translate(65.086 361.385)"/><path class="c" d="M943.149,443.418l7.508-1.408L953,438.726l17.831-8.446,16.892,4.692,6.1-1.408,5.161,7.977-3.754,8.446,3.754,2.815-4.223,7.977L989.6,465l-12.2-.938L966.61,477.2l6.569,4.692-4.223,1.408-9.854-2.346-.938,6.1,6.1,2.346L973.18,506.3v6.1l5.631,2.815,2.346,3.285h12.669v5.631l-5.162,8.446.938,5.162" transform="translate(170.574 315.8)"/><path class="c" d="M978.263,517.309l8.446-8.446,19.708-5.162,11.262,9.385,6.569,13.139h8.446" transform="translate(181.913 339.509)"/><path class="c" d="M979.682,518.4l2.815,4.223,2.815-2.346-2.346-3.285,4.692-7.508L999.39,507.6l3.285,14.077,10.792,7.038-5.631,7.977-10.323,2.346-1.877-4.223-11.262.938L982.967,548.9l7.508,2.815,5.162-1.877-.938,3.754-1.408,5.631-5.161.938v3.754h7.038l6.1,8.915-3.285,9.854.469,14.077,1.877,2.346" transform="translate(182.372 340.769)"/><path class="c" d="M995.644,582.917l12.2-1.408,2.815-6.569,9.385-7.038,7.039.938" transform="translate(187.526 360.24)"/><path class="c" d="M1014.313,586.878v3.754l-26.746,7.508-12.2-.469-16.423-9.854-1.408-3.285-10.792-2.815-8.916-8.915v-8.446" transform="translate(168.856 359.095)"/><path class="c" d="M891.008,581.734,896.17,594.4l3.285.938,2.346,8.915L914,606.6l-5.162,4.692,2.815,8.446-4.692,1.877-2.815,8.446L901.8,643.2l5.631,6.569" transform="translate(153.737 364.707)"/><text class="n" transform="translate(728.323 451.372)"><tspan x="0" y="0">Estonia</tspan></text></g></g></g><line class="c" x2="41.032" y2="197.771" transform="translate(5.374 228.931)"/><line class="c" x1="180.036" y2="110.412" transform="translate(103.625 340.542)"/><path class="c" d="M466.848,405.73c-6.527,6.251-4.241,15.961,6.2,23.229,11.93,8.305,30,10.272,40.358,4.4s9.073-17.37-2.864-25.672-30-10.282-40.354-4.4" transform="translate(-416.783 21.552)"/></g><path class="c" d="M726.257,408.352a328.011,328.011,0,0,1,19.424,28.981C837.31,591.1,786.934,790.041,633.158,881.674s-352.711,41.251-444.34-112.519S147.567,416.439,301.336,324.813A322.913,322.913,0,0,1,530.361,285.33M710.8,389.3q6.408,7.312,12.427,15.076" transform="translate(-143.085 -17.462)"/><path class="c" d="M639.02,463.493c-1.361-.943-6.124-5.072-6.124-5.072l-2.721,20.118-4.083,7.484-3.741-2.943-1.7,10.087h-7.144l-11.566-4.553v8.976l14.288,10.2,2.721-2.721,4.422,7.824,2.041-12.586-.34-7.824,5.1,3.4,3.061-2.721,3.4,1.361,2.381,33.752-3.4,26.12-9.525,31.262-2.381,5.817L620.48,590.1l-6.294-14.274-7.484-7.484-4.763,1.36-3.4-5.957-4.423-7.99-5.782-1.36-1.7-4.423-10.886-8.942-3.523,6.22,4.2,8.845,8.223,6.462,1.982,4.762,5.782,3.4,4.422,12.586,6.124.68L608.4,595.9l5.782-3.741,5.444,3.741,2.721,4.7,3.741,2.424L639.02,575.49l-2.041,27.538-5.1,29.952-23.812,58.51-.68,11.226" transform="translate(-4.509 40.451)"/><path class="c" d="M549.47,814.409l3.4-9.185-5.782-5.783,14.287-23.472v-9.525l-3.4-10.2-12.926-8.165v-5.783l3.741-18.37-7.144-3.741s-12.926,7.144-13.946,6.8-6.8-6.8-6.8-6.8H508.989L497.082,728l-17.009,8.164-13.268-1.02s-17.689,7.484-18.37,6.464-18.71-5.444-18.71-5.444l-11.906-6.122-5.782-9.865-12.586-9.525-8.165-9.525,2.381-3.743-2.381-4.762L397.07,678l-5.784-23.812,12.928-25.854,7.144-6.124.34-6.122,13.948-5.443,5.443-20.411,5.06-10.886,9.567-4.421,1.7-11.566,7.144,2.721,16.329-2.721L486.2,549.07l13.948-2.721,18.71-9.108,6.464,4.346,3.061,5.443-5.443,9.865,9.184,1.7,15.309-1.021,9.525,5.1,6.8-1.36,5.1,1.02,5.443-6.462-2.041-7.485,6.124-7.484,6.8-.34,17.349-2.606,7.484-2.156,3.061-8.164,13.268-4.083-4.083-22.111-7.484-13.608-4.763,9.525-6.122,1.361-4.762-1.361-2.041,4.422,2.381,3.061-3.743,2.721-8.164-2.721-5.784-5.443-4.763-4.083.681-3.741,8.164-8.845-3.742-1.492-5.443,6.935-6.8,1.7-5.1,5.782,3.4,5.1,6.122,5.1-1.36,6.375,1.7,4.17-1.7,2.721-8.505-4.422-10.205-9.865-6.124-10.205-9.865-5.1-7.824,1.36-12.246-9.656h-4.422l-.681,6.255,6.464,4.763,11.226,9.185,5.782.34,4.083,2.721,7.824,1.7-.34,2.381-6.122,1.7,3.061,4.763-1.422,9.185" transform="translate(-62.936 47.82)"/><path class="c" d="M532.262,543.518v3.175H522.111l2.947-4.584,7.2-5.961-5.076-8.666-12.934-4.036L500.412,514.6l-4.17-3.93h-5.567s-4.257,13.1-5.239,13.1-8.514-1.31-9.5-1.31-6.548,3.274-6.548,3.274l4.584,6.55-9.169,8.841-3.929,11.352,4.257,5.674-11.46,13.465-12.117,3.236s-10.151-5.894-11.46-4.912-6.876,4.912-6.876,4.912-6.22-13.753-5.894-15.39,3.6-14.081,3.6-14.081l-3.614-11.221,4.924-3.842,14.729-1.636,14.413-1.2s.655-12.222,0-13.205-2.619-4.912-3.6-5.567-16.372-9.823-16.372-9.823l5.562-2.405h8.192l-1.965-6.764h8.514l5.774-12.77,6.013-5.58,2.947-9.483,6.222-2.619s0-6.876-.655-7.858-7.2-11.46-7.2-11.46l4.585-5.895,5.4,7.2,3.213.327" transform="translate(-54.531 32.582)"/><path class="c" d="M471.945,424.323l.378,5.667,4.257,8.841-8.514,6.221" transform="translate(-38.142 29.44)"/><path class="c" d="M467.12,416.107c2.547,1.005,4.527,1.8,4.527,1.8l.2,2.942" transform="translate(-38.448 26.787)"/><path class="c" d="M466.446,405.346l.576-12.382h-3.833" transform="translate(-39.718 19.314)"/><path class="c" d="M485.911,429.331l6.221,2.617v-4.254l-3.6-4.912h-4.344l-2.205-5.239,10.151-6.876-1.31-4.584-11.788,9.5-7.2-3.274-4.268-5.894" transform="translate(-38.305 23.55)"/><path class="c" d="M462.126,449.009v3.274s7.858-1.638,8.841-1.638a63.1,63.1,0,0,1,6.548,1.638l8.427-12.443,5.326,1.638,2.619-5.567a103.237,103.237,0,0,1-7.85-7.613" transform="translate(-40.061 30.723)"/><path class="c" d="M458.094,378.132c3.975.671,8.936,1.561,8.936,1.561l13.425-2.291,6.789,7.858-8.84,6.877,10.564,7.2v-8.186l2.293-5.894s-11.134-13.1-10.806-14.08,10.806-7.2,10.806-7.2V351.861l-9.5-1.965" transform="translate(-41.363 5.406)"/><path class="c" d="M473.161,458.442l-11.789-12.115h-5.239l-1.638,6.058h-7.858l-5.567-13.261-1.965-8.514,7.858-13.752-1.31-20.747,4.257-21.315s8.513-4.108,9.5-4.108" transform="translate(-47.494 12.12)"/><path class="c" d="M475.686,327.431l-8.841-6.222v-7.2l5.439-2.066-10.351-8.412-1.638-5.565-16.7-3.93-11.46,1.31-32.09-9.823s-33.4,4.257-35.364,4.257-21.611.655-21.611.655l24.885-7.859" transform="translate(-78.506 -16.334)"/><path class="c" d="M482.067,362.538l-6.791,1.965-18.665-13.425s-5.225-13.74-4.9-12.758,18,19.307,18,19.307l9.169.983,12.028-2.621,7.945-5.261-19.319-3.252-9.824-7.531,9.5.328-16.372-16.046-16.081-6.382" transform="translate(-45.025 -4.943)"/><path class="c" d="M433.875,314.006s-7.858,5.239-6.877,5.076,13.426,0,13.426,0" transform="translate(-51.431 -6.183)"/><path class="c" d="M423.428,345.688,412.622,354.2l6.209,4.584,4.6,2.947H426.7l-1.31-3.929h6.136l-8.1-6.549.982-3.6" transform="translate(-56.046 4.048)"/><path class="c" d="M382.778,418.773l10.163,3.6,10.139-8.514L398.5,406.33l-12.443,3.6-4.584-3.6-6.221,4.257,6.549,3.766" transform="translate(-68.115 23.63)"/><path class="c" d="M419.471,452.368l4.924,6.549v11.788l-13.753,5.567,2.62-17.355,2.62-2.62" transform="translate(-56.686 38.496)"/><path class="c" d="M417.316,440.952l4.924,15.063,13.1,9.316-5.324,7.056v5.567h5.324l-7.6,11.133,23.641-9.5V469.276l-6.549-2.456-10.484-15.062h-4.336l1.722-10.806-7.859,1.637,1.965-5.567h-3.6" transform="translate(-54.531 33.541)"/><path class="c" d="M337.269,397.968l-13.753,29.143s6.548,26.015,6.877,24.959,24.231-29.217,24.231-29.217l43.222-13.425,11.8-30.124V360.64l6.21-10.151H399.483l1.965-8.513-20.956,2.291-22.921,5.567-9.5,2.619-.983,4.257,8.841,8.841L341.2,392.075" transform="translate(-84.82 2.849)"/><path class="c" d="M356.668,292.967l-8.186,10.478-28.815,12.115-5.567,7.779-10.151,15.8-12.116,8.514v20.629l9.823-8.186,14.408,2.62-14.08,11.461-2.947,8.186,7.2-3.6" transform="translate(-95.051 -12.977)"/><path class="c" d="M304.942,333.379l4.257-4.748,9.823-1.8-4.912-5.894h16.372l-5.567,10.151-13.1,6.221,11.461,1.965-18.337,5.567-1.637,3.929-8.463-9.024,6.876-4.421" transform="translate(-94.08 -3.945)"/><path class="c" d="M320.546,330.1l3.929,4.911-1.965,6.55s3.929,15.718,5.567,14.735,23.9-7.531,25.212-8.186,27.178-2.291,27.178-2.291l-2.946-8.841-14.736-3.6L352.308,331.9l-6.548,4.748" transform="translate(-85.779 -0.988)"/><path class="c" d="M323.516,327.912l4.257-4.748,2.947,2.374-3.6,8.6,3.6,3.111v6.221l3.929-2.292,9.5,2.292" transform="translate(-84.82 -3.226)"/><path class="c" d="M336.061,324.154l-4.748,3.438,7.695,1.8" transform="translate(-82.302 -2.906)"/><path class="c" d="M336.284,332.535l-2.063,3.111,8.759-3.111v-4.421" transform="translate(-81.363 -1.627)"/><path class="c" d="M320.94,336.778l1.31,4.279-14.08,4.235,3.274-6.221" transform="translate(-89.776 1.17)"/><path class="c" d="M322.824,343.213v3.274l-9.332-1.637" transform="translate(-88.057 3.248)"/><path class="c" d="M311.305,357.572l5.894-8.514,13.1-1.637,3.929,10.151L330.3,369.687,328,382.309l-7.04,1.786,1.8,16.045-11.461,3.274v-9.823l-1.965,1.689-3.274,13.046-4.257,4.257-2.62-8.186-3.274,10.478-3.6-14.735,3.6-6.549-5.567-6.549,5.567-1.965,6.876,3.274,7.2-4.584-6.549-5.239,13.1-10.806-4.257-6.549" transform="translate(-95.53 4.607)"/><path class="c" d="M351.663,362.272l-11.788,7.859-9.168-1.637-2.292,10.478-8.841-2.62v-5.73H299.927l-12.115,8.35-2.947,15.063-4.584,16.045,2.947,2.292L272.094,425.8l2.62,6.549,10.478-14.08,13.425.327,8.841-15.717,16.372-12.391,5.567,6.824-3.929,17.027-3.274,9.168,5.567,1.31,8.514-4.257-9.5,28.488,3.929,10.478,3.6,8.841-5.567,5.239-20.629,1.637-13.1-10.151-14.408,3.6,13.1,4.912-5.894,6.221-3.6,7.368,7.531,9.332,5.239-1.31-.655,4.912H274.386l3.274-5.239,5.239-2.947-18.992-2.62-6.549,4.093-2.62,9-14.08-5.567-16.7,18.337-16.7,4.471-8.841,3.715-6.549,27.178-6.549,3.274,2.947-17.682,5.567-14.735-18.992-28-5.239-6.221-13.1,32.468-2.292,21.069,3.274,13.1,7.2-10.806,4.912,10.806L158.47,575.659l6.549,20.737-3.6,18.664,4.257,16.372,6.549,6.549,4.584,11.461,3.6-5.894,6.876,3.929,5.894-.655,2.62,2.62-6.876,3.274,1.637,10.806,2.947-8.514,6.221,4.912,3.929,10.151,20.3,16.173,12.115,19.846L246.553,720.5l15.39,11.461,15.39,24.886,1.637,10.151L327.432,798.1l30.78,17.027,3.929,11.461-20.629,11.788,2.62,18.337L333,859.662l-19.319-6.835-3.274,4.543" transform="translate(-139.491 9.403)"/><path class="c" d="M189.308,761.031c-.655-1.638-24.232-55.011-24.232-55.011l7.859-14.08-1.965-20.63-8.186-18.992-6.222-18.173,2.946-18.828-6.875-18.992L151,570.458l1.31-41.914L169,480.41l16.7-38.31,29.469-42.569,21.612-19.973,59.595-44.533,55.011-32.089,32.09-12.443,6.058,3.274h8.227" transform="translate(-140.53 -13.776)"/><path class="c" d="M267.824,462.248c.983.983,13.753,8.514,13.753,8.514l-6.877,3.765,12.443,2.783,4.584-11.951-6.877-7.7,5.567-8.513h-5.567l-9.823,9.987" transform="translate(-102.804 37.457)"/><path class="c" d="M170.55,510.04l5.894,4.584,9.823,31.435v5.894l-7.859-8.514,1.637-3.6-7.531-23.249" transform="translate(-134.215 57.12)"/><path class="c" d="M175.892,539.495l3.929,7.859-6.549-1.965v-2.947" transform="translate(-133.336 66.631)"/><path class="c" d="M186.36,545.435v6.385l-3.929,1.474,8.841,12.443,10.151,2.947-6.549-9.168-.327-7.695-4.257-2.456" transform="translate(-130.379 68.549)"/><path class="c" d="M196.787,566.474l4.912,4.584,3.6-2.292" transform="translate(-125.743 75.343)"/><path class="c" d="M478.462,510.912l2.205,11.133,5.653-5.567-2.292-10.151-3.361,2.62" transform="translate(-34.785 55.921)"/><path class="c" d="M475.987,503.246l3.274,5.239v-8.841" transform="translate(-35.585 53.763)"/><path class="c" d="M540.919,509.3l-10.478,5.894,9.132-.921" transform="translate(-18.001 56.88)"/><path class="c" d="M560.344,495.189l-5.894,7.531h4.257l2.141-3.284" transform="translate(-10.248 52.324)"/><path class="c" d="M544.9,441.316c.327,2.506,4.256,14.622,4.256,14.622l17.355,2.619,2.946,7.2-12.279,11.3h-5.4l-9.5,14.9L530.162,487.7l-3.929-21.063,5.567-8.407,5.239,3.438,5.239,2.277,2.947-6.37-8.186-4.257,5.239-7.2" transform="translate(-19.359 34.927)"/><path class="c" d="M556.678,420.1l2.947,22.921L570.43,448.7l11.788,6.762,3.929,13.589h9.5l2.292-11.624-14.479-12.852v-6.795l-6.15-2.947V440.4L562.9,432.866l.982-7.2,3.274-5.567-7.531-1.637" transform="translate(-9.528 27.546)"/><path class="c" d="M485.356,402.324l4.82,3.971,3.692-1.985" transform="translate(-32.559 22.336)"/></g></g></svg>