<svg xmlns="http://www.w3.org/2000/svg" width="82" height="81.997" viewBox="0 0 82 81.997"><defs><style>.a{fill:none;stroke:#00afab;stroke-linecap:round;stroke-linejoin:round;stroke-width:2px;stroke-dasharray:816;}</style></defs><g transform="translate(-0.016 -0.017)"><path class="a" d="M47.912,80.41a39.971,39.971,0,1,0-6.9.6"/><g transform="translate(16.787 13.742)"><line class="a" y1="23.245" transform="translate(11.999 29.41)"/><line class="a" x2="27.544" transform="translate(10.457 52.655)"/><line class="a" y1="23.245" transform="translate(36.238 29.41)"/><path class="a" d="M31,47.117V39.131h5.509v7.987" transform="translate(-5.39 0.743)"/><path class="a" d="M24.606,37.923V29.936h5.509v7.987" transform="translate(-7.821 -2.751)"/><path class="a" d="M34.7,22.218l11.98-11.98L52.443,16l-11.98,11.98" transform="translate(-3.985 -10.238)"/><path class="a" d="M20.638,46.726l-2.429,2.429L12.444,43.39l8.048-8.048" transform="translate(-12.444 -0.697)"/><path class="a" d="M24.37,27.929,12.444,16l5.765-5.765L30.135,22.164" transform="translate(-12.444 -10.238)"/><path class="a" d="M41.406,35.007l8.509,8.509L44.15,49.282l-2.8-2.8" transform="translate(-1.457 -0.824)"/><g transform="translate(14.536 54.029)"><line class="a" y1="4.103"/><path class="a" d="M26.634,53.491H40.972v-4.1" transform="translate(-21.586 -49.387)"/></g><path class="a" d="M48.555,32.816,34.007,18.268,19.458,32.816" transform="translate(-9.778 -7.186)"/></g></g></svg>