<svg xmlns="http://www.w3.org/2000/svg" width="82.111" height="82.056" viewBox="0 0 82.111 82.056"><defs><style>.a,.b{fill:none;stroke:#00AFAB;stroke-linecap:round;stroke-width:2px;}.a{stroke-linejoin:round;stroke-dasharray:816;}</style></defs><g transform="translate(1.056 1.056)"><path class="a" d="M48.967,81.426a39.992,39.992,0,1,0-6.905.606" transform="translate(-2.029 -2.032)"/><g transform="translate(7.5 32.537)"><path class="a" d="M9.8,45.639H20.867L10.495,56.7Q10.15,51.17,9.8,45.639Z" transform="translate(-9.529 -34.532)"/><line class="b" x1="8" y1="3" transform="translate(3)"/><line class="b" y1="6" x2="3"/><line class="b" x1="7" y1="2" transform="translate(0 6)"/><path class="b" d="M5,0,2.672,2.938l-1.625,2" transform="translate(6 3)"/></g><g transform="translate(33.341 14.988)"><path class="a" d="M39,24.338A3.662,3.662,0,1,1,42.664,28" transform="translate(-35.34 -17.003)"/><path class="a" d="M49.988,24.338A7.324,7.324,0,1,0,36.328,28h-.006l6.342,10.986L49.006,28H49" transform="translate(-35.34 -17.003)"/></g><path class="a" d="M59.529,25.235A52.575,52.575,0,0,1,69,27.564q-1.4,4.35-2.807,8.7-3.507,2.177-7.016,4.351,3.86,9.429,7.718,18.856l-2.806,1.45L62.685,66l-4.209-2.176L54.967,66,40.233,56.572l-7.718,2.176q.7-4.352,1.4-8.7a7.263,7.263,0,0,1-7.718.725l-2.1-17.4c1.112-.756,2.394-1.565,3.84-2.374" transform="translate(-1.992 -1.994)"/><line class="a" x2="10" transform="translate(36.001 42.002)"/></g></svg>