<svg xmlns="http://www.w3.org/2000/svg" width="82" height="82.003" viewBox="0 0 82 82.003"><defs><style>.a{fill:none;stroke:#fee901;stroke-linecap:round;stroke-linejoin:round;stroke-width:2px;stroke-dasharray:816;}</style></defs><g transform="translate(-0.017 -0.016)"><g transform="translate(1.017 1.016)"><path class="a" d="M47.913,80.413a39.964,39.964,0,1,0-6.9.606" transform="translate(-1.017 -1.016)"/><path class="a" d="M8.466,45.238l.086.081a5.721,5.721,0,0,0,7.956,0l.086-.081a6.453,6.453,0,0,1,8.976,0l.086.081a5.721,5.721,0,0,0,7.956,0l.086-.081a6.453,6.453,0,0,1,8.976,0l.086.081a5.721,5.721,0,0,0,7.956,0l.086-.081a6.453,6.453,0,0,1,8.976,0l.086.081a5.72,5.72,0,0,0,7.956,0l.086-.081" transform="translate(1.815 15.103)"/><path class="a" d="M14.293,51.017l.086-.081a6.451,6.451,0,0,1,8.976,0l.086.081a5.721,5.721,0,0,0,7.956,0l.086-.081a6.451,6.451,0,0,1,8.976,0l.086.081a5.721,5.721,0,0,0,7.956,0l.086-.081a6.451,6.451,0,0,1,8.976,0l.086.081" transform="translate(4.029 17.269)"/></g><path class="a" d="M17.858,45.547,13.834,30.02,36.145,24.5V45.2" transform="translate(4.872 8.927)"/><path class="a" d="M47.6,45.547,51.76,30.02,30,24.5" transform="translate(11.017 8.927)"/><path class="a" d="M40,20h3.859l1.832,11.154" transform="translate(14.818 7.216)"/><path class="a" d="M16,26.211,17.307,20H43.6" transform="translate(5.695 7.216)"/><path class="a" d="M19,22.281V14H47.983v8.281" transform="translate(6.836 4.935)"/><g transform="translate(37.125 12.035)"><path class="a" d="M29.442,9H27.191v6.9" transform="translate(-27.18 -9)"/><line class="a" y1="6.901" transform="translate(7.783)"/></g></g></svg>