<svg xmlns="http://www.w3.org/2000/svg" width="82" height="82" viewBox="0 0 82 82"><defs><style>.a{fill:none;stroke:#fff;stroke-linecap:round;stroke-linejoin:round;stroke-width:2px;}</style></defs><g transform="translate(-67.541 -390.667)"><path class="a" d="M128.16,431.413a15.287,15.287,0,1,0-24.706,12.024,4.455,4.455,0,0,1,1.775,3.491v5.887h15.287v-5.888a4.437,4.437,0,0,1,1.763-3.48,15.407,15.407,0,0,0,3.372-3.654" transform="translate(-4.332 -4.077)"/><line class="a" y1="1.529" x2="15.287" transform="translate(100.897 452.242)"/><line class="a" y1="0.763" x2="7.631" transform="translate(104.725 456.763)"/><g transform="translate(108.55 400.839)"><line class="a" y2="4.586"/></g><g transform="translate(81.174 415.631)"><line class="a" x2="3.972" y2="2.293"/></g><g transform="translate(81.165 445.008)"><line class="a" y1="2.293" x2="3.972"/></g><g transform="translate(131.936 445.024)"><line class="a" x1="3.972" y1="2.293"/></g><g transform="translate(131.945 415.647)"><line class="a" x1="3.972" y2="2.293"/></g><path class="a" d="M115.437,471.062a39.971,39.971,0,1,0-6.9.6"/></g></svg>