<svg xmlns="http://www.w3.org/2000/svg" width="82" height="82" viewBox="0 0 82 82"><defs><style>.a{fill:none;stroke:#00afab;stroke-linecap:round;stroke-linejoin:round;stroke-width:2px;stroke-dasharray:816;}</style></defs><g transform="translate(-0.016 -0.016)"><path class="a" d="M47.912,80.41a39.964,39.964,0,1,0-6.9.606"/><path class="a" d="M55.752,33.191c6.423-3.472,13.1-7.8,11.455-11.264-2.036-4.3-13.14.308-20.6,3.712L23.973,14.527a2.383,2.383,0,0,0-1.063-.022L19.9,15.93c-.429.2-.385.577-.124.847l14.568,15.2c-5.869,3.438-11.907,7.352-15.57,9.615l-7.917-2.826A2.383,2.383,0,0,0,9.8,38.741l-.86.407a.417.417,0,0,0-.068.69L12.4,47.506l3.9,8.015a.415.415,0,0,0,.577.385l.858-.407a1.23,1.23,0,0,0,.656-.838l2.826-7.916,3.816-1.31c3.559-1.192,9.5-3.177,13.486-4.652L41.158,61.9c.046.373.464.7.736.44L44.9,60.912a1.237,1.237,0,0,0,.656-.838l5.729-24.551" transform="translate(2.927 5.108)"/></g></svg>