<svg xmlns="http://www.w3.org/2000/svg" width="924.178" height="490" viewBox="0 0 924.178 490"><defs><style>.a{opacity:0.15;}.b{fill:#ccf5f4;}.b,.d,.e,.f,.j,.k,.l,.m,.n{stroke:#fee901;}.c,.k{opacity:0.75;}.d,.j,.k,.l,.m,.o{fill:none;}.d,.k,.l,.n{stroke-miterlimit:10;}.d,.k,.l,.m,.n{stroke-width:2px;}.f,.g,.h,.i{fill:#fee901;}.g{font-size:12px;}.g,.h,.i{font-family:Aino-Bold, Aino;font-weight:700;}.h{font-size:14px;}.i{font-size:10px;}.j,.l,.m{stroke-linecap:round;}.j,.m{stroke-linejoin:round;}.l{stroke-dasharray:6;}</style></defs><g transform="translate(-620.822 -418)"><g class="a" transform="translate(375 418)"><path class="b" d="M661.376,376.788l12.595-56.676,12.595-18.892-12.595-12.595-18.892,6.3-6.3,18.892-12.595,6.3L598.4,294.923l-31.487-44.081,6.3-25.189,12.595-6.3-6.3-12.595H566.917l-6.3-25.189,12.595-6.3-12.595-12.595,6.3-44.081L592.106,106l37.784-6.3V80.814l25.189-6.3,6.3-12.595,12.595-6.3,6.3,12.595,25.189-18.892V36.732h6.3l18.892,18.892L793.62,30.435,806.215,43.03l6.3-25.189L831.4,36.732l69.271,12.595,12.595-6.3,25.189,25.189h50.379l50.379,6.3,25.189-12.595L1077,74.516l-6.3,25.189-18.892,6.3-18.892,56.676-25.189-6.3H988.837l-44.081,25.189V206.76l18.892,6.3,6.3,31.487,12.595,44.081,12.595,6.3,6.3,56.676,17.582,8.394-4.988,10.233,15.221,31.229-14.7,1.832-7.872,22.57-13.9,21.512-5.51,21.783-17.318-4.2-25.189-12.595-44.081,18.892-25.189-12.595-12.595-25.189L844,420.869V401.977l-25.189-6.3L755.836,357.9,673.971,395.68Z"/><path class="b" d="M510.241,175.274l-12.595-12.595-18.892-6.3V143.787H459.862l-6.3,25.189H409.483l-6.3,12.595,25.189,12.595,12.595-6.3,12.595,12.595v25.189h18.892l6.3-18.892h18.892l12.595-12.595h12.595Z"/><path class="b" d="M548.025,231.949l-18.892-6.3v18.892l6.3,12.595h12.595Z"/><path class="b" d="M396.889,357.9v18.892l12.595,12.595L428.375,357.9V332.707l18.892-6.3,44.081-12.595,25.189-25.189L543.5,272.5l-45.854-27.956-12.595,6.3H440.97l-6.3,12.595H403.186l-12.595,6.3,12.595,18.892L384.294,301.22v18.892h12.595l12.595,12.595Z"/><path class="b" d="M549,153H526l5,17,24-3Z"/><path class="b" d="M625.715,338.645l-5.758-5.682-3.387,6.887.038,5.72,4.591,2.258Z"/><path class="b" d="M536,410l5,5,4.968-2.782L546,408l-4.1-4.062Z"/></g><g class="c" transform="translate(375 418)"><path class="d" d="M661.376,376.788l12.595-56.676,12.595-18.892-12.595-12.595-18.892,6.3-6.3,18.892-12.595,6.3L598.4,294.923l-31.487-44.081,6.3-25.189,12.595-6.3-6.3-12.595H566.917l-6.3-25.189,12.595-6.3-12.595-12.595,6.3-44.081L592.106,106l37.784-6.3V80.814l25.189-6.3,6.3-12.595,12.595-6.3,6.3,12.595,25.189-18.892V36.732h6.3l18.892,18.892L793.62,30.435,806.215,43.03l6.3-25.189L831.4,36.732l69.271,12.595,12.595-6.3,25.189,25.189h50.379l50.379,6.3,25.189-12.595L1077,74.516l-6.3,25.189-18.892,6.3-18.892,56.676-25.189-6.3H988.837l-44.081,25.189V206.76l18.892,6.3,6.3,31.487,12.595,44.081,12.595,6.3,6.3,56.676,17.582,8.394-4.988,10.233,15.221,31.229-14.7,1.832-7.872,22.57-13.9,21.512-5.51,21.783-17.318-4.2-25.189-12.595-44.081,18.892-25.189-12.595-12.595-25.189L844,420.869V401.977l-25.189-6.3L755.836,357.9,673.971,395.68Z"/><path class="d" d="M549,153H526l5,17,24-3Z"/><path class="d" d="M510.241,175.274l-12.595-12.595-18.892-6.3V143.787H459.862l-6.3,25.189H409.483l-6.3,12.595,25.189,12.595,12.595-6.3,12.595,12.595v25.189h18.892l6.3-18.892h18.892l12.595-12.595h12.595Z"/><path class="d" d="M548.025,231.949l-18.892-6.3v18.892l6.3,12.595h12.595Z"/><path class="d" d="M625.715,338.645l-5.758-5.682-3.387,6.887.038,5.72,4.591,2.258Z"/><path class="d" d="M536,410l5,5,4.968-2.782L546,408l-4.1-4.062Z"/><path class="d" d="M396.889,357.9v18.892l12.595,12.595L428.375,357.9V332.707l18.892-6.3,44.081-12.595,25.189-25.189L543.5,272.5l-45.854-27.956-12.595,6.3H440.97l-6.3,12.595H403.186l-12.595,6.3,12.595,18.892L384.294,301.22v18.892h12.595l12.595,12.595Z"/></g><circle class="e" cx="6" cy="6" r="6" transform="translate(941 586)"/><circle class="f" cx="6" cy="6" r="6" transform="translate(1079 570)"/><circle class="f" cx="6" cy="6" r="6" transform="translate(1326 768)"/><circle class="f" cx="6" cy="6" r="6" transform="translate(1320 816)"/><circle class="f" cx="6" cy="6" r="6" transform="translate(1215 824)"/><circle class="f" cx="6" cy="6" r="6" transform="translate(1164 710)"/><circle class="f" cx="6" cy="6" r="6" transform="translate(1249 496)"/><circle class="f" cx="6" cy="6" r="6" transform="translate(1362 495)"/><text class="g" transform="translate(1455.796 488.751)"><tspan x="0" y="0">Narva</tspan></text><text class="g" transform="translate(1264.796 506.751)"><tspan x="0" y="0">Rakvere</tspan></text><text class="g" transform="translate(1372.796 514.751)"><tspan x="0" y="0">Jõhvi</tspan></text><text class="h" transform="translate(1070.796 517.751)"><tspan x="0" y="0">TALLINN</tspan></text><text class="g" transform="translate(1321.796 716.751)"><tspan x="-15.87" y="0">Tartu</tspan></text><text class="g" transform="translate(1329.796 751.751)"><tspan x="-31.074" y="0">Laaksaare</tspan></text><text class="g" transform="translate(1349.796 825.751)"><tspan x="-14.412" y="0">Võru</tspan></text><text class="g" transform="translate(1341.796 777.751)"><tspan x="0" y="0">Põlva</tspan></text><text class="g" transform="translate(1228.796 833.751)"><tspan x="0" y="0">Valga</tspan></text><text class="g" transform="translate(1146.796 737.751)"><tspan x="0" y="0">Viljandi</tspan></text><circle class="f" cx="6" cy="6" r="6" transform="translate(1158 593)"/><circle class="f" cx="6" cy="6" r="6" transform="translate(1250 627)"/><text class="g" transform="translate(1173.796 603.751)"><tspan x="0" y="0">Paide</tspan></text><text class="g" transform="translate(1264.796 637.751)"><tspan x="0" y="0">Jõgeva</tspan></text><text class="g" transform="translate(1031.796 697.751)"><tspan x="0" y="0">Pärnu</tspan></text><text class="g" transform="translate(940.796 740.751)"><tspan x="0" y="0">Munalaid</tspan></text><text class="g" transform="translate(956.796 595.751)"><tspan x="0" y="0">Haapsalu</tspan></text><text class="g" transform="translate(943.796 613.751)"><tspan x="0" y="0">Rohuküla</tspan></text><g transform="translate(375 418)"><rect width="67" height="17" transform="translate(496 196)"/><text class="g" transform="translate(498.796 208.751)"><tspan x="0" y="0">Heltermaa</tspan></text></g><g transform="translate(375 418)"><rect width="67" height="17" transform="translate(503 264)"/><text class="g" transform="translate(508.796 276.751)"><tspan x="0" y="0">Kuivastu</tspan></text></g><g transform="translate(375 418)"><rect width="67" height="17" transform="translate(657 321)"/><text class="g" transform="translate(662.796 333.751)"><tspan x="0" y="0">Manilaid</tspan></text></g><text class="g" transform="translate(1094.796 579.751)"><tspan x="0" y="0">Rapla</tspan></text><text class="g" transform="translate(841.796 753.751)"><tspan x="0" y="0">Kuressaare</tspan></text><text class="g" transform="translate(972.796 777.751)"><tspan x="0" y="0">Kihnu</tspan></text><text class="i" transform="translate(867.796 655.751)"><tspan x="0" y="0">Muhu</tspan></text><text class="g" transform="translate(892.796 566.751)"><tspan x="0" y="0">Vormsi</tspan></text><text class="g" transform="translate(1093.796 436.751)"><tspan x="0" y="0">Aegna</tspan></text><text class="g" transform="translate(794.796 640.751)"><tspan x="0" y="0">Sõru</tspan></text><text class="g" transform="translate(842.796 687.751)"><tspan x="0" y="0">Triigi</tspan></text><text class="g" transform="translate(903.796 850.751)"><tspan x="0" y="0">Ruhnu</tspan></text><text class="g" transform="translate(952.796 674.751)"><tspan x="0" y="0">Virtsu</tspan></text><text class="g" transform="translate(845.796 554.751)"><tspan x="0" y="0">Kärdla</tspan></text><text class="g" transform="translate(890.796 500.751)"><tspan x="0" y="0">Stockholm,</tspan><tspan x="0" y="14.4">Sweden</tspan></text><text class="g" transform="translate(998.796 447.751)"><tspan x="0" y="0">Helsinki,</tspan><tspan x="0" y="14.4">Finland</tspan></text><line class="j" x1="2.164" y1="1.659" transform="translate(1108.473 825.621)"/><g class="c" transform="translate(375 418)"><path class="j" d="M871.919,14.887a2.274,2.274,0,0,0-2.538-1.8H865.59c-1.273,0-1.851.318-2.144,1.164-2.514,0-3.541.828-3.638,2.7h-1.224a2.818,2.818,0,0,0-3.1,2.94c.039,1.8,1.784,2.619,4.693,2.619a2.535,2.535,0,0,0,2.591,2.353H869.7a3.729,3.729,0,0,0,3.755-2.353h2.4c1.585,0,3.226-.881,3.154-2.532-.061-1.417-1.18-2.382-3.459-2.382C875.368,15.986,874.381,14.887,871.919,14.887Z"/><path class="j" d="M873.218,31.578h5.314c1.431,0,1.584.971,1.431,1.533h1.992c1.022,0,2.2.511,2.095,1.533a1.723,1.723,0,0,1-1.89,1.533h-1.789c0,1.022-.613,1.788-1.992,1.788H876.59c-1.124,0-1.481-.306-1.584-1.073h-2.5a1.668,1.668,0,0,1-1.737-1.226H869.59a1.084,1.084,0,0,1-1.022-1.124,1.222,1.222,0,0,1,1.329-1.124h1.022A2.453,2.453,0,0,1,873.218,31.578Z"/><path class="j" d="M858.727,28.3c1.849,0,2.259.9,2.424,1.643,1.315,0,2.459.217,2.793,1.56a1.758,1.758,0,0,1-1.648,2.218,1.558,1.558,0,0,1-1.631.9h-1.527a2.014,2.014,0,0,1-1.971.821h-3.45a2.981,2.981,0,0,1-2.67-2.587c-1.7,0-2.38-.752-1.918-1.75.472-1.017,1.534-1.331,3.725-1.331a2.177,2.177,0,0,1,2.189-1.478Z"/><path class="j" d="M866.165,49.535V22.3l3.97-2.745"/><line class="j" y1="3.213" x2="5.063" transform="translate(866.165 36.447)"/><line class="j" x1="2.041" y1="1.25" transform="translate(861.961 34.219)"/></g><line class="j" x2="12.336" transform="translate(828.345 708.245)"/><line class="j" x2="12.336" transform="translate(798.916 735.49)"/><path class="j" d="M427.824,313.926c-3.04-.593-4.968-4.077-4.671-6.969a9.652,9.652,0,0,1,4.671-6.673c1.7-.741-.074-10.9,2.15-12.011s3.707,3.559,3.114,5.783c2.076,1.557,2.669,3.782,2.076,5.19,1.854.742,2.521,2.521,2,3.559,1.408,1.928,2.3,6.08.37,7.414a3.734,3.734,0,0,1-3.744,4.078" transform="translate(375 418)"/><path class="j" d="M431.122,305.623v9.342l-2.076-4.819" transform="translate(375 418)"/><path class="j" d="M456.733,286.311a4.251,4.251,0,0,1-3.342-7.621c-.854-2.929.325-5.052,1.941-5.485-.929-1.007.127-2.824,1.108-2.936-.342-1.693-.034-3.857,1.408-4.951-.1-2.592.265-4.684,1.154-4.718s1.328,1.73,1.3,2.992a5.319,5.319,0,0,1,2.057,5.263c1.923,1.78,3.8,6.234,3.08,8.71a4.723,4.723,0,0,1-2.629,8.471" transform="translate(375 418)"/><line class="j" y2="14.682" transform="translate(834.513 690.015)"/><line class="j" y1="1.26" x2="2.215" transform="translate(834.513 698.025)"/><line class="j" x1="2.317" y1="1.186" transform="translate(832.196 694.615)"/><line class="j" x2="12.336" transform="translate(748.255 707.339)"/><path class="j" d="M371.441,286.789l1.435-2.584a2.188,2.188,0,0,1,2.254-1.1l3.428.547a2.182,2.182,0,0,1,1.621,1.2l.953,1.961" transform="translate(375 418)"/><g class="c" transform="translate(375 418)"><line class="j" x2="12.336" transform="translate(460.023 202.212)"/><line class="j" x2="12.336" transform="translate(468.553 192.563)"/><path class="j" d="M478.857,189.1c5.328.591,6-6.962,2.52-8.1.993-2.508.418-6.532-2.2-7.235.32-2.874-.319-4.535-2.418-5.458.1-2.593-.265-4.684-1.154-4.718s-1.328,1.729-1.3,2.991a5.321,5.321,0,0,0-2.057,5.263c-3.193,1.106-3.672,5.946-2.011,8.437-3.577,2.044-3.367,8.371,1.56,8.745"/><path class="j" d="M475.094,179.076V189.7l2.613-4.1"/><path class="j" d="M458.209,199.662l1.436-2.583a2.187,2.187,0,0,1,2.254-1.1l3.428.546a2.189,2.189,0,0,1,1.621,1.2l.953,1.961"/></g><path class="k" d="M659,389q-2.5,19-5,38,8,25.5,16,51" transform="translate(375 418)"/><path class="k" d="M1039,400l35,6V368l-50-43,20-57q-5-50-10-100" transform="translate(375 418)"/><path class="d" d="M1067,37l-3,17" transform="translate(375 418)"/><circle class="f" cx="6" cy="6" r="6" transform="translate(1446 493)"/><g transform="translate(375 418)"><line class="l" x2="107.702" y2="3.326" transform="translate(576.204 61.841)"/><path class="m" d="M577.281,68.837l-7.126-6.873,6.872-7.125"/></g><g transform="translate(375 418)"><line class="l" x2="10.733" y2="46.145" transform="translate(686.267 19.855)"/><path class="m" d="M679.517,21.986l5.7-8.091,8.091,5.7"/></g><g transform="translate(375 418)"><path d="M0,0H67V17H0Z" transform="translate(1019 300)"/><text class="g" transform="translate(1024.796 312.751)"><tspan x="0" y="0">Piirissaar</tspan></text></g><path class="n" d="M857,302l-14-15-12,18,23.256,27Z" transform="translate(375 418)"/><g class="c" transform="translate(375 418)"><path class="j" d="M549.763,382.5V352.117l14.33,28.961H552.2"/><path class="j" d="M547.019,380.671H536.043l13.72-36.9v5.688"/><line class="j" x2="47.573" transform="translate(529.258 389.436)"/><line class="j" x2="8.73" transform="translate(514.203 389.436)"/><line class="j" x2="4.365" transform="translate(582.266 389.436)"/><line class="j" x2="1.114" transform="translate(590.338 389.436)"/><path class="j" d="M531.824,387.3l-1.458-2.04h36.57"/><line class="j" x2="13.509" transform="translate(578.727 376.106)"/><line class="j" x2="4.635" transform="translate(598.109 376.106)"/><line class="j" x2="24.673" transform="translate(596.674 383.773)"/><line class="j" x2="1.763" transform="translate(628.011 383.773)"/><line class="j" x2="14.543" transform="translate(473.088 379.027)"/><line class="j" x2="2.738" transform="translate(490.369 379.027)"/><path class="j" d="M468.91,378.241l2.8-3.445a3.072,3.072,0,0,1,4.77,0l1.064,1.31"/><path class="j" d="M476.686,375.05h0a6.59,6.59,0,0,1,3.17-.813h.437a1.763,1.763,0,0,1,1.666,1.185l.238.684"/><line class="j" x2="19.314" transform="translate(439.322 398.89)"/><line class="j" x2="6.627" transform="translate(467.032 398.89)"/><line class="j" x2="35.275" transform="translate(458.56 408.608)"/><line class="j" x2="2.521" transform="translate(503.362 408.608)"/><path class="j" d="M1009.763,216.5V186.117l14.33,28.961H1012.2"/><path class="j" d="M1007.019,214.671H996.043l13.72-36.9v5.688"/><line class="j" x2="47.573" transform="translate(989.258 223.436)"/><line class="j" x2="8.73" transform="translate(974.203 223.436)"/><path class="j" d="M991.824,221.3l-1.458-2.04h36.57"/><line class="j" x2="4.635" transform="translate(993.109 262.106)"/><line class="j" x2="24.673" transform="translate(991.674 269.773)"/><line class="j" x2="1.763" transform="translate(1023.011 269.773)"/><line class="j" x2="14.543" transform="translate(961.088 186.027)"/><line class="j" x2="2.738" transform="translate(978.369 186.027)"/><path class="j" d="M956.91,185.241l2.8-3.445a3.072,3.072,0,0,1,4.77,0l1.064,1.31"/><path class="j" d="M964.686,182.05h0a6.59,6.59,0,0,1,3.17-.813h.437a1.763,1.763,0,0,1,1.666,1.185l.238.684"/><line class="j" x2="19.314" transform="translate(977.322 242.89)"/><line class="j" x2="6.627" transform="translate(1005.032 242.89)"/><line class="j" x2="4.635" transform="translate(837.109 305.106)"/><line class="j" x2="6.627" transform="translate(842.032 301.89)"/><line class="j" x2="6.627" transform="translate(848.032 307.89)"/><line class="j" x2="6.627" transform="translate(845.032 311.89)"/><line class="j" x2="35.275" transform="translate(993.56 283.608)"/><line class="j" x2="2.521" transform="translate(970.362 217.608)"/><path class="j" d="M356.763,228.5V198.117l14.33,28.961H359.2"/><path class="j" d="M354.019,226.671H343.043l13.72-36.9v5.688"/><line class="j" x2="47.573" transform="translate(336.258 235.436)"/><line class="j" x2="8.73" transform="translate(321.203 235.436)"/><line class="j" x2="4.365" transform="translate(389.266 235.436)"/><line class="j" x2="1.114" transform="translate(397.338 235.436)"/><path class="j" d="M338.824,233.3l-1.458-2.04h36.57"/><line class="j" x2="13.509" transform="translate(385.727 222.106)"/><line class="j" x2="4.635" transform="translate(405.109 222.106)"/><line class="j" x2="24.673" transform="translate(403.674 229.773)"/><line class="j" x2="1.763" transform="translate(435.011 229.773)"/><line class="j" x2="14.543" transform="translate(280.088 225.027)"/><line class="j" x2="2.738" transform="translate(297.369 225.027)"/><path class="j" d="M275.91,224.241l2.8-3.445a3.072,3.072,0,0,1,4.77,0l1.064,1.31"/><path class="j" d="M283.686,221.05h0a6.59,6.59,0,0,1,3.17-.813h.437a1.763,1.763,0,0,1,1.666,1.185l.238.684"/><line class="j" x2="19.314" transform="translate(246.322 244.89)"/><line class="j" x2="6.627" transform="translate(274.032 244.89)"/><line class="j" x2="35.275" transform="translate(265.56 254.608)"/><line class="j" x2="2.521" transform="translate(310.362 254.608)"/><path class="j" d="M439.315,93.463H415.142c-3.5,0-5.669-1.84-5.439-4.641.281-3.419,3.835-5.04,7.178-3.233-.413-7.792,12.119-9.974,14.251-1.895A5.105,5.105,0,0,1,439,88.6a3.448,3.448,0,0,1,5.584-.128c1.291,1.7.345,4.987-2.177,4.987"/><path class="j" d="M497.242,58.464a10.568,10.568,0,1,1,17.011-8.378"/><path class="j" d="M512.13,55.052c.81-2.329,4.355-3.376,6.786-2.025a4.676,4.676,0,0,1,2.012,5.992"/><path class="j" d="M519.865,53.717c2.894-5.689,11.994-5.011,13.191,1.664,1.417-5.32,6.888-6.39,9.857-2.953,2.259-4.545,9.52-3.437,9.371,2.4,3.537-1.714,7.313.609,6.317,5.206a2.259,2.259,0,0,1,3.471,1.666c0,1.18-.972,2.222-2.985,2.222H545.828"/><path class="j" d="M541.88,63.919H492.165c-3.776,0-5.761-1.611-6.052-4.9a5.134,5.134,0,0,1,4.793-5.811"/><path class="j" d="M1006.5,49.5H982.327c-3.5,0-5.67-1.84-5.439-4.642.281-3.419,3.835-5.04,7.177-3.232-.412-7.793,12.119-9.975,14.252-1.9a5.105,5.105,0,0,1,7.866,4.91,3.446,3.446,0,0,1,5.583-.128c1.291,1.7.346,4.987-2.176,4.987"/><path class="j" d="M413.242,33.464a10.568,10.568,0,1,1,17.011-8.378"/><path class="j" d="M428.13,30.052c.81-2.329,4.355-3.376,6.786-2.025a4.676,4.676,0,0,1,2.012,5.992"/><path class="j" d="M435.865,28.717c2.894-5.689,11.994-5.011,13.191,1.664,1.417-5.32,6.888-6.39,9.857-2.953,2.259-4.545,9.52-3.437,9.371,2.4,3.537-1.714,7.313.609,6.317,5.206a2.259,2.259,0,0,1,3.471,1.666c0,1.18-.972,2.222-2.985,2.222H461.828"/><path class="j" d="M457.88,38.919H408.165c-3.776,0-5.761-1.611-6.052-4.9a5.134,5.134,0,0,1,4.793-5.811"/><rect class="j" width="16.831" height="24.88" rx="8.415" transform="translate(887.169 150.42)"/><line class="j" y2="25.978" transform="translate(895.585 158.305)"/><line class="j" x1="4.217" y2="3.842" transform="translate(895.585 157.725)"/><line class="j" y1="2.561" x2="6.108" transform="translate(895.585 164.921)"/><line class="j" x1="5.967" y1="3.11" transform="translate(889.618 161.567)"/><rect class="j" width="16.831" height="24.88" rx="8.415" transform="translate(800.169 96.42)"/><line class="j" y2="25.978" transform="translate(808.585 104.305)"/><line class="j" x1="4.217" y2="3.842" transform="translate(808.585 103.725)"/><line class="j" y1="2.561" x2="6.108" transform="translate(808.585 110.921)"/><line class="j" x1="5.967" y1="3.11" transform="translate(802.618 107.567)"/><path class="j" d="M741.391,401.868a2.275,2.275,0,0,0-2.539-1.8h-3.791c-1.273,0-1.851.317-2.144,1.164-2.514,0-3.541.828-3.638,2.7h-1.223a2.819,2.819,0,0,0-3.1,2.94c.04,1.8,1.784,2.619,4.693,2.619a2.535,2.535,0,0,0,2.592,2.353h6.928a3.728,3.728,0,0,0,3.755-2.353h2.4c1.584,0,3.225-.881,3.154-2.532-.062-1.417-1.181-2.382-3.46-2.382C744.84,402.967,743.852,401.868,741.391,401.868Z"/><path class="j" d="M742.689,418.559H748c1.431,0,1.584.971,1.431,1.533h1.993c1.022,0,2.2.511,2.095,1.533a1.725,1.725,0,0,1-1.891,1.533h-1.788c0,1.022-.613,1.788-1.993,1.788h-1.788c-1.124,0-1.482-.306-1.584-1.073h-2.5a1.669,1.669,0,0,1-1.737-1.226h-1.175a1.084,1.084,0,0,1-1.022-1.124,1.221,1.221,0,0,1,1.328-1.124h1.022A2.454,2.454,0,0,1,742.689,418.559Z"/><path class="j" d="M728.2,415.281c1.848,0,2.259.9,2.423,1.642,1.315,0,2.459.218,2.793,1.561a1.758,1.758,0,0,1-1.648,2.218,1.558,1.558,0,0,1-1.631.9h-1.527a2.012,2.012,0,0,1-1.971.821h-3.45a2.982,2.982,0,0,1-2.67-2.587c-1.7,0-2.38-.752-1.917-1.75.471-1.018,1.533-1.331,3.724-1.331a2.178,2.178,0,0,1,2.19-1.478Z"/><path class="j" d="M735.636,436.516V409.281l3.97-2.745"/><line class="j" y1="3.213" x2="5.063" transform="translate(735.636 423.428)"/><line class="j" x1="2.041" y1="1.25" transform="translate(731.432 421.2)"/><path class="j" d="M788.391,422.868a2.275,2.275,0,0,0-2.539-1.8h-3.791c-1.273,0-1.851.317-2.144,1.164-2.514,0-3.541.828-3.638,2.7h-1.223a2.819,2.819,0,0,0-3.1,2.94c.04,1.8,1.784,2.619,4.693,2.619a2.535,2.535,0,0,0,2.592,2.353h6.928a3.728,3.728,0,0,0,3.755-2.353h2.4c1.584,0,3.225-.881,3.154-2.532-.062-1.417-1.181-2.382-3.46-2.382C791.84,423.967,790.852,422.868,788.391,422.868Z"/><path class="j" d="M789.689,439.559H795c1.431,0,1.584.971,1.431,1.533h1.993c1.022,0,2.2.511,2.095,1.533a1.725,1.725,0,0,1-1.891,1.533h-1.788c0,1.022-.613,1.788-1.993,1.788h-1.788c-1.124,0-1.482-.306-1.584-1.073h-2.5a1.669,1.669,0,0,1-1.737-1.226h-1.175a1.084,1.084,0,0,1-1.022-1.124,1.221,1.221,0,0,1,1.328-1.124h1.022A2.454,2.454,0,0,1,789.689,439.559Z"/><path class="j" d="M775.2,436.281c1.848,0,2.259.9,2.423,1.642,1.315,0,2.459.218,2.793,1.561a1.758,1.758,0,0,1-1.648,2.218,1.558,1.558,0,0,1-1.631.9h-1.527a2.012,2.012,0,0,1-1.971.821h-3.45a2.982,2.982,0,0,1-2.67-2.587c-1.7,0-2.38-.752-1.917-1.75.471-1.018,1.533-1.331,3.724-1.331a2.178,2.178,0,0,1,2.19-1.478Z"/><path class="j" d="M782.636,457.516V430.281l3.97-2.745"/><line class="j" y1="3.213" x2="5.063" transform="translate(782.636 444.428)"/><line class="j" x1="2.041" y1="1.25" transform="translate(778.432 442.2)"/><line class="j" x1="2.164" y1="1.659" transform="translate(780.473 428.621)"/><path class="j" d="M1108.391,366.868a2.275,2.275,0,0,0-2.539-1.8h-3.791c-1.273,0-1.851.317-2.144,1.164-2.514,0-3.541.828-3.638,2.7h-1.223a2.819,2.819,0,0,0-3.1,2.94c.04,1.8,1.784,2.619,4.693,2.619a2.535,2.535,0,0,0,2.592,2.353h6.928a3.728,3.728,0,0,0,3.755-2.353h2.4c1.584,0,3.225-.881,3.154-2.532-.062-1.417-1.181-2.382-3.46-2.382C1111.84,367.967,1110.852,366.868,1108.391,366.868Z"/><path class="j" d="M1109.689,383.559H1115c1.431,0,1.584.971,1.431,1.533h1.993c1.022,0,2.2.511,2.095,1.533a1.725,1.725,0,0,1-1.891,1.533h-1.788c0,1.022-.613,1.788-1.993,1.788h-1.788c-1.124,0-1.482-.306-1.584-1.073h-2.5a1.669,1.669,0,0,1-1.737-1.226h-1.175a1.084,1.084,0,0,1-1.022-1.124,1.221,1.221,0,0,1,1.328-1.124h1.022A2.454,2.454,0,0,1,1109.689,383.559Z"/><path class="j" d="M1095.2,380.281c1.848,0,2.259.9,2.423,1.642,1.315,0,2.459.218,2.793,1.561a1.758,1.758,0,0,1-1.648,2.218,1.558,1.558,0,0,1-1.631.9h-1.527a2.012,2.012,0,0,1-1.971.821h-3.45a2.982,2.982,0,0,1-2.67-2.587c-1.7,0-2.38-.752-1.917-1.75.471-1.018,1.533-1.331,3.724-1.331a2.178,2.178,0,0,1,2.19-1.478Z"/><path class="j" d="M1102.636,401.516V374.281l3.97-2.745"/><line class="j" y1="3.213" x2="5.063" transform="translate(1102.636 388.428)"/><line class="j" x1="2.041" y1="1.25" transform="translate(1098.432 386.2)"/><path class="j" d="M1109.391,437.868a2.275,2.275,0,0,0-2.539-1.8h-3.791c-1.273,0-1.851.317-2.144,1.164-2.514,0-3.541.828-3.638,2.7h-1.223a2.819,2.819,0,0,0-3.1,2.94c.04,1.8,1.784,2.619,4.693,2.619a2.535,2.535,0,0,0,2.592,2.353h6.928a3.728,3.728,0,0,0,3.755-2.353h2.4c1.584,0,3.225-.881,3.154-2.532-.062-1.417-1.181-2.382-3.46-2.382C1112.84,438.967,1111.852,437.868,1109.391,437.868Z"/><path class="j" d="M1110.689,454.559H1116c1.431,0,1.584.971,1.431,1.533h1.993c1.022,0,2.2.511,2.095,1.533a1.725,1.725,0,0,1-1.891,1.533h-1.788c0,1.022-.613,1.788-1.993,1.788h-1.788c-1.124,0-1.482-.306-1.584-1.073h-2.5a1.669,1.669,0,0,1-1.737-1.226h-1.175a1.084,1.084,0,0,1-1.022-1.124,1.221,1.221,0,0,1,1.328-1.124h1.022A2.454,2.454,0,0,1,1110.689,454.559Z"/><path class="j" d="M1096.2,451.281c1.848,0,2.259.9,2.423,1.642,1.315,0,2.459.218,2.793,1.561a1.758,1.758,0,0,1-1.648,2.218,1.558,1.558,0,0,1-1.631.9h-1.527a2.012,2.012,0,0,1-1.971.821h-3.45a2.982,2.982,0,0,1-2.67-2.587c-1.7,0-2.38-.752-1.917-1.75.471-1.018,1.533-1.331,3.724-1.331a2.178,2.178,0,0,1,2.19-1.478Z"/><path class="j" d="M1103.636,472.516V445.281l3.97-2.745"/><line class="j" y1="3.213" x2="5.063" transform="translate(1103.636 459.428)"/><line class="j" x1="2.041" y1="1.25" transform="translate(1099.432 457.2)"/><line class="j" x1="2.164" y1="1.659" transform="translate(1101.473 443.621)"/><path class="j" d="M725.919,260.887a2.274,2.274,0,0,0-2.538-1.8H719.59c-1.273,0-1.851.318-2.144,1.164-2.514,0-3.541.828-3.638,2.7h-1.224a2.818,2.818,0,0,0-3.1,2.94c.039,1.8,1.784,2.619,4.693,2.619a2.535,2.535,0,0,0,2.591,2.353H723.7a3.729,3.729,0,0,0,3.755-2.353h2.4c1.585,0,3.226-.881,3.154-2.532-.061-1.417-1.18-2.382-3.459-2.382C729.368,261.986,728.381,260.887,725.919,260.887Z"/><path class="j" d="M727.218,277.578h5.314c1.431,0,1.584.971,1.431,1.533h1.992c1.022,0,2.2.511,2.095,1.533a1.723,1.723,0,0,1-1.89,1.533h-1.789c0,1.022-.613,1.788-1.992,1.788H730.59c-1.124,0-1.481-.306-1.584-1.073h-2.5a1.668,1.668,0,0,1-1.737-1.226H723.59a1.084,1.084,0,0,1-1.022-1.124,1.222,1.222,0,0,1,1.329-1.124h1.022A2.453,2.453,0,0,1,727.218,277.578Z"/><path class="j" d="M712.727,274.3c1.849,0,2.259.9,2.424,1.643,1.315,0,2.459.217,2.793,1.56a1.758,1.758,0,0,1-1.648,2.218,1.558,1.558,0,0,1-1.631.9h-1.527a2.014,2.014,0,0,1-1.971.821h-3.45a2.981,2.981,0,0,1-2.67-2.587c-1.7,0-2.38-.752-1.918-1.75.472-1.017,1.534-1.331,3.725-1.331a2.177,2.177,0,0,1,2.189-1.478Z"/><path class="j" d="M720.165,295.535V268.3l3.97-2.745"/><line class="j" y1="3.213" x2="5.063" transform="translate(720.165 282.447)"/><line class="j" x1="2.041" y1="1.25" transform="translate(715.961 280.219)"/><path class="j" d="M940.919,103.887a2.274,2.274,0,0,0-2.538-1.8H934.59c-1.273,0-1.851.318-2.144,1.164-2.514,0-3.541.828-3.638,2.7h-1.224a2.818,2.818,0,0,0-3.1,2.94c.039,1.8,1.784,2.619,4.693,2.619a2.535,2.535,0,0,0,2.591,2.353H938.7a3.729,3.729,0,0,0,3.755-2.353h2.4c1.585,0,3.226-.881,3.154-2.532-.061-1.417-1.18-2.382-3.459-2.382C944.368,104.986,943.381,103.887,940.919,103.887Z"/><path class="j" d="M942.218,120.578h5.314c1.431,0,1.584.971,1.431,1.533h1.992c1.022,0,2.2.511,2.095,1.533a1.723,1.723,0,0,1-1.89,1.533h-1.789c0,1.022-.613,1.788-1.992,1.788H945.59c-1.124,0-1.481-.306-1.584-1.073h-2.5a1.668,1.668,0,0,1-1.737-1.226H938.59a1.084,1.084,0,0,1-1.022-1.124,1.222,1.222,0,0,1,1.329-1.124h1.022A2.453,2.453,0,0,1,942.218,120.578Z"/><path class="j" d="M927.727,117.3c1.849,0,2.259.9,2.424,1.643,1.315,0,2.459.217,2.793,1.56a1.758,1.758,0,0,1-1.648,2.218,1.558,1.558,0,0,1-1.631.9h-1.527a2.014,2.014,0,0,1-1.971.821h-3.45a2.981,2.981,0,0,1-2.67-2.587c-1.7,0-2.38-.752-1.918-1.75.472-1.017,1.534-1.331,3.725-1.331a2.177,2.177,0,0,1,2.189-1.478Z"/><path class="j" d="M935.165,138.535V111.3l3.97-2.745"/><line class="j" y1="3.213" x2="5.063" transform="translate(935.165 125.447)"/><line class="j" x1="2.041" y1="1.25" transform="translate(930.961 123.219)"/><path class="j" d="M1103.919,312.887a2.274,2.274,0,0,0-2.538-1.8h-3.791c-1.273,0-1.851.318-2.144,1.164-2.514,0-3.541.828-3.638,2.7h-1.224a2.818,2.818,0,0,0-3.1,2.94c.039,1.8,1.784,2.619,4.693,2.619a2.535,2.535,0,0,0,2.591,2.353h6.929a3.729,3.729,0,0,0,3.755-2.353h2.4c1.585,0,3.226-.881,3.154-2.532-.061-1.417-1.18-2.382-3.459-2.382C1107.368,313.986,1106.381,312.887,1103.919,312.887Z"/><path class="j" d="M1105.218,329.578h5.314c1.431,0,1.584.971,1.431,1.533h1.992c1.022,0,2.2.511,2.1,1.533a1.723,1.723,0,0,1-1.89,1.533h-1.789c0,1.022-.613,1.788-1.992,1.788h-1.789c-1.124,0-1.481-.306-1.584-1.073h-2.5a1.668,1.668,0,0,1-1.737-1.226h-1.176a1.084,1.084,0,0,1-1.022-1.124,1.222,1.222,0,0,1,1.329-1.124h1.022A2.453,2.453,0,0,1,1105.218,329.578Z"/><path class="j" d="M1090.727,326.3c1.849,0,2.259.9,2.424,1.643,1.315,0,2.459.217,2.793,1.56a1.758,1.758,0,0,1-1.648,2.218,1.558,1.558,0,0,1-1.631.9h-1.527a2.013,2.013,0,0,1-1.971.821h-3.45a2.981,2.981,0,0,1-2.67-2.587c-1.7,0-2.38-.752-1.918-1.75.472-1.017,1.534-1.331,3.725-1.331a2.177,2.177,0,0,1,2.189-1.478Z"/><path class="j" d="M1098.165,347.535V320.3l3.97-2.745"/><line class="j" y1="3.213" x2="5.063" transform="translate(1098.165 334.447)"/><line class="j" x1="2.041" y1="1.25" transform="translate(1093.961 332.219)"/><line class="j" y2="28.997" transform="translate(1092.498 163.642)"/><line class="j" y1="2.423" x2="4.719" transform="translate(1092.498 175.061)"/><line class="j" x1="6.114" y1="2.202" transform="translate(1086.384 172.281)"/><line class="j" y1="3.044" x2="3.44" transform="translate(1092.498 166.526)"/><line class="j" x1="3.111" y1="0.908" transform="translate(1089.387 166.526)"/><path class="j" d="M1092.5,185h1.7a5.769,5.769,0,0,0,5.77-5.769v-1.3a10.47,10.47,0,0,0,3.036-7.385,8.85,8.85,0,0,0-3.283-6.589,3.39,3.39,0,0,1-1.355-2.676v-.07a5.864,5.864,0,0,0-5.864-5.864h0a5.863,5.863,0,0,0-5.864,5.864v.07a3.388,3.388,0,0,1-1.356,2.676,8.85,8.85,0,0,0-3.283,6.589,10.466,10.466,0,0,0,3.037,7.385v1.3A5.769,5.769,0,0,0,1090.8,185Z"/><path class="j" d="M1074.109,223.39c14.107,14.107,10.581,43.374,0,43.374S1060,237.5,1074.109,223.39Z"/><line class="j" y2="36.688" transform="translate(1074.109 238.293)"/><line class="j" x1="3.456" y2="4.298" transform="translate(1074.109 236.984)"/><line class="j" x1="5.692" y1="4.492" transform="translate(1068.417 246.651)"/><line class="j" x1="5.692" y1="1.779" transform="translate(1068.417 257.579)"/><line class="j" y1="5.586" x2="6.431" transform="translate(1074.109 251.281)"/><rect class="j" width="15.987" height="23.633" rx="7.994" transform="translate(813.013 243.325)"/><line class="j" y2="24.676" transform="translate(821.006 250.814)"/><line class="j" x1="4.006" y2="3.649" transform="translate(821.006 250.264)"/><line class="j" y1="2.433" x2="5.802" transform="translate(821.006 257.099)"/><line class="j" x1="5.668" y1="2.954" transform="translate(815.339 253.913)"/></g><line class="l" x1="43" y2="5" transform="translate(893 600)"/><line class="l" x1="14" y1="15" transform="translate(925 589)"/><line class="l" x1="20" y2="3" transform="translate(925 669)"/><line class="l" x1="24" y1="2" transform="translate(1001 757)"/><path class="l" d="M634,320l-36,16-50,79" transform="translate(375 418)"/><path class="l" d="M455,323l24,44,69,48" transform="translate(375 418)"/><path class="l" d="M548,415l84-36,43-90" transform="translate(375 418)"/><line class="l" y1="12" x2="15" transform="translate(1369 738)"/><line class="l" y1="51" x2="12" transform="translate(1072 433)"/><line class="l" x2="11" y2="28" transform="translate(835 643)"/><g transform="translate(375 418)"><circle class="n" cx="12" cy="12" r="12" transform="translate(685 54)"/><circle class="n" cx="6" cy="6" r="6" transform="translate(449 317)"/><circle class="n" cx="6" cy="6" r="6" transform="translate(542 409)"/><circle class="n" cx="6" cy="6" r="6" transform="translate(620 333)"/><circle class="f" cx="6" cy="6" r="6" transform="translate(481 153)"/><circle class="f" cx="6" cy="6" r="6" transform="translate(914 289)"/><circle class="n" cx="6" cy="6" r="6" transform="translate(703 9)"/><circle class="n" cx="6" cy="6" r="6" transform="translate(1006 311)"/><circle class="n" cx="6" cy="6" r="6" transform="translate(991 323)"/><circle class="n" cx="6" cy="6" r="6" transform="translate(634 321)"/><circle class="n" cx="6" cy="6" r="6" transform="translate(465 245)"/><circle class="n" cx="6" cy="6" r="6" transform="translate(454 219)"/><circle class="n" cx="6" cy="6" r="6" transform="translate(512 181)"/><circle class="n" cx="6" cy="6" r="6" transform="translate(561 245)"/><circle class="n" cx="6" cy="6" r="6" transform="translate(541 248)"/><circle class="n" cx="6" cy="6" r="6" transform="translate(541 162)"/><circle class="n" cx="6" cy="6" r="6" transform="translate(555 176)"/><circle class="n" cx="6" cy="6" r="6" transform="translate(669 283)"/><circle class="n" cx="6" cy="6" r="6" transform="translate(628 314)"/></g><text class="i" transform="translate(760.796 568.751)"><tspan x="0" y="0">Hiiumaa</tspan></text><text class="i" transform="translate(704.796 762.751)"><tspan x="0" y="0">Saaremaa</tspan></text><rect class="o" width="924" height="490" transform="translate(621 418)"/></g></svg>