<svg xmlns="http://www.w3.org/2000/svg" width="34.828" height="33.925" viewBox="0 0 34.828 33.925"><defs><style>.a{fill:none;stroke:#fee901;stroke-linecap:round;stroke-linejoin:round;stroke-width:2px;stroke-dasharray:816;}</style></defs><g transform="translate(-79.807 -340.702)"><path class="a" d="M81.221,368.256l.046.044a3.081,3.081,0,0,0,4.284,0l.046-.044a3.473,3.473,0,0,1,4.832,0l.047.044a3.08,3.08,0,0,0,4.283,0l.046-.044a3.473,3.473,0,0,1,4.832,0l.047.044a3.08,3.08,0,0,0,4.283,0l.046-.044a3.473,3.473,0,0,1,4.832,0l.047.044a3.078,3.078,0,0,0,4.283,0l.046-.044"/><path class="a" d="M85.551,372.533l.046-.044a3.471,3.471,0,0,1,4.832,0l.047.044a3.08,3.08,0,0,0,4.283,0l.046-.044a3.471,3.471,0,0,1,4.832,0l.047.044a3.08,3.08,0,0,0,4.283,0l.046-.044a3.471,3.471,0,0,1,4.832,0l.047.044"/><path class="a" d="M87.376,364.549l-2.167-8.359,12.012-2.971v11.145"/><path class="a" d="M106.7,364.549l2.24-8.359-11.715-2.971"/><path class="a" d="M104.652,349.875h2.078l.986,6.005"/><path class="a" d="M86.819,353.219l.7-3.344h14.155"/><path class="a" d="M89.048,349.875v-4.457h15.6v4.457"/><path class="a" d="M96.344,341.7H95.132v3.715"/><line class="a" y1="3.715" transform="translate(99.315 341.702)"/></g></svg>