<svg xmlns="http://www.w3.org/2000/svg" width="33.989" height="27.872" viewBox="0 0 33.989 27.872"><defs><style>.a{fill:none;stroke:#565a5c;stroke-linecap:round;stroke-linejoin:round;stroke-width:2px;}</style></defs><g transform="translate(-80.226 -189.185)"><path class="a" d="M97.3,195.131"/><path class="a" d="M84.7,196.249l3.148-4.634a2.631,2.631,0,0,1,2.568-1.415h13.6a2.641,2.641,0,0,1,2.568,1.415l3.02,4.634"/><path class="a" d="M82.783,199.687s-1.536-.46-1.536-1.316-.353-2.731,1.536-2.731"/><path class="a" d="M111.66,199.687s1.535-.46,1.535-1.309.354-2.731-1.535-2.731"/><path class="a" d="M87.162,209.025"/><path class="a" d="M109.6,203.323H87.494"/><path class="a" d="M89.715,214.529v1c0,.382-.4.531-1.223.531H87.126c-.82,0-1.224-.149-1.224-.531v-1"/><path class="a" d="M108.54,214.529v1c0,.382-.4.531-1.224.531h-1.365c-.828,0-1.224-.149-1.224-.531v-1"/><path class="a" d="M99.223,195.435l-5.843,4"/><path class="a" d="M101.063,196.956l-3.693,2.476"/><path class="a" d="M84.7,198.371V212.52h7.569"/><path class="a" d="M95.1,212.52h14.516V198.371"/><line class="a" x2="6.544" transform="translate(94.066 207.921)"/><path class="a" d="M87.657,209.159h2.6a1.032,1.032,0,0,0,.877-1.139h0a1.033,1.033,0,0,0-.877-1.16H87.636"/><path class="a" d="M106.786,206.86h-2.6a1.033,1.033,0,0,0-.877,1.139h0a1.033,1.033,0,0,0,.877,1.139h2.618"/></g></svg>