<svg xmlns="http://www.w3.org/2000/svg" width="30.331" height="38.414" viewBox="0 0 30.331 38.414"><defs><style>.a{fill:none;stroke:#fff;stroke-linecap:round;stroke-linejoin:round;stroke-width:2px;}</style></defs><g transform="translate(-82.056 -234.167)"><line class="a" x2="15.467" transform="translate(89.492 235.167)"/><line class="a" x1="2.149" y2="3.16" transform="translate(101.05 237.659)"/><path class="a" d="M101.041,237.469"/><path class="a" d="M96.129,242.7"/><path class="a" d="M87.966,264.088H84.354V249.921s1.012-6.908,7.278-6.908"/><path class="a" d="M87.966,264.088h22.14V249.921"/><line class="a" x1="15.233" transform="translate(89.609 252.964)"/><path class="a" d="M110.106,248.061"/><path class="a" d="M110.106,248.061"/><path class="a" d="M110.106,249.921s-.605-6.908-7.278-6.908h-6.7"/><line class="a" y1="4.298" x2="4.108" transform="translate(83.469 266.869)"/><line class="a" x2="4.099" y2="4.298" transform="translate(106.874 266.869)"/><line class="a" x2="8.749" transform="translate(92.851 267.555)"/><line class="a" x2="15.35" transform="translate(89.546 271.167)"/><line class="a" y1="5.959" transform="translate(97.221 247.004)"/><line class="a" x2="11.991" transform="translate(91.226 258.553)"/><line class="a" y1="2.763" transform="translate(87.442 257.171)"/><line class="a" y1="2.763" transform="translate(107.009 257.171)"/></g></svg>