<svg xmlns="http://www.w3.org/2000/svg" width="34.023" height="28.174" viewBox="0 0 34.023 28.174"><defs><style>.a{fill:none;stroke:#fee901;stroke-linecap:round;stroke-linejoin:round;stroke-width:2px;}</style></defs><g transform="translate(-80.165 -293.464)"><path class="a" d="M106.843,304.673c3.5-1.891,7.135-4.249,6.241-6.137-1.109-2.342-7.159.168-11.224,2.023L89.53,294.5a1.32,1.32,0,0,0-.58-.012l-1.634.777c-.235.109-.21.314-.068.462l7.938,8.282c-3.2,1.873-6.489,4.006-8.484,5.238l-4.313-1.54a1.316,1.316,0,0,0-.579-.012l-.468.218a.227.227,0,0,0-.094.307.211.211,0,0,0,.057.069l1.922,4.178,2.127,4.368a.227.227,0,0,0,.315.209l.467-.218a.672.672,0,0,0,.358-.457l1.54-4.313,2.079-.713c1.939-.654,5.178-1.731,7.348-2.536l1.437,11.5c.025.2.253.382.4.24l1.634-.776a.674.674,0,0,0,.358-.457l3.122-13.377"/></g></svg>