<svg xmlns="http://www.w3.org/2000/svg" width="34" height="23.957" viewBox="0 0 34 23.957"><defs><style>.a{fill:none;stroke:#565a5c;stroke-linecap:round;stroke-linejoin:round;stroke-width:2px;}</style></defs><g transform="translate(-80.221 -140.839)"><path class="a" d="M82.677,149.849h-.936c-.279,0-.52-.72-.52-1.123a1.681,1.681,0,0,1,.923-1.077h1.235"/><path class="a" d="M111.766,149.849h.935c.281,0,.52-.719.52-1.119a1.679,1.679,0,0,0-.923-1.077h-1.235"/><path class="a" d="M92.612,155.672h9.244"/><path class="a" d="M84.86,149.848l2.838-6.127a2.664,2.664,0,0,1,2.639-1.879h13.8a2.663,2.663,0,0,1,2.637,1.88l2.655,6.127"/><path class="a" d="M90.683,160.042H83.024v-7.87a145.564,145.564,0,0,1,28.42,0v7.871H93.6"/><path class="a" d="M99.417,144.524l-6.007,4.114"/><path class="a" d="M101.307,146.106l-3.8,2.531"/><path class="a" d="M87.812,162.222v1.025c0,.4-.413.549-1.26.549H85.145c-.844,0-1.259-.15-1.259-.549v-1.025"/><path class="a" d="M110.7,162.222v1.025c0,.4-.411.549-1.259.549h-1.407c-.844,0-1.26-.15-1.26-.549v-1.025"/><path class="a" d="M106.022,154.928a1.456,1.456,0,1,1,.533,1.989h0"/><path class="a" d="M88.068,156.888a1.455,1.455,0,1,1,.454-2.008l0,0"/></g></svg>