<svg xmlns="http://www.w3.org/2000/svg" width="414" height="265.151" viewBox="0 0 414 265.151"><defs><style>.a{opacity:0.25;}.b{fill:#ccf5f4;}.c,.j{opacity:0.75;}.d,.i,.j,.k,.l,.o{fill:none;}.d,.i,.j,.k,.l,.m{stroke:#fff;}.d,.j,.k,.m,.n{stroke-miterlimit:10;}.d,.j,.k,.l,.m,.n{stroke-width:2px;}.e,.f,.h,.n{fill:#fff;}.f{font-size:8px;}.f,.h{font-family:Aino-Bold, Aino;font-weight:700;}.g,.m{fill:#00afab;}.h{font-size:6px;}.i,.k,.l{stroke-linecap:round;}.i,.l{stroke-linejoin:round;}.k{stroke-dasharray:6;}.n{stroke:#0a8280;}</style></defs><g transform="translate(-682 -418)"><g transform="translate(621.174 422.195)"><g class="a" transform="translate(74.66 5.459)"><path class="b" d="M615.142,212.076l6.815-30.669,6.815-10.223-6.815-6.815-10.223,3.408L608.326,178l-6.815,3.408-20.446-13.631-17.038-23.854,3.408-13.631,6.815-3.408-3.408-6.815h-6.815l-3.408-13.631,6.815-3.408-6.815-6.815,3.408-23.854,13.631-6.815L598.1,62.14V51.917l13.631-3.408,3.408-6.815,6.815-3.408,3.408,6.815L639,34.879V28.063H642.4l10.223,10.223L686.7,24.656l6.815,6.815,3.408-13.631,10.223,10.223,37.484,6.815,6.815-3.408L765.078,45.1h27.261L819.6,48.509l13.631-6.815,6.815,6.815L836.638,62.14l-10.223,3.408L816.193,96.216l-13.63-3.408H792.339l-23.854,13.631V120.07l10.223,3.408,3.408,17.038,6.815,23.854,6.815,3.408,3.408,30.669,9.514,4.542-2.7,5.537,8.236,16.9-7.953.992-4.26,12.213-7.524,11.64-2.982,11.787-9.371-2.273-13.63-6.815-23.854,10.223L731,256.375l-6.815-13.631-10.223-6.815V225.707L700.333,222.3l-34.076-20.446-44.3,20.446Z" transform="translate(-465.205 -17.84)"/><path class="b" d="M461.116,160.825,454.3,154.01,444.078,150.6v-6.815H433.855l-3.408,13.631H406.594l-3.408,6.815,13.631,6.815,6.815-3.408,6.815,6.815v13.631H440.67l3.408-10.223H454.3l6.815-6.815h6.815Z" transform="translate(-392.963 -75.634)"/><path class="b" d="M539.356,229.06l-10.223-3.408v10.223l3.408,6.815h6.815Z" transform="translate(-450.757 -113.2)"/><path class="b" d="M391.109,305.882V316.1l6.815,6.815,10.223-17.038V292.251l10.223-3.408,23.854-6.815L455.855,268.4l14.59-8.726-24.813-15.128-6.815,3.408H414.963l-3.408,6.815H394.517l-6.815,3.408,6.815,10.223-10.223,6.815v10.223h6.815l6.815,6.815Z" transform="translate(-384.294 -121.869)"/><path class="b" d="M538.446,153H526l2.706,9.2,12.987-1.623Z" transform="translate(-449.319 -79.862)"/><path class="b" d="M621.519,336.038l-3.116-3.075-1.833,3.727.02,3.1,2.484,1.222Z" transform="translate(-490.88 -162.442)"/><path class="b" d="M536,407.218l2.706,2.706,2.688-1.506.017-2.282-2.217-2.2Z" transform="translate(-453.908 -195.011)"/></g><g class="c" transform="translate(74.66 5.459)"><path class="d" d="M615.142,212.076l6.815-30.669,6.815-10.223-6.815-6.815-10.223,3.408L608.326,178l-6.815,3.408-20.446-13.631-17.038-23.854,3.408-13.631,6.815-3.408-3.408-6.815h-6.815l-3.408-13.631,6.815-3.408-6.815-6.815,3.408-23.854,13.631-6.815L598.1,62.14V51.917l13.631-3.408,3.408-6.815,6.815-3.408,3.408,6.815L639,34.879V28.063H642.4l10.223,10.223L686.7,24.656l6.815,6.815,3.408-13.631,10.223,10.223,37.484,6.815,6.815-3.408L765.078,45.1h27.261L819.6,48.509l13.631-6.815,6.815,6.815L836.638,62.14l-10.223,3.408L816.193,96.216l-13.63-3.408H792.339l-23.854,13.631V120.07l10.223,3.408,3.408,17.038,6.815,23.854,6.815,3.408,3.408,30.669,9.514,4.542-2.7,5.537,8.236,16.9-7.953.992-4.26,12.213-7.524,11.64-2.982,11.787-9.371-2.273-13.63-6.815-23.854,10.223L731,256.375l-6.815-13.631-10.223-6.815V225.707L700.333,222.3l-34.076-20.446-44.3,20.446Z" transform="translate(-465.205 -17.84)"/><path class="d" d="M538.446,153H526l2.706,9.2,12.987-1.623Z" transform="translate(-449.319 -79.862)"/><path class="d" d="M461.116,160.825,454.3,154.01,444.078,150.6v-6.815H433.855l-3.408,13.631H406.594l-3.408,6.815,13.631,6.815,6.815-3.408,6.815,6.815v13.631H440.67l3.408-10.223H454.3l6.815-6.815h6.815Z" transform="translate(-392.963 -75.634)"/><path class="d" d="M539.356,229.06l-10.223-3.408v10.223l3.408,6.815h6.815Z" transform="translate(-450.757 -113.2)"/><path class="d" d="M621.519,336.038l-3.116-3.075-1.833,3.727.02,3.1,2.484,1.222Z" transform="translate(-490.88 -162.442)"/><path class="d" d="M536,407.218l2.706,2.706,2.688-1.506.017-2.282-2.217-2.2Z" transform="translate(-453.908 -195.011)"/><path class="d" d="M391.109,305.882V316.1l6.815,6.815,10.223-17.038V292.251l10.223-3.408,23.854-6.815L455.855,268.4l14.59-8.726-24.813-15.128-6.815,3.408H414.963l-3.408,6.815H394.517l-6.815,3.408,6.815,10.223-10.223,6.815v10.223h6.815l6.815,6.815Z" transform="translate(-384.294 -121.869)"/></g><circle class="e" cx="3.247" cy="3.247" r="3.247" transform="translate(172.986 86.715)"/><circle class="e" cx="3.247" cy="3.247" r="3.247" transform="translate(247.661 78.057)"/><circle class="e" cx="3.247" cy="3.247" r="3.247" transform="translate(381.319 185.199)"/><circle class="e" cx="3.247" cy="3.247" r="3.247" transform="translate(378.073 211.173)"/><circle class="e" cx="3.247" cy="3.247" r="3.247" transform="translate(321.254 215.502)"/><circle class="e" cx="3.247" cy="3.247" r="3.247" transform="translate(293.657 153.814)"/><circle class="e" cx="3.247" cy="3.247" r="3.247" transform="translate(339.653 38.013)"/><circle class="e" cx="3.247" cy="3.247" r="3.247" transform="translate(400.8 37.472)"/><text class="f" transform="translate(446.555 30.139)"><tspan x="0" y="0">Narva</tspan></text><text class="f" transform="translate(348.2 43.879)"><tspan x="0" y="0">Rakvere</tspan></text><text class="f" transform="translate(406.642 48.208)"><tspan x="0" y="0">Jõhvi</tspan></text><text class="f" transform="translate(243.222 48.749)"><tspan x="0" y="0">TALLINN</tspan></text><text class="f" transform="translate(378.386 157.515)"><tspan x="-10.58" y="0">Tartu</tspan></text><text class="f" transform="translate(378.599 176.455)"><tspan x="-20.716" y="0">Laaksaare</tspan></text><text class="f" transform="translate(395.62 217.498)"><tspan x="-9.608" y="0">Võru</tspan></text><text class="f" transform="translate(384.867 200.524)"><tspan x="0" y="0">Põlva</tspan></text><text class="f" transform="translate(328.72 220.827)"><tspan x="0" y="0">Valga</tspan></text><text class="f" transform="translate(284.348 168.879)"><tspan x="0" y="0">Viljandi</tspan></text><circle class="e" cx="3.247" cy="3.247" r="3.247" transform="translate(290.41 90.502)"/><circle class="e" cx="3.247" cy="3.247" r="3.247" transform="translate(340.194 108.901)"/><text class="f" transform="translate(298.958 96.368)"><tspan x="0" y="0">Paide</tspan></text><text class="f" transform="translate(348.2 114.766)"><tspan x="0" y="0">Jõgeva</tspan></text><text class="f" transform="translate(220.118 146.234)"><tspan x="0" y="0">Pärnu</tspan></text><text class="f" transform="translate(163.876 170.502)"><tspan x="0" y="0">Munalaid</tspan></text><text class="f" transform="translate(181.534 92.039)"><tspan x="0" y="0">Haapsalu</tspan></text><text class="f" transform="translate(174.499 101.779)"><tspan x="0" y="0">Rohuküla</tspan></text><g transform="translate(135.107 101.866)"><rect class="g" width="45.255" height="9.199" transform="translate(-10 0)"/><text class="f" transform="translate(-7.487 7.948)"><tspan x="0" y="0">Heltermaa</tspan></text></g><g transform="translate(138.895 138.663)"><rect class="g" width="36.255" height="9.199"/><text class="f" transform="translate(3.136 7.948)"><tspan x="0" y="0">Kuivastu</tspan></text></g><g transform="translate(222.229 169.507)"><rect class="g" width="40.255" height="9.199" transform="translate(0 0)"/><text class="f" transform="translate(3.136 6.948)"><tspan x="0" y="0">Manilaid</tspan></text></g><text class="f" transform="translate(256.209 83.381)"><tspan x="0" y="0">Rapla</tspan></text><text class="f" transform="translate(119.304 177.537)"><tspan x="0" y="0">Kuressaare</tspan></text><text class="f" transform="translate(188.192 191.524)"><tspan x="0" y="0">Kihnu</tspan></text><text class="h" transform="translate(133.373 123.589)"><tspan x="0" y="0">Muhu</tspan></text><text class="f" transform="translate(142.902 76.346)"><tspan x="0" y="0">Vormsi</tspan></text><text class="f" transform="translate(257.668 7)"><tspan x="0" y="0">Aegna</tspan></text><text class="f" transform="translate(93.871 116.39)"><tspan x="0" y="0">Sõru</tspan></text><text class="f" transform="translate(117.845 142.823)"><tspan x="0" y="0">Triigi</tspan></text><text class="f" transform="translate(151.854 232.026)"><tspan x="0" y="0">Ruhnu</tspan></text><text class="f" transform="translate(179.369 134.788)"><tspan x="0" y="0">Virtsu</tspan></text><text class="f" transform="translate(118.469 69.853)"><tspan x="0" y="0">Kärdla</tspan></text><text class="f" transform="translate(145.819 40.632)"><tspan x="0" y="0">Stockholm,</tspan><tspan x="0" y="8">Sweden</tspan></text><text class="f" transform="translate(197.261 8.952)"><tspan x="0" y="0">Helsinki,</tspan><tspan x="0" y="8">Finland</tspan></text><line class="i" x1="1.171" y1="0.898" transform="translate(263.61 216.38)"/><g class="c" transform="translate(326.118 2.888)"><path class="i" d="M864.377,14.062A1.23,1.23,0,0,0,863,13.089h-2.051c-.689,0-1,.172-1.16.63-1.36,0-1.916.448-1.969,1.459h-.662a1.525,1.525,0,0,0-1.677,1.591c.021.975.965,1.417,2.539,1.417a1.372,1.372,0,0,0,1.4,1.273h3.75a2.018,2.018,0,0,0,2.032-1.273h1.3c.858,0,1.746-.477,1.707-1.37-.033-.767-.639-1.289-1.872-1.289C866.244,14.657,865.71,14.062,864.377,14.062Z" transform="translate(-851.969 -13.089)"/><path class="i" d="M871.084,31.578h2.875c.774,0,.857.525.774.83h1.078c.553,0,1.189.277,1.134.83a.933.933,0,0,1-1.023.83h-.968c0,.553-.332.968-1.078.968h-.968c-.608,0-.8-.166-.857-.581H870.7a.9.9,0,0,1-.94-.663h-.636a.586.586,0,0,1-.553-.608.661.661,0,0,1,.719-.608h.553A1.328,1.328,0,0,1,871.084,31.578Z" transform="translate(-857.973 -21.573)"/><path class="i" d="M854.258,28.3c1,0,1.222.489,1.312.889.712,0,1.331.117,1.511.844a.951.951,0,0,1-.892,1.2.843.843,0,0,1-.883.489h-.826a1.09,1.09,0,0,1-1.067.444h-1.867a1.613,1.613,0,0,1-1.445-1.4c-.919,0-1.288-.407-1.038-.947s.83-.72,2.016-.72a1.178,1.178,0,0,1,1.185-.8Z" transform="translate(-848.988 -20.069)"/><path class="i" d="M866.165,35.778V21.04l2.148-1.486" transform="translate(-856.87 -16.056)"/><line class="i" y1="1.738" x2="2.74" transform="translate(9.295 12.64)"/><line class="i" x1="1.104" y1="0.676" transform="translate(7.02 11.434)"/></g><line class="i" x2="6.676" transform="translate(112.025 152.864)"/><line class="i" x2="6.676" transform="translate(96.101 167.607)"/><path class="i" d="M425.667,302.077a3.544,3.544,0,0,1-2.528-3.771,5.223,5.223,0,0,1,2.528-3.611c.923-.4-.04-5.9,1.163-6.5s2.006,1.926,1.685,3.129a2.529,2.529,0,0,1,1.123,2.808,1.557,1.557,0,0,1,1.083,1.926c.762,1.043,1.244,3.29.2,4.012a2.02,2.02,0,0,1-2.026,2.207" transform="translate(-327.451 -136.398)"/><path class="i" d="M430.17,305.623v5.055l-1.123-2.608" transform="translate(-330.169 -144.437)"/><path class="i" d="M454.373,274.513a2.3,2.3,0,0,1-1.808-4.124c-.462-1.585.176-2.734,1.05-2.968-.5-.545.069-1.528.6-1.589a2.733,2.733,0,0,1,.762-2.679c-.054-1.4.143-2.535.624-2.553s.719.936.7,1.619a2.878,2.878,0,0,1,1.113,2.848c1.041.963,2.057,3.373,1.667,4.713a2.556,2.556,0,0,1-1.423,4.584" transform="translate(-340.514 -123.777)"/><line class="i" y2="7.945" transform="translate(115.363 143)"/><line class="i" y1="0.682" x2="1.199" transform="translate(115.363 147.334)"/><line class="i" x1="1.254" y1="0.642" transform="translate(114.11 145.489)"/><line class="i" x2="6.676" transform="translate(68.687 152.374)"/><path class="i" d="M371.441,285.088l.777-1.4a1.184,1.184,0,0,1,1.22-.593l1.855.3a1.181,1.181,0,0,1,.877.651l.516,1.061" transform="translate(-303.736 -134.094)"/><g class="c" transform="translate(114.658 84.332)"><line class="i" x2="6.676" transform="translate(0.982 20.895)"/><g transform="translate(5.185 0)"><line class="i" x2="6.676" transform="translate(0.413 15.674)"/><path class="i" d="M473.779,177.4c2.883.32,3.246-3.767,1.364-4.38.537-1.357.226-3.535-1.191-3.915.173-1.555-.173-2.454-1.308-2.953.054-1.4-.143-2.535-.624-2.553s-.719.936-.7,1.618a2.88,2.88,0,0,0-1.113,2.848c-1.728.6-1.987,3.218-1.088,4.565-1.936,1.106-1.822,4.53.844,4.732" transform="translate(-467.79 -163.598)"/><path class="i" d="M475.094,179.076v5.746l1.414-2.221" transform="translate(-471.142 -170.7)"/></g><path class="i" d="M458.209,197.961l.777-1.4a1.184,1.184,0,0,1,1.22-.593l1.855.3a1.185,1.185,0,0,1,.877.651l.516,1.061" transform="translate(-458.209 -178.446)"/></g><path class="j" d="M656.706,389q-1.353,10.282-2.706,20.563l8.658,27.6" transform="translate(-433.395 -182.697)"/><path class="j" d="M1032.117,293.541l18.939,3.247V276.225L1024,252.957l10.823-30.844q-2.705-27.056-5.411-54.113" transform="translate(-603.178 -81.285)"/><path class="d" d="M1065.623,37,1064,46.2" transform="translate(-621.533 -21.173)"/><circle class="e" cx="3.247" cy="3.247" r="3.247" transform="translate(446.254 36.39)"/><g transform="translate(175.234 25.48)"><line class="k" x2="58.28" y2="1.8" transform="translate(3.274 3.789)"/><g transform="translate(0 0)"><path class="l" d="M574.011,62.414l-3.856-3.719,3.719-3.856" transform="translate(-570.155 -54.839)"/></g></g><g transform="translate(234.413 3.324)"><line class="k" x2="5.808" y2="24.97" transform="translate(3.652 3.225)"/><g transform="translate(0 0)"><path class="l" d="M679.517,18.273,682.6,13.9l4.378,3.087" transform="translate(-679.517 -13.895)"/></g></g><g transform="translate(418.116 158.143)"><rect class="g" width="36.255" height="9.199" transform="translate(0 0)"/><text class="f" transform="translate(1.136 7.948)"><tspan x="0" y="0">Piirissaar</tspan></text></g><path class="m" d="M845.069,295.117,837.494,287,831,296.74l12.584,14.61Z" transform="translate(-514.616 -135.891)"/><g class="c" transform="translate(0 3.662)"><g transform="translate(104.437 178.169)"><path class="i" d="M549.763,368.558V352.117l7.754,15.671h-6.434" transform="translate(-490.001 -347.603)"/><path class="i" d="M541.983,363.74h-5.939l7.424-19.966v3.078" transform="translate(-483.705 -343.774)"/><line class="i" x2="25.743" transform="translate(48.667 24.709)"/><line class="i" x2="4.724" transform="translate(40.52 24.709)"/><line class="i" x2="2.362" transform="translate(77.351 24.709)"/><line class="i" x2="0.603" transform="translate(81.719 24.709)"/><path class="i" d="M531.156,386.361l-.789-1.1h19.789" transform="translate(-481.1 -362.81)"/><line class="i" x2="7.31" transform="translate(75.436 17.495)"/><line class="i" x2="2.508" transform="translate(85.924 17.495)"/><line class="i" x2="13.351" transform="translate(85.147 21.644)"/><line class="i" x2="0.954" transform="translate(102.104 21.644)"/><line class="i" x2="7.87" transform="translate(18.272 19.076)"/><line class="i" x2="1.482" transform="translate(27.623 19.076)"/><path class="i" d="M468.91,376.139l1.515-1.864a1.663,1.663,0,0,1,2.581,0l.576.709" transform="translate(-452.899 -357.488)"/><path class="i" d="M476.686,374.677h0a3.566,3.566,0,0,1,1.715-.44h.236a.954.954,0,0,1,.9.641l.129.37" transform="translate(-456.467 -357.753)"/><line class="i" x2="10.451" transform="translate(0 29.824)"/><line class="i" x2="3.586" transform="translate(14.995 29.824)"/><line class="i" x2="19.088" transform="translate(10.41 35.083)"/><line class="i" x2="1.364" transform="translate(34.654 35.083)"/></g><g transform="translate(319.69 88.342)"><path class="i" d="M1009.763,202.558V186.117l7.754,15.671h-6.434" transform="translate(-916.335 -181.603)"/><path class="i" d="M1001.983,197.74h-5.939l7.424-19.966v3.078" transform="translate(-910.04 -177.774)"/><line class="i" x2="25.743" transform="translate(82.332 24.709)"/><line class="i" x2="4.724" transform="translate(74.185 24.709)"/><path class="i" d="M991.156,220.361l-.789-1.1h19.789" transform="translate(-907.435 -196.81)"/><line class="i" x2="2.508" transform="translate(84.416 45.634)"/><line class="i" x2="13.351" transform="translate(83.639 49.783)"/><line class="i" x2="0.954" transform="translate(100.596 49.783)"/><line class="i" x2="7.87" transform="translate(67.088 4.466)"/><line class="i" x2="1.482" transform="translate(76.44 4.466)"/><path class="i" d="M956.91,183.139l1.515-1.864a1.663,1.663,0,0,1,2.581,0l.576.709" transform="translate(-892.082 -179.099)"/><path class="i" d="M964.686,181.677h0a3.566,3.566,0,0,1,1.715-.44h.236a.954.954,0,0,1,.9.641l.129.37" transform="translate(-895.651 -179.363)"/><line class="i" x2="10.451" transform="translate(75.873 35.236)"/><line class="i" x2="3.586" transform="translate(90.867 35.236)"/><line class="i" x2="2.508" transform="translate(0 68.902)"/><line class="i" x2="3.586" transform="translate(2.664 67.162)"/><line class="i" x2="3.586" transform="translate(5.911 70.409)"/><line class="i" x2="3.586" transform="translate(4.287 72.573)"/><line class="i" x2="19.088" transform="translate(84.66 57.269)"/><line class="i" x2="1.364" transform="translate(72.107 21.555)"/></g><path class="i" d="M425.719,86.639H412.639c-1.892,0-3.068-1-2.943-2.511.152-1.85,2.075-2.727,3.884-1.749-.224-4.216,6.558-5.4,7.712-1.025a2.763,2.763,0,0,1,4.257,2.657,1.866,1.866,0,0,1,3.022-.069c.7.918.187,2.7-1.178,2.7" transform="translate(-321.286 -43.92)"/><path class="i" d="M495.349,49.77a5.719,5.719,0,1,1,9.205-4.534" transform="translate(-359.57 -25.99)"/><path class="i" d="M512.13,53.848a2.668,2.668,0,0,1,3.672-1.1,2.53,2.53,0,0,1,1.089,3.242" transform="translate(-368.294 -31.914)"/><path class="i" d="M519.865,51.839c1.566-3.078,6.49-2.712,7.138.9.767-2.879,3.727-3.458,5.334-1.6a2.665,2.665,0,0,1,5.071,1.3c1.914-.927,3.957.33,3.418,2.817a1.223,1.223,0,0,1,1.878.9c0,.639-.526,1.2-1.615,1.2h-7.175" transform="translate(-371.844 -30.627)"/><path class="i" d="M516.277,59h-26.9c-2.043,0-3.117-.872-3.275-2.652a2.778,2.778,0,0,1,2.594-3.144" transform="translate(-356.343 -32.272)"/><path class="i" d="M992.9,42.676H979.823c-1.892,0-3.068-1-2.943-2.512.152-1.85,2.075-2.727,3.884-1.749-.223-4.217,6.558-5.4,7.712-1.025a2.763,2.763,0,0,1,4.256,2.657,1.865,1.865,0,0,1,3.021-.069c.7.918.187,2.7-1.177,2.7" transform="translate(-581.552 -23.746)"/><g transform="translate(84.288 0)"><path class="i" d="M411.349,24.77a5.719,5.719,0,1,1,9.205-4.534" transform="translate(-405.312 -14.518)"/><path class="i" d="M428.13,28.848a2.668,2.668,0,0,1,3.672-1.1,2.53,2.53,0,0,1,1.089,3.242" transform="translate(-414.037 -20.442)"/><path class="i" d="M435.865,26.839c1.566-3.078,6.49-2.712,7.138.9.767-2.879,3.727-3.458,5.334-1.6a2.665,2.665,0,0,1,5.071,1.3c1.914-.927,3.957.33,3.418,2.817a1.223,1.223,0,0,1,1.878.9c0,.639-.526,1.2-1.615,1.2h-7.175" transform="translate(-417.586 -19.155)"/><path class="i" d="M432.277,34h-26.9c-2.043,0-3.117-.872-3.275-2.652a2.778,2.778,0,0,1,2.594-3.144" transform="translate(-402.085 -20.8)"/></g><g transform="translate(346.779 73.54)"><rect class="i" width="9.107" height="13.463" rx="4.554"/><line class="i" y2="14.057" transform="translate(4.554 4.266)"/><line class="i" x1="2.282" y2="2.079" transform="translate(4.554 3.953)"/><line class="i" y1="1.386" x2="3.305" transform="translate(4.554 7.847)"/><line class="i" x1="3.229" y1="1.683" transform="translate(1.325 6.032)"/></g><g transform="translate(299.701 44.32)"><rect class="i" width="9.107" height="13.463" rx="4.554" transform="translate(0)"/><line class="i" y2="14.057" transform="translate(4.554 4.266)"/><line class="i" x1="2.282" y2="2.079" transform="translate(4.554 3.953)"/><line class="i" y1="1.386" x2="3.305" transform="translate(4.554 7.847)"/><line class="i" x1="3.229" y1="1.683" transform="translate(1.325 6.032)"/></g><g transform="translate(255.486 208.632)"><path class="i" d="M733.849,401.043a1.231,1.231,0,0,0-1.374-.973h-2.051c-.689,0-1,.172-1.16.63-1.36,0-1.916.448-1.969,1.459h-.662a1.525,1.525,0,0,0-1.677,1.591c.022.975.965,1.417,2.539,1.417a1.372,1.372,0,0,0,1.4,1.273h3.749a2.018,2.018,0,0,0,2.032-1.273h1.3c.857,0,1.745-.477,1.707-1.37-.034-.767-.639-1.289-1.872-1.289C735.715,401.638,735.181,401.043,733.849,401.043Z" transform="translate(-721.44 -400.07)"/><path class="i" d="M740.556,418.559h2.876c.774,0,.857.525.774.83h1.078c.553,0,1.189.276,1.134.83a.933.933,0,0,1-1.023.83h-.968c0,.553-.332.968-1.078.968h-.968c-.608,0-.8-.166-.857-.581h-1.355a.9.9,0,0,1-.94-.663h-.636a.586.586,0,0,1-.553-.608.661.661,0,0,1,.719-.608h.553A1.328,1.328,0,0,1,740.556,418.559Z" transform="translate(-727.445 -408.554)"/><path class="i" d="M723.73,415.281c1,0,1.222.489,1.311.889.712,0,1.331.118,1.511.845a.951.951,0,0,1-.892,1.2.843.843,0,0,1-.883.489h-.826a1.089,1.089,0,0,1-1.067.444h-1.867a1.614,1.614,0,0,1-1.445-1.4c-.919,0-1.288-.407-1.037-.947s.829-.72,2.015-.72a1.179,1.179,0,0,1,1.185-.8Z" transform="translate(-718.46 -407.05)"/><path class="i" d="M735.636,422.759V408.021l2.148-1.486" transform="translate(-726.342 -403.037)"/><line class="i" y1="1.738" x2="2.74" transform="translate(9.295 12.64)"/><line class="i" x1="1.104" y1="0.676" transform="translate(7.02 11.434)"/><path class="i" d="M780.849,422.043a1.231,1.231,0,0,0-1.374-.973h-2.051c-.689,0-1,.172-1.16.63-1.36,0-1.916.448-1.969,1.459h-.662a1.525,1.525,0,0,0-1.678,1.591c.022.975.965,1.417,2.539,1.417a1.372,1.372,0,0,0,1.4,1.273h3.749a2.018,2.018,0,0,0,2.032-1.273h1.3c.857,0,1.745-.477,1.707-1.37-.034-.767-.639-1.289-1.872-1.289C782.715,422.638,782.181,422.043,780.849,422.043Z" transform="translate(-743.007 -409.706)"/><path class="i" d="M787.556,439.559h2.876c.774,0,.857.525.774.83h1.078c.553,0,1.189.276,1.134.83a.933.933,0,0,1-1.023.83h-.968c0,.553-.332.968-1.078.968h-.967c-.608,0-.8-.166-.857-.581h-1.355a.9.9,0,0,1-.94-.663h-.636a.586.586,0,0,1-.553-.608.661.661,0,0,1,.719-.608h.553A1.328,1.328,0,0,1,787.556,439.559Z" transform="translate(-749.012 -418.19)"/><path class="i" d="M770.73,436.281c1,0,1.222.489,1.311.889.712,0,1.331.118,1.511.845a.951.951,0,0,1-.892,1.2.843.843,0,0,1-.883.489h-.826a1.089,1.089,0,0,1-1.067.444h-1.867a1.614,1.614,0,0,1-1.445-1.4c-.919,0-1.288-.407-1.037-.947s.83-.72,2.015-.72a1.179,1.179,0,0,1,1.185-.8Z" transform="translate(-740.027 -416.686)"/><path class="i" d="M782.636,443.759V429.021l2.148-1.486" transform="translate(-747.909 -412.673)"/><line class="i" y1="1.738" x2="2.74" transform="translate(34.728 24.003)"/><line class="i" x1="1.104" y1="0.676" transform="translate(32.453 22.798)"/><line class="i" x1="1.171" y1="0.898" transform="translate(33.557 15.45)"/></g><g transform="translate(454.079 189.693)"><path class="i" d="M1100.849,366.043a1.231,1.231,0,0,0-1.374-.973h-2.051c-.689,0-1,.172-1.16.63-1.36,0-1.916.448-1.969,1.459h-.662a1.525,1.525,0,0,0-1.677,1.591c.022.975.965,1.417,2.54,1.417a1.372,1.372,0,0,0,1.4,1.273h3.749a2.017,2.017,0,0,0,2.032-1.273h1.3c.857,0,1.745-.477,1.707-1.37-.034-.767-.639-1.289-1.872-1.289C1102.715,366.638,1102.181,366.043,1100.849,366.043Z" transform="translate(-1088.44 -365.07)"/><path class="i" d="M1107.556,383.559h2.876c.774,0,.857.525.774.83h1.078c.553,0,1.189.276,1.134.83a.933.933,0,0,1-1.023.83h-.967c0,.553-.332.968-1.079.968h-.968c-.608,0-.8-.166-.857-.581h-1.355a.9.9,0,0,1-.94-.663h-.636a.586.586,0,0,1-.553-.608.661.661,0,0,1,.719-.608h.553A1.328,1.328,0,0,1,1107.556,383.559Z" transform="translate(-1094.444 -373.554)"/><path class="i" d="M1090.73,380.281c1,0,1.222.489,1.311.889.712,0,1.331.118,1.511.845a.951.951,0,0,1-.892,1.2.843.843,0,0,1-.883.489h-.826a1.089,1.089,0,0,1-1.067.444h-1.867a1.614,1.614,0,0,1-1.445-1.4c-.919,0-1.288-.407-1.037-.947s.83-.72,2.015-.72a1.179,1.179,0,0,1,1.185-.8Z" transform="translate(-1085.459 -372.05)"/><path class="i" d="M1102.636,387.759V373.021l2.148-1.486" transform="translate(-1093.342 -368.037)"/><line class="i" y1="1.738" x2="2.74" transform="translate(9.295 12.64)"/><line class="i" x1="1.104" y1="0.676" transform="translate(7.02 11.434)"/><path class="i" d="M1101.849,437.043a1.231,1.231,0,0,0-1.374-.973h-2.051c-.689,0-1,.172-1.16.63-1.36,0-1.916.448-1.969,1.459h-.662a1.525,1.525,0,0,0-1.677,1.591c.021.975.965,1.417,2.539,1.417a1.372,1.372,0,0,0,1.4,1.273h3.749a2.017,2.017,0,0,0,2.032-1.273h1.3c.857,0,1.745-.477,1.707-1.37-.034-.767-.639-1.289-1.872-1.289C1103.715,437.638,1103.181,437.043,1101.849,437.043Z" transform="translate(-1088.899 -397.65)"/><path class="i" d="M1108.556,454.559h2.876c.774,0,.857.525.774.83h1.078c.553,0,1.189.276,1.134.83a.933.933,0,0,1-1.023.83h-.968c0,.553-.332.968-1.078.968h-.968c-.608,0-.8-.166-.857-.581h-1.355a.9.9,0,0,1-.94-.663h-.636a.586.586,0,0,1-.553-.608.661.661,0,0,1,.719-.608h.553A1.328,1.328,0,0,1,1108.556,454.559Z" transform="translate(-1094.903 -406.134)"/><path class="i" d="M1091.73,451.281c1,0,1.222.489,1.311.889.712,0,1.331.118,1.511.845a.951.951,0,0,1-.892,1.2.843.843,0,0,1-.883.489h-.826a1.089,1.089,0,0,1-1.067.444h-1.867a1.614,1.614,0,0,1-1.445-1.4c-.919,0-1.288-.407-1.037-.947s.83-.72,2.015-.72a1.179,1.179,0,0,1,1.185-.8Z" transform="translate(-1085.918 -404.63)"/><path class="i" d="M1103.636,458.759V444.021l2.148-1.486" transform="translate(-1093.8 -400.617)"/><line class="i" y1="1.738" x2="2.74" transform="translate(9.836 51.06)"/><line class="i" x1="1.104" y1="0.676" transform="translate(7.561 49.854)"/><line class="i" x1="1.171" y1="0.898" transform="translate(8.665 42.506)"/></g><g transform="translate(247.114 132.344)"><path class="i" d="M718.378,260.062a1.23,1.23,0,0,0-1.373-.973h-2.051c-.689,0-1,.172-1.16.63-1.36,0-1.916.448-1.969,1.459h-.662a1.525,1.525,0,0,0-1.677,1.591c.021.975.965,1.417,2.539,1.417a1.372,1.372,0,0,0,1.4,1.273h3.75a2.018,2.018,0,0,0,2.032-1.273h1.3c.858,0,1.746-.477,1.707-1.37-.033-.767-.639-1.289-1.872-1.289C720.244,260.657,719.71,260.062,718.378,260.062Z" transform="translate(-705.969 -259.089)"/><path class="i" d="M725.084,277.578h2.875c.774,0,.857.525.774.83h1.078c.553,0,1.189.277,1.134.83a.933.933,0,0,1-1.023.83h-.968c0,.553-.332.968-1.078.968h-.968c-.608,0-.8-.166-.857-.581H724.7a.9.9,0,0,1-.94-.663h-.636a.586.586,0,0,1-.553-.608.661.661,0,0,1,.719-.608h.553A1.328,1.328,0,0,1,725.084,277.578Z" transform="translate(-711.973 -267.573)"/><path class="i" d="M708.258,274.3c1,0,1.222.489,1.312.889.712,0,1.331.117,1.511.844a.951.951,0,0,1-.892,1.2.843.843,0,0,1-.883.489h-.826a1.09,1.09,0,0,1-1.067.444h-1.867a1.613,1.613,0,0,1-1.445-1.4c-.919,0-1.288-.407-1.038-.947s.83-.72,2.016-.72a1.178,1.178,0,0,1,1.185-.8Z" transform="translate(-702.988 -266.069)"/><path class="i" d="M720.165,281.778V267.04l2.148-1.486" transform="translate(-710.87 -262.056)"/><line class="i" y1="1.738" x2="2.74" transform="translate(9.295 12.64)"/><line class="i" x1="1.104" y1="0.676" transform="translate(7.02 11.434)"/></g><g transform="translate(363.456 47.387)"><path class="i" d="M933.378,103.062a1.23,1.23,0,0,0-1.373-.973h-2.051c-.689,0-1,.172-1.16.63-1.36,0-1.916.448-1.969,1.459h-.662a1.525,1.525,0,0,0-1.677,1.591c.021.975.965,1.417,2.54,1.417a1.372,1.372,0,0,0,1.4,1.273h3.75a2.018,2.018,0,0,0,2.032-1.273h1.3c.858,0,1.746-.477,1.707-1.37-.033-.767-.639-1.289-1.872-1.289C935.244,103.657,934.71,103.062,933.378,103.062Z" transform="translate(-920.969 -102.089)"/><path class="i" d="M940.084,120.578h2.876c.774,0,.857.525.774.83h1.078c.553,0,1.189.277,1.134.83a.932.932,0,0,1-1.023.83h-.968c0,.553-.332.968-1.078.968h-.968c-.608,0-.8-.166-.857-.581H939.7a.9.9,0,0,1-.94-.663h-.636a.586.586,0,0,1-.553-.608.661.661,0,0,1,.719-.608h.553A1.328,1.328,0,0,1,940.084,120.578Z" transform="translate(-926.973 -110.573)"/><path class="i" d="M923.258,117.3c1,0,1.222.489,1.312.889.712,0,1.331.117,1.511.844a.951.951,0,0,1-.892,1.2.843.843,0,0,1-.883.489h-.826a1.09,1.09,0,0,1-1.067.444h-1.867a1.613,1.613,0,0,1-1.445-1.4c-.919,0-1.288-.407-1.038-.947s.83-.72,2.016-.72a1.178,1.178,0,0,1,1.185-.8Z" transform="translate(-917.988 -109.069)"/><path class="i" d="M935.165,124.778V110.04l2.148-1.486" transform="translate(-925.87 -105.056)"/><line class="i" y1="1.738" x2="2.74" transform="translate(9.295 12.64)"/><line class="i" x1="1.104" y1="0.676" transform="translate(7.02 11.434)"/></g><g transform="translate(451.659 160.482)"><path class="i" d="M1096.377,312.062a1.23,1.23,0,0,0-1.373-.973h-2.052c-.689,0-1,.172-1.16.63-1.36,0-1.916.448-1.969,1.459h-.662a1.525,1.525,0,0,0-1.677,1.591c.021.975.965,1.417,2.54,1.417a1.372,1.372,0,0,0,1.4,1.273h3.749a2.018,2.018,0,0,0,2.032-1.273h1.3c.858,0,1.746-.477,1.707-1.37-.033-.767-.639-1.289-1.872-1.289C1098.244,312.657,1097.71,312.062,1096.377,312.062Z" transform="translate(-1083.969 -311.089)"/><path class="i" d="M1103.084,329.578h2.875c.774,0,.857.525.774.83h1.078c.553,0,1.189.277,1.134.83a.933.933,0,0,1-1.023.83h-.968c0,.553-.332.968-1.078.968h-.968c-.608,0-.8-.166-.857-.581H1102.7a.9.9,0,0,1-.94-.663h-.636a.586.586,0,0,1-.553-.608.661.661,0,0,1,.719-.608h.553A1.327,1.327,0,0,1,1103.084,329.578Z" transform="translate(-1089.973 -319.573)"/><path class="i" d="M1086.258,326.3c1,0,1.222.489,1.312.889.712,0,1.331.117,1.511.844a.951.951,0,0,1-.892,1.2.843.843,0,0,1-.883.489h-.826a1.09,1.09,0,0,1-1.067.444h-1.867a1.613,1.613,0,0,1-1.445-1.4c-.919,0-1.288-.407-1.038-.947s.83-.72,2.016-.72a1.178,1.178,0,0,1,1.184-.8Z" transform="translate(-1080.988 -318.069)"/><path class="i" d="M1098.165,333.778V319.04l2.148-1.486" transform="translate(-1088.87 -314.056)"/><line class="i" y1="1.738" x2="2.74" transform="translate(9.295 12.64)"/><line class="i" x1="1.104" y1="0.676" transform="translate(7.02 11.434)"/></g><g transform="translate(452.204 76.21)"><line class="i" y2="15.691" transform="translate(5.683 4.485)"/><line class="i" y1="1.311" x2="2.554" transform="translate(5.683 10.664)"/><line class="i" x1="3.308" y1="1.192" transform="translate(2.375 9.159)"/><line class="i" y1="1.647" x2="1.862" transform="translate(5.683 6.046)"/><line class="i" x1="1.683" y1="0.491" transform="translate(4 6.046)"/><path class="i" d="M1087.678,171.4h.918a3.122,3.122,0,0,0,3.122-3.122v-.7a5.665,5.665,0,0,0,1.643-4,4.789,4.789,0,0,0-1.776-3.565,1.834,1.834,0,0,1-.733-1.448v-.038a3.173,3.173,0,0,0-3.173-3.173h0a3.173,3.173,0,0,0-3.173,3.173v.038a1.833,1.833,0,0,1-.734,1.448,4.789,4.789,0,0,0-1.776,3.565,5.664,5.664,0,0,0,1.643,4v.7a3.122,3.122,0,0,0,3.122,3.122Z" transform="translate(-1081.995 -155.354)"/></g><g transform="translate(442.902 113.026)"><path class="i" d="M1069.839,223.39c7.634,7.634,5.726,23.471,0,23.471S1062.206,231.024,1069.839,223.39Z" transform="translate(-1064.805 -223.39)"/><line class="i" y2="19.853" transform="translate(5.035 8.064)"/><line class="i" x1="1.87" y2="2.326" transform="translate(5.035 7.356)"/><line class="i" x1="3.08" y1="2.431" transform="translate(1.955 12.587)"/><line class="i" x1="3.08" y1="0.963" transform="translate(1.955 18.501)"/><line class="i" y1="3.023" x2="3.48" transform="translate(5.035 15.093)"/></g><g transform="translate(306.651 123.813)"><rect class="i" width="8.651" height="12.789" rx="4.326"/><line class="i" y2="13.353" transform="translate(4.326 4.053)"/><line class="i" x1="2.168" y2="1.975" transform="translate(4.326 3.755)"/><line class="i" y1="1.316" x2="3.139" transform="translate(4.326 7.453)"/><line class="i" x1="3.067" y1="1.599" transform="translate(1.259 5.729)"/></g><g transform="translate(70 216.439)"><path class="i" d="M356.763,209.121v-11l5.19,10.488h-4.306" transform="translate(-316.766 -195.096)"/><path class="i" d="M347.018,203.137h-3.975l4.969-13.363v2.06" transform="translate(-308.015 -189.774)"/><line class="i" x2="17.229" transform="translate(32.571 16.537)"/><line class="i" x2="3.162" transform="translate(27.119 16.537)"/><line class="i" x2="1.581" transform="translate(51.768 16.537)"/><line class="i" x2="0.404" transform="translate(54.692 16.537)"/><path class="i" d="M337.895,232l-.528-.739h13.244" transform="translate(-304.394 -216.234)"/><line class="i" x2="4.892" transform="translate(50.487 11.709)"/><line class="i" x2="1.679" transform="translate(57.506 11.709)"/><line class="i" x2="8.935" transform="translate(56.986 14.486)"/><line class="i" x2="0.639" transform="translate(68.335 14.486)"/><line class="i" x2="5.267" transform="translate(12.229 12.767)"/><line class="i" x2="0.992" transform="translate(18.487 12.767)"/><path class="i" d="M275.91,221.319l1.014-1.248a1.113,1.113,0,0,1,1.727,0l.385.474" transform="translate(-265.194 -208.837)"/><path class="i" d="M283.686,220.531h0a2.387,2.387,0,0,1,1.148-.294h.158a.639.639,0,0,1,.6.429l.086.248" transform="translate(-270.154 -209.205)"/><line class="i" x2="6.995" transform="translate(0 19.961)"/><line class="i" x2="2.4" transform="translate(10.035 19.961)"/><line class="i" x2="12.775" transform="translate(6.967 23.48)"/><line class="i" x2="0.913" transform="translate(23.193 23.48)"/></g></g><line class="k" x1="23.268" y2="2.706" transform="translate(147.012 94.29)"/><line class="k" x1="7.576" y1="8.117" transform="translate(164.328 88.338)"/><line class="k" x1="10.823" y2="1.623" transform="translate(164.328 131.628)"/><line class="k" x1="12.987" y1="1.082" transform="translate(205.454 179.247)"/><path class="k" d="M594.537,320l-19.481,8.658L548,371.407" transform="translate(-384.754 -151.034)"/><path class="k" d="M455,323l12.987,23.81,37.338,25.974" transform="translate(-342.079 -152.411)"/><path class="k" d="M548,357.182,593.455,337.7,616.723,289" transform="translate(-384.754 -136.809)"/><line class="k" y1="6.494" x2="8.117" transform="translate(404.588 168.966)"/><line class="k" y1="27.597" x2="6.494" transform="translate(243.874 3.922)"/><line class="k" x2="5.952" y2="15.152" transform="translate(115.627 117.559)"/><g transform="translate(109.674 0.676)"><circle class="n" cx="6.494" cy="6.494" r="6.494" transform="translate(127.706 24.351)"/><circle class="n" cx="3.247" cy="3.247" r="3.247" transform="translate(0 166.667)"/><circle class="n" cx="3.247" cy="3.247" r="3.247" transform="translate(50.325 216.45)"/><circle class="n" cx="3.247" cy="3.247" r="3.247" transform="translate(92.532 175.325)"/><circle class="e" cx="3.247" cy="3.247" r="3.247" transform="translate(17.316 77.922)"/><circle class="e" cx="3.247" cy="3.247" r="3.247" transform="translate(251.623 151.515)"/><circle class="n" cx="3.247" cy="3.247" r="3.247" transform="translate(137.446 0)"/><circle class="n" cx="3.247" cy="3.247" r="3.247" transform="translate(301.407 163.42)"/><circle class="n" cx="3.247" cy="3.247" r="3.247" transform="translate(293.29 169.913)"/><circle class="n" cx="3.247" cy="3.247" r="3.247" transform="translate(100.108 168.831)"/><circle class="n" cx="3.247" cy="3.247" r="3.247" transform="translate(8.658 127.706)"/><circle class="n" cx="3.247" cy="3.247" r="3.247" transform="translate(2.706 113.636)"/><circle class="n" cx="3.247" cy="3.247" r="3.247" transform="translate(34.091 93.074)"/><circle class="n" cx="3.247" cy="3.247" r="3.247" transform="translate(60.606 127.706)"/><circle class="n" cx="3.247" cy="3.247" r="3.247" transform="translate(49.784 129.329)"/><circle class="n" cx="3.247" cy="3.247" r="3.247" transform="translate(49.784 82.792)"/><circle class="n" cx="3.247" cy="3.247" r="3.247" transform="translate(57.359 90.368)"/><circle class="n" cx="3.247" cy="3.247" r="3.247" transform="translate(119.048 148.268)"/><circle class="n" cx="3.247" cy="3.247" r="3.247" transform="translate(96.861 165.043)"/></g><text class="h" transform="translate(75.473 76.511)"><tspan x="0" y="0">Hiiumaa</tspan></text><text class="h" transform="translate(65.17 129.489)"><tspan x="0" y="0">Saaremaa</tspan></text></g><rect class="o" width="414" height="265.152" transform="translate(682 418)"/></g></svg>