<svg xmlns="http://www.w3.org/2000/svg" width="414" height="265.151" viewBox="0 0 414 265.151"><defs><style>.a{opacity:0.15;}.b{fill:#ccf5f4;}.b,.d,.e,.f,.g,.h,.k,.l,.m,.p{stroke:#fee901;}.c,.l{opacity:0.75;}.d,.h,.k,.l,.o,.p{fill:none;}.d,.f,.h,.l,.m{stroke-miterlimit:10;}.d,.f,.h,.l,.m,.p{stroke-width:2px;}.e,.i,.j{fill:#fee901;}.f{fill:#0a8280;}.g{fill:#fff;}.h,.k,.p{stroke-linecap:round;}.h{stroke-dasharray:6;}.i{font-size:8px;}.i,.j{font-family:Aino-Bold, Aino;font-weight:700;}.j{font-size:6px;}.k,.p{stroke-linejoin:round;}.n{font-family:Aino-Bold;}</style></defs><g transform="translate(-682 -418)"><g transform="translate(621.174 425.083)"><g class="a" transform="translate(74.66 2.571)"><path class="b" d="M615.142,212.076l6.815-30.669,6.815-10.223-6.815-6.815-10.223,3.408L608.326,178l-6.815,3.408-20.446-13.631-17.038-23.854,3.408-13.631,6.815-3.408-3.408-6.815h-6.815l-3.408-13.631,6.815-3.408-6.815-6.815,3.408-23.854,13.631-6.815L598.1,62.14V51.917l13.631-3.408,3.408-6.815,6.815-3.408,3.408,6.815L639,34.879V28.063H642.4l10.223,10.223L686.7,24.656l6.815,6.815,3.408-13.631,10.223,10.223,37.484,6.815,6.815-3.408L765.078,45.1h27.261L819.6,48.509l13.631-6.815,6.815,6.815L836.638,62.14l-10.223,3.408L816.193,96.216l-13.63-3.408H792.339l-23.854,13.631V120.07l10.223,3.408,3.408,17.038,6.815,23.854,6.815,3.408,3.408,30.669,9.514,4.542-2.7,5.537,8.236,16.9-7.953.992-4.26,12.213-7.524,11.64-2.982,11.787-9.371-2.273-13.63-6.815-23.854,10.223L731,256.375l-6.815-13.631-10.223-6.815V225.707L700.333,222.3l-34.076-20.446-44.3,20.446Z" transform="translate(-465.205 -17.84)"/><path class="b" d="M461.116,160.825,454.3,154.01,444.078,150.6v-6.815H433.855l-3.408,13.631H406.594l-3.408,6.815,13.631,6.815,6.815-3.408,6.815,6.815v13.631H440.67l3.408-10.223H454.3l6.815-6.815h6.815Z" transform="translate(-392.963 -75.634)"/><path class="b" d="M539.356,229.06l-10.223-3.408v10.223l3.408,6.815h6.815Z" transform="translate(-450.757 -113.2)"/><path class="b" d="M391.109,305.882V316.1l6.815,6.815,10.223-17.038V292.251l10.223-3.408,23.854-6.815L455.855,268.4l14.59-8.726-24.813-15.128-6.815,3.408H414.963l-3.408,6.815H394.517l-6.815,3.408,6.815,10.223-10.223,6.815v10.223h6.815l6.815,6.815Z" transform="translate(-384.294 -121.869)"/><path class="b" d="M538.446,153H526l2.706,9.2,12.987-1.623Z" transform="translate(-449.319 -79.862)"/><path class="b" d="M621.519,336.038l-3.116-3.075-1.833,3.727.02,3.1,2.484,1.222Z" transform="translate(-490.88 -162.442)"/><path class="b" d="M536,407.218l2.706,2.706,2.688-1.506.017-2.282-2.217-2.2Z" transform="translate(-453.908 -195.011)"/></g><g class="c" transform="translate(74.66 2.571)"><path class="d" d="M615.142,212.076l6.815-30.669,6.815-10.223-6.815-6.815-10.223,3.408L608.326,178l-6.815,3.408-20.446-13.631-17.038-23.854,3.408-13.631,6.815-3.408-3.408-6.815h-6.815l-3.408-13.631,6.815-3.408-6.815-6.815,3.408-23.854,13.631-6.815L598.1,62.14V51.917l13.631-3.408,3.408-6.815,6.815-3.408,3.408,6.815L639,34.879V28.063H642.4l10.223,10.223L686.7,24.656l6.815,6.815,3.408-13.631,10.223,10.223,37.484,6.815,6.815-3.408L765.078,45.1h27.261L819.6,48.509l13.631-6.815,6.815,6.815L836.638,62.14l-10.223,3.408L816.193,96.216l-13.63-3.408H792.339l-23.854,13.631V120.07l10.223,3.408,3.408,17.038,6.815,23.854,6.815,3.408,3.408,30.669,9.514,4.542-2.7,5.537,8.236,16.9-7.953.992-4.26,12.213-7.524,11.64-2.982,11.787-9.371-2.273-13.63-6.815-23.854,10.223L731,256.375l-6.815-13.631-10.223-6.815V225.707L700.333,222.3l-34.076-20.446-44.3,20.446Z" transform="translate(-465.205 -17.84)"/><path class="d" d="M538.446,153H526l2.706,9.2,12.987-1.623Z" transform="translate(-449.319 -79.862)"/><path class="d" d="M461.116,160.825,454.3,154.01,444.078,150.6v-6.815H433.855l-3.408,13.631H406.594l-3.408,6.815,13.631,6.815,6.815-3.408,6.815,6.815v13.631H440.67l3.408-10.223H454.3l6.815-6.815h6.815Z" transform="translate(-392.963 -75.634)"/><path class="d" d="M539.356,229.06l-10.223-3.408v10.223l3.408,6.815h6.815Z" transform="translate(-450.757 -113.2)"/><path class="d" d="M621.519,336.038l-3.116-3.075-1.833,3.727.02,3.1,2.484,1.222Z" transform="translate(-490.88 -162.442)"/><path class="d" d="M536,407.218l2.706,2.706,2.688-1.506.017-2.282-2.217-2.2Z" transform="translate(-453.908 -195.011)"/><path class="d" d="M391.109,305.882V316.1l6.815,6.815,10.223-17.038V292.251l10.223-3.408,23.854-6.815L455.855,268.4l14.59-8.726-24.813-15.128-6.815,3.408H414.963l-3.408,6.815H394.517l-6.815,3.408,6.815,10.223-10.223,6.815v10.223h6.815l6.815,6.815Z" transform="translate(-384.294 -121.869)"/></g><circle class="e" cx="6.494" cy="6.494" r="6.494" transform="translate(237.38 22.138)"/><circle class="e" cx="3.247" cy="3.247" r="3.247" transform="translate(228.722 146.056)"/><circle class="f" cx="3.247" cy="3.247" r="3.247" transform="translate(223.311 196.922)"/><circle class="f" cx="3.247" cy="3.247" r="3.247" transform="translate(400.8 229.389)"/><circle class="e" cx="3.247" cy="3.247" r="3.247" transform="translate(172.986 83.826)"/><circle class="e" cx="3.247" cy="3.247" r="3.247" transform="translate(247.661 75.168)"/><circle class="e" cx="3.247" cy="3.247" r="3.247" transform="translate(213.57 70.298)"/><circle class="e" cx="3.247" cy="3.247" r="3.247" transform="translate(109.674 164.454)"/><circle class="e" cx="3.247" cy="3.247" r="3.247" transform="translate(126.99 75.709)"/><circle class="e" cx="3.247" cy="3.247" r="3.247" transform="translate(361.298 149.302)"/><circle class="e" cx="3.247" cy="3.247" r="3.247" transform="translate(381.319 182.311)"/><circle class="e" cx="3.247" cy="3.247" r="3.247" transform="translate(378.073 208.285)"/><circle class="g" cx="3.247" cy="3.247" r="3.247" transform="translate(321.254 212.614)"/><circle class="e" cx="3.247" cy="3.247" r="3.247" transform="translate(293.657 150.926)"/><circle class="e" cx="3.247" cy="3.247" r="3.247" transform="translate(339.653 35.125)"/><circle class="e" cx="3.247" cy="3.247" r="3.247" transform="translate(400.8 34.584)"/><path class="h" d="M680.1,75l-4.87,9.74L659,89.61" transform="translate(-435.689 -41.498)"/><path class="h" d="M832,109l26.515,57.359,21.1,43.29" transform="translate(-515.075 -57.1)"/><path class="h" d="M902.628,74.117,857.173,75.2,812.8,80.61l-16.775-4.87L770.052,89.268,697,66" transform="translate(-453.126 -37.368)"/><path class="h" d="M940.022,328.009l-18.939-19.481L920,295" transform="translate(-555.455 -142.451)"/><path class="h" d="M846,358.312l16.234-46.537L886.043,295" transform="translate(-521.499 -142.451)"/><text class="i" transform="translate(206.754 18.263)"><tspan x="0" y="0">TALLINN</tspan></text><circle class="e" cx="3.247" cy="3.247" r="3.247" transform="translate(290.41 87.614)"/><circle class="e" cx="3.247" cy="3.247" r="3.247" transform="translate(340.194 106.012)"/><text class="i" transform="translate(231.858 196.294)"><tspan x="0" y="0">Ikla</tspan></text><text class="i" transform="translate(419.629 220.103)"><tspan x="0" y="0">Koidula</tspan></text><text class="i" transform="translate(192.767 67.588)"><tspan x="0" y="0">Turba</tspan></text><text class="j" transform="translate(193.438 188.341)"><tspan x="0" y="0">Kihnu</tspan></text><text class="j" transform="translate(145.819 111.501)"><tspan x="0" y="0">Muhu</tspan></text><text class="j" transform="translate(146.902 72.54)"><tspan x="0" y="0">Vormsi</tspan></text><text class="j" transform="translate(149.607 224.597)"><tspan x="0" y="0">Ruhnu</tspan></text><g class="c" transform="translate(326.118 0)"><path class="k" d="M864.377,14.062A1.23,1.23,0,0,0,863,13.089h-2.051c-.689,0-1,.172-1.16.63-1.36,0-1.916.448-1.969,1.459h-.662a1.525,1.525,0,0,0-1.677,1.591c.021.975.965,1.417,2.539,1.417a1.372,1.372,0,0,0,1.4,1.273h3.75a2.018,2.018,0,0,0,2.032-1.273h1.3c.858,0,1.746-.477,1.707-1.37-.033-.767-.639-1.289-1.872-1.289C866.244,14.657,865.71,14.062,864.377,14.062Z" transform="translate(-851.969 -13.089)"/><path class="k" d="M871.084,31.578h2.875c.774,0,.857.525.774.83h1.078c.553,0,1.189.277,1.134.83a.933.933,0,0,1-1.023.83h-.968c0,.553-.332.968-1.078.968h-.968c-.608,0-.8-.166-.857-.581H870.7a.9.9,0,0,1-.94-.663h-.636a.586.586,0,0,1-.553-.608.661.661,0,0,1,.719-.608h.553A1.328,1.328,0,0,1,871.084,31.578Z" transform="translate(-857.973 -21.573)"/><path class="k" d="M854.258,28.3c1,0,1.222.489,1.312.889.712,0,1.331.117,1.511.844a.951.951,0,0,1-.892,1.2.843.843,0,0,1-.883.489h-.826a1.09,1.09,0,0,1-1.067.444h-1.867a1.613,1.613,0,0,1-1.445-1.4c-.919,0-1.288-.407-1.038-.947s.83-.72,2.016-.72a1.178,1.178,0,0,1,1.185-.8Z" transform="translate(-848.988 -20.069)"/><path class="k" d="M866.165,35.778V21.04l2.148-1.486" transform="translate(-856.87 -16.056)"/><line class="k" y1="1.738" x2="2.74" transform="translate(9.295 12.64)"/><line class="k" x1="1.104" y1="0.676" transform="translate(7.02 11.434)"/></g><line class="k" x2="6.676" transform="translate(112.025 149.976)"/><line class="k" x2="6.676" transform="translate(96.101 164.719)"/><path class="k" d="M425.667,302.077a3.544,3.544,0,0,1-2.528-3.771,5.223,5.223,0,0,1,2.528-3.611c.923-.4-.04-5.9,1.163-6.5s2.006,1.926,1.685,3.129a2.529,2.529,0,0,1,1.123,2.808,1.557,1.557,0,0,1,1.083,1.926c.762,1.043,1.244,3.29.2,4.012a2.02,2.02,0,0,1-2.026,2.207" transform="translate(-327.451 -139.287)"/><path class="k" d="M430.17,305.623v5.055l-1.123-2.608" transform="translate(-330.169 -147.325)"/><path class="k" d="M454.373,274.513a2.3,2.3,0,0,1-1.808-4.124c-.462-1.585.176-2.734,1.05-2.968-.5-.545.069-1.528.6-1.589a2.733,2.733,0,0,1,.762-2.679c-.054-1.4.143-2.535.624-2.553s.719.936.7,1.619a2.878,2.878,0,0,1,1.113,2.848c1.041.963,2.057,3.373,1.667,4.713a2.556,2.556,0,0,1-1.423,4.584" transform="translate(-340.514 -126.665)"/><line class="k" y2="7.945" transform="translate(115.363 140.111)"/><line class="k" y1="0.682" x2="1.199" transform="translate(115.363 144.446)"/><line class="k" x1="1.254" y1="0.642" transform="translate(114.109 142.601)"/><line class="k" x2="6.676" transform="translate(68.687 149.486)"/><path class="k" d="M371.441,285.088l.777-1.4a1.184,1.184,0,0,1,1.22-.593l1.855.3a1.181,1.181,0,0,1,.877.651l.516,1.061" transform="translate(-303.736 -136.982)"/><g class="c" transform="translate(114.658 81.444)"><line class="k" x2="6.676" transform="translate(0.982 20.895)"/><g transform="translate(5.185 0)"><line class="k" x2="6.676" transform="translate(0.413 15.674)"/><path class="k" d="M473.779,177.4c2.883.32,3.246-3.767,1.364-4.38.537-1.357.226-3.535-1.191-3.915.173-1.555-.173-2.454-1.308-2.953.054-1.4-.143-2.535-.624-2.553s-.719.936-.7,1.618a2.88,2.88,0,0,0-1.113,2.848c-1.728.6-1.987,3.218-1.088,4.565-1.936,1.106-1.822,4.53.844,4.732" transform="translate(-467.79 -163.598)"/><path class="k" d="M475.094,179.076v5.746l1.414-2.221" transform="translate(-471.142 -170.7)"/></g><path class="k" d="M458.209,197.961l.777-1.4a1.184,1.184,0,0,1,1.22-.593l1.855.3a1.185,1.185,0,0,1,.877.651l.516,1.061" transform="translate(-458.209 -178.446)"/></g><path class="l" d="M656.706,389q-1.353,10.282-2.706,20.563l8.658,27.6" transform="translate(-433.395 -185.585)"/><path class="l" d="M1032.117,293.541l18.939,3.247V276.225L1024,252.957l10.823-30.844q-2.705-27.056-5.411-54.113" transform="translate(-603.178 -84.174)"/><path class="d" d="M1065.623,37,1064,46.2" transform="translate(-621.533 -24.061)"/><path class="h" d="M697,66l7.035,49.784,35.173,24.892,10.823,50.866" transform="translate(-453.126 -37.368)"/><circle class="f" cx="3.247" cy="3.247" r="3.247" transform="translate(446.254 33.502)"/><line class="h" y1="25.433" x2="6.494" transform="translate(216.817 48.112)"/><line class="h" x2="15.693" y2="2.706" transform="translate(207.618 45.406)"/><path class="h" d="M957,356l14.069,5.952,5.952,19.481,11.9-.541" transform="translate(-572.434 -170.442)"/><circle class="m" cx="3.247" cy="3.247" r="3.247" transform="translate(413.246 207.203)"/><text class="i" transform="translate(169.746 29.709)"><tspan x="0" y="0">Kloogaranna</tspan><tspan class="n"><tspan x="0" y="7"></tspan></tspan></text><circle class="e" cx="3.247" cy="3.247" r="3.247" transform="translate(204.371 42.16)"/><circle class="e" cx="3.247" cy="3.247" r="3.247" transform="translate(211.406 33.502)"/><line class="h" x2="8.658" y2="11.905" transform="translate(214.653 36.207)"/><g transform="translate(112.811 12.263)"><text class="i" transform="translate(333.662 14.446)"><tspan x="0" y="0">Narva</tspan></text><text class="i" transform="translate(212.307 19.221)"><tspan x="0" y="0">Rakvere</tspan></text><text class="i" transform="translate(278.879 37.926)"><tspan x="0" y="0">Jõhvi</tspan></text><text class="i" transform="translate(265.576 135.329)"><tspan x="-10.58" y="0">Tartu</tspan></text><text class="i" transform="translate(272.974 210.429)"><tspan x="-9.608" y="0">Võru</tspan></text><text class="i" transform="translate(257.987 186.03)"><tspan x="0" y="0">Põlva</tspan></text><text class="i" transform="translate(218.074 206.216)"><tspan x="0" y="0">Valga</tspan></text><text class="i" transform="translate(171.537 153.727)"><tspan x="0" y="0">Viljandi</tspan></text><text class="i" transform="translate(187.229 80.134)"><tspan x="0" y="0">Paide</tspan></text><text class="i" transform="translate(230.45 90.874)"><tspan x="0" y="0">Jõgeva</tspan></text><text class="i" transform="translate(94.156 132.082)"><tspan x="0" y="0">Pärnu</tspan></text><text class="i" transform="translate(67.688 84.229)"><tspan x="0" y="0">Haapsalu</tspan></text><text class="i" transform="translate(144.316 65.771)"><tspan x="0" y="0">Rapla</tspan></text><text class="i" transform="translate(0 165.091)"><tspan x="0" y="0">Kuressaare</tspan><tspan class="n"><tspan x="0" y="7"></tspan></tspan></text><text class="i" transform="translate(8.658 54.701)"><tspan x="0" y="0">Kärdla</tspan></text><text class="i" transform="translate(58.017 31.81)"><tspan x="0" y="0">Paldiski</tspan><tspan class="n"><tspan x="0" y="7"></tspan></tspan></text><text class="i" transform="translate(297.619 221.909)"><tspan x="0" y="0">Luhamaa</tspan></text><g transform="translate(110.5 21.238)"><circle class="m" cx="3.247" cy="3.247" r="3.247" transform="translate(222.944)"/><circle class="m" cx="3.247" cy="3.247" r="3.247" transform="translate(97.944 179.113)"/><circle class="m" cx="3.247" cy="3.247" r="3.247" transform="translate(177.489 195.887)"/><circle class="m" cx="3.247" cy="3.247" r="3.247" transform="translate(0 163.42)"/></g></g><rect width="57" height="18" transform="translate(414.826 49.917)"/><text class="i" transform="translate(417.391 58.436)"><tspan x="0" y="0">St Petersburg</tspan><tspan x="0" y="7">Moscow</tspan></text><text class="i" transform="translate(417.391 58.436)"><tspan x="0" y="0">St Petersburg</tspan></text><path class="o" d="M0,0H133.658V27.056H0Z" transform="translate(258.484 23.761)"/><text class="j" transform="translate(75.473 73.623)"><tspan x="0" y="0">Hiiumaa</tspan></text><text class="j" transform="translate(65.17 126.601)"><tspan x="0" y="0">Saaremaa</tspan></text><g transform="translate(428.748 32.971)"><line class="h" x1="7.732" y1="0.353" transform="translate(23.578 3.446)"/><g transform="translate(30.773 0)"><path class="p" d="M1139.915,74.02l3.764,3.811-3.811,3.765" transform="translate(-1139.868 -74.02)"/></g></g><g class="c" transform="translate(0 0.773)"><g transform="translate(104.437 178.169)"><path class="k" d="M549.763,368.558V352.117l7.754,15.671h-6.434" transform="translate(-490.001 -347.603)"/><path class="k" d="M541.983,363.74h-5.939l7.424-19.966v3.078" transform="translate(-483.705 -343.774)"/><line class="k" x2="25.743" transform="translate(48.667 24.709)"/><line class="k" x2="4.724" transform="translate(40.52 24.709)"/><line class="k" x2="2.362" transform="translate(77.351 24.709)"/><line class="k" x2="0.603" transform="translate(81.719 24.709)"/><path class="k" d="M531.156,386.361l-.789-1.1h19.789" transform="translate(-481.1 -362.81)"/><line class="k" x2="7.31" transform="translate(75.436 17.495)"/><line class="k" x2="2.508" transform="translate(85.924 17.495)"/><line class="k" x2="13.351" transform="translate(85.147 21.644)"/><line class="k" x2="0.954" transform="translate(102.104 21.644)"/><line class="k" x2="7.87" transform="translate(18.272 19.076)"/><line class="k" x2="1.482" transform="translate(27.623 19.076)"/><path class="k" d="M468.91,376.139l1.515-1.864a1.663,1.663,0,0,1,2.581,0l.576.709" transform="translate(-452.899 -357.488)"/><path class="k" d="M476.686,374.677h0a3.566,3.566,0,0,1,1.715-.44h.236a.954.954,0,0,1,.9.641l.129.37" transform="translate(-456.467 -357.753)"/><line class="k" x2="10.451" transform="translate(0 29.824)"/><line class="k" x2="3.586" transform="translate(14.995 29.824)"/><line class="k" x2="19.088" transform="translate(10.41 35.083)"/><line class="k" x2="1.364" transform="translate(34.654 35.083)"/></g><g transform="translate(319.69 88.342)"><path class="m" d="M845.069,295.117,837.494,287,831,296.74l12.584,14.61Z" transform="translate(-834.306 -227.895)"/><path class="k" d="M1009.763,202.558V186.117l7.754,15.671h-6.434" transform="translate(-916.335 -181.603)"/><path class="k" d="M1001.983,197.74h-5.939l7.424-19.966v3.078" transform="translate(-910.04 -177.774)"/><line class="k" x2="25.743" transform="translate(82.332 24.709)"/><line class="k" x2="4.724" transform="translate(74.185 24.709)"/><path class="k" d="M991.156,220.361l-.789-1.1h19.789" transform="translate(-907.435 -196.81)"/><line class="k" x2="2.508" transform="translate(84.416 45.634)"/><line class="k" x2="13.351" transform="translate(83.639 49.783)"/><line class="k" x2="0.954" transform="translate(100.596 49.783)"/><line class="k" x2="7.87" transform="translate(67.088 4.466)"/><line class="k" x2="1.482" transform="translate(76.44 4.466)"/><path class="k" d="M956.91,183.139l1.515-1.864a1.663,1.663,0,0,1,2.581,0l.576.709" transform="translate(-892.082 -179.099)"/><path class="k" d="M964.686,181.677h0a3.566,3.566,0,0,1,1.715-.44h.236a.954.954,0,0,1,.9.641l.129.37" transform="translate(-895.651 -179.363)"/><line class="k" x2="10.451" transform="translate(75.873 35.236)"/><line class="k" x2="3.586" transform="translate(90.867 35.236)"/><line class="k" x2="2.508" transform="translate(0 68.902)"/><line class="k" x2="3.586" transform="translate(2.664 67.162)"/><line class="k" x2="3.586" transform="translate(5.911 70.409)"/><line class="k" x2="3.586" transform="translate(4.287 72.573)"/><line class="k" x2="19.088" transform="translate(84.66 57.269)"/><line class="k" x2="1.364" transform="translate(72.107 21.555)"/></g><path class="k" d="M425.719,86.639H412.639c-1.892,0-3.068-1-2.943-2.511.152-1.85,2.075-2.727,3.884-1.749-.224-4.216,6.558-5.4,7.712-1.025a2.763,2.763,0,0,1,4.257,2.657,1.866,1.866,0,0,1,3.022-.069c.7.918.187,2.7-1.178,2.7" transform="translate(-321.286 -43.92)"/><path class="k" d="M495.349,49.77a5.719,5.719,0,1,1,9.205-4.534" transform="translate(-359.57 -25.99)"/><path class="k" d="M512.13,53.848a2.668,2.668,0,0,1,3.672-1.1,2.53,2.53,0,0,1,1.089,3.242" transform="translate(-368.294 -31.914)"/><path class="k" d="M519.865,51.839c1.566-3.078,6.49-2.712,7.138.9.767-2.879,3.727-3.458,5.334-1.6a2.665,2.665,0,0,1,5.071,1.3c1.914-.927,3.957.33,3.418,2.817a1.223,1.223,0,0,1,1.878.9c0,.639-.526,1.2-1.615,1.2h-7.175" transform="translate(-371.844 -30.627)"/><path class="k" d="M516.277,59h-26.9c-2.043,0-3.117-.872-3.275-2.652a2.778,2.778,0,0,1,2.594-3.144" transform="translate(-356.343 -32.272)"/><path class="k" d="M992.9,42.676H979.823c-1.892,0-3.068-1-2.943-2.512.152-1.85,2.075-2.727,3.884-1.749-.223-4.217,6.558-5.4,7.712-1.025a2.763,2.763,0,0,1,4.256,2.657,1.865,1.865,0,0,1,3.021-.069c.7.918.187,2.7-1.177,2.7" transform="translate(-581.552 -23.746)"/><g transform="translate(84.288 0)"><path class="k" d="M411.349,24.77a5.719,5.719,0,1,1,9.205-4.534" transform="translate(-405.312 -14.518)"/><path class="k" d="M428.13,28.848a2.668,2.668,0,0,1,3.672-1.1,2.53,2.53,0,0,1,1.089,3.242" transform="translate(-414.037 -20.442)"/><path class="k" d="M435.865,26.839c1.566-3.078,6.49-2.712,7.138.9.767-2.879,3.727-3.458,5.334-1.6a2.665,2.665,0,0,1,5.071,1.3c1.914-.927,3.957.33,3.418,2.817a1.223,1.223,0,0,1,1.878.9c0,.639-.526,1.2-1.615,1.2h-7.175" transform="translate(-417.586 -19.155)"/><path class="k" d="M432.277,34h-26.9c-2.043,0-3.117-.872-3.275-2.652a2.778,2.778,0,0,1,2.594-3.144" transform="translate(-402.085 -20.8)"/></g><g transform="translate(346.779 73.54)"><rect class="k" width="9.107" height="13.463" rx="4.554"/><line class="k" y2="14.057" transform="translate(4.554 4.266)"/><line class="k" x1="2.282" y2="2.079" transform="translate(4.554 3.953)"/><line class="k" y1="1.386" x2="3.305" transform="translate(4.554 7.847)"/><line class="k" x1="3.229" y1="1.683" transform="translate(1.325 6.032)"/></g><g transform="translate(255.486 208.632)"><path class="k" d="M733.849,401.043a1.231,1.231,0,0,0-1.374-.973h-2.051c-.689,0-1,.172-1.16.63-1.36,0-1.916.448-1.969,1.459h-.662a1.525,1.525,0,0,0-1.677,1.591c.022.975.965,1.417,2.539,1.417a1.372,1.372,0,0,0,1.4,1.273h3.749a2.018,2.018,0,0,0,2.032-1.273h1.3c.857,0,1.745-.477,1.707-1.37-.034-.767-.639-1.289-1.872-1.289C735.715,401.638,735.181,401.043,733.849,401.043Z" transform="translate(-721.44 -400.07)"/><path class="k" d="M740.556,418.559h2.876c.774,0,.857.525.774.83h1.078c.553,0,1.189.276,1.134.83a.933.933,0,0,1-1.023.83h-.968c0,.553-.332.968-1.078.968h-.968c-.608,0-.8-.166-.857-.581h-1.355a.9.9,0,0,1-.94-.663h-.636a.586.586,0,0,1-.553-.608.661.661,0,0,1,.719-.608h.553A1.328,1.328,0,0,1,740.556,418.559Z" transform="translate(-727.445 -408.554)"/><path class="k" d="M723.73,415.281c1,0,1.222.489,1.311.889.712,0,1.331.118,1.511.845a.951.951,0,0,1-.892,1.2.843.843,0,0,1-.883.489h-.826a1.089,1.089,0,0,1-1.067.444h-1.867a1.614,1.614,0,0,1-1.445-1.4c-.919,0-1.288-.407-1.037-.947s.829-.72,2.015-.72a1.179,1.179,0,0,1,1.185-.8Z" transform="translate(-718.46 -407.05)"/><path class="k" d="M735.636,422.759V408.021l2.148-1.486" transform="translate(-726.342 -403.037)"/><line class="k" y1="1.738" x2="2.74" transform="translate(9.295 12.64)"/><line class="k" x1="1.104" y1="0.676" transform="translate(7.02 11.434)"/><path class="k" d="M780.849,422.043a1.231,1.231,0,0,0-1.374-.973h-2.051c-.689,0-1,.172-1.16.63-1.36,0-1.916.448-1.969,1.459h-.662a1.525,1.525,0,0,0-1.678,1.591c.022.975.965,1.417,2.539,1.417a1.372,1.372,0,0,0,1.4,1.273h3.749a2.018,2.018,0,0,0,2.032-1.273h1.3c.857,0,1.745-.477,1.707-1.37-.034-.767-.639-1.289-1.872-1.289C782.715,422.638,782.181,422.043,780.849,422.043Z" transform="translate(-743.007 -409.706)"/><path class="k" d="M787.556,439.559h2.876c.774,0,.857.525.774.83h1.078c.553,0,1.189.276,1.134.83a.933.933,0,0,1-1.023.83h-.968c0,.553-.332.968-1.078.968h-.967c-.608,0-.8-.166-.857-.581h-1.355a.9.9,0,0,1-.94-.663h-.636a.586.586,0,0,1-.553-.608.661.661,0,0,1,.719-.608h.553A1.328,1.328,0,0,1,787.556,439.559Z" transform="translate(-749.012 -418.19)"/><path class="k" d="M770.73,436.281c1,0,1.222.489,1.311.889.712,0,1.331.118,1.511.845a.951.951,0,0,1-.892,1.2.843.843,0,0,1-.883.489h-.826a1.089,1.089,0,0,1-1.067.444h-1.867a1.614,1.614,0,0,1-1.445-1.4c-.919,0-1.288-.407-1.037-.947s.83-.72,2.015-.72a1.179,1.179,0,0,1,1.185-.8Z" transform="translate(-740.027 -416.686)"/><path class="k" d="M782.636,443.759V429.021l2.148-1.486" transform="translate(-747.909 -412.673)"/><line class="k" y1="1.738" x2="2.74" transform="translate(34.728 24.003)"/><line class="k" x1="1.104" y1="0.676" transform="translate(32.453 22.798)"/><line class="k" x1="1.171" y1="0.898" transform="translate(33.557 15.45)"/></g><g transform="translate(454.079 189.693)"><path class="k" d="M1100.849,366.043a1.231,1.231,0,0,0-1.374-.973h-2.051c-.689,0-1,.172-1.16.63-1.36,0-1.916.448-1.969,1.459h-.662a1.525,1.525,0,0,0-1.677,1.591c.022.975.965,1.417,2.54,1.417a1.372,1.372,0,0,0,1.4,1.273h3.749a2.017,2.017,0,0,0,2.032-1.273h1.3c.857,0,1.745-.477,1.707-1.37-.034-.767-.639-1.289-1.872-1.289C1102.715,366.638,1102.181,366.043,1100.849,366.043Z" transform="translate(-1088.44 -365.07)"/><path class="k" d="M1107.556,383.559h2.876c.774,0,.857.525.774.83h1.078c.553,0,1.189.276,1.134.83a.933.933,0,0,1-1.023.83h-.967c0,.553-.332.968-1.079.968h-.968c-.608,0-.8-.166-.857-.581h-1.355a.9.9,0,0,1-.94-.663h-.636a.586.586,0,0,1-.553-.608.661.661,0,0,1,.719-.608h.553A1.328,1.328,0,0,1,1107.556,383.559Z" transform="translate(-1094.444 -373.554)"/><path class="k" d="M1090.73,380.281c1,0,1.222.489,1.311.889.712,0,1.331.118,1.511.845a.951.951,0,0,1-.892,1.2.843.843,0,0,1-.883.489h-.826a1.089,1.089,0,0,1-1.067.444h-1.867a1.614,1.614,0,0,1-1.445-1.4c-.919,0-1.288-.407-1.037-.947s.83-.72,2.015-.72a1.179,1.179,0,0,1,1.185-.8Z" transform="translate(-1085.459 -372.05)"/><path class="k" d="M1102.636,387.759V373.021l2.148-1.486" transform="translate(-1093.342 -368.037)"/><line class="k" y1="1.738" x2="2.74" transform="translate(9.295 12.64)"/><line class="k" x1="1.104" y1="0.676" transform="translate(7.02 11.434)"/><path class="k" d="M1101.849,437.043a1.231,1.231,0,0,0-1.374-.973h-2.051c-.689,0-1,.172-1.16.63-1.36,0-1.916.448-1.969,1.459h-.662a1.525,1.525,0,0,0-1.677,1.591c.021.975.965,1.417,2.539,1.417a1.372,1.372,0,0,0,1.4,1.273h3.749a2.017,2.017,0,0,0,2.032-1.273h1.3c.857,0,1.745-.477,1.707-1.37-.034-.767-.639-1.289-1.872-1.289C1103.715,437.638,1103.181,437.043,1101.849,437.043Z" transform="translate(-1088.899 -397.65)"/><path class="k" d="M1108.556,454.559h2.876c.774,0,.857.525.774.83h1.078c.553,0,1.189.276,1.134.83a.933.933,0,0,1-1.023.83h-.968c0,.553-.332.968-1.078.968h-.968c-.608,0-.8-.166-.857-.581h-1.355a.9.9,0,0,1-.94-.663h-.636a.586.586,0,0,1-.553-.608.661.661,0,0,1,.719-.608h.553A1.328,1.328,0,0,1,1108.556,454.559Z" transform="translate(-1094.903 -406.134)"/><path class="k" d="M1091.73,451.281c1,0,1.222.489,1.311.889.712,0,1.331.118,1.511.845a.951.951,0,0,1-.892,1.2.843.843,0,0,1-.883.489h-.826a1.089,1.089,0,0,1-1.067.444h-1.867a1.614,1.614,0,0,1-1.445-1.4c-.919,0-1.288-.407-1.037-.947s.83-.72,2.015-.72a1.179,1.179,0,0,1,1.185-.8Z" transform="translate(-1085.918 -404.63)"/><path class="k" d="M1103.636,458.759V444.021l2.148-1.486" transform="translate(-1093.8 -400.617)"/><line class="k" y1="1.738" x2="2.74" transform="translate(9.836 51.06)"/><line class="k" x1="1.104" y1="0.676" transform="translate(7.561 49.854)"/><line class="k" x1="1.171" y1="0.898" transform="translate(8.665 42.506)"/></g><g transform="translate(247.114 132.344)"><path class="k" d="M718.378,260.062a1.23,1.23,0,0,0-1.373-.973h-2.051c-.689,0-1,.172-1.16.63-1.36,0-1.916.448-1.969,1.459h-.662a1.525,1.525,0,0,0-1.677,1.591c.021.975.965,1.417,2.539,1.417a1.372,1.372,0,0,0,1.4,1.273h3.75a2.018,2.018,0,0,0,2.032-1.273h1.3c.858,0,1.746-.477,1.707-1.37-.033-.767-.639-1.289-1.872-1.289C720.244,260.657,719.71,260.062,718.378,260.062Z" transform="translate(-705.969 -259.089)"/><path class="k" d="M725.084,277.578h2.875c.774,0,.857.525.774.83h1.078c.553,0,1.189.277,1.134.83a.933.933,0,0,1-1.023.83h-.968c0,.553-.332.968-1.078.968h-.968c-.608,0-.8-.166-.857-.581H724.7a.9.9,0,0,1-.94-.663h-.636a.586.586,0,0,1-.553-.608.661.661,0,0,1,.719-.608h.553A1.328,1.328,0,0,1,725.084,277.578Z" transform="translate(-711.973 -267.573)"/><path class="k" d="M708.258,274.3c1,0,1.222.489,1.312.889.712,0,1.331.117,1.511.844a.951.951,0,0,1-.892,1.2.843.843,0,0,1-.883.489h-.826a1.09,1.09,0,0,1-1.067.444h-1.867a1.613,1.613,0,0,1-1.445-1.4c-.919,0-1.288-.407-1.038-.947s.83-.72,2.016-.72a1.178,1.178,0,0,1,1.185-.8Z" transform="translate(-702.988 -266.069)"/><path class="k" d="M720.165,281.778V267.04l2.148-1.486" transform="translate(-710.87 -262.056)"/><line class="k" y1="1.738" x2="2.74" transform="translate(9.295 12.64)"/><line class="k" x1="1.104" y1="0.676" transform="translate(7.02 11.434)"/></g><g transform="translate(363.456 47.387)"><path class="k" d="M933.378,103.062a1.23,1.23,0,0,0-1.373-.973h-2.051c-.689,0-1,.172-1.16.63-1.36,0-1.916.448-1.969,1.459h-.662a1.525,1.525,0,0,0-1.677,1.591c.021.975.965,1.417,2.54,1.417a1.372,1.372,0,0,0,1.4,1.273h3.75a2.018,2.018,0,0,0,2.032-1.273h1.3c.858,0,1.746-.477,1.707-1.37-.033-.767-.639-1.289-1.872-1.289C935.244,103.657,934.71,103.062,933.378,103.062Z" transform="translate(-920.969 -102.089)"/><path class="k" d="M940.084,120.578h2.876c.774,0,.857.525.774.83h1.078c.553,0,1.189.277,1.134.83a.932.932,0,0,1-1.023.83h-.968c0,.553-.332.968-1.078.968h-.968c-.608,0-.8-.166-.857-.581H939.7a.9.9,0,0,1-.94-.663h-.636a.586.586,0,0,1-.553-.608.661.661,0,0,1,.719-.608h.553A1.328,1.328,0,0,1,940.084,120.578Z" transform="translate(-926.973 -110.573)"/><path class="k" d="M923.258,117.3c1,0,1.222.489,1.312.889.712,0,1.331.117,1.511.844a.951.951,0,0,1-.892,1.2.843.843,0,0,1-.883.489h-.826a1.09,1.09,0,0,1-1.067.444h-1.867a1.613,1.613,0,0,1-1.445-1.4c-.919,0-1.288-.407-1.038-.947s.83-.72,2.016-.72a1.178,1.178,0,0,1,1.185-.8Z" transform="translate(-917.988 -109.069)"/><path class="k" d="M935.165,124.778V110.04l2.148-1.486" transform="translate(-925.87 -105.056)"/><line class="k" y1="1.738" x2="2.74" transform="translate(9.295 12.64)"/><line class="k" x1="1.104" y1="0.676" transform="translate(7.02 11.434)"/></g><g transform="translate(451.659 160.482)"><path class="k" d="M1096.377,312.062a1.23,1.23,0,0,0-1.373-.973h-2.052c-.689,0-1,.172-1.16.63-1.36,0-1.916.448-1.969,1.459h-.662a1.525,1.525,0,0,0-1.677,1.591c.021.975.965,1.417,2.54,1.417a1.372,1.372,0,0,0,1.4,1.273h3.749a2.018,2.018,0,0,0,2.032-1.273h1.3c.858,0,1.746-.477,1.707-1.37-.033-.767-.639-1.289-1.872-1.289C1098.244,312.657,1097.71,312.062,1096.377,312.062Z" transform="translate(-1083.969 -311.089)"/><path class="k" d="M1103.084,329.578h2.875c.774,0,.857.525.774.83h1.078c.553,0,1.189.277,1.134.83a.933.933,0,0,1-1.023.83h-.968c0,.553-.332.968-1.078.968h-.968c-.608,0-.8-.166-.857-.581H1102.7a.9.9,0,0,1-.94-.663h-.636a.586.586,0,0,1-.553-.608.661.661,0,0,1,.719-.608h.553A1.327,1.327,0,0,1,1103.084,329.578Z" transform="translate(-1089.973 -319.573)"/><path class="k" d="M1086.258,326.3c1,0,1.222.489,1.312.889.712,0,1.331.117,1.511.844a.951.951,0,0,1-.892,1.2.843.843,0,0,1-.883.489h-.826a1.09,1.09,0,0,1-1.067.444h-1.867a1.613,1.613,0,0,1-1.445-1.4c-.919,0-1.288-.407-1.038-.947s.83-.72,2.016-.72a1.178,1.178,0,0,1,1.184-.8Z" transform="translate(-1080.988 -318.069)"/><path class="k" d="M1098.165,333.778V319.04l2.148-1.486" transform="translate(-1088.87 -314.056)"/><line class="k" y1="1.738" x2="2.74" transform="translate(9.295 12.64)"/><line class="k" x1="1.104" y1="0.676" transform="translate(7.02 11.434)"/></g><g transform="translate(452.204 76.21)"><line class="k" y2="15.691" transform="translate(5.683 4.485)"/><line class="k" y1="1.311" x2="2.554" transform="translate(5.683 10.664)"/><line class="k" x1="3.308" y1="1.192" transform="translate(2.375 9.159)"/><line class="k" y1="1.647" x2="1.862" transform="translate(5.683 6.046)"/><line class="k" x1="1.683" y1="0.491" transform="translate(4 6.046)"/><path class="k" d="M1087.678,171.4h.918a3.122,3.122,0,0,0,3.122-3.122v-.7a5.665,5.665,0,0,0,1.643-4,4.789,4.789,0,0,0-1.776-3.565,1.834,1.834,0,0,1-.733-1.448v-.038a3.173,3.173,0,0,0-3.173-3.173h0a3.173,3.173,0,0,0-3.173,3.173v.038a1.833,1.833,0,0,1-.734,1.448,4.789,4.789,0,0,0-1.776,3.565,5.664,5.664,0,0,0,1.643,4v.7a3.122,3.122,0,0,0,3.122,3.122Z" transform="translate(-1081.995 -155.354)"/></g><g transform="translate(442.902 113.026)"><path class="k" d="M1069.839,223.39c7.634,7.634,5.726,23.471,0,23.471S1062.206,231.024,1069.839,223.39Z" transform="translate(-1064.805 -223.39)"/><line class="k" y2="19.853" transform="translate(5.035 8.064)"/><line class="k" x1="1.87" y2="2.326" transform="translate(5.035 7.356)"/><line class="k" x1="3.08" y1="2.431" transform="translate(1.955 12.587)"/><line class="k" x1="3.08" y1="0.963" transform="translate(1.955 18.501)"/><line class="k" y1="3.023" x2="3.48" transform="translate(5.035 15.093)"/></g><g transform="translate(306.651 123.813)"><rect class="k" width="8.651" height="12.789" rx="4.326"/><line class="k" y2="13.353" transform="translate(4.326 4.053)"/><line class="k" x1="2.168" y2="1.975" transform="translate(4.326 3.755)"/><line class="k" y1="1.316" x2="3.139" transform="translate(4.326 7.453)"/><line class="k" x1="3.067" y1="1.599" transform="translate(1.259 5.729)"/></g><g transform="translate(288.879 44.32)"><rect class="k" width="9.107" height="13.463" rx="4.554" transform="translate(0)"/><line class="k" y2="14.057" transform="translate(4.554 4.266)"/><line class="k" x1="2.282" y2="2.079" transform="translate(4.554 3.953)"/><line class="k" y1="1.386" x2="3.305" transform="translate(4.554 7.847)"/><line class="k" x1="3.229" y1="1.683" transform="translate(1.325 6.032)"/></g><g transform="translate(70 216.439)"><path class="k" d="M356.763,209.121v-11l5.19,10.488h-4.306" transform="translate(-316.766 -195.096)"/><path class="k" d="M347.018,203.137h-3.975l4.969-13.363v2.06" transform="translate(-308.015 -189.774)"/><line class="k" x2="17.229" transform="translate(32.571 16.537)"/><line class="k" x2="3.162" transform="translate(27.119 16.537)"/><line class="k" x2="1.581" transform="translate(51.768 16.537)"/><line class="k" x2="0.404" transform="translate(54.692 16.537)"/><path class="k" d="M337.895,232l-.528-.739h13.244" transform="translate(-304.394 -216.234)"/><line class="k" x2="4.892" transform="translate(50.487 11.709)"/><line class="k" x2="1.679" transform="translate(57.506 11.709)"/><line class="k" x2="8.935" transform="translate(56.986 14.486)"/><line class="k" x2="0.639" transform="translate(68.335 14.486)"/><line class="k" x2="5.267" transform="translate(12.229 12.767)"/><line class="k" x2="0.992" transform="translate(18.487 12.767)"/><path class="k" d="M275.91,221.319l1.014-1.248a1.113,1.113,0,0,1,1.727,0l.385.474" transform="translate(-265.194 -208.837)"/><path class="k" d="M283.686,220.531h0a2.387,2.387,0,0,1,1.148-.294h.158a.639.639,0,0,1,.6.429l.086.248" transform="translate(-270.154 -209.205)"/><line class="k" x2="6.995" transform="translate(0 19.961)"/><line class="k" x2="2.4" transform="translate(10.035 19.961)"/><line class="k" x2="12.775" transform="translate(6.967 23.48)"/><line class="k" x2="0.913" transform="translate(23.193 23.48)"/></g></g></g><rect class="o" width="414" height="265.152" transform="translate(682 418)"/></g></svg>