<svg xmlns="http://www.w3.org/2000/svg" width="25.139" height="26.644" viewBox="0 0 25.139 26.644"><defs><style>.a{fill:none;stroke:#fee901;stroke-linecap:round;stroke-linejoin:round;}</style></defs><g transform="translate(0.5 0.5)"><path class="a" d="M1427.352,906.949v25.644h-24.139V906.949h21.122" transform="translate(-1403.213 -906.949)"/><line class="a" y2="0.754" transform="translate(5.28 3.017)"/><line class="a" y2="0.754" transform="translate(18.859 3.017)"/><path class="a" d="M1415.442,929.88h6.035l-3.772,3.771h.755a3.017,3.017,0,0,1,3.018,3.017h0a3.018,3.018,0,0,1-3.018,3.017h0a3.017,3.017,0,0,1-3.017-3.017h0" transform="translate(-1409.407 -918.566)"/><path class="a" d="M1433.787,932.9l3.017-3.017v9.805" transform="translate(-1418.7 -918.566)"/><line class="a" x2="21.122" transform="translate(3.017 6.788)"/></g></svg>