<svg xmlns="http://www.w3.org/2000/svg" width="14.181" height="12.949" viewBox="0 0 14.181 12.949"><defs><style>.a{fill:#fee901;}</style></defs><path class="a" d="M4.367-6.056l-.013.013L1.612-3.3a1.585,1.585,0,0,0-.394.584,1.828,1.828,0,0,0-.127.66,1.81,1.81,0,0,0,.127.667,1.6,1.6,0,0,0,.394.578l.013.025A1.7,1.7,0,0,0,2.2-.425a1.843,1.843,0,0,0,.66.121A1.778,1.778,0,0,0,3.51-.432a1.675,1.675,0,0,0,.578-.381l3.1-3.1L7.2-3.923l3.339-3.326a.817.817,0,0,0,.165-.267.813.813,0,0,0,.051-.279.9.9,0,0,0-.051-.3.681.681,0,0,0-.165-.26.77.77,0,0,0-.254-.171.764.764,0,0,0-.292-.057.764.764,0,0,0-.292.057.77.77,0,0,0-.254.171l-4.8,4.8a.53.53,0,0,1-.387.165.53.53,0,0,1-.387-.165.517.517,0,0,1-.152-.381.56.56,0,0,1,.152-.394l4.8-4.786a1.663,1.663,0,0,1,.616-.413,1.962,1.962,0,0,1,.7-.133,1.912,1.912,0,0,1,.7.133,1.8,1.8,0,0,1,.622.413,1.753,1.753,0,0,1,.4.609,1.945,1.945,0,0,1,.133.711,1.929,1.929,0,0,1-.133.692,1.739,1.739,0,0,1-.4.616L4.862-.038a2.874,2.874,0,0,1-.946.616,2.849,2.849,0,0,1-1.06.209A2.942,2.942,0,0,1,1.8.59a2.739,2.739,0,0,1-.933-.6L.838-.038A2.782,2.782,0,0,1,.209-.984,2.881,2.881,0,0,1,0-2.057,2.881,2.881,0,0,1,.209-3.129a2.654,2.654,0,0,1,.628-.933l3.1-3.11.013-.013,3.9-3.9A3.549,3.549,0,0,1,9.077-11.9a3.823,3.823,0,0,1,1.4-.267,3.823,3.823,0,0,1,1.4.267,3.425,3.425,0,0,1,1.219.813,3.5,3.5,0,0,1,.819,1.219,3.745,3.745,0,0,1,.273,1.4,3.729,3.729,0,0,1-.273,1.4,3.644,3.644,0,0,1-.819,1.225L7.719-.47a.509.509,0,0,1-.375.152A.552.552,0,0,1,6.957-.47a.53.53,0,0,1-.165-.387.53.53,0,0,1,.165-.387l5.37-5.37a2.52,2.52,0,0,0,.571-.863,2.675,2.675,0,0,0,.19-.99,2.642,2.642,0,0,0-.19-.978,2.654,2.654,0,0,0-.571-.876,2.612,2.612,0,0,0-.863-.559,2.675,2.675,0,0,0-.99-.19,2.692,2.692,0,0,0-.984.19,2.6,2.6,0,0,0-.87.559Z" transform="translate(0 12.162)"/></svg>