<svg xmlns="http://www.w3.org/2000/svg" width="21" height="21.001" viewBox="0 0 21 21.001"><defs><style>.a{fill:none;stroke:#fee901;stroke-linecap:round;stroke-linejoin:round;}</style></defs><g transform="translate(-0.517 -0.516)"><path class="a" d="M25.812,26.334l1.434,2.317,2.406-3.886" transform="translate(-16.24 -15.554)"/><g transform="translate(1.017 1.016)"><path class="a" d="M25.024,14.287c.155,2.123.389,3.984-.037,5.264-1.134,3.406-5.069,5.457-5.069,5.457h0s-3.935-2.051-5.069-5.457c-.426-1.28-.191-3.141-.037-5.264l5.106-1.277,3.636.909" transform="translate(-9.918 -8.872)"/><path class="a" d="M15.2,18.284l5.106-1.277,3.775.944" transform="translate(-10.307 -11.49)"/><path class="a" d="M12.741,20.865a9.991,9.991,0,1,0-1.724.151" transform="translate(-1.017 -1.016)"/></g></g></svg>