<svg xmlns="http://www.w3.org/2000/svg" width="20" height="20" viewBox="0 0 20 20"><defs><style>.a{fill:none;stroke:#fee901;stroke-linecap:round;stroke-linejoin:round;}</style></defs><g transform="translate(0.5 0.5)"><g transform="translate(-0.5 -3.825)"><path class="a" d="M11.638,22.681A9.491,9.491,0,1,0,10,22.825"/></g><g transform="translate(-0.5 -3.825)"><line class="a" y1="0.863" x2="3.213" transform="translate(11.311 12.009)"/><line class="a" x2="2.511" y2="1.268" transform="translate(10.656 17.258)"/><path class="a" d="M8.033,12.341v2.95L6.886,16.438"/><path class="a" d="M9.344,8.513a9.041,9.041,0,0,1,2.982-.433"/><path class="a" d="M11.179,9.391a1.4,1.4,0,0,0-.5.074"/><path class="a" d="M8.361,21.355V20.29c0-.41.328-.738.983-.738h1.967c.754,0,1.1-.148,1.855-1.026s1.709-4.436,1.737-5.649c.014-.618-.888-1.437-1.883-2.741-.377-.493.146-1.219.322-1.623A14.108,14.108,0,0,0,13.269,5.8"/><path class="a" d="M2.789,15.947l3.278,1.311,3.278,2.294"/><path class="a" d="M2.789,11.44l5.244.9L13.463,10.7"/></g></g></svg>