<svg xmlns="http://www.w3.org/2000/svg" width="62.084" height="62.037" viewBox="0 0 62.084 62.037"><defs><style>.a{fill:none;stroke:#fff;stroke-linecap:round;stroke-linejoin:round;stroke-width:2px;}</style></defs><g transform="translate(10217.042 -354.961)"><path class="a" d="M36.192,60.579a30,30,0,1,0-5.175.453" transform="translate(-10216.995 354.966)"/><g transform="translate(-10200.25 372.501)"><path class="a" d="M25.812,28.689,29.4,34.482l6.016-9.718" transform="translate(-16.144 -12.956)"/><path class="a" d="M40.655,16.2c.387,5.309.973,9.962-.092,13.162C37.727,37.882,27.887,43.01,27.887,43.01h0s-9.84-5.128-12.676-13.645c-1.066-3.2-.479-7.854-.092-13.162L27.887,13.01l9.093,2.273" transform="translate(-14.606 -13.01)"/><path class="a" d="M15.2,20.2l12.768-3.193,9.44,2.361" transform="translate(-14.688 -11.892)"/></g></g></svg>