<svg id="Siin_on_turvaline" xmlns="http://www.w3.org/2000/svg" width="50" height="50" viewBox="0 0 50 50">
  <g id="TURVALINE_rgb_uus-01">
    <path id="Path_935" data-name="Path 935" d="M25,0A25,25,0,1,0,50,25,25,25,0,0,0,25,0Z" fill="#0000f0"/>
    <g id="Group_707" data-name="Group 707" transform="translate(9.184 26.623)">
      <path id="Path_936" data-name="Path 936" d="M82.251,227.923h-.188a1.667,1.667,0,0,0-1.364-.541,1.611,1.611,0,0,0-1.611,1.693,1.586,1.586,0,0,0,1.623,1.67,1.84,1.84,0,0,0,1.341-.494h.188v.929a2.572,2.572,0,0,1-1.587.47,2.451,2.451,0,0,1-2.552-2.575,2.537,2.537,0,0,1,2.54-2.575,2.635,2.635,0,0,1,1.611.47Z" transform="translate(-78.1 -226.488)" fill="#fff"/>
      <path id="Path_937" data-name="Path 937" d="M117.7,228.975a2.552,2.552,0,1,1,2.552,2.575A2.533,2.533,0,0,1,117.7,228.975Zm4.127,0a1.628,1.628,0,0,0-1.587-1.693,1.7,1.7,0,1,0,1.587,1.693Z" transform="translate(-113.043 -226.4)" fill="#fff"/>
      <path id="Path_938" data-name="Path 938" d="M208.8,232.1v-5h.964v5Z" transform="translate(-193.431 -227.018)" fill="#fff"/>
      <path id="Path_939" data-name="Path 939" d="M225.8,227.1h1.693a2.5,2.5,0,1,1,0,5H225.8Zm.964.811V231.3h.741a1.712,1.712,0,0,0,0-3.4l-.741.012Z" transform="translate(-208.432 -227.018)" fill="#fff"/>
      <path id="Path_940" data-name="Path 940" d="M266.5,250h2.869v.764H266.5Z" transform="translate(-244.346 -247.225)" fill="#fff"/>
      <path id="Path_941" data-name="Path 941" d="M290.741,227.946l-1.2.647H289.4v-.905l1.881-.988h.412v5.056h-.964l.012-3.81Z" transform="translate(-264.553 -226.665)" fill="#fff"/>
      <path id="Path_942" data-name="Path 942" d="M318.723,231.192v-.917h.176a1.809,1.809,0,0,0,1.317.517c.894-.012,1.235-.482,1.258-1.376a1.414,1.414,0,0,1-1.152.564A1.731,1.731,0,0,1,318.5,228.3a1.775,1.775,0,0,1,1.94-1.8,1.853,1.853,0,0,1,2.023,1.893v.87a2.122,2.122,0,0,1-2.211,2.422A2.5,2.5,0,0,1,318.723,231.192Zm2.763-2.81v-.118a.911.911,0,0,0-1.011-.894.884.884,0,0,0-.988.882c0,.494.412.823.988.823A1.017,1.017,0,0,0,321.487,228.381Z" transform="translate(-290.231 -226.488)" fill="#fff"/>
      <path id="Path_943" data-name="Path 943" d="M132.624,280.034h.188a2.934,2.934,0,0,0,1.752.694c.611,0,.976-.247.976-.576,0-.412-.376-.564-1.117-.717-1-.2-1.8-.517-1.8-1.517,0-.929.87-1.517,1.976-1.517a2.651,2.651,0,0,1,1.717.541v.882h-.165a2.694,2.694,0,0,0-1.611-.541c-.564,0-.964.247-.964.6,0,.388.376.529,1.211.694,1.011.2,1.693.611,1.693,1.54,0,.87-.788,1.493-1.94,1.493a2.819,2.819,0,0,1-1.94-.659l.024-.917Z" transform="translate(-126.191 -270.52)" fill="#fff"/>
      <path id="Path_944" data-name="Path 944" d="M171.317,277.3h1.211l1.893,4.821v.176h-.952l-.541-1.388h-2.07l-.529,1.388H169.4v-.176Zm-.165,2.881h1.493L172,278.523l-.094-.282h-.035l-.094.282Z" transform="translate(-158.664 -271.315)" fill="#fff"/>
      <path id="Path_945" data-name="Path 945" d="M217.1,282.3v-5h3.422v.811h-2.469v1.329h2.293v.8h-2.293V282.3H217.1Z" transform="translate(-200.755 -271.315)" fill="#fff"/>
      <path id="Path_946" data-name="Path 946" d="M251.5,282.3v-5h3.7v.8h-2.74v1.246h2.575v.8h-2.575V281.5h2.728v.8Z" transform="translate(-231.11 -271.315)" fill="#fff"/>
    </g>
    <path id="Path_947" data-name="Path 947" d="M155.757,117.32h0a.564.564,0,0,0,.482-.353l7.549-20.179-1.023-.388-7.126,19.062-2.775-5.245-.964.517,3.34,6.315A.545.545,0,0,0,155.757,117.32Z" transform="translate(-134.038 -85.064)" fill="#00b9ff"/>
    <path id="Path_948" data-name="Path 948" d="M155.5,220.867v-2.081l-2.634-4.986-.964.517,3.34,6.315A.556.556,0,0,0,155.5,220.867Z" transform="translate(-134.038 -188.659)" fill="#00b9ff"/>
    <g id="Group_709" data-name="Group 709" transform="translate(4.762 13.605)">
      <g id="Group_708" data-name="Group 708">
        <path id="Path_949" data-name="Path 949" d="M87.812,119.334H88a2.934,2.934,0,0,0,1.752.694c.611,0,.976-.247.976-.576,0-.412-.376-.564-1.117-.717-1-.2-1.8-.517-1.8-1.517,0-.929.87-1.517,1.976-1.517a2.713,2.713,0,0,1,1.729.541v.882h-.165a2.694,2.694,0,0,0-1.611-.541c-.564,0-.964.247-.964.6,0,.388.376.529,1.211.694,1.011.2,1.693.611,1.693,1.54,0,.87-.788,1.493-1.94,1.493a2.819,2.819,0,0,1-1.94-.659l.012-.917Z" transform="translate(-82.238 -115.7)" fill="#fff"/>
        <path id="Path_950" data-name="Path 950" d="M128.8,121.7v-5h.964v5Z" transform="translate(-118.417 -116.582)" fill="#fff"/>
        <path id="Path_951" data-name="Path 951" d="M147,121.7v-5h.964v5Z" transform="translate(-134.476 -116.582)" fill="#fff"/>
        <path id="Path_952" data-name="Path 952" d="M169.81,121.609h-1.023l-2.364-3.257-.317-.506.035.6v3.163H165.2V116.6h1.035l2.352,3.257.306.517-.024-.6v-3.163h.941v5Z" transform="translate(-150.536 -116.494)" fill="#fff"/>
        <path id="Path_953" data-name="Path 953" d="M237.1,118.575a2.552,2.552,0,1,1,2.552,2.575A2.533,2.533,0,0,1,237.1,118.575Zm4.127,0a1.628,1.628,0,0,0-1.587-1.693,1.7,1.7,0,0,0,0,3.387A1.643,1.643,0,0,0,241.227,118.575Z" transform="translate(-213.981 -115.965)" fill="#fff"/>
        <path id="Path_954" data-name="Path 954" d="M291.61,121.609h-1.023l-2.364-3.257-.317-.506.035.6v3.163H287V116.6h1.035l2.352,3.257.306.517-.023-.6v-3.163h.941v5Z" transform="translate(-258.014 -116.494)" fill="#fff"/>
        <path id="Path_955" data-name="Path 955" d="M42.264,171.9v-4.2H40.5v-.8h4.468v.8H43.216v4.2Z" transform="translate(-40.5 -160.879)" fill="#fff"/>
        <path id="Path_956" data-name="Path 956" d="M89.221,166.9v2.9a2.017,2.017,0,0,1-2.175,2.164A2.055,2.055,0,0,1,84.8,169.8v-2.9h.964v2.9a1.2,1.2,0,0,0,1.317,1.294,1.136,1.136,0,0,0,1.188-1.294v-2.9Z" transform="translate(-79.591 -160.879)" fill="#fff"/>
        <path id="Path_957" data-name="Path 957" d="M130.6,171.9v-5h2.211a1.51,1.51,0,0,1,1.646,1.458,1.39,1.39,0,0,1-1.105,1.376,1.3,1.3,0,0,1,.67.764l.506,1.211v.188h-.941l-.541-1.235a1.023,1.023,0,0,0-1.023-.717h-.47v1.964l-.952-.012Zm.964-4.222v1.505h.988c.517,0,.87-.282.87-.741,0-.435-.306-.764-.894-.764Z" transform="translate(-120.005 -160.879)" fill="#fff"/>
        <path id="Path_958" data-name="Path 958" d="M166.6,167.076V166.9h.929l1.364,3.645.153.517h.059l.153-.506,1.376-3.645h.917v.176l-1.858,4.821h-1.246Z" transform="translate(-151.772 -160.879)" fill="#fff"/>
        <path id="Path_959" data-name="Path 959" d="M204.917,166.9h1.211l1.893,4.821v.176h-.952l-.541-1.388h-2.07l-.529,1.388H203v-.176Zm-.176,2.869h1.493l-.647-1.658-.094-.282h-.024l-.094.282Z" transform="translate(-183.891 -160.879)" fill="#fff"/>
        <path id="Path_960" data-name="Path 960" d="M251.8,166.9h.964v4.186h2.5v.811H251.8v-5Z" transform="translate(-226.953 -160.879)" fill="#fff"/>
        <path id="Path_961" data-name="Path 961" d="M287.4,171.9v-5h.964v5Z" transform="translate(-258.367 -160.879)" fill="#fff"/>
        <path id="Path_962" data-name="Path 962" d="M310.21,171.809h-1.023l-2.364-3.257-.318-.506.035.6v3.163H305.6V166.8h1.035l2.352,3.257.306.517-.023-.6v-3.163h.941v5Z" transform="translate(-274.426 -160.791)" fill="#fff"/>
        <path id="Path_963" data-name="Path 963" d="M354.9,171.9v-5h3.692v.8h-2.74v1.246h2.575v.8h-2.575v1.341h2.728v.8H354.9Z" transform="translate(-317.929 -160.879)" fill="#fff"/>
      </g>
    </g>
  </g>
</svg>
