<?xml version="1.0" encoding="utf-8"?>
<!-- Generator: Adobe Illustrator 24.3.0, SVG Export Plug-In . SVG Version: 6.00 Build 0)  -->
<svg version="1.1" id="Layer_1" xmlns="http://www.w3.org/2000/svg" xmlns:xlink="http://www.w3.org/1999/xlink" x="0px" y="0px"
	 width="122px" height="36px" viewBox="0 0 122 36" style="enable-background:new 0 0 122 36;" xml:space="preserve">
<path style="fill:#FFFFFF;" d="M109.4,29.9c-0.5,0-1,0.2-1.2,0.7h-0.1V30h-0.5v3.5h0.5v-2.3c0-0.5,0.6-0.8,1-0.8c0.6,0,1,0.3,1,0.9
	v2.2h0.5v-2.2C110.7,30.3,110.2,29.9,109.4,29.9z M28.7,15.3c-0.2-0.2-0.4-0.2-0.6,0l-1.6,1.6c-0.1,0.1-0.1,0.2-0.1,0.3
	c0,0.1,0,0.2,0.1,0.3l1.6,1.6c0.1,0.1,0.2,0.1,0.3,0.1c0.1,0,0.2,0,0.3-0.1l1.6-1.6c0.1-0.1,0.1-0.2,0.1-0.3c0-0.1,0-0.2-0.1-0.3
	L28.7,15.3z M33.7,20.2c-0.2-0.2-0.4-0.2-0.6,0l-1.6,1.6c-0.1,0.1-0.1,0.2-0.1,0.3c0,0.1,0,0.2,0.1,0.3l1.6,1.6
	c0.1,0.1,0.2,0.1,0.3,0.1s0.2,0,0.3-0.1l1.6-1.6c0.2-0.2,0.2-0.4,0-0.6L33.7,20.2z M36.5,17.1c0,0.1,0,0.2,0.1,0.3l1.6,1.6
	c0.1,0.1,0.2,0.1,0.3,0.1c0.1,0,0.2,0,0.3-0.1l1.6-1.6c0.2-0.2,0.2-0.4,0-0.6l-1.6-1.6c-0.1-0.1-0.2-0.1-0.3-0.1
	c-0.1,0-0.2,0-0.3,0.1l-1.6,1.6C36.5,16.9,36.5,17,36.5,17.1z M93.6,33.5H97V33h-2.8v-1.8h2.6v-0.5h-2.6V29H97v-0.5h-3.4V33.5z
	 M105,29.9c-1.1,0-1.8,0.7-1.8,1.9c0,1.1,0.7,1.8,1.8,1.8c1.1,0,1.8-0.7,1.8-1.9C106.8,30.6,106.1,29.9,105,29.9z M105,33.1
	c-0.6,0-1.2-0.5-1.2-1.4c0-0.9,0.6-1.4,1.2-1.4c0.7,0,1.2,0.5,1.2,1.4C106.2,32.6,105.7,33.1,105,33.1z M33.1,13.9
	c0.1,0.1,0.2,0.1,0.3,0.1s0.2,0,0.3-0.1l1.6-1.6c0.2-0.2,0.2-0.4,0-0.6l-1.6-1.6c-0.1-0.1-0.2-0.1-0.3-0.1s-0.2,0-0.3,0.1l-1.6,1.6
	c-0.1,0.1-0.1,0.2-0.1,0.3c0,0.1,0,0.2,0.1,0.3L33.1,13.9z M10.1,14.8c0.3,0.3,0.7,0.4,1.1,0.4c0.4,0,0.8-0.1,1.1-0.4l1.7-1.7
	c0.3-0.3,0.4-0.7,0.4-1.1c0-0.4-0.2-0.8-0.4-1.1l-1.7-1.7c-0.3-0.3-0.7-0.4-1.1-0.4c-0.4,0-0.8,0.2-1.1,0.4l-1.7,1.7
	C8.1,11.2,8,11.6,8,12c0,0.4,0.2,0.8,0.4,1.1L10.1,14.8z M116,17.7c0-4.8-4.5-5.6-8.2-6.6c-2.9-0.7-5.9-1.4-5.9-4c0-2,2-3.8,5.4-3.8
	c3.2,0,5.7,1.1,7.2,2.5h0.7V3.4C113.8,2.2,111,1,107.8,1c-5.4,0-8.6,2.8-8.6,6.2c0,4.7,4.5,5.5,8.2,6.4c3,0.7,5.9,1.5,5.9,4.1
	c0,1.6-1.8,3.6-5.4,3.6c-2.8,0-6.3-1.5-8.4-3.6h-0.7v3.1c2.7,2,5.5,2.9,9,2.9C113,23.6,116,20.9,116,17.7z M111.7,29.1h0.6v-0.7
	h-0.6V29.1z M12.3,17.4c-0.6-0.6-1.5-0.6-2.1,0l-3.7,3.7C6.2,21.3,6,21.7,6,22.1c0,0.4,0.2,0.8,0.4,1.1l2.6,2.6l-1,1
	c-0.6,0.6-0.6,1.5,0,2.1c0.3,0.3,0.7,0.4,1.1,0.4c0.4,0,0.8-0.1,1.1-0.4l2.1-2.1c0,0,0,0,0,0l3.7-3.7c0.3-0.3,0.4-0.7,0.4-1.1
	c0-0.4-0.2-0.8-0.4-1.1L12.3,17.4z M13.1,22.4l-1.6,1.6C11.4,24,11.3,24,11.2,24c-0.1,0-0.2,0-0.3-0.1l-1.6-1.6
	c-0.1-0.1-0.1-0.2-0.1-0.3c0-0.1,0-0.2,0.1-0.3l1.6-1.6c0.2-0.2,0.4-0.2,0.6,0l1.6,1.6C13.2,21.9,13.2,22.2,13.1,22.4z M102,28.8
	h-0.5l0,1.2h-0.6v0.4h0.6l0,2c0,0.8,0.3,1,0.9,1h0.5v-0.4h-0.4c-0.3,0-0.4-0.1-0.4-0.5l0-2.1h0.8V30H102L102,28.8z M114.4,29.9
	c-0.6,0-1,0.2-1.3,0.5v0.5h0.1c0.3-0.3,0.6-0.5,1.2-0.5c0.5,0,0.8,0.3,0.9,0.7l-0.1,0.1c-0.2,0-0.8,0.1-1,0.2
	c-0.8,0.2-1.4,0.5-1.4,1.2c0,0.6,0.5,1.1,1.2,1.1c0.5,0,0.9-0.1,1.2-0.5h0.1v0.4h0.6c0-0.8,0-1.4,0-2.2
	C115.9,30.5,115.3,29.9,114.4,29.9z M115.3,32.4L115.3,32.4c0,0.5-0.6,0.7-1,0.7c-0.5,0-0.9-0.2-0.9-0.6c0-0.4,0.3-0.6,1-0.7
	c0.2,0,0.6-0.1,0.9-0.1L115.3,32.4z M111.7,33.5h0.6V30h-0.6V33.5z M81.6,30.6L81.6,30.6L81.5,30h-0.6v3.5h0.6v-2c0-0.6,0.4-1,0.8-1
	h0.5V30h-0.5C82,30,81.7,30.2,81.6,30.6z M83.5,33.5h0.6V30h-0.6V33.5z M85.2,1.3l-8,21.2v0.7h2.3l2.9-7.8h9.4l3.1,7.8h2.5v-0.7
	L89.2,1.3H85.2z M83.3,13.2l3.3-8.7L87,3.1h0.1l0.5,1.4l3.4,8.7H83.3z M78.5,29.9c-0.5,0-0.9,0.2-1.1,0.5h-0.1V30h-0.6v5h0.6v-2h0.1
	c0.1,0.4,0.6,0.6,1,0.6c1,0,1.7-0.7,1.7-1.9C80.2,30.6,79.5,29.9,78.5,29.9z M78.4,33.1c-0.5,0-1-0.3-1-0.7v-1c0-0.6,0.5-1,1-1
	c0.7,0,1.2,0.5,1.2,1.3C79.6,32.6,79,33.1,78.4,33.1z M51.7,2.2c-0.2-0.6-0.8-0.9-1.4-0.9H30.8c-0.4,0-0.8,0.2-1.1,0.4L17.1,14.4
	c-0.6,0.6-0.6,1.5,0,2.1l4.3,4.3l-1.9,1.9c-0.6,0.6-0.6,1.5,0,2.1l6.3,6.3c0.6,0.6,1.5,0.6,2.1,0l2-2l5.5,5.5
	c0.3,0.3,0.7,0.4,1.1,0.4c0.4,0,0.8-0.1,1.1-0.4L51.1,21c0.3-0.3,0.4-0.7,0.4-1.1c0-0.4-0.2-0.8-0.4-1.1l-7.4-7.4l7.7-7.7
	C51.8,3.4,51.9,2.8,51.7,2.2z M38.8,9.6L40.3,8c0.1-0.1,0.2-0.1,0.3-0.1c0.1,0,0.2,0,0.3,0.1l1.6,1.6c0.2,0.2,0.2,0.4,0,0.6
	l-1.6,1.6c-0.1,0.1-0.2,0.1-0.3,0.1s-0.2,0-0.3-0.1l-1.6-1.6c-0.1-0.1-0.1-0.2-0.1-0.3C38.7,9.8,38.7,9.7,38.8,9.6z M29.8,6.4
	c0-0.2,0.1-0.3,0.3-0.4c0.2-0.1,0.4,0,0.5,0.1l2.8,2.8l2.8-2.8c0.1-0.1,0.3-0.2,0.5-0.1C36.9,6,37,6.2,37,6.4v6.3
	c0,0.1,0,0.2-0.1,0.3l-3.1,3.1c-0.1,0.1-0.2,0.1-0.3,0.1c-0.1,0-0.2,0-0.3-0.1L30,13c-0.1-0.1-0.1-0.2-0.1-0.3V6.4z M24.4,9.6
	L25.9,8c0.1-0.1,0.2-0.1,0.3-0.1c0.1,0,0.2,0,0.3,0.1l1.6,1.6c0.2,0.2,0.2,0.4,0,0.6l-1.6,1.6c-0.1,0.1-0.2,0.1-0.3,0.1
	s-0.2,0-0.3-0.1l-1.6-1.6c-0.1-0.1-0.1-0.2-0.1-0.3C24.2,9.8,24.3,9.7,24.4,9.6z M28.1,24.6l-1.6,1.6c-0.1,0.1-0.2,0.1-0.3,0.1
	s-0.2,0-0.3-0.1l-1.6-1.6c-0.1-0.1-0.1-0.2-0.1-0.3c0-0.1,0-0.2,0.1-0.3l1.6-1.6c0.1-0.1,0.2-0.1,0.3-0.1c0.1,0,0.2,0,0.3,0.1
	l1.6,1.6C28.2,24.2,28.2,24.4,28.1,24.6z M29,20.7h-6.3c-0.2,0-0.3-0.1-0.4-0.3s0-0.4,0.1-0.5l2.8-2.8l-2.8-2.8
	c-0.1-0.1-0.2-0.3-0.1-0.5s0.2-0.3,0.4-0.3H29c0.1,0,0.2,0,0.3,0.1l3.1,3.1c0.1,0.1,0.1,0.2,0.1,0.3c0,0.1,0,0.2-0.1,0.3l-3.1,3.1
	C29.2,20.7,29.1,20.7,29,20.7z M37,27.9c0,0.2-0.1,0.3-0.3,0.4c-0.1,0-0.1,0-0.2,0c-0.1,0-0.2,0-0.3-0.1l-2.8-2.8l-2.8,2.8
	c-0.1,0.1-0.3,0.2-0.5,0.1c-0.2-0.1-0.3-0.2-0.3-0.4v-6.3c0-0.1,0-0.2,0.1-0.3l3.1-3.1c0.2-0.2,0.5-0.2,0.6,0l3.1,3.1
	c0.1,0.1,0.1,0.2,0.1,0.3V27.9z M42.5,24.6l-1.6,1.6c-0.1,0.1-0.2,0.1-0.3,0.1s-0.2,0-0.3-0.1l-1.6-1.6c-0.1-0.1-0.1-0.2-0.1-0.3
	c0-0.1,0-0.2,0.1-0.3l1.6-1.6c0.1-0.1,0.2-0.1,0.3-0.1c0.1,0,0.2,0,0.3,0.1l1.6,1.6C42.7,24.2,42.7,24.4,42.5,24.6z M44.2,13.5
	c0.2,0,0.3,0.1,0.4,0.3s0,0.4-0.1,0.5l-2.8,2.8l2.8,2.8c0.1,0.1,0.2,0.3,0.1,0.5s-0.2,0.3-0.4,0.3h-6.3c-0.1,0-0.2,0-0.3-0.1
	l-3.1-3.1c-0.1-0.1-0.1-0.2-0.1-0.3c0-0.1,0-0.2,0.1-0.3l3.1-3.1c0.1-0.1,0.2-0.1,0.3-0.1H44.2z M85.5,30.9c0-0.3,0.3-0.5,0.9-0.5
	c0.5,0,0.8,0.3,1,0.4h0.2v-0.6c-0.2-0.1-0.6-0.3-1.1-0.3c-0.9,0-1.4,0.4-1.4,1c0,1.2,2.2,1,2.2,1.7c0,0.4-0.3,0.6-0.9,0.6
	c-0.4,0-0.9-0.3-1.1-0.5h-0.2v0.5c0.3,0.2,0.8,0.4,1.3,0.4c1,0,1.4-0.4,1.4-1C87.7,31.3,85.5,31.7,85.5,30.9z M83.5,29.1h0.6v-0.7
	h-0.6V29.1z M91.5,31.8c0-1-0.5-1.9-1.7-1.9c-1.1,0-1.7,0.8-1.7,1.8c0,1.2,0.7,1.9,1.9,1.9c0.4,0,0.9-0.1,1.3-0.4v-0.4h-0.1
	c-0.4,0.3-0.8,0.4-1.2,0.4c-0.6,0-1-0.3-1.2-0.7c-0.1-0.2-0.1-0.3-0.1-0.5v-0.1H91.5z M89.8,30.4c0.6,0,1,0.4,1.1,1h-2.1
	C88.9,30.7,89.2,30.4,89.8,30.4z M60.3,33.5h3.4V33h-2.8v-1.8h2.6v-0.5h-2.6V29h2.8v-0.5h-3.4V33.5z M75.2,21H62.8v-7.8h11.5v-2.3
	H62.8V3.5h12.4V1.3h-15v21.9h15V21z M66.2,29.9c-0.5,0-1,0.2-1.2,0.7h-0.1V30h-0.5v3.5H65v-2.3c0-0.5,0.6-0.8,1-0.8
	c0.6,0,1,0.3,1,0.9v2.2h0.5v-2.2C67.5,30.3,67,29.9,66.2,29.9z M69.1,28.8h-0.5l0,1.2H68v0.4h0.6l0,2c0,0.8,0.3,1,0.9,1h0.5v-0.4
	h-0.4c-0.3,0-0.4-0.1-0.4-0.5l0-2.1H70V30h-0.8L69.1,28.8z M73.7,31.8c0-1-0.5-1.9-1.7-1.9c-1.1,0-1.7,0.8-1.7,1.8
	c0,1.2,0.7,1.9,1.9,1.9c0.4,0,0.9-0.1,1.3-0.4v-0.4h-0.1c-0.4,0.3-0.8,0.4-1.2,0.4c-0.6,0-1-0.3-1.2-0.7c-0.1-0.2-0.1-0.3-0.1-0.5
	v-0.1H73.7z M72,30.4c0.6,0,1,0.4,1.1,1H71C71.1,30.7,71.4,30.4,72,30.4z M75,30.6L75,30.6L74.9,30h-0.6v3.5h0.6v-2
	c0-0.6,0.4-1,0.8-1h0.5V30h-0.5C75.4,30,75.1,30.2,75,30.6z M98.4,30.9c0-0.3,0.3-0.5,0.9-0.5c0.5,0,0.8,0.3,1,0.4h0.2v-0.6
	c-0.2-0.1-0.6-0.3-1.1-0.3c-0.9,0-1.4,0.4-1.4,1c0,1.2,2.2,1,2.2,1.7c0,0.4-0.3,0.6-0.9,0.6c-0.4,0-0.9-0.3-1.1-0.5h-0.2v0.5
	c0.3,0.2,0.8,0.4,1.3,0.4c1,0,1.4-0.4,1.4-1C100.5,31.3,98.4,31.7,98.4,30.9z"/>
</svg>
