<svg id="Layer_1" data-name="Layer 1" xmlns="http://www.w3.org/2000/svg" width="120" height="70" viewBox="0 0 120 70">
  <rect width="120" height="70" fill="#fff"/>
  <g>
    <rect x="5.26" y="5" width="58.75" height="39.3" fill="#009"/>
    <g>
      <polygon points="35.07 10.72 36.77 10.72 35.4 11.75 35.93 13.37 34.57 12.38 33.21 13.37 33.75 11.75 32.37 10.72 34.06 10.72 34.57 9.14 35.07 10.72" fill="#fc0" fill-rule="evenodd"/>
      <polygon points="35.15 36.91 36.84 36.91 35.48 37.94 36 39.56 34.65 38.56 33.28 39.56 33.82 37.94 32.45 36.91 34.13 36.91 34.65 35.33 35.15 36.91" fill="#fc0" fill-rule="evenodd"/>
      <polygon points="41.63 35.18 43.32 35.18 41.96 36.2 42.49 37.82 41.13 36.82 39.77 37.82 40.3 36.2 38.93 35.18 40.62 35.18 41.13 33.59 41.63 35.18" fill="#fc0" fill-rule="evenodd"/>
      <polygon points="41.63 12.45 43.32 12.45 41.96 13.47 42.49 15.09 41.13 14.1 39.77 15.09 40.3 13.47 38.93 12.45 40.62 12.45 41.13 10.87 41.63 12.45" fill="#fc0" fill-rule="evenodd"/>
      <polygon points="46.44 17.26 48.13 17.26 46.77 18.28 47.3 19.91 45.94 18.91 44.58 19.91 45.12 18.28 43.74 17.26 45.43 17.26 45.94 15.68 46.44 17.26" fill="#fc0" fill-rule="evenodd"/>
      <polygon points="46.44 30.43 48.13 30.43 46.77 31.45 47.3 33.07 45.94 32.08 44.58 33.07 45.12 31.45 43.74 30.43 45.43 30.43 45.94 28.85 46.44 30.43" fill="#fc0" fill-rule="evenodd"/>
      <polygon points="48.24 23.75 49.94 23.75 48.58 24.77 49.1 26.39 47.75 25.39 46.39 26.39 46.92 24.77 45.55 23.75 47.23 23.75 47.75 22.16 48.24 23.75" fill="#fc0" fill-rule="evenodd"/>
      <polygon points="28.46 12.47 30.16 12.47 28.79 13.49 29.32 15.11 27.96 14.11 26.6 15.11 27.14 13.49 25.76 12.47 27.45 12.47 27.96 10.88 28.46 12.47" fill="#fc0" fill-rule="evenodd"/>
      <polygon points="23.78 17.28 25.48 17.28 24.11 18.3 24.64 19.92 23.28 18.93 21.92 19.92 22.46 18.3 21.08 17.28 22.77 17.28 23.28 15.7 23.78 17.28" fill="#fc0" fill-rule="evenodd"/>
      <polygon points="22.05 23.76 23.73 23.76 22.38 24.79 22.9 26.41 21.55 25.41 20.19 26.41 20.72 24.79 19.34 23.76 21.03 23.76 21.55 22.18 22.05 23.76" fill="#fc0" fill-rule="evenodd"/>
      <polygon points="23.78 30.45 25.48 30.45 24.11 31.47 24.64 33.09 23.28 32.09 21.92 33.09 22.46 31.47 21.08 30.45 22.77 30.45 23.28 28.86 23.78 30.45" fill="#fc0" fill-rule="evenodd"/>
      <polygon points="28.53 35.19 30.22 35.19 28.86 36.22 29.38 37.84 28.03 36.84 26.67 37.84 27.2 36.22 25.83 35.19 27.52 35.19 28.03 33.61 28.53 35.19" fill="#fc0" fill-rule="evenodd"/>
    </g>
    <path d="M114.39,30.89h0v0" fill="#fff" fill-rule="evenodd"/>
    <path d="M97.25,12.83a28.34,28.34,0,0,1,12.46,4.22l.26.17a28.7,28.7,0,0,0-41.15-6,20.25,20.25,0,0,1,10.7,5.87,28.21,28.21,0,0,1,17.73-4.25" fill="#1f60a9" fill-rule="evenodd"/>
    <path d="M114.92,31.21c0-.09,0-.48,0-.56A27.52,27.52,0,0,0,110,17.22l-.26-.17a28.34,28.34,0,0,0-30.19,0,20.36,20.36,0,0,1,5.6,12.36,20.85,20.85,0,0,1,0,3.62A20.36,20.36,0,0,1,78.24,46.5l0,0a50.46,50.46,0,0,1,32.56-6.05A17.7,17.7,0,0,1,107,42.9a63.3,63.3,0,0,0,7.09-2.75h0a26.37,26.37,0,0,0,.87-8.93" fill-rule="evenodd"/>
    <path d="M114.42,30.56c-3.64-2.46-6.64-3.95-13-4.54a28.41,28.41,0,0,0-13.63,2.1,19.09,19.09,0,0,1-8.11,17.51c11.54-6.63,22-7.52,30.91-6.16.59.09,2.41.4,3.26.63a29.58,29.58,0,0,0,.54-9.54" fill="#fff" fill-rule="evenodd"/>
    <text transform="translate(90.64 52.37)" font-size="5.96" font-family="ArialMT, Arial">Eesti</text>
    <text transform="translate(77.07 58.43)" font-size="5.96" font-family="ArialMT, Arial">tuleviku heaks</text>
    <text transform="translate(19.42 51.42)" font-size="5.96" font-family="ArialMT, Arial">Euroopa Liit</text>
    <text transform="translate(24.06 57.51)" font-size="5.96" font-family="ArialMT, Arial">Euroopa</text>
    <text transform="translate(5 63.6)" font-size="5.96" font-family="ArialMT, Arial">Regionaalarengu Fond</text>
  </g>
</svg>
