<svg xmlns="http://www.w3.org/2000/svg" width="62" height="62.001" viewBox="0 0 62 62.001"><defs><style>.a{fill:none;stroke:#00afab;stroke-linecap:round;stroke-linejoin:round;stroke-width:2px;}</style></defs><g transform="translate(-1177.215 -364.601)"><path class="a" d="M1185.858,398.073a24.8,24.8,0,1,1,.84,6.427" transform="translate(-2.471 -2.471)"/><line class="a" x2="16.552" transform="translate(1189.594 391.463)"/><line class="a" x2="16.552" transform="translate(1189.594 399.739)"/><path class="a" d="M1229.031,394.831h0a12.414,12.414,0,0,0-12.414-12.414h0a12.414,12.414,0,0,0-12.414,12.414v12.414a12.414,12.414,0,0,0,12.414,12.414h0a12.414,12.414,0,0,0,12.414-12.414h0" transform="translate(-8.402 -5.436)"/><path class="a" d="M1213.388,425.148a29.979,29.979,0,1,0-5.173.453" transform="translate(0 0)"/></g></svg>