<svg xmlns="http://www.w3.org/2000/svg" width="62.084" height="62.037" viewBox="0 0 62.084 62.037"><defs><style>.a{fill:none;stroke:#fee901;stroke-linecap:round;stroke-linejoin:round;stroke-width:2px;}</style></defs><g transform="translate(-1488.718 -62.727)"><g transform="translate(1489.76 63.769)"><path class="a" d="M1524.958,123.31a29.994,29.994,0,1,0-5.176.454" transform="translate(-1489.76 -63.769)"/><path class="a" d="M1526.57,111.315h-6.21V98.881h6.21" transform="translate(-1499.652 -75.12)"/><line class="a" x2="4.658" y2="0.006" transform="translate(20.707 29.978)"/><path class="a" d="M1535.655,98.891v8.28a4.14,4.14,0,0,0,8.281,0v-8.28" transform="translate(-1504.598 -75.124)"/><line class="a" x2="0.207" transform="translate(29.919 9.276)"/><line class="a" y1="0.104" x2="0.179" transform="translate(19.582 11.998)"/><line class="a" y1="0.179" x2="0.104" transform="translate(12.043 19.537)"/><line class="a" y1="0.207" transform="translate(9.321 29.874)"/><line class="a" x1="0.104" y1="0.179" transform="translate(12.043 40.239)"/><line class="a" x1="0.179" y1="0.104" transform="translate(19.582 47.854)"/><line class="a" x1="0.207" transform="translate(29.919 50.679)"/><line class="a" x1="0.179" y2="0.104" transform="translate(40.284 47.854)"/><line class="a" x1="0.104" y2="0.179" transform="translate(47.899 40.239)"/><line class="a" y2="0.207" transform="translate(50.724 29.874)"/><line class="a" x2="0.104" y2="0.179" transform="translate(47.899 19.537)"/><line class="a" x2="0.179" y2="0.104" transform="translate(40.284 11.998)"/></g></g></svg>