<svg xmlns="http://www.w3.org/2000/svg" width="62" height="62" viewBox="0 0 62 62"><defs><style>.a{fill:none;stroke:#00afab;stroke-linecap:round;stroke-linejoin:round;stroke-width:2px;}</style></defs><g transform="translate(-1175.195 -238.648)"><path class="a" d="M1200.206,286.141a4.138,4.138,0,1,1,4.137-4.138" transform="translate(-6.425 -12.355)"/><path class="a" d="M1236.894,286.141a4.138,4.138,0,1,1,4.138-4.138" transform="translate(-18.286 -12.355)"/><path class="a" d="M1186.941,279.432h-2.906a24.152,24.152,0,0,0,0,6.155h2.906v8.943a24.834,24.834,0,0,0,18.621,12.606v-6.031h6.207v6.031a24.835,24.835,0,0,0,18.621-12.606" transform="translate(-2.471 -12.862)"/><path class="a" d="M1231.873,275.293h2.906a24.167,24.167,0,0,0,0-6.155h-2.906v-8.943a24.835,24.835,0,0,0-18.621-12.606v6.031h-6.207v-6.031a24.834,24.834,0,0,0-18.621,12.606" transform="translate(-3.953 -2.567)"/><path class="a" d="M1211.367,299.195a29.978,29.978,0,1,0-5.172.453"/></g></svg>