<svg xmlns="http://www.w3.org/2000/svg" width="62" height="62.001" viewBox="0 0 62 62.001"><defs><style>.a{fill:none;stroke:#fee901;stroke-linecap:round;stroke-linejoin:round;stroke-width:2px;}</style></defs><g transform="translate(-1187.705 -493.124)"><path class="a" d="M1221.542,516.585a10.373,10.373,0,1,0-19.039,7.154,1.576,1.576,0,0,1,.17,1.332l-.9,2.712h0" transform="translate(-3.954 -4.448)"/><path class="a" d="M1208.144,536.21a10.326,10.326,0,0,0,3.951,1.458" transform="translate(-6.284 -13.606)"/><path class="a" d="M1241.431,551.47a14.494,14.494,0,1,1,4.623-4.627,2.205,2.205,0,0,0-.237,1.86l1.255,3.788h0" transform="translate(-9.884 -9.885)"/><path class="a" d="M1223.878,553.671a29.979,29.979,0,1,0-5.173.453" transform="translate(0 0)"/></g></svg>