<svg xmlns="http://www.w3.org/2000/svg" width="62" height="62.001" viewBox="0 0 62 62.001"><defs><style>.a{fill:none;stroke:#00afab;stroke-linecap:round;stroke-linejoin:round;stroke-width:2px;}</style></defs><g transform="translate(-899.705 -457.124)"><path class="a" d="M933.744,517.972a29.975,29.975,0,1,1,26.8-26.739"/><path class="a" d="M965.995,486.466c-.651-9.23-3.66-17.155-7.922-21.81" transform="translate(-18.546 -2.112)"/><path class="a" d="M920.1,502.457c0,10.82,3.223,20.3,8.054,25.58" transform="translate(-6.27 -14.332)"/><path class="a" d="M920.1,490.236c0-10.821,3.223-20.3,8.054-25.58" transform="translate(-6.27 -2.112)"/><line class="a" y2="30" transform="translate(930.705 461.228)"/><line class="a" y2="1.034" transform="translate(930.705 512.952)"/><line class="a" x2="30.291" transform="translate(903.517 488.125)"/><line class="a" x2="1.034" transform="translate(955.533 488.125)"/><line class="a" x2="16.94" transform="translate(910.015 504.676)"/><line class="a" x2="41.38" transform="translate(910.015 471.573)"/><path class="a" d="M961.049,532.951a14.471,14.471,0,1,1,5.637-1.138" transform="translate(-14.826 -14.826)"/><line class="a" y1="11.379" transform="translate(946.222 492.263)"/><line class="a" x2="7.241" y2="4.138" transform="translate(946.222 503.642)"/></g></svg>