<svg xmlns="http://www.w3.org/2000/svg" width="50.072" height="50.034" viewBox="0 0 50.072 50.034"><defs><style>.a{fill:none;stroke:#fefefe;stroke-linecap:round;stroke-linejoin:round;stroke-width:2px;}</style></defs><g transform="translate(0.039 -0.004)"><g transform="translate(0.995 1.038)"><path class="a" d="M29.155,48.675a24,24,0,1,0-4.141.363" transform="translate(-0.995 -1.038)"/><path class="a" d="M10.656,18.8H9V37.43a2.07,2.07,0,0,0,2.07,2.07h0a2.07,2.07,0,0,0,2.07-2.07V13H41.395l-.1,26.5H17.281" transform="translate(-2.371 -3.094)"/><line class="a" x2="9.938" transform="translate(24.946 27.297)"/><line class="a" x2="9.938" transform="translate(24.946 23.156)"/><path class="a" d="M43.118,36" transform="translate(-8.235 -7.047)"/><path class="a" d="M31.118,36" transform="translate(-6.172 -7.047)"/><line class="a" x2="9.938" transform="translate(24.946 31.437)"/><path class="a" d="M25.625,34.8V29H19v8.281h6.625" transform="translate(-4.089 -5.844)"/><line class="a" x1="19.875" transform="translate(14.911 14.047)"/><line class="a" x1="14.078" transform="translate(14.911 18.187)"/></g></g></svg>