<svg xmlns="http://www.w3.org/2000/svg" width="264.294" height="264.008" viewBox="0 0 264.294 264.008"><defs><style>.a{fill:none;stroke:#00afab;stroke-linecap:round;stroke-linejoin:round;stroke-width:2px;}</style></defs><g transform="translate(0.002 -37.992)"><path class="a" d="M44.488,193.43"/><path class="a" d="M44.488,193.43A18.008,18.008,0,0,1,31,176V158.783a18,18,0,0,1,18-18h0a18,18,0,0,1,18,18V176a18,18,0,0,1-18,18h0"/><line class="a" y2="57.016" transform="translate(49 157)"/><line class="a" x1="9.221" y2="8.4" transform="translate(49 155.951)"/><line class="a" y1="5.6" x2="13.354" transform="translate(49 171.684)"/><line class="a" x1="13.045" y1="6.8" transform="translate(35.955 164.351)"/><line class="a" x2="89.356" transform="translate(173.644 215)"/><line class="a" x2="149.415" transform="translate(1 215)"/><path class="a" d="M52.9,203.446c6.066-4.283,16.765-2.187,19.412,4.761"/><path class="a" d="M79.7,205.258c4.853-4.109,13.566-2.9,15.662,4.383"/><path class="a" d="M72.967,200.393c2.891-3.074,8.6-1.688,9.527,3.22"/><line class="a" y1="57.296" x2="2.955" transform="translate(143.668 153.912)"/><line class="a" x2="21.334" transform="translate(150.414 168)"/><line class="a" x2="16.507" transform="translate(145.079 185)"/><line class="a" x2="5.789" transform="translate(166.211 185)"/><line class="a" x1="23.916" transform="translate(149.084 202)"/><line class="a" x2="4.812" y2="10.785" transform="translate(155.958 170.803)"/><line class="a" x2="4.246" transform="translate(152.417 172)"/><line class="a" x2="4.246" transform="translate(155.689 180)"/><line class="a" x2="4.055" transform="translate(154.285 176)"/><line class="a" x1="4.685" y2="10.501" transform="translate(151.755 187.939)"/><line class="a" x1="4.246" transform="translate(155.771 189)"/><line class="a" x1="4.246" transform="translate(152.499 197)"/><line class="a" x1="4.055" transform="translate(154.094 193)"/><line class="a" x1="3.402" y2="7.626" transform="translate(151.417 157.113)"/><line class="a" x1="4.246" transform="translate(152.499 163)"/><line class="a" x1="4.055" transform="translate(154.094 159)"/><line class="a" x2="3.137" y2="7.031" transform="translate(155.485 204.916)"/><line class="a" x2="4.246" transform="translate(153.502 210)"/><line class="a" x2="4.055" transform="translate(152.099 206)"/><line class="a" x2="28" transform="translate(147 149.885)"/><path class="a" d="M151,153.913h14.439l1.55,60.1"/><path class="a" d="M170,153.913h5.033l2.954,57.3"/><line class="a" x2="29.426" transform="translate(147.955 141)"/><path class="a" d="M161.536,128.147,164.591,122l14.83,9H141.728l8.749-6.162"/><line class="a" x1="9.867" transform="translate(154.723 122)"/><line class="a" y1="11" transform="translate(144 135)"/><line class="a" y1="11" transform="translate(178 135)"/><line class="a" y1="2.411" transform="translate(163 135.251)"/><line class="a" y1="4.694" transform="translate(163 141)"/><line class="a" x2="46.263" y2="22.106" transform="translate(145.171 249.349)"/><path class="a" d="M170.631,220,145,239.377v6.534"/><path class="a" d="M137,239.624v-1.96l22.944-17.344"/><path class="a" d="M172.118,269.066l-34.983-16.717v-9.282"/><path class="a" d="M165,229h4v-2"/><path class="a" d="M157,235h4v-2"/><path class="a" d="M149,241h4v-2"/><path class="a" d="M146,261h-4v-2"/><path class="a" d="M156,266h-4v-2"/><path class="a" d="M167,271h-4v-2"/><line class="a" x2="37.194" y2="17.772" transform="translate(194.793 272.967)"/><line class="a" x1="41.973" y1="20.056" transform="translate(179.874 272.564)"/><path class="a" d="M195,285h-4v-2"/><path class="a" d="M185,279h-4v-2"/><path class="a" d="M217,295h-4v-2"/><path class="a" d="M263,237H240.8c-6.616,0-7.24,5-7.24,5h-8.9c-5.012,0-6.114,1.96-6.566,4h-6.721a4.168,4.168,0,0,0-4.059,4.276,4.119,4.119,0,0,0,.089.758c.559,2.784,3.331,3.966,5.765,3.966h13.76c.483,2.286,1.663,4,4.291,4h5.861a2.408,2.408,0,0,1,2.677,2.105c.009.075.014.151.016.226h0A2.672,2.672,0,0,0,242.449,264H263"/><path class="a" d="M181.414,251H193.54a2.485,2.485,0,0,0,2.443-3.525c-.628-1.33-1.9-1.475-3.566-1.475H191a2,2,0,0,1-2-2h0a2,2,0,0,0-2-2H176.542c-1.657,0-2.95,1.067-3.542,3-.4,1.709.343,3,2,3h2.184"/><line class="a" x2="41.283" transform="translate(52.897 251)"/><line class="a" x2="9.068" transform="translate(102.259 251)"/><line class="a" x2="24.565" transform="translate(91.542 238)"/><line class="a" x1="5.77" transform="translate(78.847 238)"/><line class="a" x2="30.006" transform="translate(101.269 230)"/><line class="a" x1="9.563" transform="translate(118.91 220)"/><line class="a" x1="16.487" transform="translate(96.323 220)"/><line class="a" x1="7.996" transform="translate(81.732 220)"/><line class="a" x1="6.441" transform="translate(62.514 220)"/><line class="a" x1="13.673" transform="translate(53.565 242)"/><line class="a" x1="6.564" transform="translate(39.551 242)"/><line class="a" x1="6.244" transform="translate(251.919 225)"/><line class="a" x1="3.462" transform="translate(244.314 225)"/><line class="a" x1="8.429" transform="translate(243.489 231)"/><line class="a" x1="13.437" transform="translate(224.859 231)"/><line class="a" x1="5.035" transform="translate(213.997 231)"/><line class="a" x2="16.431" transform="translate(72.485 261)"/><line class="a" x2="4.781" transform="translate(93.727 261)"/><line class="a" x2="9.48" transform="translate(86.638 266)"/><line class="a" x2="14.344" transform="translate(108.565 262)"/><line class="a" x2="4.77" transform="translate(34.109 294)"/><line class="a" x2="1.218" transform="translate(42.93 294)"/><line class="a" x2="10.461" transform="translate(29.688 285)"/><line class="a" x2="5.065" transform="translate(46.567 285)"/><line class="a" x2="26.962" transform="translate(54.709 290)"/><line class="a" x2="1.927" transform="translate(88.953 290)"/><line class="a" x2="10.704" transform="translate(248.172 253)"/><line class="a" x2="10.704" transform="translate(217.234 250)"/><line class="a" x2="1.32" transform="translate(243.758 253)"/><line class="a" x2="2.513" transform="translate(255.049 247)"/><line class="a" x2="3.841" transform="translate(238.296 242)"/><line class="a" x2="15.567" transform="translate(246.019 242)"/><path class="a" d="M221,138.957h-9.149A7.728,7.728,0,0,1,204.156,134h-7.528c-2.6,0-4.193-1.8-3.8-4.2.467-2.869,2.268-3.8,6.939-3.8,0-5.538,1.668-7,7.535-7a4.9,4.9,0,0,1,5.2-4h6.07c2.61,0,3.793.479,4.393,2.213,5.153,0,7.855,1.451,9.155,5.787h2.508c4.584,0,7.395,2.01,6.916,5.739-.471,3.661-4.221,5.261-10.183,5.261a5.342,5.342,0,0,1-5.311,5"/><path class="a" d="M211.937,157.039h1.846a2.284,2.284,0,0,0,2.154-2.369,2.574,2.574,0,0,0-2.761-2.371l-.038,0h-2.154c-.753-2.153-2.368-4.3-4.844-4.3h-11.2c-3.014,0-3.337,1.816-3.014,3h-4.2c-2.153,0-4.629,1.733-4.413,3.886s1.937,3.23,3.983,3.23S191,158,191,158c0,2.153,1.36,4,4.267,4h3.768c2.368,0,3.122-.385,3.337-2h5.275"/><path class="a" d="M232.139,183h7.748a2.323,2.323,0,0,0,2.493-3h.431c1.78,0,4.436.057,4.871-2.1.354-1.753-.778-3-2.959-3h-1.631c0-1.78-1.069-2.9-3.472-2.9h-3.7c-1.958,0-2.581.665-2.759,2h-2.266a2.8,2.8,0,0,0-3.027,2h-1.7a1.7,1.7,0,0,0-1.779,1.623c0,.043,0,.085,0,.128a2.129,2.129,0,0,0,2.283,1.961l.031,0h1.436"/><path class="a" d="M213.753,172.4a1.746,1.746,0,0,0-1.869-1.611c-.58-1.225-1.353-2.32-4-2.32A2.569,2.569,0,0,0,205.5,167h-6.252c-1.418,0-2.771,1.021-2.771,3.148h-3.61a2.309,2.309,0,0,0-2.563,2.023,2.46,2.46,0,0,0-.015.3,2.283,2.283,0,0,0,2.256,2.256h2.191c.9,1.611,1.38,2.071,2.836,2.256,1.407.179,2.707.18,3.674-.98h5.35c1.354,0,1.869-1.211,2.063-2.178"/><path class="a" d="M232.588,159.525H235.8c1.039,1.385,1.99,1.475,4.154,1.475h7.269a5.812,5.812,0,0,0,5.625-5c3.578,0,5.014-1.779,4.04-3.882-.994-2.144-3.23-3.118-7.848-3.118a4.5,4.5,0,0,0-4.612-3H236.67c-3.894,0-4.759,2.442-5.1,4-2.772,0-5.182.119-5.885,2.948a3.759,3.759,0,0,0,.491,3.021"/><path class="a" d="M221,211.285V130.573l-4.4-6.928"/><path class="a" d="M221,163.091l-11.884-7.936h-6.473"/><path class="a" d="M221,157.123l15.526-3.462,4.849,1.731"/><line class="a" y1="2.101" x2="3.641" transform="translate(236.525 151.561)"/><line class="a" x1="9.504" y1="5.887" transform="translate(208.662 173.822)"/><line class="a" y1="4.255" x2="7.133" transform="translate(221.513 179.709)"/><line class="a" y1="2.933" x2="5.917" transform="translate(221 130.624)"/><line class="a" x1="8.445" y1="4.551" transform="translate(212.555 130.624)"/><path class="a" d="M106,163.609c-3.556,0-4.319-1.3-4.319-3.767H97.245c-2.032,0-3.7-.452-4.373-2.624a2.731,2.731,0,0,1,2.746-3.678c0-4.326,1.3-5.9,5.886-5.9.42-2.075,2.032-2.879,4.064-2.879h4.741c2.039,0,2.964.508,3.433,1.863,4.024,0,6.135.931,7.151,4.318,3.72,0,5.284,1.176,5.705,3.569.363,2.067-.9,5.33-6.3,5.33a4.056,4.056,0,0,1-4.148,3.767H110"/><path class="a" d="M110,163.609"/><path class="a" d="M119.617,174.23c0,1.548.928,2.77,3.018,2.77h2.709a2.067,2.067,0,0,0,2.373-1.708,2.2,2.2,0,0,0,.026-.292h3.793c1.083,0,2.244.393,2.631-1h1.78c.774,0,1.548-1.241,1.548-2.247A1.888,1.888,0,0,0,135.483,170h-1.548c-.542-1.548-1.7-3-3.483-3H122.4a2.3,2.3,0,0,0-2.167,3h-3.019c-1.548,0-3.328.36-3.173,1.908"/><path class="a" d="M104.352,186.241h-1.173A3.11,3.11,0,0,0,100,184H96.676c-1.328,0-2.174.384-2.3,1.344h-.618a2.018,2.018,0,0,0-2.108,1.535h-.64a1.358,1.358,0,0,0-1.28,1.408,1.53,1.53,0,0,0,1.642,1.41l.022,0h1.032A3.074,3.074,0,0,0,95.3,192h4.2a2.236,2.236,0,0,0,2.45-1.92h.936"/><path class="a" d="M102.838,173.876c2.573,0,3.605-1.138,2.9-2.649-.714-1.542-2.322-1.227-5.642-1.227-.551-1.412-1.636-3-3.316-3H91.2c-2.8,0-3.422,1.34-3.671,2.459-1.992,0-3.725.33-4.23,2.364a2.663,2.663,0,0,0,1.87,3.268,2.713,2.713,0,0,0,.626.092c.56,1.306,1.724.817,2.47.817h2.313c.747.995,1.431,2,2.986,2h5.226"/><path class="a" d="M110,211V159.147l1.614-7.318"/><line class="a" x1="7.162" y1="5.839" transform="translate(102.838 173.876)"/><line class="a" y1="2.151" x2="9.617" transform="translate(110 174.23)"/><line class="a" x1="7.112" y1="2.856" transform="translate(102.888 190.08)"/><line class="a" y1="3.059" x2="5.128" transform="translate(110.45 191.407)"/><line class="a" x1="5.621" y1="3.029" transform="translate(104.379 156.118)"/><path class="a" d="M15.566,87.051c-1.45-2.547-5.208-3.4-8.222-2.341a8.124,8.124,0,0,0-5.291,8.734c.5,4.733,3.309,7.556,9.3,7.556H45.542"/><line class="a" x2="16.71" transform="translate(50.729 101)"/><path class="a" d="M71.8,101h2.324a2.778,2.778,0,0,0,2.886-2.665V98.3a2.926,2.926,0,0,0-2.354-2.973,3.284,3.284,0,0,0-3.4,1.21,7.449,7.449,0,0,0-2.178-7.941,6.872,6.872,0,0,0-7.555-.755"/><path class="a" d="M59.084,91.028c-1.467-6.861-10.242-12.046-17.342-7.659-.559-8.615-5.55-12.858-12.6-13.323-7.265-.478-13.647,2.713-16.439,11.01"/><path class="a" d="M258.848,65c3.369,0,4.921-3.183,3.781-6.241-1.321-3.545-6.969-5.133-10.609.25-2.621-9.125-15.227-12.856-22.083-6.924"/><path class="a" d="M183,56.388c-3.869-5.867-12.289-7.2-16.476-3C163.28,56.646,162.154,65,170.516,65h81.13"/><path class="a" d="M228.43,58.135c-.439-7.447-10.943-10.912-16.6-6.865A14.168,14.168,0,0,0,197.347,39c-8.662,0-13.1,4.912-14.6,11.147"/><path class="a" d="M110.669,136.591a5.693,5.693,0,0,0-8.914-4.276c-4.033-6.647-12.288-5.3-16.17-.377-5.259-4.45-13.755-.809-15.09,5.921-3.008-2.37-6.7-1.164-7.305,1.633"/><path class="a" d="M114.612,140.7c3.953-5.93,14.266-4.727,16.5,1.607,3.094-2.295,6.875-.19,7.391,2.238"/><path class="a" d="M198.918,193.771c-1.023-5.922,5.148-9.882,10.348-7.115a4.763,4.763,0,0,1,7.891-2.587"/><path class="a" d="M224.286,189.2c2.855-2.486,8.289-.184,8.2,3.96a5.085,5.085,0,0,1,6.632,5.066"/><path class="a" d="M229.407,205.767c.909-2.362,5.995-3.27,8.539-1.272,1.453-3.633,9.265-5.995,12.353-1.635"/><path class="a" d="M244.57,207.524c1.409-2.817,7.513-2.23,8.452,1.644,1.409-1.879,4.93-1.292,5.165.47,1.761-1.527,4.226-.822,4.813.7"/><path class="a" d="M14.872,301c-8.642,0-13.464-.975-13.848-5.8-.376-4.733,3.644-7.2,9.911-7.2.8-3.409,2.51-5,7.928-5,4.786,0,5.711-1.671,5.113-3.629-.527-1.723-2.339-2.371-5.645-2.371H11.37c-3.578,0-5.617-2.822-3.525-5.35,1.287-1.556,3.433-2.65,8.7-2.65h18.9c5.077,0,7.252,1.664,7.832,5,5.221,0,8.267,1.649,10.008,6H106.8c6.672,0,8.412,5.481,7.542,8.817S109.123,295,104.482,295H97.375c-1.015,3.626-2.466,6-8.7,6H20.681"/><line class="a" x2="13.481" transform="translate(130.889 296)"/><line class="a" x1="12.57" transform="translate(3.848 222)"/><line class="a" x1="10.329" transform="translate(1 260)"/><line class="a" x1="10.329" transform="translate(20.682 260)"/><line class="a" y1="24.011" transform="translate(16 235.812)"/><line class="a" y1="3.1" x2="5" transform="translate(16 241)"/><path class="a" d="M20,254.323c5.026-1.969,5.934-6.721,5.486-13.166-.407-5.845-3.6-8.085-6.042-8.357-.883-4.074-3.216-5.866-5.432-5.3-2.377.611-3.754,3.583-2.9,6.776-3.438,2.456-4.789,7.481-3.684,11.845-2.1,3.682.552,7.824,3.806,8.956"/><path class="a" d="M133.523,290.94c-2.951-.977-4.771-4.5-4.469-7.45a10.543,10.543,0,0,1,5.1-7.292c1.863-.81-.081-11.91,2.35-13.125s4.051,3.889,3.4,6.32c2.268,1.7,2.917,4.132,2.268,5.671,2.026.81,2.755,2.755,2.188,3.889,1.539,2.107,2.512,6.644.4,8.1a4.039,4.039,0,0,1-2.772,4.25"/><path class="a" d="M138,282.791V292l-2.269-4.266"/><path class="a" d="M59.467,236.432"/><path class="a" d="M59.467,236H34.021c-5.19,0-4.964-1.091-5.436-1.818C28.2,233.592,27.724,232,32,232h5.078c1.038-2.909,4.152-3,6.323-3h6.133c.661-1.636,2.076-3,5.19-3H66.048c4.836,0,7.056,1.359,6.8,3,3.824,0,5.683.515,5.321,2.6-.335,1.94-2.84,2.4-6.831,2.4-.849,1.091-1.7,2-4.813,2"/><path class="a" d="M25.635,182c-3.307-.683-5.812,1.374-6.112,4.935-6.889-2.6-12.33,2.687-10.753,9.17-5.077,2.252-7.313,9.25-2.008,13.5"/><path class="a" d="M20.278,210.216l1.568-2.823a2.389,2.389,0,0,1,2.463-1.2l3.746.6a2.387,2.387,0,0,1,1.772,1.315l1.041,2.143"/></g></svg>