<svg xmlns="http://www.w3.org/2000/svg" width="50" height="50" viewBox="0 0 50 50"><defs><style>.a{fill:none;stroke:#fee901;stroke-linecap:round;stroke-linejoin:round;stroke-width:2px;}</style></defs><g transform="translate(-0.016 -0.016)"><g transform="translate(1.016 1.016)"><path class="a" d="M29.154,48.652a23.978,23.978,0,1,0-4.138.364" transform="translate(-1.016 -1.016)"/></g><g transform="translate(6.799 6.021)"><line class="a" y1="2.181" x2="8.117" transform="translate(21.529 15.671)"/><line class="a" x2="6.343" y2="3.203" transform="translate(19.873 28.932)"/><path class="a" d="M23.4,27v7.452l-2.9,2.9" transform="translate(-10.149 -10.489)"/><path class="a" d="M28,15.092A22.819,22.819,0,0,1,35.532,14" transform="translate(-11.439 -8.253)"/><path class="a" d="M33.334,18a3.545,3.545,0,0,0-1.263.186" transform="translate(-12.139 -8.941)"/><path class="a" d="M25,46.342V43.651c0-1.035.828-1.863,2.484-1.863h4.968c1.905,0,2.784-.373,4.687-2.593s4.317-11.206,4.387-14.27c.035-1.56-2.242-3.63-4.757-6.924-.952-1.246.37-3.079.815-4.1.409-.941-.185-6.839-.185-6.839" transform="translate(-10.923 -7.06)"/><path class="a" d="M8,38l8.28,3.312,8.28,5.8" transform="translate(-8 -12.38)"/><path class="a" d="M8,23.86l13.249,2.277,13.716-4.156" transform="translate(-8 -9.626)"/></g></g></svg>