<svg xmlns="http://www.w3.org/2000/svg" width="50" height="50" viewBox="0 0 50 50"><defs><style>.a{fill:none;stroke:#fee901;stroke-linecap:round;stroke-linejoin:round;stroke-width:2px;}</style></defs><g transform="translate(-0.016 -0.016)"><g transform="translate(1.016 1.016)"><path class="a" d="M29.154,48.652a23.978,23.978,0,1,0-4.138.364" transform="translate(-1.016 -1.016)"/></g><g transform="translate(8.103 8.208)"><path class="a" d="M38.951,32.044c-2.2,3.426-4.707,7.5-4.707,7.5" transform="translate(-13.817 -13.544)"/><path class="a" d="M28.818,35.706H24.358s-3.106-5.061-5.445-8.642a12.131,12.131,0,0,1-.563-11.6A10.549,10.549,0,0,1,27.826,9.7h0a10.554,10.554,0,0,1,9.48,5.762,8.055,8.055,0,0,1,.537,1.206" transform="translate(-10.876 -9.702)"/><path class="a" d="M25.235,15.479A10.819,10.819,0,0,0,22.909,22.4a20.109,20.109,0,0,0,1.8,6.343L28.08,36.7" transform="translate(-11.867 -10.695)"/><path class="a" d="M25.742,45.154l.828,4.7h5.479l.828-4.7H28.232" transform="translate(-12.355 -15.798)"/><path class="a" d="M15.123,31.068a2.722,2.722,0,0,0-.556.417,3.812,3.812,0,0,0-.879,3.2c-1.322-2.406-3.957-1.5-4.1.515A2.139,2.139,0,0,0,11.8,37.619h7.64" transform="translate(-9.575 -13.376)"/><path class="a" d="M43.617,27.839H32.335c-1.875,0-3.04-.986-2.916-2.488.151-1.833,2.057-2.7,3.849-1.733-.221-4.178,6.5-5.348,7.641-1.016a2.738,2.738,0,0,1,4.218,2.632,1.848,1.848,0,0,1,2.993-.069c.692.91.185,2.674-1.167,2.674" transform="translate(-12.986 -11.45)"/></g></g></svg>