<svg xmlns="http://www.w3.org/2000/svg" width="50.072" height="50.034" viewBox="0 0 50.072 50.034"><defs><style>.a{fill:none;stroke:#fee901;stroke-linecap:round;stroke-linejoin:round;stroke-width:2px;}</style></defs><g transform="translate(0.039 -0.004)"><g transform="translate(0.995 1.038)"><path class="a" d="M34.188,33.7V25.421h-3.42a6.625,6.625,0,1,0-9.3-8.393,5.792,5.792,0,1,0-7.644,8.393H11V37.015H34.188M19.771,25.421a5.825,5.825,0,0,0,2.171-2.3,6.668,6.668,0,0,0,2.427,2.3" transform="translate(-2.714 -3.093)"/><path class="a" d="M43,35.453l5.8,2.484V28L43,30.484v1.656" transform="translate(-8.214 -5.672)"/><path class="a" d="M29.155,48.675a24,24,0,1,0-4.141.363" transform="translate(-0.995 -1.038)"/></g></g></svg>