<svg xmlns="http://www.w3.org/2000/svg" width="50.072" height="50.034" viewBox="0 0 50.072 50.034"><defs><style>.a{fill:none;stroke:#fee901;stroke-linecap:round;stroke-linejoin:round;stroke-width:2px;}</style></defs><g transform="translate(0.039 -0.004)"><g transform="translate(0.995 1.038)"><path class="a" d="M29.155,48.675a24,24,0,1,0-4.141.363" transform="translate(-0.995 -1.038)"/><path class="a" d="M40.5,13V41.156H14V13H37.188" transform="translate(-3.23 -3.094)"/><line class="a" y2="0.828" transform="translate(16.567 13.219)"/><line class="a" y2="0.828" transform="translate(31.473 13.219)"/><path class="a" d="M22,28h6.625l-4.141,4.141h.828a3.313,3.313,0,0,1,3.313,3.313h0a3.313,3.313,0,0,1-3.313,3.313h0A3.313,3.313,0,0,1,22,35.453h0" transform="translate(-4.605 -5.672)"/><path class="a" d="M34,31.313,37.313,28V38.766" transform="translate(-6.668 -5.672)"/><line class="a" x2="23.188" transform="translate(14.082 17.359)"/></g></g></svg>